G04 EAGLE Gerber RS-274X export*
G75*
%MOMM*%
%FSLAX34Y34*%
%LPD*%
%INSolderpaste Top*%
%IPPOS*%
%AMOC8*
5,1,8,0,0,1.08239X$1,22.5*%
G01*
%ADD10R,1.100000X1.000000*%
%ADD11C,0.300000*%
%ADD12R,2.000000X1.200000*%
%ADD13R,1.350000X0.600000*%
%ADD14R,0.600000X1.200000*%
%ADD15R,1.000000X1.100000*%


D10*
X143900Y152400D03*
X160900Y152400D03*
D11*
X233870Y148900D02*
X233870Y155900D01*
X240870Y155900D01*
X240870Y148900D01*
X233870Y148900D01*
X233870Y151750D02*
X240870Y151750D01*
X240870Y154600D02*
X233870Y154600D01*
X216330Y155900D02*
X216330Y148900D01*
X216330Y155900D02*
X223330Y155900D01*
X223330Y148900D01*
X216330Y148900D01*
X216330Y151750D02*
X223330Y151750D01*
X223330Y154600D02*
X216330Y154600D01*
D12*
X290750Y73600D03*
X290750Y129600D03*
D13*
X254000Y86600D03*
X254000Y96600D03*
X254000Y106600D03*
X254000Y116600D03*
D12*
X14050Y129600D03*
X14050Y73600D03*
D13*
X50800Y116600D03*
X50800Y106600D03*
X50800Y96600D03*
X50800Y86600D03*
D10*
X110100Y101600D03*
X93100Y101600D03*
X93100Y76200D03*
X110100Y76200D03*
X211700Y101600D03*
X194700Y101600D03*
D14*
X171450Y129600D03*
X158750Y129600D03*
X146050Y129600D03*
X133350Y129600D03*
X133350Y73600D03*
X146050Y73600D03*
X158750Y73600D03*
X171450Y73600D03*
D15*
X63500Y59300D03*
X63500Y42300D03*
D10*
X194700Y76200D03*
X211700Y76200D03*
X458708Y152400D03*
X475708Y152400D03*
D11*
X548678Y148900D02*
X548678Y155900D01*
X555678Y155900D01*
X555678Y148900D01*
X548678Y148900D01*
X548678Y151750D02*
X555678Y151750D01*
X555678Y154600D02*
X548678Y154600D01*
X531138Y155900D02*
X531138Y148900D01*
X531138Y155900D02*
X538138Y155900D01*
X538138Y148900D01*
X531138Y148900D01*
X531138Y151750D02*
X538138Y151750D01*
X538138Y154600D02*
X531138Y154600D01*
D12*
X605558Y73600D03*
X605558Y129600D03*
D13*
X568808Y86600D03*
X568808Y96600D03*
X568808Y106600D03*
X568808Y116600D03*
D12*
X328858Y129600D03*
X328858Y73600D03*
D13*
X365608Y116600D03*
X365608Y106600D03*
X365608Y96600D03*
X365608Y86600D03*
D10*
X424908Y101600D03*
X407908Y101600D03*
X407908Y76200D03*
X424908Y76200D03*
X526508Y101600D03*
X509508Y101600D03*
D14*
X486258Y129600D03*
X473558Y129600D03*
X460858Y129600D03*
X448158Y129600D03*
X448158Y73600D03*
X460858Y73600D03*
X473558Y73600D03*
X486258Y73600D03*
D15*
X378308Y59300D03*
X378308Y42300D03*
D10*
X509508Y76200D03*
X526508Y76200D03*
X773490Y152400D03*
X790490Y152400D03*
D11*
X863460Y148900D02*
X863460Y155900D01*
X870460Y155900D01*
X870460Y148900D01*
X863460Y148900D01*
X863460Y151750D02*
X870460Y151750D01*
X870460Y154600D02*
X863460Y154600D01*
X845920Y155900D02*
X845920Y148900D01*
X845920Y155900D02*
X852920Y155900D01*
X852920Y148900D01*
X845920Y148900D01*
X845920Y151750D02*
X852920Y151750D01*
X852920Y154600D02*
X845920Y154600D01*
D12*
X920340Y73600D03*
X920340Y129600D03*
D13*
X883590Y86600D03*
X883590Y96600D03*
X883590Y106600D03*
X883590Y116600D03*
D12*
X643640Y129600D03*
X643640Y73600D03*
D13*
X680390Y116600D03*
X680390Y106600D03*
X680390Y96600D03*
X680390Y86600D03*
D10*
X739690Y101600D03*
X722690Y101600D03*
X722690Y76200D03*
X739690Y76200D03*
X841290Y101600D03*
X824290Y101600D03*
D14*
X801040Y129600D03*
X788340Y129600D03*
X775640Y129600D03*
X762940Y129600D03*
X762940Y73600D03*
X775640Y73600D03*
X788340Y73600D03*
X801040Y73600D03*
D15*
X693090Y59300D03*
X693090Y42300D03*
D10*
X824290Y76200D03*
X841290Y76200D03*
X143900Y606908D03*
X160900Y606908D03*
D11*
X233870Y603408D02*
X233870Y610408D01*
X240870Y610408D01*
X240870Y603408D01*
X233870Y603408D01*
X233870Y606258D02*
X240870Y606258D01*
X240870Y609108D02*
X233870Y609108D01*
X216330Y610408D02*
X216330Y603408D01*
X216330Y610408D02*
X223330Y610408D01*
X223330Y603408D01*
X216330Y603408D01*
X216330Y606258D02*
X223330Y606258D01*
X223330Y609108D02*
X216330Y609108D01*
D12*
X290750Y528108D03*
X290750Y584108D03*
D13*
X254000Y541108D03*
X254000Y551108D03*
X254000Y561108D03*
X254000Y571108D03*
D12*
X14050Y584108D03*
X14050Y528108D03*
D13*
X50800Y571108D03*
X50800Y561108D03*
X50800Y551108D03*
X50800Y541108D03*
D10*
X110100Y556108D03*
X93100Y556108D03*
X93100Y530708D03*
X110100Y530708D03*
X211700Y556108D03*
X194700Y556108D03*
D14*
X171450Y584108D03*
X158750Y584108D03*
X146050Y584108D03*
X133350Y584108D03*
X133350Y528108D03*
X146050Y528108D03*
X158750Y528108D03*
X171450Y528108D03*
D15*
X63500Y513808D03*
X63500Y496808D03*
D10*
X194700Y530708D03*
X211700Y530708D03*
X458708Y606908D03*
X475708Y606908D03*
D11*
X548678Y603408D02*
X548678Y610408D01*
X555678Y610408D01*
X555678Y603408D01*
X548678Y603408D01*
X548678Y606258D02*
X555678Y606258D01*
X555678Y609108D02*
X548678Y609108D01*
X531138Y610408D02*
X531138Y603408D01*
X531138Y610408D02*
X538138Y610408D01*
X538138Y603408D01*
X531138Y603408D01*
X531138Y606258D02*
X538138Y606258D01*
X538138Y609108D02*
X531138Y609108D01*
D12*
X605558Y528108D03*
X605558Y584108D03*
D13*
X568808Y541108D03*
X568808Y551108D03*
X568808Y561108D03*
X568808Y571108D03*
D12*
X328858Y584108D03*
X328858Y528108D03*
D13*
X365608Y571108D03*
X365608Y561108D03*
X365608Y551108D03*
X365608Y541108D03*
D10*
X424908Y556108D03*
X407908Y556108D03*
X407908Y530708D03*
X424908Y530708D03*
X526508Y556108D03*
X509508Y556108D03*
D14*
X486258Y584108D03*
X473558Y584108D03*
X460858Y584108D03*
X448158Y584108D03*
X448158Y528108D03*
X460858Y528108D03*
X473558Y528108D03*
X486258Y528108D03*
D15*
X378308Y513808D03*
X378308Y496808D03*
D10*
X509508Y530708D03*
X526508Y530708D03*
X773490Y606908D03*
X790490Y606908D03*
D11*
X863460Y603408D02*
X863460Y610408D01*
X870460Y610408D01*
X870460Y603408D01*
X863460Y603408D01*
X863460Y606258D02*
X870460Y606258D01*
X870460Y609108D02*
X863460Y609108D01*
X845920Y610408D02*
X845920Y603408D01*
X845920Y610408D02*
X852920Y610408D01*
X852920Y603408D01*
X845920Y603408D01*
X845920Y606258D02*
X852920Y606258D01*
X852920Y609108D02*
X845920Y609108D01*
D12*
X920340Y528108D03*
X920340Y584108D03*
D13*
X883590Y541108D03*
X883590Y551108D03*
X883590Y561108D03*
X883590Y571108D03*
D12*
X643640Y584108D03*
X643640Y528108D03*
D13*
X680390Y571108D03*
X680390Y561108D03*
X680390Y551108D03*
X680390Y541108D03*
D10*
X739690Y556108D03*
X722690Y556108D03*
X722690Y530708D03*
X739690Y530708D03*
X841290Y556108D03*
X824290Y556108D03*
D14*
X801040Y584108D03*
X788340Y584108D03*
X775640Y584108D03*
X762940Y584108D03*
X762940Y528108D03*
X775640Y528108D03*
X788340Y528108D03*
X801040Y528108D03*
D15*
X693090Y513808D03*
X693090Y496808D03*
D10*
X824290Y530708D03*
X841290Y530708D03*
M02*
