G04 EAGLE Gerber RS-274X export*
G75*
%MOMM*%
%FSLAX34Y34*%
%LPD*%
%INSoldermask Top*%
%IPPOS*%
%AMOC8*
5,1,8,0,0,1.08239X$1,22.5*%
G01*
%ADD10R,1.303200X1.203200*%
%ADD11C,0.505344*%
%ADD12R,2.203200X1.403200*%
%ADD13R,1.553200X0.803200*%
%ADD14R,0.803200X1.403200*%
%ADD15R,1.203200X1.303200*%
%ADD16C,2.082800*%
%ADD17C,1.203200*%
%ADD18C,3.505200*%
%ADD19C,1.270000*%
%ADD20C,1.703200*%


D10*
X143900Y152400D03*
X160900Y152400D03*
D11*
X233880Y148910D02*
X233880Y155890D01*
X240860Y155890D01*
X240860Y148910D01*
X233880Y148910D01*
X233880Y153710D02*
X240860Y153710D01*
X216340Y155890D02*
X216340Y148910D01*
X216340Y155890D02*
X223320Y155890D01*
X223320Y148910D01*
X216340Y148910D01*
X216340Y153710D02*
X223320Y153710D01*
D12*
X290750Y73600D03*
X290750Y129600D03*
D13*
X254000Y86600D03*
X254000Y96600D03*
X254000Y106600D03*
X254000Y116600D03*
D12*
X14050Y129600D03*
X14050Y73600D03*
D13*
X50800Y116600D03*
X50800Y106600D03*
X50800Y96600D03*
X50800Y86600D03*
D10*
X110100Y101600D03*
X93100Y101600D03*
X93100Y76200D03*
X110100Y76200D03*
X211700Y101600D03*
X194700Y101600D03*
D14*
X171450Y129600D03*
X158750Y129600D03*
X146050Y129600D03*
X133350Y129600D03*
X133350Y73600D03*
X146050Y73600D03*
X158750Y73600D03*
X171450Y73600D03*
D15*
X63500Y59300D03*
X63500Y42300D03*
D16*
X88900Y12700D03*
X114300Y12700D03*
X139700Y12700D03*
X165100Y12700D03*
X190500Y12700D03*
X215900Y12700D03*
D10*
X194700Y76200D03*
X211700Y76200D03*
D17*
X7620Y436880D03*
X297180Y7620D03*
D18*
X25400Y419100D03*
X279400Y419100D03*
X25400Y25400D03*
X279400Y25400D03*
D10*
X453780Y152400D03*
X470780Y152400D03*
D11*
X543760Y148910D02*
X543760Y155890D01*
X550740Y155890D01*
X550740Y148910D01*
X543760Y148910D01*
X543760Y153710D02*
X550740Y153710D01*
X526220Y155890D02*
X526220Y148910D01*
X526220Y155890D02*
X533200Y155890D01*
X533200Y148910D01*
X526220Y148910D01*
X526220Y153710D02*
X533200Y153710D01*
D12*
X600630Y73600D03*
X600630Y129600D03*
D13*
X563880Y86600D03*
X563880Y96600D03*
X563880Y106600D03*
X563880Y116600D03*
D12*
X323930Y129600D03*
X323930Y73600D03*
D13*
X360680Y116600D03*
X360680Y106600D03*
X360680Y96600D03*
X360680Y86600D03*
D10*
X419980Y101600D03*
X402980Y101600D03*
X402980Y76200D03*
X419980Y76200D03*
X521580Y101600D03*
X504580Y101600D03*
D14*
X481330Y129600D03*
X468630Y129600D03*
X455930Y129600D03*
X443230Y129600D03*
X443230Y73600D03*
X455930Y73600D03*
X468630Y73600D03*
X481330Y73600D03*
D15*
X373380Y59300D03*
X373380Y42300D03*
D16*
X398780Y12700D03*
X424180Y12700D03*
X449580Y12700D03*
X474980Y12700D03*
X500380Y12700D03*
X525780Y12700D03*
D10*
X504580Y76200D03*
X521580Y76200D03*
D17*
X317500Y436880D03*
X607060Y7620D03*
D18*
X335280Y419100D03*
X589280Y419100D03*
X335280Y25400D03*
X589280Y25400D03*
D10*
X763660Y152400D03*
X780660Y152400D03*
D11*
X853640Y148910D02*
X853640Y155890D01*
X860620Y155890D01*
X860620Y148910D01*
X853640Y148910D01*
X853640Y153710D02*
X860620Y153710D01*
X836100Y155890D02*
X836100Y148910D01*
X836100Y155890D02*
X843080Y155890D01*
X843080Y148910D01*
X836100Y148910D01*
X836100Y153710D02*
X843080Y153710D01*
D12*
X910510Y73600D03*
X910510Y129600D03*
D13*
X873760Y86600D03*
X873760Y96600D03*
X873760Y106600D03*
X873760Y116600D03*
D12*
X633810Y129600D03*
X633810Y73600D03*
D13*
X670560Y116600D03*
X670560Y106600D03*
X670560Y96600D03*
X670560Y86600D03*
D10*
X729860Y101600D03*
X712860Y101600D03*
X712860Y76200D03*
X729860Y76200D03*
X831460Y101600D03*
X814460Y101600D03*
D14*
X791210Y129600D03*
X778510Y129600D03*
X765810Y129600D03*
X753110Y129600D03*
X753110Y73600D03*
X765810Y73600D03*
X778510Y73600D03*
X791210Y73600D03*
D15*
X683260Y59300D03*
X683260Y42300D03*
D16*
X708660Y12700D03*
X734060Y12700D03*
X759460Y12700D03*
X784860Y12700D03*
X810260Y12700D03*
X835660Y12700D03*
D10*
X814460Y76200D03*
X831460Y76200D03*
D17*
X627380Y436880D03*
X916940Y7620D03*
D18*
X645160Y419100D03*
X899160Y419100D03*
X645160Y25400D03*
X899160Y25400D03*
D10*
X143900Y601980D03*
X160900Y601980D03*
D11*
X233880Y598490D02*
X233880Y605470D01*
X240860Y605470D01*
X240860Y598490D01*
X233880Y598490D01*
X233880Y603290D02*
X240860Y603290D01*
X216340Y605470D02*
X216340Y598490D01*
X216340Y605470D02*
X223320Y605470D01*
X223320Y598490D01*
X216340Y598490D01*
X216340Y603290D02*
X223320Y603290D01*
D12*
X290750Y523180D03*
X290750Y579180D03*
D13*
X254000Y536180D03*
X254000Y546180D03*
X254000Y556180D03*
X254000Y566180D03*
D12*
X14050Y579180D03*
X14050Y523180D03*
D13*
X50800Y566180D03*
X50800Y556180D03*
X50800Y546180D03*
X50800Y536180D03*
D10*
X110100Y551180D03*
X93100Y551180D03*
X93100Y525780D03*
X110100Y525780D03*
X211700Y551180D03*
X194700Y551180D03*
D14*
X171450Y579180D03*
X158750Y579180D03*
X146050Y579180D03*
X133350Y579180D03*
X133350Y523180D03*
X146050Y523180D03*
X158750Y523180D03*
X171450Y523180D03*
D15*
X63500Y508880D03*
X63500Y491880D03*
D16*
X88900Y462280D03*
X114300Y462280D03*
X139700Y462280D03*
X165100Y462280D03*
X190500Y462280D03*
X215900Y462280D03*
D10*
X194700Y525780D03*
X211700Y525780D03*
D17*
X7620Y886460D03*
X297180Y457200D03*
D18*
X25400Y868680D03*
X279400Y868680D03*
X25400Y474980D03*
X279400Y474980D03*
D10*
X453780Y601980D03*
X470780Y601980D03*
D11*
X543760Y598490D02*
X543760Y605470D01*
X550740Y605470D01*
X550740Y598490D01*
X543760Y598490D01*
X543760Y603290D02*
X550740Y603290D01*
X526220Y605470D02*
X526220Y598490D01*
X526220Y605470D02*
X533200Y605470D01*
X533200Y598490D01*
X526220Y598490D01*
X526220Y603290D02*
X533200Y603290D01*
D12*
X600630Y523180D03*
X600630Y579180D03*
D13*
X563880Y536180D03*
X563880Y546180D03*
X563880Y556180D03*
X563880Y566180D03*
D12*
X323930Y579180D03*
X323930Y523180D03*
D13*
X360680Y566180D03*
X360680Y556180D03*
X360680Y546180D03*
X360680Y536180D03*
D10*
X419980Y551180D03*
X402980Y551180D03*
X402980Y525780D03*
X419980Y525780D03*
X521580Y551180D03*
X504580Y551180D03*
D14*
X481330Y579180D03*
X468630Y579180D03*
X455930Y579180D03*
X443230Y579180D03*
X443230Y523180D03*
X455930Y523180D03*
X468630Y523180D03*
X481330Y523180D03*
D15*
X373380Y508880D03*
X373380Y491880D03*
D16*
X398780Y462280D03*
X424180Y462280D03*
X449580Y462280D03*
X474980Y462280D03*
X500380Y462280D03*
X525780Y462280D03*
D10*
X504580Y525780D03*
X521580Y525780D03*
D17*
X317500Y886460D03*
X607060Y457200D03*
D18*
X335280Y868680D03*
X589280Y868680D03*
X335280Y474980D03*
X589280Y474980D03*
D10*
X763660Y601980D03*
X780660Y601980D03*
D11*
X853640Y598490D02*
X853640Y605470D01*
X860620Y605470D01*
X860620Y598490D01*
X853640Y598490D01*
X853640Y603290D02*
X860620Y603290D01*
X836100Y605470D02*
X836100Y598490D01*
X836100Y605470D02*
X843080Y605470D01*
X843080Y598490D01*
X836100Y598490D01*
X836100Y603290D02*
X843080Y603290D01*
D12*
X910510Y523180D03*
X910510Y579180D03*
D13*
X873760Y536180D03*
X873760Y546180D03*
X873760Y556180D03*
X873760Y566180D03*
D12*
X633810Y579180D03*
X633810Y523180D03*
D13*
X670560Y566180D03*
X670560Y556180D03*
X670560Y546180D03*
X670560Y536180D03*
D10*
X729860Y551180D03*
X712860Y551180D03*
X712860Y525780D03*
X729860Y525780D03*
X831460Y551180D03*
X814460Y551180D03*
D14*
X791210Y579180D03*
X778510Y579180D03*
X765810Y579180D03*
X753110Y579180D03*
X753110Y523180D03*
X765810Y523180D03*
X778510Y523180D03*
X791210Y523180D03*
D15*
X683260Y508880D03*
X683260Y491880D03*
D16*
X708660Y462280D03*
X734060Y462280D03*
X759460Y462280D03*
X784860Y462280D03*
X810260Y462280D03*
X835660Y462280D03*
D10*
X814460Y525780D03*
X831460Y525780D03*
D17*
X627380Y886460D03*
X916940Y457200D03*
D18*
X645160Y868680D03*
X899160Y868680D03*
X645160Y474980D03*
X899160Y474980D03*
D17*
X-26238Y867410D03*
X950798Y867410D03*
D19*
X-35293Y63500D02*
X-35290Y63722D01*
X-35282Y63944D01*
X-35268Y64166D01*
X-35249Y64388D01*
X-35225Y64608D01*
X-35195Y64829D01*
X-35160Y65048D01*
X-35119Y65267D01*
X-35073Y65484D01*
X-35022Y65700D01*
X-34965Y65915D01*
X-34903Y66129D01*
X-34836Y66340D01*
X-34764Y66551D01*
X-34686Y66759D01*
X-34604Y66965D01*
X-34516Y67169D01*
X-34424Y67372D01*
X-34326Y67571D01*
X-34224Y67768D01*
X-34117Y67963D01*
X-34005Y68155D01*
X-33888Y68344D01*
X-33767Y68531D01*
X-33641Y68714D01*
X-33511Y68894D01*
X-33376Y69071D01*
X-33238Y69244D01*
X-33095Y69414D01*
X-32947Y69581D01*
X-32796Y69744D01*
X-32641Y69903D01*
X-32482Y70058D01*
X-32319Y70209D01*
X-32152Y70357D01*
X-31982Y70500D01*
X-31809Y70638D01*
X-31632Y70773D01*
X-31452Y70903D01*
X-31269Y71029D01*
X-31082Y71150D01*
X-30893Y71267D01*
X-30701Y71379D01*
X-30506Y71486D01*
X-30309Y71588D01*
X-30110Y71686D01*
X-29907Y71778D01*
X-29703Y71866D01*
X-29497Y71948D01*
X-29289Y72026D01*
X-29078Y72098D01*
X-28867Y72165D01*
X-28653Y72227D01*
X-28438Y72284D01*
X-28222Y72335D01*
X-28005Y72381D01*
X-27786Y72422D01*
X-27567Y72457D01*
X-27346Y72487D01*
X-27126Y72511D01*
X-26904Y72530D01*
X-26682Y72544D01*
X-26460Y72552D01*
X-26238Y72555D01*
X-26016Y72552D01*
X-25794Y72544D01*
X-25572Y72530D01*
X-25350Y72511D01*
X-25130Y72487D01*
X-24909Y72457D01*
X-24690Y72422D01*
X-24471Y72381D01*
X-24254Y72335D01*
X-24038Y72284D01*
X-23823Y72227D01*
X-23609Y72165D01*
X-23398Y72098D01*
X-23187Y72026D01*
X-22979Y71948D01*
X-22773Y71866D01*
X-22569Y71778D01*
X-22366Y71686D01*
X-22167Y71588D01*
X-21970Y71486D01*
X-21775Y71379D01*
X-21583Y71267D01*
X-21394Y71150D01*
X-21207Y71029D01*
X-21024Y70903D01*
X-20844Y70773D01*
X-20667Y70638D01*
X-20494Y70500D01*
X-20324Y70357D01*
X-20157Y70209D01*
X-19994Y70058D01*
X-19835Y69903D01*
X-19680Y69744D01*
X-19529Y69581D01*
X-19381Y69414D01*
X-19238Y69244D01*
X-19100Y69071D01*
X-18965Y68894D01*
X-18835Y68714D01*
X-18709Y68531D01*
X-18588Y68344D01*
X-18471Y68155D01*
X-18359Y67963D01*
X-18252Y67768D01*
X-18150Y67571D01*
X-18052Y67372D01*
X-17960Y67169D01*
X-17872Y66965D01*
X-17790Y66759D01*
X-17712Y66551D01*
X-17640Y66340D01*
X-17573Y66129D01*
X-17511Y65915D01*
X-17454Y65700D01*
X-17403Y65484D01*
X-17357Y65267D01*
X-17316Y65048D01*
X-17281Y64829D01*
X-17251Y64608D01*
X-17227Y64388D01*
X-17208Y64166D01*
X-17194Y63944D01*
X-17186Y63722D01*
X-17183Y63500D01*
X-17186Y63278D01*
X-17194Y63056D01*
X-17208Y62834D01*
X-17227Y62612D01*
X-17251Y62392D01*
X-17281Y62171D01*
X-17316Y61952D01*
X-17357Y61733D01*
X-17403Y61516D01*
X-17454Y61300D01*
X-17511Y61085D01*
X-17573Y60871D01*
X-17640Y60660D01*
X-17712Y60449D01*
X-17790Y60241D01*
X-17872Y60035D01*
X-17960Y59831D01*
X-18052Y59628D01*
X-18150Y59429D01*
X-18252Y59232D01*
X-18359Y59037D01*
X-18471Y58845D01*
X-18588Y58656D01*
X-18709Y58469D01*
X-18835Y58286D01*
X-18965Y58106D01*
X-19100Y57929D01*
X-19238Y57756D01*
X-19381Y57586D01*
X-19529Y57419D01*
X-19680Y57256D01*
X-19835Y57097D01*
X-19994Y56942D01*
X-20157Y56791D01*
X-20324Y56643D01*
X-20494Y56500D01*
X-20667Y56362D01*
X-20844Y56227D01*
X-21024Y56097D01*
X-21207Y55971D01*
X-21394Y55850D01*
X-21583Y55733D01*
X-21775Y55621D01*
X-21970Y55514D01*
X-22167Y55412D01*
X-22366Y55314D01*
X-22569Y55222D01*
X-22773Y55134D01*
X-22979Y55052D01*
X-23187Y54974D01*
X-23398Y54902D01*
X-23609Y54835D01*
X-23823Y54773D01*
X-24038Y54716D01*
X-24254Y54665D01*
X-24471Y54619D01*
X-24690Y54578D01*
X-24909Y54543D01*
X-25130Y54513D01*
X-25350Y54489D01*
X-25572Y54470D01*
X-25794Y54456D01*
X-26016Y54448D01*
X-26238Y54445D01*
X-26460Y54448D01*
X-26682Y54456D01*
X-26904Y54470D01*
X-27126Y54489D01*
X-27346Y54513D01*
X-27567Y54543D01*
X-27786Y54578D01*
X-28005Y54619D01*
X-28222Y54665D01*
X-28438Y54716D01*
X-28653Y54773D01*
X-28867Y54835D01*
X-29078Y54902D01*
X-29289Y54974D01*
X-29497Y55052D01*
X-29703Y55134D01*
X-29907Y55222D01*
X-30110Y55314D01*
X-30309Y55412D01*
X-30506Y55514D01*
X-30701Y55621D01*
X-30893Y55733D01*
X-31082Y55850D01*
X-31269Y55971D01*
X-31452Y56097D01*
X-31632Y56227D01*
X-31809Y56362D01*
X-31982Y56500D01*
X-32152Y56643D01*
X-32319Y56791D01*
X-32482Y56942D01*
X-32641Y57097D01*
X-32796Y57256D01*
X-32947Y57419D01*
X-33095Y57586D01*
X-33238Y57756D01*
X-33376Y57929D01*
X-33511Y58106D01*
X-33641Y58286D01*
X-33767Y58469D01*
X-33888Y58656D01*
X-34005Y58845D01*
X-34117Y59037D01*
X-34224Y59232D01*
X-34326Y59429D01*
X-34424Y59628D01*
X-34516Y59831D01*
X-34604Y60035D01*
X-34686Y60241D01*
X-34764Y60449D01*
X-34836Y60660D01*
X-34903Y60871D01*
X-34965Y61085D01*
X-35022Y61300D01*
X-35073Y61516D01*
X-35119Y61733D01*
X-35160Y61952D01*
X-35195Y62171D01*
X-35225Y62392D01*
X-35249Y62612D01*
X-35268Y62834D01*
X-35282Y63056D01*
X-35290Y63278D01*
X-35293Y63500D01*
D20*
X-26238Y63500D03*
M02*
