G04 EAGLE Gerber RS-274X export*
G75*
%MOMM*%
%FSLAX34Y34*%
%LPD*%
%INBottom Copper*%
%IPPOS*%
%AMOC8*
5,1,8,0,0,1.08239X$1,22.5*%
G01*
%ADD10C,0.203200*%
%ADD11R,1.270000X0.660400*%
%ADD12R,0.660400X1.270000*%
%ADD13C,0.660400*%
%ADD14C,1.879600*%
%ADD15C,1.000000*%
%ADD16C,1.500000*%
%ADD17C,0.508000*%
%ADD18C,0.254000*%

G36*
X699513Y452125D02*
X699513Y452125D01*
X699543Y452122D01*
X699654Y452145D01*
X699766Y452161D01*
X699793Y452173D01*
X699821Y452178D01*
X699922Y452231D01*
X700025Y452277D01*
X700048Y452296D01*
X700074Y452309D01*
X700156Y452387D01*
X700242Y452460D01*
X700259Y452485D01*
X700280Y452505D01*
X700337Y452603D01*
X700400Y452697D01*
X700409Y452725D01*
X700424Y452750D01*
X700451Y452860D01*
X700486Y452968D01*
X700486Y452998D01*
X700494Y453026D01*
X700490Y453139D01*
X700493Y453252D01*
X700486Y453281D01*
X700485Y453310D01*
X700450Y453418D01*
X700421Y453527D01*
X700406Y453553D01*
X700397Y453581D01*
X700351Y453645D01*
X700276Y453772D01*
X700230Y453815D01*
X700202Y453854D01*
X699554Y454502D01*
X698449Y456023D01*
X697596Y457697D01*
X697015Y459484D01*
X696894Y460249D01*
X707644Y460249D01*
X707702Y460257D01*
X707760Y460255D01*
X707842Y460277D01*
X707925Y460289D01*
X707979Y460313D01*
X708035Y460327D01*
X708108Y460370D01*
X708185Y460405D01*
X708229Y460443D01*
X708280Y460473D01*
X708337Y460534D01*
X708402Y460589D01*
X708434Y460637D01*
X708474Y460680D01*
X708513Y460755D01*
X708559Y460825D01*
X708577Y460881D01*
X708604Y460933D01*
X708615Y461001D01*
X708645Y461096D01*
X708648Y461196D01*
X708659Y461264D01*
X708659Y462281D01*
X709676Y462281D01*
X709734Y462289D01*
X709792Y462288D01*
X709874Y462309D01*
X709957Y462321D01*
X710011Y462345D01*
X710067Y462359D01*
X710140Y462402D01*
X710217Y462437D01*
X710262Y462475D01*
X710312Y462505D01*
X710370Y462566D01*
X710434Y462621D01*
X710466Y462669D01*
X710506Y462712D01*
X710545Y462787D01*
X710591Y462857D01*
X710609Y462913D01*
X710636Y462965D01*
X710647Y463033D01*
X710677Y463128D01*
X710680Y463228D01*
X710691Y463296D01*
X710691Y474046D01*
X711456Y473925D01*
X713243Y473344D01*
X714917Y472491D01*
X716438Y471386D01*
X717766Y470058D01*
X718871Y468537D01*
X719724Y466863D01*
X720329Y465000D01*
X720342Y464974D01*
X720349Y464944D01*
X720355Y464934D01*
X720356Y464928D01*
X720370Y464904D01*
X720381Y464871D01*
X720422Y464809D01*
X720454Y464744D01*
X720474Y464723D01*
X720488Y464697D01*
X720501Y464684D01*
X720502Y464683D01*
X720508Y464677D01*
X720517Y464668D01*
X720539Y464635D01*
X720597Y464587D01*
X720645Y464533D01*
X720669Y464519D01*
X720691Y464497D01*
X720726Y464478D01*
X720757Y464452D01*
X720826Y464421D01*
X720887Y464384D01*
X720914Y464376D01*
X720941Y464362D01*
X720980Y464353D01*
X721017Y464337D01*
X721092Y464326D01*
X721161Y464307D01*
X721188Y464307D01*
X721219Y464301D01*
X721259Y464303D01*
X721298Y464298D01*
X721374Y464309D01*
X721445Y464309D01*
X721471Y464317D01*
X721502Y464319D01*
X721540Y464333D01*
X721580Y464339D01*
X721649Y464370D01*
X721717Y464390D01*
X721741Y464405D01*
X721770Y464416D01*
X721802Y464439D01*
X721839Y464456D01*
X721896Y464505D01*
X721957Y464543D01*
X721975Y464565D01*
X722000Y464582D01*
X722025Y464614D01*
X722055Y464640D01*
X722086Y464689D01*
X722090Y464695D01*
X722144Y464757D01*
X722156Y464783D01*
X722175Y464806D01*
X722191Y464848D01*
X722213Y464880D01*
X722221Y464905D01*
X722233Y464925D01*
X723939Y469043D01*
X727297Y472401D01*
X728353Y472838D01*
X728354Y472839D01*
X728355Y472840D01*
X728474Y472910D01*
X728597Y472983D01*
X728598Y472984D01*
X728600Y472985D01*
X728697Y473088D01*
X728793Y473190D01*
X728793Y473191D01*
X728794Y473192D01*
X728857Y473315D01*
X728923Y473442D01*
X728923Y473444D01*
X728924Y473445D01*
X728926Y473460D01*
X728978Y473721D01*
X728975Y473752D01*
X728979Y473776D01*
X728979Y482615D01*
X728972Y482667D01*
X728973Y482695D01*
X728966Y482718D01*
X728964Y482789D01*
X728947Y482842D01*
X728939Y482896D01*
X728904Y482976D01*
X728877Y483059D01*
X728849Y483099D01*
X728823Y483156D01*
X728727Y483269D01*
X728682Y483333D01*
X722093Y489922D01*
X722023Y489974D01*
X721959Y490034D01*
X721910Y490060D01*
X721866Y490093D01*
X721784Y490124D01*
X721706Y490164D01*
X721658Y490172D01*
X721600Y490194D01*
X721452Y490206D01*
X721375Y490219D01*
X707649Y490219D01*
X705782Y490993D01*
X704210Y492565D01*
X699713Y497062D01*
X699688Y497081D01*
X699668Y497104D01*
X699601Y497146D01*
X699486Y497233D01*
X699425Y497256D01*
X699383Y497282D01*
X697730Y497967D01*
X696087Y499610D01*
X695197Y501758D01*
X695197Y504082D01*
X695882Y505735D01*
X695890Y505765D01*
X695904Y505793D01*
X695917Y505870D01*
X695953Y506011D01*
X695951Y506075D01*
X695959Y506124D01*
X695959Y545084D01*
X695951Y545142D01*
X695953Y545200D01*
X695931Y545282D01*
X695919Y545366D01*
X695896Y545419D01*
X695881Y545475D01*
X695838Y545548D01*
X695803Y545625D01*
X695765Y545670D01*
X695736Y545720D01*
X695674Y545778D01*
X695620Y545842D01*
X695571Y545874D01*
X695528Y545914D01*
X695453Y545953D01*
X695383Y546000D01*
X695327Y546017D01*
X695275Y546044D01*
X695207Y546055D01*
X695112Y546085D01*
X695012Y546088D01*
X694944Y546099D01*
X659389Y546099D01*
X657522Y546873D01*
X653993Y550402D01*
X653968Y550420D01*
X653948Y550444D01*
X653881Y550486D01*
X653766Y550573D01*
X653705Y550596D01*
X653663Y550622D01*
X652010Y551307D01*
X650367Y552950D01*
X649477Y555098D01*
X649477Y557422D01*
X650367Y559570D01*
X652010Y561213D01*
X654158Y562103D01*
X656482Y562103D01*
X658630Y561213D01*
X660273Y559570D01*
X660958Y557917D01*
X660974Y557890D01*
X660983Y557861D01*
X661029Y557797D01*
X661102Y557672D01*
X661149Y557627D01*
X661178Y557587D01*
X662207Y556558D01*
X662277Y556506D01*
X662341Y556446D01*
X662390Y556420D01*
X662434Y556387D01*
X662516Y556356D01*
X662594Y556316D01*
X662642Y556308D01*
X662700Y556286D01*
X662848Y556274D01*
X662925Y556261D01*
X695405Y556261D01*
X695435Y556265D01*
X695464Y556262D01*
X695575Y556285D01*
X695687Y556301D01*
X695714Y556313D01*
X695742Y556318D01*
X695843Y556371D01*
X695946Y556417D01*
X695969Y556436D01*
X695995Y556449D01*
X696077Y556527D01*
X696163Y556600D01*
X696180Y556625D01*
X696201Y556645D01*
X696258Y556743D01*
X696321Y556837D01*
X696330Y556865D01*
X696345Y556890D01*
X696372Y557000D01*
X696407Y557108D01*
X696407Y557137D01*
X696415Y557166D01*
X696411Y557279D01*
X696414Y557392D01*
X696407Y557421D01*
X696406Y557450D01*
X696371Y557558D01*
X696342Y557667D01*
X696327Y557693D01*
X696318Y557721D01*
X696273Y557785D01*
X696197Y557912D01*
X696151Y557955D01*
X696123Y557994D01*
X696087Y558030D01*
X695197Y560178D01*
X695197Y562502D01*
X696087Y564650D01*
X697730Y566293D01*
X699878Y567183D01*
X702202Y567183D01*
X704350Y566293D01*
X704941Y565702D01*
X705011Y565650D01*
X705074Y565590D01*
X705124Y565564D01*
X705168Y565531D01*
X705250Y565500D01*
X705328Y565460D01*
X705375Y565452D01*
X705434Y565430D01*
X705581Y565418D01*
X705659Y565405D01*
X711505Y565405D01*
X711592Y565417D01*
X711679Y565420D01*
X711732Y565437D01*
X711787Y565445D01*
X711866Y565480D01*
X711950Y565507D01*
X711989Y565535D01*
X712046Y565561D01*
X712159Y565657D01*
X712223Y565702D01*
X713958Y567437D01*
X728762Y567437D01*
X730251Y565948D01*
X730251Y557276D01*
X730259Y557218D01*
X730257Y557160D01*
X730279Y557078D01*
X730291Y556994D01*
X730314Y556941D01*
X730329Y556885D01*
X730372Y556812D01*
X730407Y556735D01*
X730445Y556690D01*
X730474Y556640D01*
X730536Y556582D01*
X730590Y556518D01*
X730639Y556486D01*
X730682Y556446D01*
X730757Y556407D01*
X730827Y556360D01*
X730883Y556343D01*
X730935Y556316D01*
X731003Y556305D01*
X731098Y556275D01*
X731198Y556272D01*
X731266Y556261D01*
X784196Y556261D01*
X784227Y556265D01*
X784258Y556263D01*
X784334Y556280D01*
X784478Y556301D01*
X784537Y556327D01*
X784585Y556338D01*
X785743Y556818D01*
X785770Y556834D01*
X785799Y556843D01*
X785863Y556889D01*
X785988Y556962D01*
X786032Y557009D01*
X786073Y557038D01*
X798190Y569155D01*
X799762Y570727D01*
X801629Y571501D01*
X820983Y571501D01*
X821068Y571513D01*
X821154Y571515D01*
X821208Y571533D01*
X821264Y571541D01*
X821343Y571576D01*
X821424Y571602D01*
X821472Y571634D01*
X821524Y571657D01*
X821589Y571712D01*
X821661Y571760D01*
X821697Y571804D01*
X821741Y571840D01*
X821788Y571912D01*
X821844Y571978D01*
X821867Y572030D01*
X821898Y572077D01*
X821924Y572159D01*
X821959Y572238D01*
X821967Y572294D01*
X821984Y572348D01*
X821986Y572434D01*
X821998Y572519D01*
X821990Y572575D01*
X821991Y572632D01*
X821970Y572715D01*
X821957Y572800D01*
X821934Y572852D01*
X821920Y572907D01*
X821876Y572981D01*
X821840Y573060D01*
X821803Y573103D01*
X821774Y573152D01*
X821712Y573211D01*
X821656Y573276D01*
X821614Y573302D01*
X821567Y573346D01*
X821438Y573412D01*
X821371Y573454D01*
X819650Y574167D01*
X818007Y575810D01*
X817117Y577958D01*
X817117Y580282D01*
X818007Y582430D01*
X819650Y584073D01*
X821798Y584963D01*
X824122Y584963D01*
X826270Y584073D01*
X827115Y583228D01*
X827185Y583176D01*
X827248Y583116D01*
X827298Y583090D01*
X827342Y583057D01*
X827424Y583026D01*
X827502Y582986D01*
X827549Y582978D01*
X827608Y582956D01*
X827755Y582944D01*
X827833Y582931D01*
X893118Y582931D01*
X900431Y575618D01*
X900431Y536902D01*
X893118Y529589D01*
X873219Y529589D01*
X873132Y529577D01*
X873045Y529574D01*
X872992Y529557D01*
X872937Y529549D01*
X872858Y529514D01*
X872774Y529487D01*
X872735Y529459D01*
X872678Y529433D01*
X872565Y529337D01*
X872501Y529292D01*
X870248Y527039D01*
X870196Y526969D01*
X870136Y526905D01*
X870110Y526856D01*
X870077Y526812D01*
X870046Y526730D01*
X870006Y526652D01*
X869998Y526605D01*
X869976Y526546D01*
X869964Y526398D01*
X869951Y526321D01*
X869951Y501342D01*
X867421Y498812D01*
X857558Y488949D01*
X842739Y488949D01*
X842652Y488937D01*
X842565Y488934D01*
X842512Y488917D01*
X842457Y488909D01*
X842378Y488874D01*
X842294Y488847D01*
X842255Y488819D01*
X842198Y488793D01*
X842085Y488697D01*
X842021Y488652D01*
X839768Y486399D01*
X839716Y486329D01*
X839656Y486265D01*
X839630Y486216D01*
X839597Y486172D01*
X839566Y486090D01*
X839526Y486012D01*
X839518Y485965D01*
X839496Y485906D01*
X839487Y485799D01*
X839485Y485792D01*
X839484Y485761D01*
X839484Y485758D01*
X839471Y485681D01*
X839471Y474302D01*
X839471Y474301D01*
X839471Y474299D01*
X839491Y474159D01*
X839511Y474021D01*
X839511Y474019D01*
X839511Y474018D01*
X839568Y473892D01*
X839627Y473761D01*
X839628Y473760D01*
X839629Y473759D01*
X839720Y473652D01*
X839810Y473544D01*
X839812Y473544D01*
X839813Y473542D01*
X839826Y473534D01*
X840047Y473387D01*
X840076Y473378D01*
X840097Y473364D01*
X842423Y472401D01*
X845781Y469043D01*
X847599Y464655D01*
X847599Y459905D01*
X845781Y455517D01*
X844118Y453854D01*
X844100Y453830D01*
X844078Y453811D01*
X844015Y453717D01*
X843947Y453627D01*
X843936Y453599D01*
X843920Y453575D01*
X843886Y453467D01*
X843846Y453361D01*
X843843Y453332D01*
X843834Y453304D01*
X843831Y453190D01*
X843822Y453078D01*
X843828Y453049D01*
X843827Y453020D01*
X843856Y452910D01*
X843878Y452799D01*
X843892Y452773D01*
X843899Y452745D01*
X843957Y452647D01*
X844009Y452547D01*
X844029Y452525D01*
X844044Y452500D01*
X844127Y452423D01*
X844205Y452341D01*
X844230Y452326D01*
X844251Y452306D01*
X844352Y452254D01*
X844450Y452197D01*
X844478Y452190D01*
X844505Y452176D01*
X844582Y452163D01*
X844726Y452127D01*
X844788Y452129D01*
X844836Y452121D01*
X891595Y452121D01*
X891702Y452136D01*
X891810Y452144D01*
X891842Y452156D01*
X891877Y452161D01*
X891975Y452205D01*
X892076Y452242D01*
X892104Y452263D01*
X892136Y452277D01*
X892218Y452347D01*
X892305Y452410D01*
X892327Y452438D01*
X892353Y452460D01*
X892413Y452550D01*
X892479Y452636D01*
X892491Y452668D01*
X892511Y452697D01*
X892543Y452800D01*
X892583Y452900D01*
X892586Y452935D01*
X892596Y452968D01*
X892599Y453076D01*
X892609Y453183D01*
X892603Y453218D01*
X892604Y453252D01*
X892577Y453357D01*
X892556Y453463D01*
X892541Y453494D01*
X892532Y453527D01*
X892477Y453620D01*
X892428Y453716D01*
X892405Y453742D01*
X892387Y453772D01*
X892308Y453846D01*
X892235Y453925D01*
X892208Y453940D01*
X892179Y453966D01*
X891989Y454064D01*
X891942Y454090D01*
X887940Y455547D01*
X881970Y460556D01*
X878074Y467305D01*
X876720Y474980D01*
X878074Y482655D01*
X881970Y489404D01*
X887940Y494413D01*
X895263Y497079D01*
X903057Y497079D01*
X910380Y494413D01*
X916350Y489404D01*
X919940Y483185D01*
X919952Y483170D01*
X919960Y483152D01*
X920040Y483058D01*
X920115Y482961D01*
X920131Y482950D01*
X920144Y482935D01*
X920246Y482867D01*
X920346Y482795D01*
X920364Y482788D01*
X920380Y482778D01*
X920497Y482740D01*
X920613Y482699D01*
X920633Y482697D01*
X920651Y482692D01*
X920774Y482688D01*
X920897Y482681D01*
X920916Y482685D01*
X920935Y482684D01*
X921055Y482715D01*
X921175Y482742D01*
X921192Y482751D01*
X921210Y482756D01*
X921317Y482819D01*
X921424Y482878D01*
X921438Y482891D01*
X921455Y482901D01*
X921539Y482991D01*
X921627Y483077D01*
X921636Y483094D01*
X921649Y483108D01*
X921705Y483217D01*
X921766Y483325D01*
X921770Y483344D01*
X921779Y483361D01*
X921791Y483434D01*
X921831Y483602D01*
X921828Y483653D01*
X921835Y483692D01*
X921895Y617220D01*
X921887Y617278D01*
X921888Y617336D01*
X921867Y617418D01*
X921855Y617501D01*
X921831Y617555D01*
X921816Y617611D01*
X921773Y617684D01*
X921739Y617761D01*
X921701Y617805D01*
X921671Y617856D01*
X921610Y617913D01*
X921555Y617978D01*
X921507Y618010D01*
X921464Y618050D01*
X921389Y618089D01*
X921319Y618135D01*
X921263Y618153D01*
X921211Y618180D01*
X921143Y618191D01*
X921048Y618221D01*
X920948Y618224D01*
X920879Y618235D01*
X642397Y618235D01*
X642368Y618231D01*
X642339Y618234D01*
X642228Y618211D01*
X642116Y618195D01*
X642089Y618183D01*
X642060Y618178D01*
X641960Y618126D01*
X641856Y618079D01*
X641834Y618060D01*
X641808Y618047D01*
X641726Y617969D01*
X641639Y617896D01*
X641623Y617871D01*
X641602Y617851D01*
X641544Y617753D01*
X641482Y617659D01*
X641473Y617631D01*
X641458Y617606D01*
X641430Y617496D01*
X641396Y617388D01*
X641395Y617358D01*
X641388Y617330D01*
X641391Y617217D01*
X641388Y617104D01*
X641396Y617075D01*
X641397Y617046D01*
X641432Y616938D01*
X641460Y616829D01*
X641475Y616803D01*
X641484Y616775D01*
X641530Y616712D01*
X641606Y616584D01*
X641651Y616541D01*
X641679Y616502D01*
X642128Y616053D01*
X642141Y616006D01*
X642153Y615922D01*
X642176Y615869D01*
X642191Y615813D01*
X642234Y615740D01*
X642269Y615663D01*
X642307Y615618D01*
X642336Y615568D01*
X642398Y615510D01*
X642452Y615446D01*
X642501Y615414D01*
X642544Y615374D01*
X642619Y615335D01*
X642689Y615288D01*
X642745Y615271D01*
X642797Y615244D01*
X642865Y615233D01*
X642960Y615203D01*
X643060Y615200D01*
X643128Y615189D01*
X648971Y615189D01*
X649034Y615198D01*
X649083Y615195D01*
X650324Y615333D01*
X650343Y615323D01*
X650438Y615266D01*
X650469Y615259D01*
X650497Y615244D01*
X650574Y615231D01*
X650683Y615203D01*
X651560Y614326D01*
X651611Y614288D01*
X651644Y614251D01*
X652618Y613471D01*
X652625Y613451D01*
X652652Y613343D01*
X652669Y613316D01*
X652678Y613286D01*
X652724Y613222D01*
X652781Y613125D01*
X652781Y611885D01*
X652790Y611822D01*
X652787Y611773D01*
X652925Y610532D01*
X652915Y610513D01*
X652858Y610418D01*
X652851Y610387D01*
X652836Y610359D01*
X652823Y610282D01*
X652795Y610173D01*
X651918Y609296D01*
X651880Y609245D01*
X651843Y609212D01*
X649868Y606743D01*
X649822Y606665D01*
X649768Y606593D01*
X649750Y606544D01*
X649723Y606499D01*
X649700Y606411D01*
X649669Y606326D01*
X649665Y606274D01*
X649652Y606223D01*
X649654Y606133D01*
X649648Y606043D01*
X649658Y605991D01*
X649660Y605939D01*
X649687Y605853D01*
X649706Y605764D01*
X649730Y605718D01*
X649746Y605668D01*
X649796Y605593D01*
X649839Y605513D01*
X649875Y605475D01*
X649904Y605432D01*
X649973Y605374D01*
X650036Y605309D01*
X650076Y605287D01*
X650121Y605249D01*
X650263Y605186D01*
X650331Y605149D01*
X650639Y605043D01*
X652781Y602045D01*
X652781Y598359D01*
X651480Y596538D01*
X651472Y596523D01*
X651460Y596510D01*
X651406Y596397D01*
X651348Y596286D01*
X651345Y596269D01*
X651338Y596254D01*
X651317Y596130D01*
X651292Y596007D01*
X651294Y595990D01*
X651291Y595973D01*
X651305Y595849D01*
X651315Y595724D01*
X651321Y595708D01*
X651323Y595691D01*
X651353Y595626D01*
X651416Y595458D01*
X651445Y595419D01*
X651461Y595385D01*
X653001Y593075D01*
X652423Y590186D01*
X651569Y589617D01*
X651482Y589539D01*
X651392Y589467D01*
X651377Y589445D01*
X651357Y589428D01*
X651295Y589329D01*
X651229Y589235D01*
X651220Y589209D01*
X651206Y589187D01*
X651174Y589076D01*
X651136Y588966D01*
X651134Y588939D01*
X651127Y588914D01*
X651127Y588798D01*
X651121Y588682D01*
X651127Y588656D01*
X651127Y588629D01*
X651159Y588518D01*
X651186Y588405D01*
X651199Y588382D01*
X651206Y588356D01*
X651268Y588258D01*
X651324Y588157D01*
X651342Y588141D01*
X651358Y588116D01*
X651565Y587931D01*
X651569Y587927D01*
X652423Y587358D01*
X653001Y584469D01*
X651366Y582017D01*
X648477Y581439D01*
X644453Y584122D01*
X644452Y584122D01*
X644322Y584185D01*
X644197Y584245D01*
X644196Y584245D01*
X644052Y584269D01*
X643917Y584292D01*
X643916Y584292D01*
X643915Y584292D01*
X643767Y584275D01*
X643634Y584260D01*
X643634Y584259D01*
X643633Y584259D01*
X643628Y584257D01*
X643372Y584150D01*
X643349Y584132D01*
X643327Y584122D01*
X639303Y581439D01*
X636414Y582017D01*
X634779Y584469D01*
X635357Y587358D01*
X636211Y587927D01*
X636298Y588005D01*
X636388Y588077D01*
X636403Y588099D01*
X636423Y588116D01*
X636485Y588215D01*
X636551Y588309D01*
X636560Y588335D01*
X636574Y588357D01*
X636606Y588468D01*
X636644Y588578D01*
X636646Y588605D01*
X636653Y588630D01*
X636653Y588746D01*
X636659Y588862D01*
X636653Y588888D01*
X636653Y588915D01*
X636621Y589026D01*
X636594Y589139D01*
X636581Y589162D01*
X636574Y589188D01*
X636512Y589286D01*
X636456Y589387D01*
X636438Y589403D01*
X636422Y589428D01*
X636215Y589613D01*
X636211Y589617D01*
X635357Y590186D01*
X634779Y593075D01*
X636319Y595385D01*
X636326Y595400D01*
X636337Y595413D01*
X636388Y595528D01*
X636442Y595641D01*
X636445Y595658D01*
X636452Y595673D01*
X636468Y595798D01*
X636489Y595921D01*
X636487Y595938D01*
X636490Y595955D01*
X636471Y596079D01*
X636457Y596204D01*
X636450Y596219D01*
X636448Y596236D01*
X636417Y596300D01*
X636347Y596466D01*
X636317Y596504D01*
X636300Y596538D01*
X634999Y598359D01*
X634999Y602044D01*
X636646Y604349D01*
X636700Y604453D01*
X636759Y604554D01*
X636765Y604579D01*
X636777Y604602D01*
X636800Y604716D01*
X636829Y604829D01*
X636828Y604855D01*
X636833Y604880D01*
X636823Y604997D01*
X636820Y605113D01*
X636812Y605138D01*
X636810Y605164D01*
X636768Y605273D01*
X636732Y605384D01*
X636719Y605403D01*
X636709Y605429D01*
X636538Y605657D01*
X636537Y605657D01*
X634999Y607195D01*
X634999Y616069D01*
X635433Y616502D01*
X635450Y616526D01*
X635473Y616545D01*
X635536Y616639D01*
X635604Y616729D01*
X635614Y616757D01*
X635630Y616781D01*
X635665Y616889D01*
X635705Y616995D01*
X635707Y617024D01*
X635716Y617052D01*
X635719Y617166D01*
X635729Y617278D01*
X635723Y617307D01*
X635724Y617336D01*
X635695Y617446D01*
X635673Y617557D01*
X635659Y617583D01*
X635652Y617611D01*
X635594Y617709D01*
X635542Y617809D01*
X635521Y617831D01*
X635506Y617856D01*
X635424Y617933D01*
X635346Y618015D01*
X635321Y618030D01*
X635299Y618050D01*
X635198Y618102D01*
X635101Y618159D01*
X635072Y618166D01*
X635046Y618180D01*
X634969Y618193D01*
X634825Y618229D01*
X634763Y618227D01*
X634715Y618235D01*
X623316Y618235D01*
X623258Y618227D01*
X623200Y618229D01*
X623118Y618207D01*
X623034Y618195D01*
X622981Y618172D01*
X622925Y618157D01*
X622852Y618114D01*
X622775Y618079D01*
X622730Y618041D01*
X622680Y618012D01*
X622622Y617950D01*
X622558Y617896D01*
X622526Y617847D01*
X622486Y617804D01*
X622447Y617729D01*
X622400Y617659D01*
X622383Y617603D01*
X622356Y617551D01*
X622345Y617483D01*
X622315Y617388D01*
X622312Y617288D01*
X622301Y617220D01*
X622301Y483373D01*
X622303Y483354D01*
X622301Y483334D01*
X622323Y483213D01*
X622341Y483091D01*
X622349Y483074D01*
X622352Y483054D01*
X622407Y482944D01*
X622457Y482832D01*
X622469Y482817D01*
X622478Y482800D01*
X622561Y482709D01*
X622640Y482615D01*
X622657Y482604D01*
X622670Y482590D01*
X622775Y482525D01*
X622877Y482457D01*
X622896Y482452D01*
X622912Y482441D01*
X623031Y482409D01*
X623148Y482372D01*
X623168Y482371D01*
X623187Y482366D01*
X623309Y482368D01*
X623432Y482364D01*
X623451Y482369D01*
X623471Y482370D01*
X623589Y482405D01*
X623707Y482436D01*
X623724Y482446D01*
X623743Y482452D01*
X623846Y482519D01*
X623952Y482581D01*
X623965Y482596D01*
X623982Y482606D01*
X624028Y482663D01*
X624146Y482789D01*
X624170Y482834D01*
X624195Y482865D01*
X627970Y489404D01*
X633940Y494413D01*
X641263Y497079D01*
X649057Y497079D01*
X656380Y494413D01*
X662350Y489404D01*
X666246Y482655D01*
X667600Y474980D01*
X666246Y467305D01*
X662350Y460556D01*
X656380Y455547D01*
X652378Y454090D01*
X652282Y454039D01*
X652184Y453995D01*
X652157Y453973D01*
X652127Y453956D01*
X652049Y453881D01*
X651967Y453811D01*
X651948Y453783D01*
X651923Y453758D01*
X651869Y453665D01*
X651809Y453575D01*
X651799Y453542D01*
X651782Y453512D01*
X651756Y453407D01*
X651724Y453304D01*
X651723Y453269D01*
X651714Y453235D01*
X651719Y453128D01*
X651716Y453020D01*
X651725Y452986D01*
X651726Y452951D01*
X651761Y452849D01*
X651788Y452745D01*
X651806Y452715D01*
X651817Y452682D01*
X651878Y452593D01*
X651933Y452500D01*
X651959Y452476D01*
X651978Y452448D01*
X652062Y452380D01*
X652141Y452306D01*
X652172Y452290D01*
X652198Y452268D01*
X652298Y452225D01*
X652394Y452176D01*
X652424Y452171D01*
X652460Y452156D01*
X652672Y452130D01*
X652725Y452121D01*
X699484Y452121D01*
X699513Y452125D01*
G37*
G36*
X389633Y2545D02*
X389633Y2545D01*
X389663Y2542D01*
X389774Y2565D01*
X389886Y2581D01*
X389913Y2593D01*
X389941Y2598D01*
X390042Y2651D01*
X390145Y2697D01*
X390168Y2716D01*
X390194Y2729D01*
X390276Y2807D01*
X390362Y2880D01*
X390379Y2905D01*
X390400Y2925D01*
X390457Y3023D01*
X390520Y3117D01*
X390529Y3145D01*
X390544Y3170D01*
X390571Y3280D01*
X390606Y3388D01*
X390606Y3418D01*
X390614Y3446D01*
X390610Y3559D01*
X390613Y3672D01*
X390606Y3701D01*
X390605Y3730D01*
X390570Y3838D01*
X390541Y3947D01*
X390526Y3973D01*
X390517Y4001D01*
X390471Y4065D01*
X390396Y4192D01*
X390350Y4235D01*
X390322Y4274D01*
X389674Y4922D01*
X388569Y6443D01*
X387716Y8117D01*
X387135Y9904D01*
X387014Y10669D01*
X397764Y10669D01*
X397822Y10677D01*
X397880Y10675D01*
X397962Y10697D01*
X398045Y10709D01*
X398099Y10733D01*
X398155Y10747D01*
X398228Y10790D01*
X398305Y10825D01*
X398349Y10863D01*
X398400Y10893D01*
X398457Y10954D01*
X398522Y11009D01*
X398554Y11057D01*
X398594Y11100D01*
X398633Y11175D01*
X398679Y11245D01*
X398697Y11301D01*
X398724Y11353D01*
X398735Y11421D01*
X398765Y11516D01*
X398768Y11616D01*
X398779Y11684D01*
X398779Y12701D01*
X399796Y12701D01*
X399854Y12709D01*
X399912Y12708D01*
X399994Y12729D01*
X400077Y12741D01*
X400131Y12765D01*
X400187Y12779D01*
X400260Y12822D01*
X400337Y12857D01*
X400382Y12895D01*
X400432Y12925D01*
X400490Y12986D01*
X400554Y13041D01*
X400586Y13089D01*
X400626Y13132D01*
X400665Y13207D01*
X400711Y13277D01*
X400729Y13333D01*
X400756Y13385D01*
X400767Y13453D01*
X400797Y13548D01*
X400800Y13648D01*
X400811Y13716D01*
X400811Y24466D01*
X401576Y24345D01*
X403363Y23764D01*
X405037Y22911D01*
X406558Y21806D01*
X407886Y20478D01*
X408991Y18957D01*
X409844Y17283D01*
X410449Y15420D01*
X410462Y15394D01*
X410469Y15364D01*
X410475Y15354D01*
X410476Y15348D01*
X410490Y15324D01*
X410501Y15291D01*
X410542Y15229D01*
X410574Y15164D01*
X410594Y15143D01*
X410608Y15117D01*
X410621Y15104D01*
X410622Y15103D01*
X410628Y15097D01*
X410637Y15088D01*
X410659Y15055D01*
X410717Y15007D01*
X410765Y14953D01*
X410789Y14939D01*
X410811Y14917D01*
X410846Y14898D01*
X410877Y14872D01*
X410946Y14841D01*
X411007Y14804D01*
X411034Y14796D01*
X411061Y14782D01*
X411100Y14773D01*
X411137Y14757D01*
X411212Y14746D01*
X411281Y14727D01*
X411308Y14727D01*
X411339Y14721D01*
X411379Y14723D01*
X411418Y14718D01*
X411494Y14729D01*
X411565Y14729D01*
X411591Y14737D01*
X411622Y14739D01*
X411660Y14753D01*
X411700Y14759D01*
X411769Y14790D01*
X411837Y14810D01*
X411861Y14825D01*
X411890Y14836D01*
X411922Y14859D01*
X411959Y14876D01*
X412016Y14925D01*
X412077Y14963D01*
X412095Y14985D01*
X412120Y15002D01*
X412145Y15034D01*
X412175Y15060D01*
X412206Y15109D01*
X412210Y15115D01*
X412264Y15177D01*
X412276Y15203D01*
X412295Y15226D01*
X412311Y15268D01*
X412333Y15300D01*
X412341Y15325D01*
X412353Y15345D01*
X414059Y19463D01*
X417417Y22821D01*
X418473Y23258D01*
X418474Y23259D01*
X418475Y23259D01*
X418592Y23329D01*
X418717Y23403D01*
X418719Y23404D01*
X418720Y23405D01*
X418815Y23506D01*
X418913Y23609D01*
X418913Y23611D01*
X418914Y23612D01*
X418978Y23737D01*
X419043Y23862D01*
X419043Y23864D01*
X419044Y23865D01*
X419046Y23880D01*
X419098Y24141D01*
X419095Y24172D01*
X419099Y24196D01*
X419099Y33035D01*
X419092Y33087D01*
X419093Y33115D01*
X419086Y33138D01*
X419084Y33209D01*
X419067Y33262D01*
X419059Y33316D01*
X419024Y33396D01*
X418997Y33479D01*
X418969Y33519D01*
X418943Y33576D01*
X418847Y33689D01*
X418802Y33753D01*
X412213Y40342D01*
X412143Y40394D01*
X412079Y40454D01*
X412030Y40480D01*
X411986Y40513D01*
X411904Y40544D01*
X411826Y40584D01*
X411778Y40592D01*
X411720Y40614D01*
X411572Y40626D01*
X411495Y40639D01*
X397769Y40639D01*
X395902Y41413D01*
X389833Y47482D01*
X389808Y47500D01*
X389788Y47524D01*
X389721Y47566D01*
X389606Y47653D01*
X389545Y47676D01*
X389503Y47702D01*
X387850Y48387D01*
X386207Y50030D01*
X385317Y52178D01*
X385317Y54502D01*
X386002Y56155D01*
X386010Y56185D01*
X386024Y56213D01*
X386037Y56290D01*
X386073Y56431D01*
X386071Y56495D01*
X386079Y56544D01*
X386079Y95504D01*
X386071Y95562D01*
X386073Y95620D01*
X386051Y95702D01*
X386039Y95786D01*
X386016Y95839D01*
X386001Y95895D01*
X385958Y95968D01*
X385923Y96045D01*
X385885Y96090D01*
X385856Y96140D01*
X385794Y96198D01*
X385740Y96262D01*
X385691Y96294D01*
X385648Y96334D01*
X385573Y96373D01*
X385503Y96420D01*
X385447Y96437D01*
X385395Y96464D01*
X385327Y96475D01*
X385232Y96505D01*
X385132Y96508D01*
X385064Y96519D01*
X349509Y96519D01*
X347642Y97293D01*
X346070Y98865D01*
X344113Y100822D01*
X344088Y100840D01*
X344068Y100864D01*
X344001Y100906D01*
X343886Y100993D01*
X343825Y101016D01*
X343783Y101042D01*
X342130Y101727D01*
X340487Y103370D01*
X339597Y105518D01*
X339597Y107842D01*
X340487Y109990D01*
X342130Y111633D01*
X344278Y112523D01*
X346602Y112523D01*
X348750Y111633D01*
X350393Y109990D01*
X351078Y108337D01*
X351094Y108310D01*
X351103Y108281D01*
X351149Y108217D01*
X351222Y108092D01*
X351269Y108047D01*
X351298Y108007D01*
X352327Y106978D01*
X352397Y106926D01*
X352461Y106866D01*
X352510Y106840D01*
X352554Y106807D01*
X352636Y106776D01*
X352714Y106736D01*
X352762Y106728D01*
X352820Y106706D01*
X352968Y106694D01*
X353045Y106681D01*
X385525Y106681D01*
X385555Y106685D01*
X385584Y106682D01*
X385695Y106705D01*
X385807Y106721D01*
X385834Y106733D01*
X385862Y106738D01*
X385963Y106791D01*
X386066Y106837D01*
X386089Y106856D01*
X386115Y106869D01*
X386197Y106947D01*
X386283Y107020D01*
X386300Y107045D01*
X386321Y107065D01*
X386378Y107163D01*
X386441Y107257D01*
X386450Y107285D01*
X386465Y107310D01*
X386492Y107420D01*
X386527Y107528D01*
X386527Y107557D01*
X386535Y107586D01*
X386531Y107699D01*
X386534Y107812D01*
X386527Y107841D01*
X386526Y107870D01*
X386491Y107978D01*
X386462Y108087D01*
X386447Y108113D01*
X386438Y108141D01*
X386393Y108205D01*
X386317Y108332D01*
X386271Y108375D01*
X386243Y108414D01*
X386207Y108450D01*
X385317Y110598D01*
X385317Y112922D01*
X386207Y115070D01*
X387850Y116713D01*
X389998Y117603D01*
X392322Y117603D01*
X394470Y116713D01*
X395061Y116122D01*
X395131Y116070D01*
X395194Y116010D01*
X395244Y115984D01*
X395288Y115951D01*
X395370Y115920D01*
X395448Y115880D01*
X395495Y115872D01*
X395554Y115850D01*
X395701Y115838D01*
X395779Y115825D01*
X401625Y115825D01*
X401712Y115837D01*
X401799Y115840D01*
X401852Y115857D01*
X401907Y115865D01*
X401986Y115900D01*
X402070Y115927D01*
X402109Y115955D01*
X402166Y115981D01*
X402279Y116077D01*
X402343Y116122D01*
X404078Y117857D01*
X418882Y117857D01*
X420371Y116368D01*
X420371Y107696D01*
X420379Y107638D01*
X420377Y107580D01*
X420399Y107498D01*
X420411Y107414D01*
X420434Y107361D01*
X420449Y107305D01*
X420492Y107232D01*
X420527Y107155D01*
X420565Y107110D01*
X420594Y107060D01*
X420656Y107002D01*
X420710Y106938D01*
X420759Y106906D01*
X420802Y106866D01*
X420877Y106827D01*
X420947Y106780D01*
X421003Y106763D01*
X421055Y106736D01*
X421123Y106725D01*
X421218Y106695D01*
X421318Y106692D01*
X421386Y106681D01*
X474316Y106681D01*
X474347Y106685D01*
X474378Y106683D01*
X474454Y106700D01*
X474598Y106721D01*
X474656Y106747D01*
X474705Y106758D01*
X475863Y107238D01*
X475890Y107254D01*
X475919Y107263D01*
X475983Y107309D01*
X476108Y107382D01*
X476153Y107429D01*
X476193Y107458D01*
X489882Y121147D01*
X491749Y121921D01*
X511103Y121921D01*
X511188Y121933D01*
X511274Y121935D01*
X511328Y121953D01*
X511384Y121961D01*
X511463Y121996D01*
X511545Y122022D01*
X511592Y122054D01*
X511644Y122077D01*
X511709Y122132D01*
X511781Y122180D01*
X511817Y122224D01*
X511861Y122260D01*
X511908Y122332D01*
X511964Y122398D01*
X511987Y122450D01*
X512018Y122497D01*
X512044Y122579D01*
X512079Y122658D01*
X512087Y122714D01*
X512104Y122768D01*
X512106Y122854D01*
X512118Y122939D01*
X512110Y122995D01*
X512111Y123052D01*
X512090Y123135D01*
X512077Y123221D01*
X512054Y123272D01*
X512040Y123327D01*
X511996Y123401D01*
X511960Y123480D01*
X511923Y123523D01*
X511894Y123572D01*
X511832Y123631D01*
X511776Y123696D01*
X511734Y123722D01*
X511687Y123766D01*
X511558Y123832D01*
X511491Y123874D01*
X509770Y124587D01*
X508127Y126230D01*
X507237Y128378D01*
X507237Y130702D01*
X508127Y132850D01*
X509770Y134493D01*
X511918Y135383D01*
X514242Y135383D01*
X516390Y134493D01*
X517235Y133648D01*
X517305Y133596D01*
X517368Y133536D01*
X517418Y133510D01*
X517462Y133477D01*
X517544Y133446D01*
X517622Y133406D01*
X517669Y133398D01*
X517728Y133376D01*
X517875Y133364D01*
X517953Y133351D01*
X583238Y133351D01*
X588021Y128568D01*
X590551Y126038D01*
X590551Y87322D01*
X583238Y80009D01*
X563339Y80009D01*
X563252Y79997D01*
X563165Y79994D01*
X563112Y79977D01*
X563057Y79969D01*
X562978Y79934D01*
X562894Y79907D01*
X562855Y79879D01*
X562798Y79853D01*
X562685Y79757D01*
X562621Y79712D01*
X560368Y77459D01*
X560316Y77389D01*
X560256Y77325D01*
X560230Y77276D01*
X560197Y77232D01*
X560166Y77150D01*
X560126Y77072D01*
X560118Y77025D01*
X560096Y76966D01*
X560084Y76818D01*
X560071Y76741D01*
X560071Y51762D01*
X547678Y39369D01*
X532859Y39369D01*
X532772Y39357D01*
X532685Y39354D01*
X532632Y39337D01*
X532577Y39329D01*
X532498Y39294D01*
X532414Y39267D01*
X532375Y39239D01*
X532318Y39213D01*
X532205Y39117D01*
X532141Y39072D01*
X529888Y36819D01*
X529836Y36749D01*
X529776Y36685D01*
X529750Y36636D01*
X529717Y36592D01*
X529686Y36510D01*
X529646Y36432D01*
X529638Y36385D01*
X529616Y36326D01*
X529607Y36219D01*
X529605Y36212D01*
X529604Y36181D01*
X529604Y36178D01*
X529591Y36101D01*
X529591Y24722D01*
X529591Y24721D01*
X529591Y24719D01*
X529611Y24579D01*
X529631Y24441D01*
X529631Y24439D01*
X529631Y24438D01*
X529688Y24312D01*
X529747Y24181D01*
X529748Y24180D01*
X529749Y24179D01*
X529840Y24072D01*
X529930Y23964D01*
X529932Y23964D01*
X529933Y23962D01*
X529946Y23954D01*
X530167Y23807D01*
X530196Y23798D01*
X530217Y23784D01*
X532543Y22821D01*
X535901Y19463D01*
X537719Y15075D01*
X537719Y10325D01*
X535901Y5937D01*
X534238Y4274D01*
X534220Y4250D01*
X534198Y4231D01*
X534135Y4137D01*
X534067Y4047D01*
X534056Y4019D01*
X534040Y3995D01*
X534006Y3887D01*
X533966Y3781D01*
X533963Y3752D01*
X533954Y3724D01*
X533951Y3610D01*
X533942Y3498D01*
X533948Y3469D01*
X533947Y3440D01*
X533976Y3330D01*
X533998Y3219D01*
X534012Y3193D01*
X534019Y3165D01*
X534077Y3067D01*
X534129Y2967D01*
X534149Y2945D01*
X534164Y2920D01*
X534247Y2843D01*
X534325Y2761D01*
X534350Y2746D01*
X534371Y2726D01*
X534472Y2674D01*
X534570Y2617D01*
X534598Y2610D01*
X534625Y2596D01*
X534702Y2583D01*
X534846Y2547D01*
X534908Y2549D01*
X534956Y2541D01*
X581715Y2541D01*
X581822Y2556D01*
X581930Y2564D01*
X581962Y2576D01*
X581997Y2581D01*
X582095Y2625D01*
X582196Y2662D01*
X582224Y2683D01*
X582256Y2697D01*
X582338Y2766D01*
X582425Y2830D01*
X582447Y2858D01*
X582473Y2880D01*
X582533Y2970D01*
X582599Y3056D01*
X582611Y3088D01*
X582631Y3117D01*
X582663Y3220D01*
X582703Y3320D01*
X582706Y3355D01*
X582717Y3388D01*
X582719Y3496D01*
X582729Y3603D01*
X582723Y3638D01*
X582724Y3672D01*
X582697Y3777D01*
X582676Y3883D01*
X582661Y3914D01*
X582652Y3947D01*
X582597Y4040D01*
X582548Y4136D01*
X582525Y4162D01*
X582507Y4192D01*
X582428Y4266D01*
X582355Y4345D01*
X582328Y4360D01*
X582299Y4386D01*
X582109Y4484D01*
X582062Y4510D01*
X578060Y5967D01*
X572090Y10976D01*
X568194Y17725D01*
X566840Y25400D01*
X568194Y33075D01*
X572090Y39824D01*
X578060Y44833D01*
X585383Y47499D01*
X593177Y47499D01*
X600500Y44833D01*
X606470Y39824D01*
X610060Y33605D01*
X610072Y33590D01*
X610080Y33572D01*
X610160Y33478D01*
X610235Y33381D01*
X610251Y33370D01*
X610264Y33355D01*
X610366Y33287D01*
X610466Y33215D01*
X610484Y33208D01*
X610500Y33198D01*
X610617Y33160D01*
X610733Y33119D01*
X610753Y33117D01*
X610771Y33112D01*
X610894Y33108D01*
X611017Y33101D01*
X611036Y33105D01*
X611055Y33104D01*
X611175Y33135D01*
X611295Y33162D01*
X611312Y33171D01*
X611330Y33176D01*
X611437Y33239D01*
X611544Y33298D01*
X611558Y33311D01*
X611575Y33321D01*
X611659Y33411D01*
X611747Y33497D01*
X611756Y33514D01*
X611769Y33528D01*
X611825Y33637D01*
X611886Y33745D01*
X611890Y33764D01*
X611899Y33781D01*
X611911Y33854D01*
X611951Y34022D01*
X611948Y34073D01*
X611955Y34112D01*
X612015Y167640D01*
X612007Y167698D01*
X612008Y167756D01*
X611987Y167838D01*
X611975Y167921D01*
X611951Y167975D01*
X611936Y168031D01*
X611893Y168104D01*
X611859Y168181D01*
X611821Y168225D01*
X611791Y168276D01*
X611730Y168333D01*
X611675Y168398D01*
X611627Y168430D01*
X611584Y168470D01*
X611509Y168509D01*
X611439Y168555D01*
X611383Y168573D01*
X611331Y168600D01*
X611263Y168611D01*
X611168Y168641D01*
X611068Y168644D01*
X610999Y168655D01*
X332517Y168655D01*
X332488Y168651D01*
X332459Y168654D01*
X332348Y168631D01*
X332236Y168615D01*
X332209Y168603D01*
X332180Y168598D01*
X332080Y168546D01*
X331976Y168499D01*
X331954Y168480D01*
X331928Y168467D01*
X331846Y168389D01*
X331759Y168316D01*
X331743Y168291D01*
X331722Y168271D01*
X331664Y168173D01*
X331602Y168079D01*
X331593Y168051D01*
X331578Y168026D01*
X331550Y167916D01*
X331516Y167808D01*
X331515Y167778D01*
X331508Y167750D01*
X331511Y167637D01*
X331508Y167524D01*
X331516Y167495D01*
X331517Y167466D01*
X331552Y167358D01*
X331580Y167249D01*
X331595Y167223D01*
X331604Y167195D01*
X331650Y167132D01*
X331726Y167004D01*
X331771Y166961D01*
X331799Y166922D01*
X332248Y166473D01*
X332261Y166426D01*
X332273Y166342D01*
X332296Y166289D01*
X332311Y166233D01*
X332354Y166160D01*
X332389Y166083D01*
X332427Y166038D01*
X332456Y165988D01*
X332518Y165930D01*
X332572Y165866D01*
X332621Y165834D01*
X332664Y165794D01*
X332739Y165755D01*
X332809Y165708D01*
X332865Y165691D01*
X332917Y165664D01*
X332985Y165653D01*
X333080Y165623D01*
X333180Y165620D01*
X333248Y165609D01*
X339091Y165609D01*
X339154Y165618D01*
X339203Y165615D01*
X340444Y165753D01*
X340463Y165743D01*
X340558Y165686D01*
X340589Y165679D01*
X340617Y165664D01*
X340694Y165651D01*
X340803Y165623D01*
X341680Y164746D01*
X341731Y164708D01*
X341764Y164671D01*
X342738Y163891D01*
X342745Y163871D01*
X342772Y163763D01*
X342789Y163736D01*
X342798Y163706D01*
X342844Y163642D01*
X342901Y163545D01*
X342901Y162305D01*
X342910Y162242D01*
X342907Y162193D01*
X343045Y160952D01*
X343035Y160933D01*
X342978Y160838D01*
X342971Y160807D01*
X342956Y160779D01*
X342943Y160702D01*
X342915Y160593D01*
X342038Y159716D01*
X342000Y159665D01*
X341963Y159632D01*
X339988Y157163D01*
X339942Y157085D01*
X339888Y157013D01*
X339870Y156964D01*
X339843Y156919D01*
X339820Y156831D01*
X339789Y156746D01*
X339785Y156694D01*
X339772Y156643D01*
X339774Y156553D01*
X339768Y156463D01*
X339778Y156411D01*
X339780Y156359D01*
X339807Y156273D01*
X339826Y156184D01*
X339850Y156138D01*
X339866Y156088D01*
X339916Y156013D01*
X339959Y155933D01*
X339995Y155895D01*
X340024Y155852D01*
X340093Y155794D01*
X340156Y155729D01*
X340196Y155707D01*
X340241Y155669D01*
X340383Y155606D01*
X340451Y155569D01*
X340759Y155463D01*
X342901Y152465D01*
X342901Y148779D01*
X341600Y146958D01*
X341592Y146943D01*
X341580Y146930D01*
X341526Y146817D01*
X341468Y146706D01*
X341465Y146689D01*
X341458Y146674D01*
X341437Y146550D01*
X341412Y146427D01*
X341414Y146410D01*
X341411Y146393D01*
X341425Y146269D01*
X341435Y146144D01*
X341441Y146128D01*
X341443Y146111D01*
X341473Y146046D01*
X341536Y145878D01*
X341565Y145839D01*
X341581Y145805D01*
X343121Y143495D01*
X342543Y140606D01*
X341689Y140037D01*
X341602Y139959D01*
X341512Y139887D01*
X341497Y139865D01*
X341477Y139848D01*
X341415Y139749D01*
X341349Y139655D01*
X341340Y139629D01*
X341326Y139607D01*
X341294Y139496D01*
X341256Y139386D01*
X341254Y139359D01*
X341247Y139334D01*
X341247Y139218D01*
X341241Y139102D01*
X341247Y139076D01*
X341247Y139049D01*
X341279Y138938D01*
X341306Y138825D01*
X341319Y138802D01*
X341326Y138776D01*
X341388Y138678D01*
X341444Y138577D01*
X341462Y138561D01*
X341478Y138536D01*
X341685Y138351D01*
X341689Y138347D01*
X342543Y137778D01*
X343121Y134889D01*
X341486Y132437D01*
X338597Y131859D01*
X334573Y134542D01*
X334572Y134542D01*
X334442Y134605D01*
X334317Y134665D01*
X334316Y134665D01*
X334172Y134689D01*
X334037Y134712D01*
X334036Y134712D01*
X334035Y134712D01*
X333887Y134695D01*
X333754Y134680D01*
X333754Y134679D01*
X333753Y134679D01*
X333748Y134677D01*
X333492Y134570D01*
X333469Y134552D01*
X333447Y134542D01*
X329423Y131859D01*
X326534Y132437D01*
X324899Y134889D01*
X325477Y137778D01*
X326331Y138347D01*
X326418Y138425D01*
X326508Y138497D01*
X326523Y138519D01*
X326543Y138536D01*
X326605Y138635D01*
X326671Y138729D01*
X326680Y138755D01*
X326694Y138777D01*
X326726Y138888D01*
X326764Y138998D01*
X326766Y139025D01*
X326773Y139050D01*
X326773Y139166D01*
X326779Y139282D01*
X326773Y139308D01*
X326773Y139335D01*
X326741Y139446D01*
X326714Y139559D01*
X326701Y139582D01*
X326694Y139608D01*
X326632Y139706D01*
X326576Y139807D01*
X326558Y139823D01*
X326542Y139848D01*
X326335Y140033D01*
X326331Y140037D01*
X325477Y140606D01*
X324899Y143495D01*
X326439Y145805D01*
X326446Y145820D01*
X326457Y145833D01*
X326508Y145948D01*
X326562Y146061D01*
X326565Y146078D01*
X326572Y146093D01*
X326588Y146218D01*
X326609Y146341D01*
X326607Y146358D01*
X326610Y146375D01*
X326591Y146499D01*
X326577Y146624D01*
X326570Y146639D01*
X326568Y146656D01*
X326537Y146720D01*
X326467Y146886D01*
X326437Y146924D01*
X326420Y146958D01*
X325119Y148779D01*
X325119Y152465D01*
X326766Y154769D01*
X326820Y154873D01*
X326879Y154974D01*
X326885Y154999D01*
X326897Y155022D01*
X326920Y155137D01*
X326949Y155249D01*
X326948Y155275D01*
X326953Y155300D01*
X326943Y155417D01*
X326940Y155533D01*
X326932Y155558D01*
X326930Y155584D01*
X326888Y155693D01*
X326852Y155804D01*
X326839Y155823D01*
X326829Y155849D01*
X326658Y156077D01*
X326657Y156077D01*
X325119Y157615D01*
X325119Y166489D01*
X325553Y166922D01*
X325570Y166946D01*
X325593Y166965D01*
X325656Y167059D01*
X325724Y167149D01*
X325734Y167177D01*
X325750Y167201D01*
X325785Y167309D01*
X325825Y167415D01*
X325827Y167444D01*
X325836Y167472D01*
X325839Y167586D01*
X325849Y167698D01*
X325843Y167727D01*
X325844Y167756D01*
X325815Y167866D01*
X325793Y167977D01*
X325779Y168003D01*
X325772Y168031D01*
X325714Y168129D01*
X325662Y168229D01*
X325641Y168251D01*
X325626Y168276D01*
X325544Y168353D01*
X325466Y168435D01*
X325441Y168450D01*
X325419Y168470D01*
X325318Y168522D01*
X325221Y168579D01*
X325192Y168586D01*
X325166Y168600D01*
X325089Y168613D01*
X324945Y168649D01*
X324883Y168647D01*
X324835Y168655D01*
X313436Y168655D01*
X313378Y168647D01*
X313320Y168649D01*
X313238Y168627D01*
X313154Y168615D01*
X313101Y168592D01*
X313045Y168577D01*
X312972Y168534D01*
X312895Y168499D01*
X312850Y168461D01*
X312800Y168432D01*
X312742Y168370D01*
X312678Y168316D01*
X312646Y168267D01*
X312606Y168224D01*
X312567Y168149D01*
X312520Y168079D01*
X312503Y168023D01*
X312476Y167971D01*
X312465Y167903D01*
X312435Y167808D01*
X312432Y167708D01*
X312421Y167640D01*
X312421Y33793D01*
X312423Y33774D01*
X312421Y33754D01*
X312443Y33633D01*
X312461Y33511D01*
X312469Y33494D01*
X312472Y33474D01*
X312527Y33364D01*
X312577Y33252D01*
X312589Y33237D01*
X312598Y33220D01*
X312681Y33129D01*
X312760Y33035D01*
X312777Y33024D01*
X312790Y33010D01*
X312895Y32945D01*
X312997Y32877D01*
X313016Y32872D01*
X313032Y32861D01*
X313151Y32829D01*
X313268Y32792D01*
X313288Y32791D01*
X313307Y32786D01*
X313429Y32788D01*
X313552Y32784D01*
X313571Y32789D01*
X313591Y32790D01*
X313709Y32825D01*
X313827Y32856D01*
X313844Y32866D01*
X313863Y32872D01*
X313966Y32939D01*
X314072Y33001D01*
X314085Y33016D01*
X314102Y33026D01*
X314148Y33083D01*
X314266Y33209D01*
X314290Y33254D01*
X314315Y33285D01*
X318090Y39824D01*
X324060Y44833D01*
X331383Y47499D01*
X339177Y47499D01*
X346500Y44833D01*
X352470Y39824D01*
X356366Y33075D01*
X357720Y25400D01*
X356366Y17725D01*
X352470Y10976D01*
X346500Y5967D01*
X342498Y4510D01*
X342402Y4459D01*
X342304Y4415D01*
X342277Y4393D01*
X342247Y4376D01*
X342169Y4301D01*
X342087Y4231D01*
X342068Y4203D01*
X342043Y4178D01*
X341989Y4085D01*
X341929Y3995D01*
X341919Y3962D01*
X341902Y3932D01*
X341876Y3827D01*
X341843Y3724D01*
X341843Y3689D01*
X341834Y3655D01*
X341839Y3548D01*
X341836Y3440D01*
X341845Y3406D01*
X341846Y3371D01*
X341881Y3269D01*
X341908Y3165D01*
X341926Y3135D01*
X341937Y3102D01*
X341998Y3013D01*
X342053Y2920D01*
X342079Y2896D01*
X342098Y2868D01*
X342182Y2800D01*
X342261Y2726D01*
X342292Y2710D01*
X342318Y2688D01*
X342418Y2645D01*
X342514Y2596D01*
X342544Y2591D01*
X342580Y2576D01*
X342792Y2550D01*
X342845Y2541D01*
X389604Y2541D01*
X389633Y2545D01*
G37*
G36*
X389633Y452125D02*
X389633Y452125D01*
X389663Y452122D01*
X389774Y452145D01*
X389886Y452161D01*
X389913Y452173D01*
X389941Y452178D01*
X390042Y452231D01*
X390145Y452277D01*
X390168Y452296D01*
X390194Y452309D01*
X390276Y452387D01*
X390362Y452460D01*
X390379Y452485D01*
X390400Y452505D01*
X390457Y452603D01*
X390520Y452697D01*
X390529Y452725D01*
X390544Y452750D01*
X390571Y452860D01*
X390606Y452968D01*
X390606Y452998D01*
X390614Y453026D01*
X390610Y453139D01*
X390613Y453252D01*
X390606Y453281D01*
X390605Y453310D01*
X390570Y453418D01*
X390541Y453527D01*
X390526Y453553D01*
X390517Y453581D01*
X390471Y453645D01*
X390396Y453772D01*
X390350Y453815D01*
X390322Y453854D01*
X389674Y454502D01*
X388569Y456023D01*
X387716Y457697D01*
X387135Y459484D01*
X387014Y460249D01*
X397764Y460249D01*
X397822Y460257D01*
X397880Y460255D01*
X397962Y460277D01*
X398045Y460289D01*
X398099Y460313D01*
X398155Y460327D01*
X398228Y460370D01*
X398305Y460405D01*
X398349Y460443D01*
X398400Y460473D01*
X398457Y460534D01*
X398522Y460589D01*
X398554Y460637D01*
X398594Y460680D01*
X398633Y460755D01*
X398679Y460825D01*
X398697Y460881D01*
X398724Y460933D01*
X398735Y461001D01*
X398765Y461096D01*
X398768Y461196D01*
X398779Y461264D01*
X398779Y462281D01*
X399796Y462281D01*
X399854Y462289D01*
X399912Y462288D01*
X399994Y462309D01*
X400077Y462321D01*
X400131Y462345D01*
X400187Y462359D01*
X400260Y462402D01*
X400337Y462437D01*
X400382Y462475D01*
X400432Y462505D01*
X400490Y462566D01*
X400554Y462621D01*
X400586Y462669D01*
X400626Y462712D01*
X400665Y462787D01*
X400711Y462857D01*
X400729Y462913D01*
X400756Y462965D01*
X400767Y463033D01*
X400797Y463128D01*
X400800Y463228D01*
X400811Y463296D01*
X400811Y474046D01*
X401576Y473925D01*
X403363Y473344D01*
X405037Y472491D01*
X406558Y471386D01*
X407886Y470058D01*
X408991Y468537D01*
X409844Y466863D01*
X410449Y465000D01*
X410462Y464974D01*
X410469Y464944D01*
X410475Y464934D01*
X410476Y464928D01*
X410490Y464904D01*
X410501Y464871D01*
X410542Y464809D01*
X410574Y464744D01*
X410594Y464723D01*
X410608Y464697D01*
X410621Y464684D01*
X410622Y464683D01*
X410628Y464677D01*
X410637Y464668D01*
X410659Y464635D01*
X410717Y464587D01*
X410765Y464533D01*
X410789Y464519D01*
X410811Y464497D01*
X410846Y464478D01*
X410877Y464452D01*
X410946Y464421D01*
X411007Y464384D01*
X411034Y464376D01*
X411061Y464362D01*
X411100Y464353D01*
X411137Y464337D01*
X411212Y464326D01*
X411281Y464307D01*
X411308Y464307D01*
X411339Y464301D01*
X411379Y464303D01*
X411418Y464298D01*
X411494Y464309D01*
X411565Y464309D01*
X411591Y464317D01*
X411622Y464319D01*
X411660Y464333D01*
X411700Y464339D01*
X411769Y464370D01*
X411837Y464390D01*
X411861Y464405D01*
X411890Y464416D01*
X411922Y464439D01*
X411959Y464456D01*
X412016Y464505D01*
X412077Y464543D01*
X412095Y464565D01*
X412120Y464582D01*
X412145Y464614D01*
X412175Y464640D01*
X412206Y464689D01*
X412210Y464695D01*
X412264Y464757D01*
X412276Y464783D01*
X412295Y464806D01*
X412311Y464848D01*
X412333Y464880D01*
X412341Y464905D01*
X412353Y464925D01*
X414059Y469043D01*
X417417Y472401D01*
X418473Y472838D01*
X418474Y472839D01*
X418475Y472839D01*
X418592Y472909D01*
X418717Y472983D01*
X418719Y472984D01*
X418720Y472985D01*
X418815Y473086D01*
X418913Y473189D01*
X418913Y473191D01*
X418914Y473192D01*
X418978Y473317D01*
X419043Y473442D01*
X419043Y473444D01*
X419044Y473445D01*
X419046Y473460D01*
X419098Y473721D01*
X419095Y473752D01*
X419099Y473776D01*
X419099Y482615D01*
X419092Y482667D01*
X419093Y482695D01*
X419086Y482718D01*
X419084Y482789D01*
X419067Y482842D01*
X419059Y482896D01*
X419024Y482976D01*
X418997Y483059D01*
X418969Y483099D01*
X418943Y483156D01*
X418847Y483269D01*
X418802Y483333D01*
X412213Y489922D01*
X412143Y489974D01*
X412079Y490034D01*
X412030Y490060D01*
X411986Y490093D01*
X411904Y490124D01*
X411826Y490164D01*
X411778Y490172D01*
X411720Y490194D01*
X411572Y490206D01*
X411495Y490219D01*
X397769Y490219D01*
X395902Y490993D01*
X394330Y492565D01*
X389833Y497062D01*
X389808Y497081D01*
X389788Y497104D01*
X389721Y497146D01*
X389606Y497233D01*
X389545Y497256D01*
X389503Y497282D01*
X387850Y497967D01*
X386207Y499610D01*
X385317Y501758D01*
X385317Y504082D01*
X386002Y505735D01*
X386010Y505765D01*
X386024Y505793D01*
X386037Y505870D01*
X386073Y506011D01*
X386071Y506075D01*
X386079Y506124D01*
X386079Y545084D01*
X386071Y545142D01*
X386073Y545200D01*
X386051Y545282D01*
X386039Y545366D01*
X386016Y545419D01*
X386001Y545475D01*
X385958Y545548D01*
X385923Y545625D01*
X385885Y545670D01*
X385856Y545720D01*
X385794Y545778D01*
X385740Y545842D01*
X385691Y545874D01*
X385648Y545914D01*
X385573Y545953D01*
X385503Y546000D01*
X385447Y546017D01*
X385395Y546044D01*
X385327Y546055D01*
X385232Y546085D01*
X385132Y546088D01*
X385064Y546099D01*
X349509Y546099D01*
X347642Y546873D01*
X346070Y548445D01*
X344113Y550402D01*
X344088Y550421D01*
X344068Y550444D01*
X344001Y550486D01*
X343886Y550573D01*
X343825Y550596D01*
X343783Y550622D01*
X342130Y551307D01*
X340487Y552950D01*
X339597Y555098D01*
X339597Y557422D01*
X340487Y559570D01*
X342130Y561213D01*
X344278Y562103D01*
X346602Y562103D01*
X348750Y561213D01*
X350393Y559570D01*
X351078Y557917D01*
X351094Y557890D01*
X351103Y557861D01*
X351149Y557796D01*
X351222Y557672D01*
X351269Y557628D01*
X351298Y557587D01*
X352327Y556558D01*
X352397Y556506D01*
X352461Y556446D01*
X352510Y556420D01*
X352554Y556387D01*
X352636Y556356D01*
X352714Y556316D01*
X352762Y556308D01*
X352820Y556286D01*
X352968Y556274D01*
X353045Y556261D01*
X385525Y556261D01*
X385555Y556265D01*
X385584Y556262D01*
X385695Y556285D01*
X385807Y556301D01*
X385834Y556313D01*
X385862Y556318D01*
X385963Y556371D01*
X386066Y556417D01*
X386089Y556436D01*
X386115Y556449D01*
X386197Y556527D01*
X386283Y556600D01*
X386300Y556625D01*
X386321Y556645D01*
X386378Y556743D01*
X386441Y556837D01*
X386450Y556865D01*
X386465Y556890D01*
X386492Y557000D01*
X386527Y557108D01*
X386527Y557137D01*
X386535Y557166D01*
X386531Y557279D01*
X386534Y557392D01*
X386527Y557421D01*
X386526Y557450D01*
X386491Y557558D01*
X386462Y557667D01*
X386447Y557693D01*
X386438Y557721D01*
X386393Y557785D01*
X386317Y557912D01*
X386271Y557955D01*
X386243Y557994D01*
X386207Y558030D01*
X385317Y560178D01*
X385317Y562502D01*
X386207Y564650D01*
X387850Y566293D01*
X389998Y567183D01*
X392322Y567183D01*
X394470Y566293D01*
X395061Y565702D01*
X395131Y565650D01*
X395194Y565590D01*
X395244Y565564D01*
X395288Y565531D01*
X395370Y565500D01*
X395448Y565460D01*
X395495Y565452D01*
X395554Y565430D01*
X395701Y565418D01*
X395779Y565405D01*
X401625Y565405D01*
X401712Y565417D01*
X401799Y565420D01*
X401852Y565437D01*
X401907Y565445D01*
X401986Y565480D01*
X402070Y565507D01*
X402109Y565535D01*
X402166Y565561D01*
X402279Y565657D01*
X402343Y565702D01*
X404078Y567437D01*
X418882Y567437D01*
X420371Y565948D01*
X420371Y557276D01*
X420379Y557218D01*
X420377Y557160D01*
X420399Y557078D01*
X420411Y556994D01*
X420434Y556941D01*
X420449Y556885D01*
X420492Y556812D01*
X420527Y556735D01*
X420565Y556690D01*
X420594Y556640D01*
X420656Y556582D01*
X420710Y556518D01*
X420759Y556486D01*
X420802Y556446D01*
X420877Y556407D01*
X420947Y556360D01*
X421003Y556343D01*
X421055Y556316D01*
X421123Y556305D01*
X421218Y556275D01*
X421318Y556272D01*
X421386Y556261D01*
X474316Y556261D01*
X474347Y556265D01*
X474378Y556263D01*
X474454Y556280D01*
X474598Y556301D01*
X474656Y556327D01*
X474705Y556338D01*
X475863Y556818D01*
X475890Y556834D01*
X475919Y556843D01*
X475983Y556889D01*
X476108Y556962D01*
X476153Y557009D01*
X476193Y557038D01*
X489882Y570727D01*
X491749Y571501D01*
X511103Y571501D01*
X511188Y571513D01*
X511274Y571515D01*
X511328Y571533D01*
X511384Y571541D01*
X511463Y571576D01*
X511544Y571602D01*
X511592Y571634D01*
X511644Y571657D01*
X511709Y571712D01*
X511781Y571760D01*
X511817Y571804D01*
X511861Y571840D01*
X511908Y571912D01*
X511964Y571978D01*
X511987Y572030D01*
X512018Y572077D01*
X512044Y572159D01*
X512079Y572238D01*
X512087Y572294D01*
X512104Y572348D01*
X512106Y572434D01*
X512118Y572519D01*
X512110Y572575D01*
X512111Y572632D01*
X512090Y572715D01*
X512077Y572800D01*
X512054Y572852D01*
X512040Y572907D01*
X511996Y572981D01*
X511960Y573060D01*
X511923Y573103D01*
X511894Y573152D01*
X511832Y573211D01*
X511776Y573276D01*
X511734Y573302D01*
X511687Y573346D01*
X511558Y573412D01*
X511491Y573454D01*
X509770Y574167D01*
X508127Y575810D01*
X507237Y577958D01*
X507237Y580282D01*
X508127Y582430D01*
X509770Y584073D01*
X511918Y584963D01*
X514242Y584963D01*
X516390Y584073D01*
X517235Y583228D01*
X517305Y583176D01*
X517368Y583116D01*
X517418Y583090D01*
X517462Y583057D01*
X517544Y583026D01*
X517622Y582986D01*
X517669Y582978D01*
X517728Y582956D01*
X517875Y582944D01*
X517953Y582931D01*
X583238Y582931D01*
X590551Y575618D01*
X590551Y536902D01*
X583238Y529589D01*
X563339Y529589D01*
X563252Y529577D01*
X563165Y529574D01*
X563112Y529557D01*
X563057Y529549D01*
X562978Y529514D01*
X562894Y529487D01*
X562855Y529459D01*
X562798Y529433D01*
X562685Y529337D01*
X562621Y529292D01*
X560368Y527039D01*
X560316Y526969D01*
X560256Y526905D01*
X560230Y526856D01*
X560197Y526812D01*
X560166Y526730D01*
X560126Y526652D01*
X560118Y526605D01*
X560096Y526546D01*
X560084Y526398D01*
X560071Y526321D01*
X560071Y501342D01*
X547678Y488949D01*
X532859Y488949D01*
X532772Y488937D01*
X532685Y488934D01*
X532632Y488917D01*
X532577Y488909D01*
X532498Y488874D01*
X532414Y488847D01*
X532375Y488819D01*
X532318Y488793D01*
X532205Y488697D01*
X532141Y488652D01*
X529888Y486399D01*
X529836Y486329D01*
X529776Y486265D01*
X529750Y486216D01*
X529717Y486172D01*
X529686Y486090D01*
X529646Y486012D01*
X529638Y485965D01*
X529616Y485906D01*
X529607Y485799D01*
X529605Y485792D01*
X529604Y485761D01*
X529604Y485758D01*
X529591Y485681D01*
X529591Y474302D01*
X529591Y474301D01*
X529591Y474299D01*
X529611Y474159D01*
X529631Y474021D01*
X529631Y474019D01*
X529631Y474018D01*
X529688Y473892D01*
X529747Y473761D01*
X529748Y473760D01*
X529749Y473759D01*
X529840Y473652D01*
X529930Y473544D01*
X529932Y473544D01*
X529933Y473542D01*
X529946Y473534D01*
X530167Y473387D01*
X530196Y473378D01*
X530217Y473364D01*
X532543Y472401D01*
X535901Y469043D01*
X537719Y464655D01*
X537719Y459905D01*
X535901Y455517D01*
X534238Y453854D01*
X534220Y453830D01*
X534198Y453811D01*
X534135Y453717D01*
X534067Y453627D01*
X534056Y453599D01*
X534040Y453575D01*
X534006Y453467D01*
X533966Y453361D01*
X533963Y453332D01*
X533954Y453304D01*
X533951Y453190D01*
X533942Y453078D01*
X533948Y453049D01*
X533947Y453020D01*
X533976Y452910D01*
X533998Y452799D01*
X534012Y452773D01*
X534019Y452745D01*
X534077Y452647D01*
X534129Y452547D01*
X534149Y452525D01*
X534164Y452500D01*
X534247Y452423D01*
X534325Y452341D01*
X534350Y452326D01*
X534371Y452306D01*
X534472Y452254D01*
X534570Y452197D01*
X534598Y452190D01*
X534625Y452176D01*
X534702Y452163D01*
X534846Y452127D01*
X534908Y452129D01*
X534956Y452121D01*
X581715Y452121D01*
X581822Y452136D01*
X581930Y452144D01*
X581962Y452156D01*
X581997Y452161D01*
X582095Y452205D01*
X582196Y452242D01*
X582224Y452263D01*
X582256Y452277D01*
X582338Y452346D01*
X582425Y452410D01*
X582447Y452438D01*
X582473Y452460D01*
X582533Y452550D01*
X582599Y452636D01*
X582611Y452668D01*
X582631Y452697D01*
X582663Y452800D01*
X582703Y452900D01*
X582706Y452935D01*
X582717Y452968D01*
X582719Y453076D01*
X582729Y453183D01*
X582723Y453218D01*
X582724Y453252D01*
X582697Y453357D01*
X582676Y453463D01*
X582661Y453494D01*
X582652Y453527D01*
X582597Y453620D01*
X582548Y453716D01*
X582525Y453742D01*
X582507Y453772D01*
X582428Y453846D01*
X582355Y453925D01*
X582328Y453940D01*
X582299Y453966D01*
X582109Y454064D01*
X582062Y454090D01*
X578060Y455547D01*
X572090Y460556D01*
X568194Y467305D01*
X566840Y474980D01*
X568194Y482655D01*
X572090Y489404D01*
X578060Y494413D01*
X585383Y497079D01*
X593177Y497079D01*
X600500Y494413D01*
X606470Y489404D01*
X610060Y483185D01*
X610072Y483170D01*
X610080Y483152D01*
X610160Y483058D01*
X610235Y482961D01*
X610251Y482950D01*
X610264Y482935D01*
X610366Y482867D01*
X610466Y482795D01*
X610484Y482788D01*
X610500Y482778D01*
X610617Y482740D01*
X610733Y482699D01*
X610753Y482697D01*
X610771Y482692D01*
X610894Y482688D01*
X611017Y482681D01*
X611036Y482685D01*
X611055Y482684D01*
X611175Y482715D01*
X611295Y482742D01*
X611312Y482751D01*
X611330Y482756D01*
X611437Y482819D01*
X611544Y482878D01*
X611558Y482891D01*
X611575Y482901D01*
X611659Y482991D01*
X611747Y483077D01*
X611756Y483094D01*
X611769Y483108D01*
X611825Y483217D01*
X611886Y483325D01*
X611890Y483344D01*
X611899Y483361D01*
X611911Y483434D01*
X611951Y483602D01*
X611948Y483653D01*
X611955Y483692D01*
X612015Y617220D01*
X612007Y617278D01*
X612008Y617336D01*
X611987Y617418D01*
X611975Y617501D01*
X611951Y617555D01*
X611936Y617611D01*
X611893Y617684D01*
X611859Y617761D01*
X611821Y617805D01*
X611791Y617856D01*
X611730Y617913D01*
X611675Y617978D01*
X611627Y618010D01*
X611584Y618050D01*
X611509Y618089D01*
X611439Y618135D01*
X611383Y618153D01*
X611331Y618180D01*
X611263Y618191D01*
X611168Y618221D01*
X611068Y618224D01*
X610999Y618235D01*
X332517Y618235D01*
X332488Y618231D01*
X332459Y618234D01*
X332348Y618211D01*
X332236Y618195D01*
X332209Y618183D01*
X332180Y618178D01*
X332080Y618126D01*
X331976Y618079D01*
X331954Y618060D01*
X331928Y618047D01*
X331846Y617969D01*
X331759Y617896D01*
X331743Y617871D01*
X331722Y617851D01*
X331664Y617753D01*
X331602Y617659D01*
X331593Y617631D01*
X331578Y617606D01*
X331550Y617496D01*
X331516Y617388D01*
X331515Y617358D01*
X331508Y617330D01*
X331511Y617217D01*
X331508Y617104D01*
X331516Y617075D01*
X331517Y617046D01*
X331552Y616938D01*
X331580Y616829D01*
X331595Y616803D01*
X331604Y616775D01*
X331650Y616712D01*
X331726Y616584D01*
X331771Y616541D01*
X331799Y616502D01*
X332248Y616053D01*
X332261Y616006D01*
X332273Y615922D01*
X332296Y615869D01*
X332311Y615813D01*
X332354Y615740D01*
X332389Y615663D01*
X332427Y615618D01*
X332456Y615568D01*
X332518Y615510D01*
X332572Y615446D01*
X332621Y615414D01*
X332664Y615374D01*
X332739Y615335D01*
X332809Y615288D01*
X332865Y615271D01*
X332917Y615244D01*
X332985Y615233D01*
X333080Y615203D01*
X333180Y615200D01*
X333248Y615189D01*
X339091Y615189D01*
X339154Y615198D01*
X339203Y615195D01*
X340444Y615333D01*
X340463Y615323D01*
X340558Y615266D01*
X340589Y615259D01*
X340617Y615244D01*
X340694Y615231D01*
X340803Y615203D01*
X341680Y614326D01*
X341731Y614288D01*
X341764Y614251D01*
X342738Y613471D01*
X342745Y613451D01*
X342772Y613343D01*
X342789Y613316D01*
X342798Y613286D01*
X342844Y613222D01*
X342901Y613125D01*
X342901Y611885D01*
X342910Y611822D01*
X342907Y611773D01*
X343045Y610532D01*
X343035Y610513D01*
X342978Y610418D01*
X342971Y610387D01*
X342956Y610359D01*
X342943Y610282D01*
X342915Y610173D01*
X342038Y609296D01*
X342000Y609245D01*
X341963Y609212D01*
X339988Y606743D01*
X339942Y606665D01*
X339888Y606593D01*
X339870Y606544D01*
X339843Y606499D01*
X339820Y606411D01*
X339789Y606326D01*
X339785Y606274D01*
X339772Y606223D01*
X339774Y606133D01*
X339768Y606043D01*
X339778Y605991D01*
X339780Y605939D01*
X339807Y605853D01*
X339826Y605764D01*
X339850Y605718D01*
X339866Y605668D01*
X339916Y605593D01*
X339959Y605513D01*
X339995Y605475D01*
X340024Y605432D01*
X340093Y605374D01*
X340156Y605309D01*
X340196Y605287D01*
X340241Y605249D01*
X340383Y605186D01*
X340451Y605149D01*
X340759Y605043D01*
X342901Y602045D01*
X342901Y598359D01*
X341600Y596538D01*
X341592Y596523D01*
X341580Y596510D01*
X341526Y596397D01*
X341468Y596286D01*
X341465Y596269D01*
X341458Y596254D01*
X341437Y596130D01*
X341412Y596007D01*
X341414Y595990D01*
X341411Y595973D01*
X341425Y595849D01*
X341435Y595724D01*
X341441Y595708D01*
X341443Y595691D01*
X341473Y595626D01*
X341536Y595458D01*
X341565Y595419D01*
X341581Y595385D01*
X343121Y593075D01*
X342543Y590186D01*
X341689Y589617D01*
X341602Y589539D01*
X341512Y589467D01*
X341497Y589445D01*
X341477Y589428D01*
X341415Y589329D01*
X341349Y589235D01*
X341340Y589209D01*
X341326Y589187D01*
X341294Y589076D01*
X341256Y588966D01*
X341254Y588939D01*
X341247Y588914D01*
X341247Y588798D01*
X341241Y588682D01*
X341247Y588656D01*
X341247Y588629D01*
X341279Y588518D01*
X341306Y588405D01*
X341319Y588382D01*
X341326Y588356D01*
X341388Y588258D01*
X341444Y588157D01*
X341462Y588141D01*
X341478Y588116D01*
X341685Y587931D01*
X341689Y587927D01*
X342543Y587358D01*
X343121Y584469D01*
X341486Y582017D01*
X338597Y581439D01*
X334573Y584122D01*
X334572Y584122D01*
X334442Y584185D01*
X334317Y584245D01*
X334316Y584245D01*
X334172Y584269D01*
X334037Y584292D01*
X334036Y584292D01*
X334035Y584292D01*
X333887Y584275D01*
X333754Y584260D01*
X333754Y584259D01*
X333753Y584259D01*
X333748Y584257D01*
X333492Y584150D01*
X333469Y584132D01*
X333447Y584122D01*
X329423Y581439D01*
X326534Y582017D01*
X324899Y584469D01*
X325477Y587358D01*
X326331Y587927D01*
X326418Y588005D01*
X326508Y588077D01*
X326523Y588099D01*
X326543Y588116D01*
X326605Y588215D01*
X326671Y588309D01*
X326680Y588335D01*
X326694Y588357D01*
X326726Y588468D01*
X326764Y588578D01*
X326766Y588605D01*
X326773Y588630D01*
X326773Y588746D01*
X326779Y588862D01*
X326773Y588888D01*
X326773Y588915D01*
X326741Y589026D01*
X326714Y589139D01*
X326701Y589162D01*
X326694Y589188D01*
X326632Y589286D01*
X326576Y589387D01*
X326558Y589403D01*
X326542Y589428D01*
X326335Y589613D01*
X326331Y589617D01*
X325477Y590186D01*
X324899Y593075D01*
X326439Y595385D01*
X326446Y595400D01*
X326457Y595413D01*
X326508Y595528D01*
X326562Y595641D01*
X326565Y595658D01*
X326572Y595673D01*
X326588Y595798D01*
X326609Y595921D01*
X326607Y595938D01*
X326610Y595955D01*
X326591Y596079D01*
X326577Y596204D01*
X326570Y596219D01*
X326568Y596236D01*
X326537Y596300D01*
X326467Y596466D01*
X326437Y596504D01*
X326420Y596538D01*
X325119Y598359D01*
X325119Y602045D01*
X326766Y604349D01*
X326820Y604453D01*
X326879Y604554D01*
X326885Y604579D01*
X326897Y604602D01*
X326920Y604717D01*
X326949Y604829D01*
X326948Y604855D01*
X326953Y604880D01*
X326943Y604997D01*
X326940Y605113D01*
X326932Y605138D01*
X326930Y605164D01*
X326888Y605273D01*
X326852Y605384D01*
X326839Y605403D01*
X326829Y605429D01*
X326658Y605657D01*
X326657Y605657D01*
X325119Y607195D01*
X325119Y616069D01*
X325553Y616502D01*
X325570Y616526D01*
X325593Y616545D01*
X325656Y616639D01*
X325724Y616729D01*
X325734Y616757D01*
X325750Y616781D01*
X325785Y616889D01*
X325825Y616995D01*
X325827Y617024D01*
X325836Y617052D01*
X325839Y617166D01*
X325849Y617278D01*
X325843Y617307D01*
X325844Y617336D01*
X325815Y617446D01*
X325793Y617557D01*
X325779Y617583D01*
X325772Y617611D01*
X325714Y617709D01*
X325662Y617809D01*
X325641Y617831D01*
X325626Y617856D01*
X325544Y617933D01*
X325466Y618015D01*
X325441Y618030D01*
X325419Y618050D01*
X325318Y618102D01*
X325221Y618159D01*
X325192Y618166D01*
X325166Y618180D01*
X325089Y618193D01*
X324945Y618229D01*
X324883Y618227D01*
X324835Y618235D01*
X313436Y618235D01*
X313378Y618227D01*
X313320Y618229D01*
X313238Y618207D01*
X313154Y618195D01*
X313101Y618172D01*
X313045Y618157D01*
X312972Y618114D01*
X312895Y618079D01*
X312850Y618041D01*
X312800Y618012D01*
X312742Y617950D01*
X312678Y617896D01*
X312646Y617847D01*
X312606Y617804D01*
X312567Y617729D01*
X312520Y617659D01*
X312503Y617603D01*
X312476Y617551D01*
X312465Y617483D01*
X312435Y617388D01*
X312432Y617288D01*
X312421Y617220D01*
X312421Y483373D01*
X312423Y483354D01*
X312421Y483334D01*
X312443Y483213D01*
X312461Y483091D01*
X312469Y483074D01*
X312472Y483054D01*
X312527Y482944D01*
X312577Y482832D01*
X312589Y482817D01*
X312598Y482800D01*
X312681Y482709D01*
X312760Y482615D01*
X312777Y482604D01*
X312790Y482590D01*
X312895Y482525D01*
X312997Y482457D01*
X313016Y482452D01*
X313032Y482441D01*
X313151Y482409D01*
X313268Y482372D01*
X313288Y482371D01*
X313307Y482366D01*
X313429Y482368D01*
X313552Y482364D01*
X313571Y482369D01*
X313591Y482370D01*
X313709Y482405D01*
X313827Y482436D01*
X313844Y482446D01*
X313863Y482452D01*
X313966Y482519D01*
X314072Y482581D01*
X314085Y482596D01*
X314102Y482606D01*
X314148Y482663D01*
X314266Y482789D01*
X314290Y482834D01*
X314315Y482865D01*
X318090Y489404D01*
X324060Y494413D01*
X331383Y497079D01*
X339177Y497079D01*
X346500Y494413D01*
X352470Y489404D01*
X356366Y482655D01*
X357720Y474980D01*
X356366Y467305D01*
X352470Y460556D01*
X346500Y455547D01*
X342498Y454090D01*
X342402Y454039D01*
X342304Y453995D01*
X342277Y453973D01*
X342247Y453956D01*
X342169Y453881D01*
X342087Y453811D01*
X342068Y453783D01*
X342043Y453758D01*
X341989Y453665D01*
X341929Y453575D01*
X341919Y453542D01*
X341902Y453512D01*
X341876Y453407D01*
X341844Y453304D01*
X341843Y453269D01*
X341834Y453235D01*
X341839Y453128D01*
X341836Y453020D01*
X341845Y452986D01*
X341846Y452951D01*
X341881Y452849D01*
X341908Y452745D01*
X341926Y452715D01*
X341937Y452682D01*
X341998Y452593D01*
X342053Y452500D01*
X342079Y452476D01*
X342098Y452448D01*
X342182Y452380D01*
X342261Y452306D01*
X342292Y452290D01*
X342318Y452268D01*
X342418Y452225D01*
X342514Y452176D01*
X342544Y452171D01*
X342580Y452156D01*
X342792Y452130D01*
X342845Y452121D01*
X389604Y452121D01*
X389633Y452125D01*
G37*
G36*
X699513Y2545D02*
X699513Y2545D01*
X699543Y2542D01*
X699654Y2565D01*
X699766Y2581D01*
X699793Y2593D01*
X699821Y2598D01*
X699922Y2651D01*
X700025Y2697D01*
X700048Y2716D01*
X700074Y2729D01*
X700156Y2807D01*
X700242Y2880D01*
X700259Y2905D01*
X700280Y2925D01*
X700337Y3023D01*
X700400Y3117D01*
X700409Y3145D01*
X700424Y3170D01*
X700451Y3280D01*
X700486Y3388D01*
X700486Y3418D01*
X700494Y3446D01*
X700490Y3559D01*
X700493Y3672D01*
X700486Y3701D01*
X700485Y3730D01*
X700450Y3838D01*
X700421Y3947D01*
X700406Y3973D01*
X700397Y4001D01*
X700351Y4065D01*
X700276Y4192D01*
X700230Y4235D01*
X700202Y4274D01*
X699554Y4922D01*
X698449Y6443D01*
X697596Y8117D01*
X697015Y9904D01*
X696894Y10669D01*
X707644Y10669D01*
X707702Y10677D01*
X707760Y10675D01*
X707842Y10697D01*
X707925Y10709D01*
X707979Y10733D01*
X708035Y10747D01*
X708108Y10790D01*
X708185Y10825D01*
X708229Y10863D01*
X708280Y10893D01*
X708337Y10954D01*
X708402Y11009D01*
X708434Y11057D01*
X708474Y11100D01*
X708513Y11175D01*
X708559Y11245D01*
X708577Y11301D01*
X708604Y11353D01*
X708615Y11421D01*
X708645Y11516D01*
X708648Y11616D01*
X708659Y11684D01*
X708659Y12701D01*
X709676Y12701D01*
X709734Y12709D01*
X709792Y12708D01*
X709874Y12729D01*
X709957Y12741D01*
X710011Y12765D01*
X710067Y12779D01*
X710140Y12822D01*
X710217Y12857D01*
X710262Y12895D01*
X710312Y12925D01*
X710370Y12986D01*
X710434Y13041D01*
X710466Y13089D01*
X710506Y13132D01*
X710545Y13207D01*
X710591Y13277D01*
X710609Y13333D01*
X710636Y13385D01*
X710647Y13453D01*
X710677Y13548D01*
X710680Y13648D01*
X710691Y13716D01*
X710691Y24466D01*
X711456Y24345D01*
X713243Y23764D01*
X714917Y22911D01*
X716438Y21806D01*
X717766Y20478D01*
X718871Y18957D01*
X719724Y17283D01*
X720329Y15420D01*
X720344Y15389D01*
X720352Y15356D01*
X720356Y15350D01*
X720356Y15348D01*
X720370Y15324D01*
X720381Y15291D01*
X720422Y15230D01*
X720454Y15164D01*
X720477Y15140D01*
X720494Y15109D01*
X720519Y15085D01*
X720539Y15055D01*
X720597Y15007D01*
X720645Y14953D01*
X720673Y14936D01*
X720698Y14912D01*
X720730Y14895D01*
X720757Y14872D01*
X720826Y14842D01*
X720887Y14804D01*
X720918Y14795D01*
X720949Y14778D01*
X720984Y14771D01*
X721017Y14757D01*
X721092Y14746D01*
X721161Y14727D01*
X721193Y14727D01*
X721228Y14720D01*
X721263Y14723D01*
X721298Y14718D01*
X721373Y14729D01*
X721445Y14729D01*
X721476Y14739D01*
X721511Y14741D01*
X721544Y14753D01*
X721580Y14759D01*
X721649Y14790D01*
X721717Y14810D01*
X721745Y14828D01*
X721778Y14840D01*
X721806Y14861D01*
X721839Y14876D01*
X721896Y14925D01*
X721957Y14963D01*
X721978Y14988D01*
X722006Y15009D01*
X722028Y15037D01*
X722055Y15060D01*
X722086Y15109D01*
X722090Y15115D01*
X722144Y15177D01*
X722158Y15207D01*
X722179Y15234D01*
X722194Y15271D01*
X722213Y15300D01*
X722221Y15325D01*
X722233Y15345D01*
X723939Y19463D01*
X727297Y22821D01*
X728353Y23258D01*
X728354Y23259D01*
X728355Y23260D01*
X728474Y23330D01*
X728597Y23403D01*
X728598Y23404D01*
X728600Y23405D01*
X728697Y23508D01*
X728793Y23610D01*
X728793Y23611D01*
X728794Y23612D01*
X728857Y23735D01*
X728923Y23862D01*
X728923Y23864D01*
X728924Y23865D01*
X728926Y23880D01*
X728978Y24141D01*
X728975Y24172D01*
X728979Y24196D01*
X728979Y33035D01*
X728972Y33087D01*
X728973Y33115D01*
X728966Y33138D01*
X728964Y33209D01*
X728947Y33262D01*
X728939Y33316D01*
X728904Y33396D01*
X728877Y33479D01*
X728849Y33519D01*
X728823Y33576D01*
X728727Y33689D01*
X728682Y33753D01*
X722093Y40342D01*
X722023Y40394D01*
X721959Y40454D01*
X721910Y40480D01*
X721866Y40513D01*
X721784Y40544D01*
X721706Y40584D01*
X721658Y40592D01*
X721600Y40614D01*
X721452Y40626D01*
X721375Y40639D01*
X707649Y40639D01*
X705782Y41413D01*
X699713Y47482D01*
X699688Y47500D01*
X699668Y47524D01*
X699601Y47566D01*
X699486Y47653D01*
X699425Y47676D01*
X699383Y47702D01*
X697730Y48387D01*
X696087Y50030D01*
X695197Y52178D01*
X695197Y54502D01*
X695882Y56155D01*
X695890Y56185D01*
X695904Y56213D01*
X695917Y56290D01*
X695953Y56431D01*
X695951Y56495D01*
X695959Y56544D01*
X695959Y95504D01*
X695951Y95562D01*
X695953Y95620D01*
X695931Y95702D01*
X695919Y95786D01*
X695896Y95839D01*
X695881Y95895D01*
X695838Y95968D01*
X695803Y96045D01*
X695765Y96090D01*
X695736Y96140D01*
X695674Y96198D01*
X695620Y96262D01*
X695571Y96294D01*
X695528Y96334D01*
X695453Y96373D01*
X695383Y96420D01*
X695327Y96437D01*
X695275Y96464D01*
X695207Y96475D01*
X695112Y96505D01*
X695012Y96508D01*
X694944Y96519D01*
X659389Y96519D01*
X657522Y97293D01*
X655950Y98865D01*
X653993Y100822D01*
X653968Y100841D01*
X653948Y100864D01*
X653881Y100906D01*
X653766Y100993D01*
X653705Y101016D01*
X653663Y101042D01*
X652010Y101727D01*
X650367Y103370D01*
X649477Y105518D01*
X649477Y107842D01*
X650367Y109990D01*
X652010Y111633D01*
X654158Y112523D01*
X656482Y112523D01*
X658630Y111633D01*
X660273Y109990D01*
X660958Y108337D01*
X660974Y108310D01*
X660983Y108281D01*
X661029Y108216D01*
X661102Y108092D01*
X661149Y108048D01*
X661178Y108007D01*
X662207Y106978D01*
X662277Y106926D01*
X662341Y106866D01*
X662390Y106840D01*
X662434Y106807D01*
X662516Y106776D01*
X662594Y106736D01*
X662642Y106728D01*
X662700Y106706D01*
X662848Y106694D01*
X662925Y106681D01*
X695405Y106681D01*
X695435Y106685D01*
X695464Y106682D01*
X695575Y106705D01*
X695687Y106721D01*
X695714Y106733D01*
X695742Y106738D01*
X695843Y106791D01*
X695946Y106837D01*
X695969Y106856D01*
X695995Y106869D01*
X696077Y106947D01*
X696163Y107020D01*
X696180Y107045D01*
X696201Y107065D01*
X696258Y107163D01*
X696321Y107257D01*
X696330Y107285D01*
X696345Y107310D01*
X696372Y107420D01*
X696407Y107528D01*
X696407Y107557D01*
X696415Y107586D01*
X696411Y107699D01*
X696414Y107812D01*
X696407Y107841D01*
X696406Y107870D01*
X696371Y107978D01*
X696342Y108087D01*
X696327Y108113D01*
X696318Y108141D01*
X696273Y108205D01*
X696197Y108332D01*
X696151Y108375D01*
X696123Y108414D01*
X696087Y108450D01*
X695197Y110598D01*
X695197Y112922D01*
X696087Y115070D01*
X697730Y116713D01*
X699878Y117603D01*
X702202Y117603D01*
X704350Y116713D01*
X704941Y116122D01*
X705011Y116070D01*
X705074Y116010D01*
X705124Y115984D01*
X705168Y115951D01*
X705250Y115920D01*
X705328Y115880D01*
X705375Y115872D01*
X705434Y115850D01*
X705581Y115838D01*
X705659Y115825D01*
X711505Y115825D01*
X711592Y115837D01*
X711679Y115840D01*
X711732Y115857D01*
X711787Y115865D01*
X711866Y115900D01*
X711950Y115927D01*
X711989Y115955D01*
X712046Y115981D01*
X712159Y116077D01*
X712223Y116122D01*
X713958Y117857D01*
X728762Y117857D01*
X730251Y116368D01*
X730251Y107696D01*
X730259Y107638D01*
X730257Y107580D01*
X730279Y107498D01*
X730291Y107414D01*
X730314Y107361D01*
X730329Y107305D01*
X730372Y107232D01*
X730407Y107155D01*
X730445Y107110D01*
X730474Y107060D01*
X730536Y107002D01*
X730590Y106938D01*
X730639Y106906D01*
X730682Y106866D01*
X730757Y106827D01*
X730827Y106780D01*
X730883Y106763D01*
X730935Y106736D01*
X731003Y106725D01*
X731098Y106695D01*
X731198Y106692D01*
X731266Y106681D01*
X784196Y106681D01*
X784227Y106685D01*
X784258Y106683D01*
X784334Y106700D01*
X784478Y106721D01*
X784536Y106747D01*
X784585Y106758D01*
X785743Y107238D01*
X785770Y107254D01*
X785799Y107263D01*
X785863Y107309D01*
X785988Y107382D01*
X786033Y107429D01*
X786073Y107458D01*
X799762Y121147D01*
X801629Y121921D01*
X820983Y121921D01*
X821068Y121933D01*
X821154Y121935D01*
X821208Y121953D01*
X821264Y121961D01*
X821343Y121996D01*
X821425Y122022D01*
X821472Y122054D01*
X821524Y122077D01*
X821589Y122132D01*
X821661Y122180D01*
X821697Y122224D01*
X821741Y122260D01*
X821788Y122332D01*
X821844Y122398D01*
X821867Y122450D01*
X821898Y122497D01*
X821924Y122579D01*
X821959Y122658D01*
X821967Y122714D01*
X821984Y122768D01*
X821986Y122854D01*
X821998Y122939D01*
X821990Y122995D01*
X821991Y123052D01*
X821970Y123135D01*
X821957Y123221D01*
X821934Y123272D01*
X821920Y123327D01*
X821876Y123401D01*
X821840Y123480D01*
X821803Y123523D01*
X821774Y123572D01*
X821712Y123631D01*
X821656Y123696D01*
X821614Y123722D01*
X821567Y123766D01*
X821438Y123832D01*
X821371Y123874D01*
X819650Y124587D01*
X818007Y126230D01*
X817117Y128378D01*
X817117Y130702D01*
X818007Y132850D01*
X819650Y134493D01*
X821798Y135383D01*
X824122Y135383D01*
X826270Y134493D01*
X827115Y133648D01*
X827185Y133596D01*
X827248Y133536D01*
X827298Y133510D01*
X827342Y133477D01*
X827424Y133446D01*
X827502Y133406D01*
X827549Y133398D01*
X827608Y133376D01*
X827755Y133364D01*
X827833Y133351D01*
X893118Y133351D01*
X897901Y128568D01*
X900431Y126038D01*
X900431Y87322D01*
X893118Y80009D01*
X873219Y80009D01*
X873132Y79997D01*
X873045Y79994D01*
X872992Y79977D01*
X872937Y79969D01*
X872858Y79934D01*
X872774Y79907D01*
X872735Y79879D01*
X872678Y79853D01*
X872565Y79757D01*
X872501Y79712D01*
X870248Y77459D01*
X870196Y77389D01*
X870136Y77325D01*
X870110Y77276D01*
X870077Y77232D01*
X870046Y77150D01*
X870006Y77072D01*
X869998Y77025D01*
X869976Y76966D01*
X869964Y76818D01*
X869951Y76741D01*
X869951Y51762D01*
X857558Y39369D01*
X842739Y39369D01*
X842652Y39357D01*
X842565Y39354D01*
X842512Y39337D01*
X842457Y39329D01*
X842378Y39294D01*
X842294Y39267D01*
X842255Y39239D01*
X842198Y39213D01*
X842085Y39117D01*
X842021Y39072D01*
X839768Y36819D01*
X839716Y36749D01*
X839656Y36685D01*
X839630Y36636D01*
X839597Y36592D01*
X839566Y36510D01*
X839526Y36432D01*
X839518Y36385D01*
X839496Y36326D01*
X839487Y36219D01*
X839485Y36212D01*
X839484Y36181D01*
X839484Y36178D01*
X839471Y36101D01*
X839471Y24722D01*
X839471Y24721D01*
X839471Y24719D01*
X839491Y24579D01*
X839511Y24441D01*
X839511Y24439D01*
X839511Y24438D01*
X839568Y24312D01*
X839627Y24181D01*
X839628Y24180D01*
X839629Y24179D01*
X839720Y24072D01*
X839810Y23964D01*
X839812Y23964D01*
X839813Y23962D01*
X839826Y23954D01*
X840047Y23807D01*
X840076Y23798D01*
X840097Y23784D01*
X842423Y22821D01*
X845781Y19463D01*
X847599Y15075D01*
X847599Y10325D01*
X845781Y5937D01*
X844118Y4274D01*
X844100Y4250D01*
X844078Y4231D01*
X844015Y4137D01*
X843947Y4047D01*
X843936Y4019D01*
X843920Y3995D01*
X843886Y3887D01*
X843846Y3781D01*
X843843Y3752D01*
X843834Y3724D01*
X843831Y3610D01*
X843822Y3498D01*
X843828Y3469D01*
X843827Y3440D01*
X843856Y3330D01*
X843878Y3219D01*
X843892Y3193D01*
X843899Y3165D01*
X843957Y3067D01*
X844009Y2967D01*
X844029Y2945D01*
X844044Y2920D01*
X844127Y2843D01*
X844205Y2761D01*
X844230Y2746D01*
X844251Y2726D01*
X844352Y2674D01*
X844450Y2617D01*
X844478Y2610D01*
X844505Y2596D01*
X844582Y2583D01*
X844726Y2547D01*
X844788Y2549D01*
X844836Y2541D01*
X891595Y2541D01*
X891702Y2556D01*
X891810Y2564D01*
X891842Y2576D01*
X891877Y2581D01*
X891975Y2625D01*
X892076Y2662D01*
X892104Y2683D01*
X892136Y2697D01*
X892218Y2767D01*
X892305Y2830D01*
X892327Y2858D01*
X892353Y2880D01*
X892413Y2970D01*
X892479Y3056D01*
X892491Y3088D01*
X892511Y3117D01*
X892543Y3220D01*
X892583Y3320D01*
X892586Y3355D01*
X892596Y3388D01*
X892599Y3496D01*
X892609Y3603D01*
X892603Y3638D01*
X892604Y3672D01*
X892577Y3777D01*
X892556Y3883D01*
X892541Y3914D01*
X892532Y3947D01*
X892477Y4040D01*
X892428Y4136D01*
X892405Y4162D01*
X892387Y4192D01*
X892308Y4266D01*
X892235Y4345D01*
X892208Y4360D01*
X892179Y4386D01*
X891989Y4484D01*
X891942Y4510D01*
X887940Y5967D01*
X881970Y10976D01*
X878074Y17725D01*
X876720Y25400D01*
X878074Y33075D01*
X881970Y39824D01*
X887940Y44833D01*
X895263Y47499D01*
X903057Y47499D01*
X910380Y44833D01*
X916350Y39824D01*
X919940Y33605D01*
X919952Y33590D01*
X919960Y33572D01*
X920040Y33478D01*
X920115Y33381D01*
X920131Y33370D01*
X920144Y33355D01*
X920246Y33287D01*
X920346Y33215D01*
X920364Y33208D01*
X920380Y33198D01*
X920497Y33160D01*
X920613Y33119D01*
X920633Y33117D01*
X920651Y33112D01*
X920774Y33108D01*
X920897Y33101D01*
X920916Y33105D01*
X920935Y33104D01*
X921055Y33135D01*
X921175Y33162D01*
X921192Y33171D01*
X921210Y33176D01*
X921317Y33239D01*
X921424Y33298D01*
X921438Y33311D01*
X921455Y33321D01*
X921539Y33411D01*
X921627Y33497D01*
X921636Y33514D01*
X921649Y33528D01*
X921705Y33637D01*
X921766Y33745D01*
X921770Y33764D01*
X921779Y33781D01*
X921791Y33854D01*
X921831Y34022D01*
X921828Y34073D01*
X921835Y34112D01*
X921895Y167640D01*
X921887Y167698D01*
X921888Y167756D01*
X921867Y167838D01*
X921855Y167921D01*
X921831Y167975D01*
X921816Y168031D01*
X921773Y168104D01*
X921739Y168181D01*
X921701Y168225D01*
X921671Y168276D01*
X921610Y168333D01*
X921555Y168398D01*
X921507Y168430D01*
X921464Y168470D01*
X921389Y168509D01*
X921319Y168555D01*
X921263Y168573D01*
X921211Y168600D01*
X921143Y168611D01*
X921048Y168641D01*
X920948Y168644D01*
X920879Y168655D01*
X642397Y168655D01*
X642368Y168651D01*
X642339Y168654D01*
X642228Y168631D01*
X642116Y168615D01*
X642089Y168603D01*
X642060Y168598D01*
X641960Y168546D01*
X641856Y168499D01*
X641834Y168480D01*
X641808Y168467D01*
X641726Y168389D01*
X641639Y168316D01*
X641623Y168291D01*
X641602Y168271D01*
X641544Y168173D01*
X641482Y168079D01*
X641473Y168051D01*
X641458Y168026D01*
X641430Y167916D01*
X641396Y167808D01*
X641395Y167778D01*
X641388Y167750D01*
X641391Y167637D01*
X641388Y167524D01*
X641396Y167495D01*
X641397Y167466D01*
X641432Y167358D01*
X641460Y167249D01*
X641475Y167223D01*
X641484Y167195D01*
X641530Y167132D01*
X641606Y167004D01*
X641651Y166961D01*
X641679Y166922D01*
X642128Y166473D01*
X642141Y166426D01*
X642153Y166342D01*
X642176Y166289D01*
X642191Y166233D01*
X642234Y166160D01*
X642269Y166083D01*
X642307Y166038D01*
X642336Y165988D01*
X642398Y165930D01*
X642452Y165866D01*
X642501Y165834D01*
X642544Y165794D01*
X642619Y165755D01*
X642689Y165708D01*
X642745Y165691D01*
X642797Y165664D01*
X642865Y165653D01*
X642960Y165623D01*
X643060Y165620D01*
X643128Y165609D01*
X648971Y165609D01*
X649034Y165618D01*
X649083Y165615D01*
X650324Y165753D01*
X650343Y165743D01*
X650438Y165686D01*
X650469Y165679D01*
X650497Y165664D01*
X650574Y165651D01*
X650683Y165623D01*
X651560Y164746D01*
X651611Y164708D01*
X651644Y164671D01*
X652618Y163891D01*
X652625Y163871D01*
X652652Y163763D01*
X652669Y163736D01*
X652678Y163706D01*
X652724Y163642D01*
X652781Y163545D01*
X652781Y162305D01*
X652790Y162242D01*
X652787Y162193D01*
X652925Y160952D01*
X652915Y160933D01*
X652858Y160838D01*
X652851Y160807D01*
X652836Y160779D01*
X652823Y160702D01*
X652795Y160593D01*
X651918Y159716D01*
X651880Y159665D01*
X651843Y159632D01*
X649868Y157163D01*
X649822Y157085D01*
X649768Y157012D01*
X649750Y156963D01*
X649723Y156919D01*
X649700Y156831D01*
X649669Y156746D01*
X649665Y156694D01*
X649652Y156643D01*
X649654Y156553D01*
X649648Y156462D01*
X649658Y156411D01*
X649660Y156359D01*
X649687Y156273D01*
X649706Y156184D01*
X649730Y156138D01*
X649746Y156088D01*
X649796Y156013D01*
X649839Y155933D01*
X649875Y155895D01*
X649904Y155852D01*
X649973Y155794D01*
X650036Y155728D01*
X650076Y155707D01*
X650121Y155669D01*
X650263Y155606D01*
X650331Y155569D01*
X650639Y155463D01*
X652781Y152465D01*
X652781Y148779D01*
X651480Y146958D01*
X651472Y146943D01*
X651460Y146930D01*
X651406Y146817D01*
X651348Y146706D01*
X651345Y146689D01*
X651338Y146674D01*
X651317Y146550D01*
X651292Y146427D01*
X651294Y146410D01*
X651291Y146393D01*
X651305Y146269D01*
X651315Y146144D01*
X651321Y146128D01*
X651323Y146111D01*
X651353Y146046D01*
X651416Y145878D01*
X651445Y145839D01*
X651461Y145805D01*
X653001Y143495D01*
X652423Y140606D01*
X651569Y140037D01*
X651482Y139959D01*
X651392Y139887D01*
X651377Y139865D01*
X651357Y139848D01*
X651295Y139749D01*
X651229Y139655D01*
X651220Y139629D01*
X651206Y139607D01*
X651174Y139496D01*
X651136Y139386D01*
X651134Y139359D01*
X651127Y139334D01*
X651127Y139218D01*
X651121Y139102D01*
X651127Y139076D01*
X651127Y139049D01*
X651159Y138938D01*
X651186Y138825D01*
X651199Y138802D01*
X651206Y138776D01*
X651268Y138678D01*
X651324Y138577D01*
X651342Y138561D01*
X651358Y138536D01*
X651565Y138351D01*
X651569Y138347D01*
X652423Y137778D01*
X653001Y134889D01*
X651366Y132437D01*
X648477Y131859D01*
X644453Y134542D01*
X644452Y134542D01*
X644322Y134605D01*
X644197Y134665D01*
X644196Y134665D01*
X644052Y134689D01*
X643917Y134712D01*
X643916Y134712D01*
X643915Y134712D01*
X643767Y134695D01*
X643634Y134680D01*
X643634Y134679D01*
X643633Y134679D01*
X643628Y134677D01*
X643372Y134570D01*
X643349Y134552D01*
X643327Y134542D01*
X639303Y131859D01*
X636414Y132437D01*
X634779Y134889D01*
X635357Y137778D01*
X636211Y138347D01*
X636298Y138425D01*
X636388Y138497D01*
X636403Y138519D01*
X636423Y138536D01*
X636485Y138635D01*
X636551Y138729D01*
X636560Y138755D01*
X636574Y138777D01*
X636606Y138888D01*
X636644Y138998D01*
X636646Y139025D01*
X636653Y139050D01*
X636653Y139166D01*
X636659Y139282D01*
X636653Y139308D01*
X636653Y139335D01*
X636621Y139446D01*
X636594Y139559D01*
X636581Y139582D01*
X636574Y139608D01*
X636512Y139706D01*
X636456Y139807D01*
X636438Y139823D01*
X636422Y139848D01*
X636215Y140033D01*
X636211Y140037D01*
X635357Y140606D01*
X634779Y143495D01*
X636319Y145805D01*
X636326Y145820D01*
X636337Y145833D01*
X636388Y145948D01*
X636442Y146061D01*
X636445Y146078D01*
X636452Y146093D01*
X636468Y146218D01*
X636489Y146341D01*
X636487Y146358D01*
X636490Y146375D01*
X636471Y146499D01*
X636457Y146624D01*
X636450Y146639D01*
X636448Y146656D01*
X636417Y146720D01*
X636347Y146886D01*
X636317Y146924D01*
X636300Y146958D01*
X634999Y148779D01*
X634999Y152464D01*
X636646Y154769D01*
X636700Y154873D01*
X636759Y154974D01*
X636765Y154999D01*
X636777Y155022D01*
X636800Y155136D01*
X636829Y155249D01*
X636828Y155275D01*
X636833Y155300D01*
X636823Y155417D01*
X636820Y155533D01*
X636812Y155558D01*
X636810Y155584D01*
X636768Y155693D01*
X636732Y155804D01*
X636719Y155823D01*
X636709Y155849D01*
X636538Y156077D01*
X636537Y156077D01*
X634999Y157615D01*
X634999Y166489D01*
X635433Y166922D01*
X635450Y166946D01*
X635473Y166965D01*
X635536Y167059D01*
X635604Y167149D01*
X635614Y167177D01*
X635630Y167201D01*
X635665Y167309D01*
X635705Y167415D01*
X635707Y167444D01*
X635716Y167472D01*
X635719Y167586D01*
X635729Y167698D01*
X635723Y167727D01*
X635724Y167756D01*
X635695Y167866D01*
X635673Y167977D01*
X635659Y168003D01*
X635652Y168031D01*
X635594Y168129D01*
X635542Y168229D01*
X635521Y168251D01*
X635506Y168276D01*
X635424Y168353D01*
X635346Y168435D01*
X635321Y168450D01*
X635299Y168470D01*
X635198Y168522D01*
X635101Y168579D01*
X635072Y168586D01*
X635046Y168600D01*
X634969Y168613D01*
X634825Y168649D01*
X634763Y168647D01*
X634715Y168655D01*
X623316Y168655D01*
X623258Y168647D01*
X623200Y168649D01*
X623118Y168627D01*
X623034Y168615D01*
X622981Y168592D01*
X622925Y168577D01*
X622852Y168534D01*
X622775Y168499D01*
X622730Y168461D01*
X622680Y168432D01*
X622622Y168370D01*
X622558Y168316D01*
X622526Y168267D01*
X622486Y168224D01*
X622447Y168149D01*
X622400Y168079D01*
X622383Y168023D01*
X622356Y167971D01*
X622345Y167903D01*
X622315Y167808D01*
X622312Y167708D01*
X622301Y167640D01*
X622301Y33793D01*
X622303Y33774D01*
X622301Y33754D01*
X622323Y33633D01*
X622341Y33511D01*
X622349Y33494D01*
X622352Y33474D01*
X622407Y33364D01*
X622457Y33252D01*
X622469Y33237D01*
X622478Y33220D01*
X622561Y33129D01*
X622640Y33035D01*
X622657Y33024D01*
X622670Y33010D01*
X622775Y32945D01*
X622877Y32877D01*
X622896Y32872D01*
X622912Y32861D01*
X623031Y32829D01*
X623148Y32792D01*
X623168Y32791D01*
X623187Y32786D01*
X623309Y32788D01*
X623432Y32784D01*
X623451Y32789D01*
X623471Y32790D01*
X623589Y32825D01*
X623707Y32856D01*
X623724Y32866D01*
X623743Y32872D01*
X623846Y32939D01*
X623952Y33001D01*
X623965Y33016D01*
X623982Y33026D01*
X624028Y33083D01*
X624146Y33209D01*
X624170Y33254D01*
X624195Y33285D01*
X627970Y39824D01*
X633940Y44833D01*
X641263Y47499D01*
X649057Y47499D01*
X656380Y44833D01*
X662350Y39824D01*
X666246Y33075D01*
X667600Y25400D01*
X666246Y17725D01*
X662350Y10976D01*
X656380Y5967D01*
X652378Y4510D01*
X652282Y4459D01*
X652184Y4415D01*
X652157Y4393D01*
X652127Y4376D01*
X652049Y4301D01*
X651967Y4231D01*
X651948Y4203D01*
X651923Y4178D01*
X651869Y4085D01*
X651809Y3995D01*
X651799Y3962D01*
X651782Y3932D01*
X651756Y3827D01*
X651724Y3724D01*
X651723Y3689D01*
X651714Y3655D01*
X651719Y3548D01*
X651716Y3440D01*
X651725Y3406D01*
X651726Y3371D01*
X651761Y3269D01*
X651788Y3165D01*
X651806Y3135D01*
X651817Y3102D01*
X651878Y3013D01*
X651933Y2920D01*
X651959Y2896D01*
X651978Y2868D01*
X652062Y2800D01*
X652141Y2726D01*
X652172Y2710D01*
X652198Y2688D01*
X652298Y2645D01*
X652394Y2596D01*
X652424Y2591D01*
X652460Y2576D01*
X652672Y2550D01*
X652725Y2541D01*
X699484Y2541D01*
X699513Y2545D01*
G37*
G36*
X79753Y452125D02*
X79753Y452125D01*
X79783Y452122D01*
X79894Y452145D01*
X80006Y452161D01*
X80033Y452173D01*
X80061Y452178D01*
X80162Y452231D01*
X80265Y452277D01*
X80288Y452296D01*
X80314Y452309D01*
X80396Y452387D01*
X80482Y452460D01*
X80499Y452485D01*
X80520Y452505D01*
X80577Y452603D01*
X80640Y452697D01*
X80649Y452725D01*
X80664Y452750D01*
X80691Y452860D01*
X80726Y452968D01*
X80726Y452998D01*
X80734Y453026D01*
X80730Y453139D01*
X80733Y453252D01*
X80726Y453281D01*
X80725Y453310D01*
X80690Y453418D01*
X80661Y453527D01*
X80646Y453553D01*
X80637Y453581D01*
X80591Y453645D01*
X80516Y453772D01*
X80470Y453815D01*
X80442Y453854D01*
X79794Y454502D01*
X78689Y456023D01*
X77836Y457697D01*
X77255Y459484D01*
X77134Y460249D01*
X87884Y460249D01*
X87942Y460257D01*
X88000Y460255D01*
X88082Y460277D01*
X88165Y460289D01*
X88219Y460313D01*
X88275Y460327D01*
X88348Y460370D01*
X88425Y460405D01*
X88469Y460443D01*
X88520Y460473D01*
X88577Y460534D01*
X88642Y460589D01*
X88674Y460637D01*
X88714Y460680D01*
X88753Y460755D01*
X88799Y460825D01*
X88817Y460881D01*
X88844Y460933D01*
X88855Y461001D01*
X88885Y461096D01*
X88888Y461196D01*
X88899Y461264D01*
X88899Y462281D01*
X89916Y462281D01*
X89974Y462289D01*
X90032Y462288D01*
X90114Y462309D01*
X90197Y462321D01*
X90251Y462345D01*
X90307Y462359D01*
X90380Y462402D01*
X90457Y462437D01*
X90502Y462475D01*
X90552Y462505D01*
X90610Y462566D01*
X90674Y462621D01*
X90706Y462669D01*
X90746Y462712D01*
X90785Y462787D01*
X90831Y462857D01*
X90849Y462913D01*
X90876Y462965D01*
X90887Y463033D01*
X90917Y463128D01*
X90920Y463228D01*
X90931Y463296D01*
X90931Y474046D01*
X91696Y473925D01*
X93483Y473344D01*
X95157Y472491D01*
X96678Y471386D01*
X98006Y470058D01*
X99111Y468537D01*
X99964Y466863D01*
X100569Y465000D01*
X100582Y464974D01*
X100589Y464944D01*
X100595Y464934D01*
X100596Y464928D01*
X100610Y464904D01*
X100621Y464871D01*
X100662Y464809D01*
X100694Y464744D01*
X100714Y464723D01*
X100728Y464697D01*
X100741Y464684D01*
X100742Y464683D01*
X100748Y464677D01*
X100757Y464668D01*
X100779Y464635D01*
X100837Y464587D01*
X100885Y464533D01*
X100909Y464519D01*
X100931Y464497D01*
X100966Y464478D01*
X100997Y464452D01*
X101066Y464421D01*
X101127Y464384D01*
X101154Y464376D01*
X101181Y464362D01*
X101220Y464353D01*
X101257Y464337D01*
X101332Y464326D01*
X101401Y464307D01*
X101428Y464307D01*
X101459Y464301D01*
X101499Y464303D01*
X101538Y464298D01*
X101614Y464309D01*
X101685Y464309D01*
X101711Y464317D01*
X101742Y464319D01*
X101780Y464333D01*
X101820Y464339D01*
X101889Y464370D01*
X101957Y464390D01*
X101981Y464405D01*
X102010Y464416D01*
X102042Y464439D01*
X102079Y464456D01*
X102136Y464505D01*
X102197Y464543D01*
X102215Y464565D01*
X102240Y464582D01*
X102265Y464614D01*
X102295Y464640D01*
X102326Y464689D01*
X102330Y464695D01*
X102384Y464757D01*
X102396Y464783D01*
X102415Y464806D01*
X102431Y464848D01*
X102453Y464880D01*
X102461Y464905D01*
X102473Y464925D01*
X104179Y469043D01*
X107537Y472401D01*
X108593Y472838D01*
X108594Y472839D01*
X108595Y472839D01*
X108712Y472909D01*
X108837Y472983D01*
X108839Y472984D01*
X108840Y472985D01*
X108935Y473086D01*
X109033Y473189D01*
X109033Y473191D01*
X109034Y473192D01*
X109098Y473317D01*
X109163Y473442D01*
X109163Y473444D01*
X109164Y473445D01*
X109166Y473460D01*
X109218Y473721D01*
X109215Y473752D01*
X109219Y473776D01*
X109219Y482615D01*
X109212Y482667D01*
X109213Y482695D01*
X109206Y482718D01*
X109204Y482789D01*
X109187Y482842D01*
X109179Y482896D01*
X109144Y482976D01*
X109117Y483059D01*
X109089Y483099D01*
X109063Y483156D01*
X108967Y483269D01*
X108922Y483333D01*
X102333Y489922D01*
X102263Y489974D01*
X102199Y490034D01*
X102150Y490060D01*
X102106Y490093D01*
X102024Y490124D01*
X101946Y490164D01*
X101898Y490172D01*
X101840Y490194D01*
X101692Y490206D01*
X101615Y490219D01*
X87889Y490219D01*
X86022Y490993D01*
X79953Y497062D01*
X79928Y497080D01*
X79908Y497104D01*
X79841Y497146D01*
X79726Y497233D01*
X79665Y497256D01*
X79623Y497282D01*
X77970Y497967D01*
X76327Y499610D01*
X75437Y501758D01*
X75437Y504082D01*
X76122Y505735D01*
X76130Y505765D01*
X76144Y505793D01*
X76157Y505870D01*
X76193Y506011D01*
X76191Y506075D01*
X76199Y506124D01*
X76199Y545084D01*
X76191Y545142D01*
X76193Y545200D01*
X76171Y545282D01*
X76159Y545366D01*
X76136Y545419D01*
X76121Y545475D01*
X76078Y545548D01*
X76043Y545625D01*
X76005Y545670D01*
X75976Y545720D01*
X75914Y545778D01*
X75860Y545842D01*
X75811Y545874D01*
X75768Y545914D01*
X75693Y545953D01*
X75623Y546000D01*
X75567Y546017D01*
X75515Y546044D01*
X75447Y546055D01*
X75352Y546085D01*
X75252Y546088D01*
X75184Y546099D01*
X39629Y546099D01*
X37762Y546873D01*
X36190Y548445D01*
X34233Y550402D01*
X34208Y550421D01*
X34188Y550444D01*
X34121Y550486D01*
X34006Y550573D01*
X33945Y550596D01*
X33903Y550622D01*
X32250Y551307D01*
X30607Y552950D01*
X29717Y555098D01*
X29717Y557422D01*
X30607Y559570D01*
X32250Y561213D01*
X34398Y562103D01*
X36722Y562103D01*
X38870Y561213D01*
X40513Y559570D01*
X41198Y557917D01*
X41214Y557890D01*
X41223Y557861D01*
X41269Y557796D01*
X41342Y557672D01*
X41389Y557628D01*
X41418Y557587D01*
X42447Y556558D01*
X42517Y556506D01*
X42581Y556446D01*
X42630Y556420D01*
X42674Y556387D01*
X42756Y556356D01*
X42834Y556316D01*
X42882Y556308D01*
X42940Y556286D01*
X43088Y556274D01*
X43165Y556261D01*
X75645Y556261D01*
X75675Y556265D01*
X75704Y556262D01*
X75815Y556285D01*
X75927Y556301D01*
X75954Y556313D01*
X75982Y556318D01*
X76083Y556371D01*
X76186Y556417D01*
X76209Y556436D01*
X76235Y556449D01*
X76317Y556527D01*
X76403Y556600D01*
X76420Y556625D01*
X76441Y556645D01*
X76498Y556743D01*
X76561Y556837D01*
X76570Y556865D01*
X76585Y556890D01*
X76612Y557000D01*
X76647Y557108D01*
X76647Y557137D01*
X76655Y557166D01*
X76651Y557279D01*
X76654Y557392D01*
X76647Y557421D01*
X76646Y557450D01*
X76611Y557558D01*
X76582Y557667D01*
X76567Y557693D01*
X76558Y557721D01*
X76513Y557785D01*
X76437Y557912D01*
X76391Y557955D01*
X76363Y557994D01*
X76327Y558030D01*
X75437Y560178D01*
X75437Y562502D01*
X76327Y564650D01*
X77970Y566293D01*
X80118Y567183D01*
X82442Y567183D01*
X84590Y566293D01*
X85181Y565702D01*
X85251Y565650D01*
X85314Y565590D01*
X85364Y565564D01*
X85408Y565531D01*
X85490Y565500D01*
X85568Y565460D01*
X85615Y565452D01*
X85674Y565430D01*
X85821Y565418D01*
X85899Y565405D01*
X91745Y565405D01*
X91832Y565417D01*
X91919Y565420D01*
X91972Y565437D01*
X92027Y565445D01*
X92106Y565480D01*
X92190Y565507D01*
X92229Y565535D01*
X92286Y565561D01*
X92399Y565657D01*
X92463Y565702D01*
X94198Y567437D01*
X109002Y567437D01*
X110491Y565948D01*
X110491Y557276D01*
X110499Y557218D01*
X110497Y557160D01*
X110519Y557078D01*
X110531Y556994D01*
X110554Y556941D01*
X110569Y556885D01*
X110612Y556812D01*
X110647Y556735D01*
X110685Y556690D01*
X110714Y556640D01*
X110776Y556582D01*
X110830Y556518D01*
X110879Y556486D01*
X110922Y556446D01*
X110997Y556407D01*
X111067Y556360D01*
X111123Y556343D01*
X111175Y556316D01*
X111243Y556305D01*
X111338Y556275D01*
X111438Y556272D01*
X111506Y556261D01*
X164436Y556261D01*
X164467Y556265D01*
X164498Y556263D01*
X164574Y556280D01*
X164718Y556301D01*
X164776Y556327D01*
X164825Y556338D01*
X165983Y556818D01*
X166010Y556834D01*
X166039Y556843D01*
X166103Y556889D01*
X166228Y556962D01*
X166273Y557009D01*
X166313Y557038D01*
X180002Y570727D01*
X181869Y571501D01*
X201223Y571501D01*
X201308Y571513D01*
X201394Y571515D01*
X201448Y571533D01*
X201504Y571541D01*
X201583Y571576D01*
X201665Y571602D01*
X201712Y571634D01*
X201764Y571657D01*
X201829Y571712D01*
X201901Y571760D01*
X201937Y571804D01*
X201981Y571840D01*
X202028Y571912D01*
X202084Y571978D01*
X202107Y572030D01*
X202138Y572077D01*
X202164Y572159D01*
X202199Y572238D01*
X202207Y572294D01*
X202224Y572348D01*
X202226Y572434D01*
X202238Y572519D01*
X202230Y572575D01*
X202231Y572632D01*
X202210Y572715D01*
X202197Y572801D01*
X202174Y572852D01*
X202160Y572907D01*
X202116Y572981D01*
X202080Y573060D01*
X202043Y573103D01*
X202014Y573152D01*
X201952Y573211D01*
X201896Y573276D01*
X201854Y573302D01*
X201807Y573346D01*
X201678Y573412D01*
X201611Y573454D01*
X199890Y574167D01*
X198247Y575810D01*
X197357Y577958D01*
X197357Y580282D01*
X198247Y582430D01*
X199890Y584073D01*
X202038Y584963D01*
X204362Y584963D01*
X206510Y584073D01*
X207355Y583228D01*
X207425Y583176D01*
X207488Y583116D01*
X207538Y583090D01*
X207582Y583057D01*
X207664Y583026D01*
X207742Y582986D01*
X207789Y582978D01*
X207848Y582956D01*
X207995Y582944D01*
X208073Y582931D01*
X273358Y582931D01*
X278141Y578148D01*
X280671Y575618D01*
X280671Y536902D01*
X273358Y529589D01*
X253459Y529589D01*
X253372Y529577D01*
X253285Y529574D01*
X253232Y529557D01*
X253177Y529549D01*
X253098Y529514D01*
X253014Y529487D01*
X252975Y529459D01*
X252918Y529433D01*
X252805Y529337D01*
X252741Y529292D01*
X250488Y527039D01*
X250436Y526969D01*
X250376Y526905D01*
X250350Y526856D01*
X250317Y526812D01*
X250286Y526730D01*
X250246Y526652D01*
X250238Y526605D01*
X250216Y526546D01*
X250204Y526398D01*
X250191Y526321D01*
X250191Y501342D01*
X237798Y488949D01*
X222979Y488949D01*
X222892Y488937D01*
X222805Y488934D01*
X222752Y488917D01*
X222697Y488909D01*
X222618Y488874D01*
X222534Y488847D01*
X222495Y488819D01*
X222438Y488793D01*
X222325Y488697D01*
X222261Y488652D01*
X220008Y486399D01*
X219956Y486329D01*
X219896Y486265D01*
X219870Y486216D01*
X219837Y486172D01*
X219806Y486090D01*
X219766Y486012D01*
X219758Y485965D01*
X219736Y485906D01*
X219727Y485799D01*
X219725Y485792D01*
X219724Y485761D01*
X219724Y485758D01*
X219711Y485681D01*
X219711Y474302D01*
X219711Y474301D01*
X219711Y474299D01*
X219731Y474159D01*
X219751Y474021D01*
X219751Y474019D01*
X219751Y474018D01*
X219808Y473892D01*
X219867Y473761D01*
X219868Y473760D01*
X219869Y473759D01*
X219960Y473652D01*
X220050Y473544D01*
X220052Y473544D01*
X220053Y473542D01*
X220066Y473534D01*
X220287Y473387D01*
X220316Y473378D01*
X220337Y473364D01*
X222663Y472401D01*
X226021Y469043D01*
X227839Y464655D01*
X227839Y459905D01*
X226021Y455517D01*
X224358Y453854D01*
X224340Y453830D01*
X224318Y453811D01*
X224255Y453717D01*
X224187Y453627D01*
X224176Y453599D01*
X224160Y453575D01*
X224126Y453467D01*
X224086Y453361D01*
X224083Y453332D01*
X224074Y453304D01*
X224071Y453190D01*
X224062Y453078D01*
X224068Y453049D01*
X224067Y453020D01*
X224096Y452910D01*
X224118Y452799D01*
X224132Y452773D01*
X224139Y452745D01*
X224197Y452647D01*
X224249Y452547D01*
X224269Y452525D01*
X224284Y452500D01*
X224367Y452423D01*
X224445Y452341D01*
X224470Y452326D01*
X224491Y452306D01*
X224592Y452254D01*
X224690Y452197D01*
X224718Y452190D01*
X224745Y452176D01*
X224822Y452163D01*
X224966Y452127D01*
X225028Y452129D01*
X225076Y452121D01*
X271835Y452121D01*
X271942Y452136D01*
X272050Y452144D01*
X272082Y452156D01*
X272117Y452161D01*
X272215Y452205D01*
X272316Y452242D01*
X272344Y452263D01*
X272376Y452277D01*
X272458Y452347D01*
X272545Y452410D01*
X272567Y452438D01*
X272593Y452460D01*
X272653Y452550D01*
X272719Y452636D01*
X272731Y452668D01*
X272751Y452697D01*
X272783Y452800D01*
X272823Y452900D01*
X272826Y452935D01*
X272836Y452968D01*
X272839Y453076D01*
X272849Y453183D01*
X272843Y453218D01*
X272844Y453252D01*
X272817Y453357D01*
X272796Y453463D01*
X272781Y453494D01*
X272772Y453527D01*
X272717Y453620D01*
X272668Y453716D01*
X272645Y453742D01*
X272627Y453772D01*
X272548Y453846D01*
X272475Y453925D01*
X272448Y453940D01*
X272419Y453966D01*
X272229Y454064D01*
X272182Y454090D01*
X268180Y455547D01*
X262210Y460556D01*
X258314Y467305D01*
X256960Y474980D01*
X258314Y482655D01*
X262210Y489404D01*
X268180Y494413D01*
X275503Y497079D01*
X283297Y497079D01*
X290620Y494413D01*
X296590Y489404D01*
X300180Y483185D01*
X300192Y483170D01*
X300200Y483152D01*
X300279Y483058D01*
X300355Y482961D01*
X300371Y482950D01*
X300384Y482935D01*
X300486Y482867D01*
X300586Y482795D01*
X300604Y482788D01*
X300620Y482778D01*
X300737Y482740D01*
X300853Y482699D01*
X300873Y482697D01*
X300891Y482692D01*
X301014Y482688D01*
X301137Y482681D01*
X301156Y482685D01*
X301175Y482684D01*
X301294Y482715D01*
X301415Y482742D01*
X301432Y482751D01*
X301450Y482756D01*
X301556Y482819D01*
X301664Y482878D01*
X301678Y482891D01*
X301695Y482901D01*
X301779Y482990D01*
X301867Y483077D01*
X301876Y483094D01*
X301889Y483108D01*
X301945Y483217D01*
X302006Y483325D01*
X302010Y483344D01*
X302019Y483361D01*
X302031Y483434D01*
X302071Y483602D01*
X302068Y483653D01*
X302075Y483692D01*
X302135Y617220D01*
X302127Y617278D01*
X302128Y617336D01*
X302107Y617418D01*
X302095Y617501D01*
X302071Y617555D01*
X302056Y617611D01*
X302013Y617684D01*
X301979Y617761D01*
X301941Y617805D01*
X301911Y617856D01*
X301850Y617913D01*
X301795Y617978D01*
X301747Y618010D01*
X301704Y618050D01*
X301629Y618089D01*
X301559Y618135D01*
X301503Y618153D01*
X301451Y618180D01*
X301383Y618191D01*
X301288Y618221D01*
X301188Y618224D01*
X301119Y618235D01*
X22637Y618235D01*
X22608Y618231D01*
X22579Y618234D01*
X22468Y618211D01*
X22356Y618195D01*
X22329Y618183D01*
X22300Y618178D01*
X22200Y618126D01*
X22096Y618079D01*
X22074Y618060D01*
X22048Y618047D01*
X21966Y617969D01*
X21879Y617896D01*
X21863Y617871D01*
X21842Y617851D01*
X21784Y617753D01*
X21722Y617659D01*
X21713Y617631D01*
X21698Y617606D01*
X21670Y617496D01*
X21636Y617388D01*
X21635Y617358D01*
X21628Y617330D01*
X21631Y617217D01*
X21628Y617104D01*
X21636Y617075D01*
X21637Y617046D01*
X21672Y616938D01*
X21700Y616829D01*
X21715Y616803D01*
X21724Y616775D01*
X21770Y616712D01*
X21846Y616584D01*
X21891Y616541D01*
X21919Y616502D01*
X22368Y616053D01*
X22381Y616006D01*
X22393Y615922D01*
X22416Y615869D01*
X22431Y615813D01*
X22474Y615740D01*
X22509Y615663D01*
X22547Y615618D01*
X22576Y615568D01*
X22638Y615510D01*
X22692Y615446D01*
X22741Y615414D01*
X22784Y615374D01*
X22859Y615335D01*
X22929Y615288D01*
X22985Y615271D01*
X23037Y615244D01*
X23105Y615233D01*
X23200Y615203D01*
X23300Y615200D01*
X23368Y615189D01*
X29211Y615189D01*
X29274Y615198D01*
X29323Y615195D01*
X30564Y615333D01*
X30583Y615323D01*
X30678Y615266D01*
X30709Y615259D01*
X30737Y615244D01*
X30814Y615231D01*
X30923Y615203D01*
X31800Y614326D01*
X31851Y614288D01*
X31884Y614251D01*
X32858Y613471D01*
X32865Y613451D01*
X32892Y613343D01*
X32909Y613316D01*
X32918Y613286D01*
X32964Y613222D01*
X33021Y613125D01*
X33021Y611885D01*
X33030Y611822D01*
X33027Y611773D01*
X33165Y610532D01*
X33155Y610513D01*
X33098Y610418D01*
X33091Y610387D01*
X33076Y610359D01*
X33063Y610282D01*
X33035Y610173D01*
X32158Y609296D01*
X32120Y609245D01*
X32083Y609212D01*
X30108Y606743D01*
X30062Y606665D01*
X30008Y606593D01*
X29990Y606544D01*
X29963Y606499D01*
X29940Y606411D01*
X29909Y606326D01*
X29905Y606274D01*
X29892Y606223D01*
X29894Y606133D01*
X29888Y606043D01*
X29898Y605991D01*
X29900Y605939D01*
X29927Y605853D01*
X29946Y605764D01*
X29970Y605718D01*
X29986Y605668D01*
X30036Y605593D01*
X30079Y605513D01*
X30115Y605475D01*
X30144Y605432D01*
X30213Y605374D01*
X30276Y605309D01*
X30316Y605287D01*
X30361Y605249D01*
X30503Y605186D01*
X30571Y605149D01*
X30879Y605043D01*
X33021Y602045D01*
X33021Y598359D01*
X31720Y596538D01*
X31712Y596523D01*
X31700Y596510D01*
X31646Y596397D01*
X31588Y596286D01*
X31585Y596269D01*
X31578Y596254D01*
X31557Y596130D01*
X31532Y596007D01*
X31534Y595990D01*
X31531Y595973D01*
X31545Y595849D01*
X31555Y595724D01*
X31561Y595708D01*
X31563Y595691D01*
X31593Y595626D01*
X31656Y595458D01*
X31685Y595419D01*
X31701Y595385D01*
X33241Y593075D01*
X32663Y590186D01*
X31809Y589617D01*
X31722Y589539D01*
X31632Y589467D01*
X31617Y589445D01*
X31597Y589428D01*
X31535Y589329D01*
X31469Y589235D01*
X31460Y589209D01*
X31446Y589187D01*
X31414Y589076D01*
X31376Y588966D01*
X31374Y588939D01*
X31367Y588914D01*
X31367Y588798D01*
X31361Y588682D01*
X31367Y588656D01*
X31367Y588629D01*
X31399Y588518D01*
X31426Y588405D01*
X31439Y588382D01*
X31446Y588356D01*
X31508Y588258D01*
X31564Y588157D01*
X31582Y588141D01*
X31598Y588116D01*
X31805Y587931D01*
X31809Y587927D01*
X32663Y587358D01*
X33241Y584469D01*
X31606Y582017D01*
X28717Y581439D01*
X24693Y584122D01*
X24692Y584122D01*
X24562Y584185D01*
X24437Y584245D01*
X24436Y584245D01*
X24292Y584269D01*
X24157Y584292D01*
X24156Y584292D01*
X24155Y584292D01*
X24007Y584275D01*
X23874Y584260D01*
X23874Y584259D01*
X23873Y584259D01*
X23868Y584257D01*
X23612Y584150D01*
X23589Y584132D01*
X23567Y584122D01*
X19543Y581439D01*
X16654Y582017D01*
X15019Y584469D01*
X15597Y587358D01*
X16451Y587927D01*
X16538Y588005D01*
X16628Y588077D01*
X16643Y588099D01*
X16663Y588116D01*
X16725Y588215D01*
X16791Y588309D01*
X16800Y588335D01*
X16814Y588357D01*
X16846Y588468D01*
X16884Y588578D01*
X16886Y588605D01*
X16893Y588630D01*
X16893Y588746D01*
X16899Y588862D01*
X16893Y588888D01*
X16893Y588915D01*
X16861Y589026D01*
X16834Y589139D01*
X16821Y589162D01*
X16814Y589188D01*
X16752Y589286D01*
X16696Y589387D01*
X16678Y589403D01*
X16662Y589428D01*
X16455Y589613D01*
X16451Y589617D01*
X15597Y590186D01*
X15019Y593075D01*
X16559Y595385D01*
X16566Y595400D01*
X16577Y595413D01*
X16628Y595528D01*
X16682Y595641D01*
X16685Y595658D01*
X16692Y595673D01*
X16708Y595798D01*
X16729Y595921D01*
X16727Y595938D01*
X16730Y595955D01*
X16711Y596079D01*
X16697Y596204D01*
X16690Y596219D01*
X16688Y596236D01*
X16657Y596300D01*
X16587Y596466D01*
X16557Y596504D01*
X16540Y596538D01*
X15239Y598359D01*
X15239Y602045D01*
X16886Y604349D01*
X16940Y604453D01*
X16999Y604554D01*
X17005Y604579D01*
X17017Y604602D01*
X17040Y604717D01*
X17069Y604829D01*
X17068Y604855D01*
X17073Y604880D01*
X17063Y604997D01*
X17060Y605113D01*
X17052Y605138D01*
X17050Y605164D01*
X17008Y605273D01*
X16972Y605384D01*
X16959Y605403D01*
X16949Y605429D01*
X16778Y605657D01*
X16777Y605657D01*
X15239Y607195D01*
X15239Y616069D01*
X15673Y616502D01*
X15690Y616526D01*
X15713Y616545D01*
X15776Y616639D01*
X15844Y616729D01*
X15854Y616757D01*
X15870Y616781D01*
X15905Y616889D01*
X15945Y616995D01*
X15947Y617024D01*
X15956Y617052D01*
X15959Y617166D01*
X15969Y617278D01*
X15963Y617307D01*
X15964Y617336D01*
X15935Y617446D01*
X15913Y617557D01*
X15899Y617583D01*
X15892Y617611D01*
X15834Y617709D01*
X15782Y617809D01*
X15761Y617831D01*
X15746Y617856D01*
X15664Y617933D01*
X15586Y618015D01*
X15561Y618030D01*
X15539Y618050D01*
X15438Y618102D01*
X15341Y618159D01*
X15312Y618166D01*
X15286Y618180D01*
X15209Y618193D01*
X15065Y618229D01*
X15003Y618227D01*
X14955Y618235D01*
X3556Y618235D01*
X3498Y618227D01*
X3440Y618229D01*
X3358Y618207D01*
X3274Y618195D01*
X3221Y618172D01*
X3165Y618157D01*
X3092Y618114D01*
X3015Y618079D01*
X2970Y618041D01*
X2920Y618012D01*
X2862Y617950D01*
X2798Y617896D01*
X2766Y617847D01*
X2726Y617804D01*
X2687Y617729D01*
X2640Y617659D01*
X2623Y617603D01*
X2596Y617551D01*
X2585Y617483D01*
X2555Y617388D01*
X2552Y617288D01*
X2541Y617220D01*
X2541Y483373D01*
X2543Y483354D01*
X2541Y483334D01*
X2563Y483213D01*
X2581Y483092D01*
X2589Y483074D01*
X2592Y483054D01*
X2647Y482944D01*
X2697Y482832D01*
X2709Y482817D01*
X2718Y482800D01*
X2801Y482709D01*
X2880Y482615D01*
X2897Y482604D01*
X2910Y482590D01*
X3015Y482526D01*
X3117Y482458D01*
X3136Y482452D01*
X3152Y482441D01*
X3271Y482409D01*
X3388Y482372D01*
X3408Y482371D01*
X3427Y482366D01*
X3549Y482368D01*
X3672Y482364D01*
X3691Y482369D01*
X3711Y482370D01*
X3829Y482405D01*
X3947Y482436D01*
X3964Y482446D01*
X3983Y482452D01*
X4086Y482519D01*
X4192Y482582D01*
X4205Y482596D01*
X4222Y482606D01*
X4268Y482663D01*
X4386Y482789D01*
X4410Y482834D01*
X4435Y482865D01*
X8210Y489404D01*
X14180Y494413D01*
X21503Y497079D01*
X29297Y497079D01*
X36620Y494413D01*
X42590Y489404D01*
X46486Y482655D01*
X47840Y474980D01*
X46486Y467305D01*
X42590Y460556D01*
X36620Y455547D01*
X32618Y454090D01*
X32522Y454039D01*
X32424Y453995D01*
X32397Y453973D01*
X32367Y453956D01*
X32289Y453881D01*
X32207Y453811D01*
X32188Y453783D01*
X32163Y453758D01*
X32109Y453665D01*
X32049Y453575D01*
X32039Y453542D01*
X32022Y453512D01*
X31996Y453407D01*
X31964Y453304D01*
X31963Y453269D01*
X31954Y453235D01*
X31959Y453128D01*
X31956Y453020D01*
X31965Y452986D01*
X31966Y452951D01*
X32001Y452849D01*
X32028Y452745D01*
X32046Y452715D01*
X32057Y452682D01*
X32118Y452593D01*
X32173Y452500D01*
X32199Y452476D01*
X32218Y452448D01*
X32302Y452380D01*
X32381Y452306D01*
X32412Y452290D01*
X32438Y452268D01*
X32538Y452225D01*
X32634Y452176D01*
X32664Y452171D01*
X32700Y452156D01*
X32912Y452130D01*
X32965Y452121D01*
X79724Y452121D01*
X79753Y452125D01*
G37*
G36*
X79753Y2545D02*
X79753Y2545D01*
X79783Y2542D01*
X79894Y2565D01*
X80006Y2581D01*
X80033Y2593D01*
X80061Y2598D01*
X80162Y2651D01*
X80265Y2697D01*
X80288Y2716D01*
X80314Y2729D01*
X80396Y2807D01*
X80482Y2880D01*
X80499Y2905D01*
X80520Y2925D01*
X80577Y3023D01*
X80640Y3117D01*
X80649Y3145D01*
X80664Y3170D01*
X80691Y3280D01*
X80726Y3388D01*
X80726Y3418D01*
X80734Y3446D01*
X80730Y3559D01*
X80733Y3672D01*
X80726Y3701D01*
X80725Y3730D01*
X80690Y3838D01*
X80661Y3947D01*
X80646Y3973D01*
X80637Y4001D01*
X80591Y4065D01*
X80516Y4192D01*
X80470Y4235D01*
X80442Y4274D01*
X79794Y4922D01*
X78689Y6443D01*
X77836Y8117D01*
X77255Y9904D01*
X77134Y10669D01*
X87884Y10669D01*
X87942Y10677D01*
X88000Y10675D01*
X88082Y10697D01*
X88165Y10709D01*
X88219Y10733D01*
X88275Y10747D01*
X88348Y10790D01*
X88425Y10825D01*
X88469Y10863D01*
X88520Y10893D01*
X88577Y10954D01*
X88642Y11009D01*
X88674Y11057D01*
X88714Y11100D01*
X88753Y11175D01*
X88799Y11245D01*
X88817Y11301D01*
X88844Y11353D01*
X88855Y11421D01*
X88885Y11516D01*
X88888Y11616D01*
X88899Y11684D01*
X88899Y12701D01*
X89916Y12701D01*
X89974Y12709D01*
X90032Y12708D01*
X90114Y12729D01*
X90197Y12741D01*
X90251Y12765D01*
X90307Y12779D01*
X90380Y12822D01*
X90457Y12857D01*
X90502Y12895D01*
X90552Y12925D01*
X90610Y12986D01*
X90674Y13041D01*
X90706Y13089D01*
X90746Y13132D01*
X90785Y13207D01*
X90831Y13277D01*
X90849Y13333D01*
X90876Y13385D01*
X90887Y13453D01*
X90917Y13548D01*
X90920Y13648D01*
X90931Y13716D01*
X90931Y24466D01*
X91696Y24345D01*
X93483Y23764D01*
X95157Y22911D01*
X96678Y21806D01*
X98006Y20478D01*
X99111Y18957D01*
X99964Y17283D01*
X100569Y15420D01*
X100584Y15389D01*
X100592Y15356D01*
X100596Y15350D01*
X100596Y15348D01*
X100610Y15324D01*
X100621Y15291D01*
X100662Y15230D01*
X100694Y15164D01*
X100717Y15140D01*
X100734Y15109D01*
X100759Y15085D01*
X100779Y15055D01*
X100837Y15007D01*
X100885Y14953D01*
X100913Y14936D01*
X100938Y14912D01*
X100970Y14895D01*
X100997Y14872D01*
X101066Y14842D01*
X101127Y14804D01*
X101158Y14795D01*
X101189Y14778D01*
X101224Y14771D01*
X101257Y14757D01*
X101332Y14746D01*
X101401Y14727D01*
X101433Y14727D01*
X101468Y14720D01*
X101503Y14723D01*
X101538Y14718D01*
X101613Y14729D01*
X101685Y14729D01*
X101716Y14739D01*
X101751Y14741D01*
X101784Y14753D01*
X101820Y14759D01*
X101889Y14790D01*
X101957Y14810D01*
X101985Y14828D01*
X102018Y14840D01*
X102046Y14861D01*
X102079Y14876D01*
X102136Y14925D01*
X102197Y14963D01*
X102218Y14988D01*
X102246Y15009D01*
X102268Y15037D01*
X102295Y15060D01*
X102326Y15109D01*
X102330Y15115D01*
X102384Y15177D01*
X102398Y15207D01*
X102419Y15234D01*
X102434Y15271D01*
X102453Y15300D01*
X102461Y15325D01*
X102473Y15345D01*
X104179Y19463D01*
X107537Y22821D01*
X108593Y23258D01*
X108594Y23259D01*
X108595Y23260D01*
X108714Y23330D01*
X108837Y23403D01*
X108838Y23404D01*
X108840Y23405D01*
X108937Y23508D01*
X109033Y23610D01*
X109033Y23611D01*
X109034Y23612D01*
X109097Y23735D01*
X109163Y23862D01*
X109163Y23864D01*
X109164Y23865D01*
X109166Y23880D01*
X109218Y24141D01*
X109215Y24172D01*
X109219Y24196D01*
X109219Y33035D01*
X109212Y33087D01*
X109213Y33115D01*
X109206Y33138D01*
X109204Y33209D01*
X109187Y33262D01*
X109179Y33316D01*
X109144Y33396D01*
X109117Y33479D01*
X109089Y33519D01*
X109063Y33576D01*
X108967Y33689D01*
X108922Y33753D01*
X102333Y40342D01*
X102263Y40394D01*
X102199Y40454D01*
X102150Y40480D01*
X102106Y40513D01*
X102024Y40544D01*
X101946Y40584D01*
X101898Y40592D01*
X101840Y40614D01*
X101692Y40626D01*
X101615Y40639D01*
X87889Y40639D01*
X86022Y41413D01*
X84450Y42985D01*
X79953Y47482D01*
X79928Y47501D01*
X79908Y47524D01*
X79841Y47566D01*
X79726Y47653D01*
X79665Y47676D01*
X79623Y47702D01*
X77970Y48387D01*
X76327Y50030D01*
X75437Y52178D01*
X75437Y54502D01*
X76122Y56155D01*
X76130Y56185D01*
X76144Y56213D01*
X76157Y56290D01*
X76193Y56431D01*
X76191Y56495D01*
X76199Y56544D01*
X76199Y95504D01*
X76191Y95562D01*
X76193Y95620D01*
X76171Y95702D01*
X76159Y95786D01*
X76136Y95839D01*
X76121Y95895D01*
X76078Y95968D01*
X76043Y96045D01*
X76005Y96090D01*
X75976Y96140D01*
X75914Y96198D01*
X75860Y96262D01*
X75811Y96294D01*
X75768Y96334D01*
X75693Y96373D01*
X75623Y96420D01*
X75567Y96437D01*
X75515Y96464D01*
X75447Y96475D01*
X75352Y96505D01*
X75252Y96508D01*
X75184Y96519D01*
X39629Y96519D01*
X37762Y97293D01*
X34233Y100822D01*
X34208Y100840D01*
X34188Y100864D01*
X34121Y100906D01*
X34006Y100993D01*
X33945Y101016D01*
X33903Y101042D01*
X32250Y101727D01*
X30607Y103370D01*
X29717Y105518D01*
X29717Y107842D01*
X30607Y109990D01*
X32250Y111633D01*
X34398Y112523D01*
X36722Y112523D01*
X38870Y111633D01*
X40513Y109990D01*
X41198Y108337D01*
X41214Y108310D01*
X41223Y108281D01*
X41269Y108217D01*
X41342Y108092D01*
X41389Y108047D01*
X41418Y108007D01*
X42447Y106978D01*
X42517Y106926D01*
X42581Y106866D01*
X42630Y106840D01*
X42674Y106807D01*
X42756Y106776D01*
X42834Y106736D01*
X42882Y106728D01*
X42940Y106706D01*
X43088Y106694D01*
X43165Y106681D01*
X75645Y106681D01*
X75675Y106685D01*
X75704Y106682D01*
X75815Y106705D01*
X75927Y106721D01*
X75954Y106733D01*
X75982Y106738D01*
X76083Y106791D01*
X76186Y106837D01*
X76209Y106856D01*
X76235Y106869D01*
X76317Y106947D01*
X76403Y107020D01*
X76420Y107045D01*
X76441Y107065D01*
X76498Y107163D01*
X76561Y107257D01*
X76570Y107285D01*
X76585Y107310D01*
X76612Y107420D01*
X76647Y107528D01*
X76647Y107557D01*
X76655Y107586D01*
X76651Y107699D01*
X76654Y107812D01*
X76647Y107841D01*
X76646Y107870D01*
X76611Y107978D01*
X76582Y108087D01*
X76567Y108113D01*
X76558Y108141D01*
X76513Y108205D01*
X76437Y108332D01*
X76391Y108375D01*
X76363Y108414D01*
X76327Y108450D01*
X75437Y110598D01*
X75437Y112922D01*
X76327Y115070D01*
X77970Y116713D01*
X80118Y117603D01*
X82442Y117603D01*
X84590Y116713D01*
X85181Y116122D01*
X85251Y116070D01*
X85314Y116010D01*
X85364Y115984D01*
X85408Y115951D01*
X85490Y115920D01*
X85568Y115880D01*
X85615Y115872D01*
X85674Y115850D01*
X85821Y115838D01*
X85899Y115825D01*
X91745Y115825D01*
X91832Y115837D01*
X91919Y115840D01*
X91972Y115857D01*
X92027Y115865D01*
X92106Y115900D01*
X92190Y115927D01*
X92229Y115955D01*
X92286Y115981D01*
X92399Y116077D01*
X92463Y116122D01*
X94198Y117857D01*
X109002Y117857D01*
X110491Y116368D01*
X110491Y107696D01*
X110499Y107638D01*
X110497Y107580D01*
X110519Y107498D01*
X110531Y107414D01*
X110554Y107361D01*
X110569Y107305D01*
X110612Y107232D01*
X110647Y107155D01*
X110685Y107110D01*
X110714Y107060D01*
X110776Y107002D01*
X110830Y106938D01*
X110879Y106906D01*
X110922Y106866D01*
X110997Y106827D01*
X111067Y106780D01*
X111123Y106763D01*
X111175Y106736D01*
X111243Y106725D01*
X111338Y106695D01*
X111438Y106692D01*
X111506Y106681D01*
X164436Y106681D01*
X164467Y106685D01*
X164498Y106683D01*
X164574Y106700D01*
X164718Y106721D01*
X164777Y106747D01*
X164825Y106758D01*
X165983Y107238D01*
X166010Y107254D01*
X166039Y107263D01*
X166103Y107309D01*
X166228Y107382D01*
X166272Y107429D01*
X166313Y107458D01*
X178430Y119575D01*
X180002Y121147D01*
X181869Y121921D01*
X201223Y121921D01*
X201308Y121933D01*
X201394Y121935D01*
X201448Y121953D01*
X201504Y121961D01*
X201583Y121996D01*
X201664Y122022D01*
X201712Y122054D01*
X201764Y122077D01*
X201829Y122132D01*
X201901Y122180D01*
X201937Y122224D01*
X201981Y122260D01*
X202028Y122332D01*
X202084Y122398D01*
X202107Y122450D01*
X202138Y122497D01*
X202164Y122579D01*
X202199Y122658D01*
X202207Y122714D01*
X202224Y122768D01*
X202226Y122854D01*
X202238Y122939D01*
X202230Y122995D01*
X202231Y123052D01*
X202210Y123135D01*
X202197Y123220D01*
X202174Y123272D01*
X202160Y123327D01*
X202116Y123401D01*
X202080Y123480D01*
X202043Y123523D01*
X202014Y123572D01*
X201952Y123631D01*
X201896Y123696D01*
X201854Y123722D01*
X201807Y123766D01*
X201678Y123832D01*
X201611Y123874D01*
X199890Y124587D01*
X198247Y126230D01*
X197357Y128378D01*
X197357Y130702D01*
X198247Y132850D01*
X199890Y134493D01*
X202038Y135383D01*
X204362Y135383D01*
X206510Y134493D01*
X207355Y133648D01*
X207425Y133596D01*
X207488Y133536D01*
X207538Y133510D01*
X207582Y133477D01*
X207664Y133446D01*
X207742Y133406D01*
X207789Y133398D01*
X207848Y133376D01*
X207995Y133364D01*
X208073Y133351D01*
X273358Y133351D01*
X280671Y126038D01*
X280671Y87322D01*
X273358Y80009D01*
X253459Y80009D01*
X253372Y79997D01*
X253285Y79994D01*
X253232Y79977D01*
X253177Y79969D01*
X253098Y79934D01*
X253014Y79907D01*
X252975Y79879D01*
X252918Y79853D01*
X252805Y79757D01*
X252741Y79712D01*
X250488Y77459D01*
X250436Y77389D01*
X250376Y77325D01*
X250350Y77276D01*
X250317Y77232D01*
X250286Y77150D01*
X250246Y77072D01*
X250238Y77025D01*
X250216Y76966D01*
X250204Y76818D01*
X250191Y76741D01*
X250191Y51762D01*
X237798Y39369D01*
X222979Y39369D01*
X222892Y39357D01*
X222805Y39354D01*
X222752Y39337D01*
X222697Y39329D01*
X222618Y39294D01*
X222534Y39267D01*
X222495Y39239D01*
X222438Y39213D01*
X222325Y39117D01*
X222261Y39072D01*
X220008Y36819D01*
X219956Y36749D01*
X219896Y36685D01*
X219870Y36636D01*
X219837Y36592D01*
X219806Y36510D01*
X219766Y36432D01*
X219758Y36385D01*
X219736Y36326D01*
X219727Y36219D01*
X219725Y36212D01*
X219724Y36181D01*
X219724Y36178D01*
X219711Y36101D01*
X219711Y24722D01*
X219711Y24721D01*
X219711Y24719D01*
X219731Y24579D01*
X219751Y24441D01*
X219751Y24439D01*
X219751Y24438D01*
X219808Y24312D01*
X219867Y24181D01*
X219868Y24180D01*
X219869Y24179D01*
X219960Y24072D01*
X220050Y23964D01*
X220052Y23964D01*
X220053Y23962D01*
X220066Y23954D01*
X220287Y23807D01*
X220316Y23798D01*
X220337Y23784D01*
X222663Y22821D01*
X226021Y19463D01*
X227839Y15075D01*
X227839Y10325D01*
X226021Y5937D01*
X224358Y4274D01*
X224340Y4250D01*
X224318Y4231D01*
X224255Y4137D01*
X224187Y4047D01*
X224176Y4019D01*
X224160Y3995D01*
X224126Y3887D01*
X224086Y3781D01*
X224083Y3752D01*
X224074Y3724D01*
X224071Y3610D01*
X224062Y3498D01*
X224068Y3469D01*
X224067Y3440D01*
X224096Y3330D01*
X224118Y3219D01*
X224132Y3193D01*
X224139Y3165D01*
X224197Y3067D01*
X224249Y2967D01*
X224269Y2945D01*
X224284Y2920D01*
X224367Y2843D01*
X224445Y2761D01*
X224470Y2746D01*
X224491Y2726D01*
X224592Y2674D01*
X224690Y2617D01*
X224718Y2610D01*
X224745Y2596D01*
X224822Y2583D01*
X224966Y2547D01*
X225028Y2549D01*
X225076Y2541D01*
X271835Y2541D01*
X271942Y2556D01*
X272050Y2564D01*
X272082Y2576D01*
X272117Y2581D01*
X272215Y2625D01*
X272316Y2662D01*
X272344Y2683D01*
X272376Y2697D01*
X272458Y2766D01*
X272545Y2830D01*
X272567Y2858D01*
X272593Y2880D01*
X272653Y2970D01*
X272719Y3056D01*
X272731Y3088D01*
X272751Y3117D01*
X272783Y3220D01*
X272823Y3320D01*
X272826Y3355D01*
X272837Y3388D01*
X272839Y3496D01*
X272849Y3603D01*
X272843Y3638D01*
X272844Y3672D01*
X272817Y3777D01*
X272796Y3883D01*
X272781Y3914D01*
X272772Y3947D01*
X272717Y4040D01*
X272668Y4136D01*
X272645Y4162D01*
X272627Y4192D01*
X272548Y4266D01*
X272475Y4345D01*
X272448Y4360D01*
X272419Y4386D01*
X272229Y4484D01*
X272182Y4510D01*
X268180Y5967D01*
X262210Y10976D01*
X258314Y17725D01*
X256960Y25400D01*
X258314Y33075D01*
X262210Y39824D01*
X268180Y44833D01*
X275503Y47499D01*
X283297Y47499D01*
X290620Y44833D01*
X296590Y39824D01*
X300180Y33605D01*
X300192Y33590D01*
X300200Y33572D01*
X300280Y33478D01*
X300355Y33381D01*
X300371Y33370D01*
X300384Y33355D01*
X300486Y33287D01*
X300586Y33215D01*
X300604Y33208D01*
X300620Y33198D01*
X300737Y33160D01*
X300853Y33119D01*
X300873Y33117D01*
X300891Y33112D01*
X301014Y33108D01*
X301137Y33101D01*
X301156Y33105D01*
X301175Y33104D01*
X301295Y33135D01*
X301415Y33162D01*
X301432Y33171D01*
X301450Y33176D01*
X301557Y33239D01*
X301664Y33298D01*
X301678Y33311D01*
X301695Y33321D01*
X301779Y33411D01*
X301867Y33497D01*
X301876Y33514D01*
X301889Y33528D01*
X301945Y33637D01*
X302006Y33745D01*
X302010Y33764D01*
X302019Y33781D01*
X302031Y33854D01*
X302071Y34022D01*
X302068Y34073D01*
X302075Y34112D01*
X302135Y167640D01*
X302127Y167698D01*
X302128Y167756D01*
X302107Y167838D01*
X302095Y167921D01*
X302071Y167975D01*
X302056Y168031D01*
X302013Y168104D01*
X301979Y168181D01*
X301941Y168225D01*
X301911Y168276D01*
X301850Y168333D01*
X301795Y168398D01*
X301747Y168430D01*
X301704Y168470D01*
X301629Y168509D01*
X301559Y168555D01*
X301503Y168573D01*
X301451Y168600D01*
X301383Y168611D01*
X301288Y168641D01*
X301188Y168644D01*
X301119Y168655D01*
X22637Y168655D01*
X22608Y168651D01*
X22579Y168654D01*
X22468Y168631D01*
X22356Y168615D01*
X22329Y168603D01*
X22300Y168598D01*
X22199Y168545D01*
X22096Y168499D01*
X22074Y168480D01*
X22048Y168467D01*
X21966Y168389D01*
X21879Y168315D01*
X21863Y168291D01*
X21842Y168271D01*
X21784Y168173D01*
X21722Y168079D01*
X21713Y168051D01*
X21698Y168026D01*
X21670Y167916D01*
X21636Y167808D01*
X21635Y167778D01*
X21628Y167750D01*
X21631Y167637D01*
X21628Y167524D01*
X21636Y167495D01*
X21637Y167466D01*
X21672Y167358D01*
X21700Y167249D01*
X21715Y167223D01*
X21724Y167195D01*
X21770Y167131D01*
X21846Y167004D01*
X21891Y166961D01*
X21919Y166922D01*
X22369Y166473D01*
X22381Y166426D01*
X22393Y166342D01*
X22416Y166289D01*
X22431Y166233D01*
X22474Y166160D01*
X22509Y166083D01*
X22547Y166038D01*
X22576Y165988D01*
X22638Y165930D01*
X22692Y165866D01*
X22741Y165834D01*
X22784Y165794D01*
X22859Y165755D01*
X22929Y165708D01*
X22985Y165691D01*
X23037Y165664D01*
X23105Y165653D01*
X23200Y165623D01*
X23300Y165620D01*
X23368Y165609D01*
X29211Y165609D01*
X29274Y165618D01*
X29323Y165615D01*
X30564Y165753D01*
X30583Y165743D01*
X30678Y165686D01*
X30709Y165679D01*
X30737Y165664D01*
X30814Y165651D01*
X30923Y165623D01*
X31800Y164746D01*
X31851Y164708D01*
X31884Y164671D01*
X32858Y163891D01*
X32865Y163871D01*
X32892Y163763D01*
X32909Y163736D01*
X32918Y163706D01*
X32964Y163642D01*
X33021Y163545D01*
X33021Y162305D01*
X33030Y162242D01*
X33027Y162193D01*
X33165Y160952D01*
X33155Y160933D01*
X33098Y160838D01*
X33091Y160807D01*
X33076Y160779D01*
X33063Y160702D01*
X33035Y160593D01*
X32158Y159716D01*
X32120Y159665D01*
X32083Y159632D01*
X30108Y157163D01*
X30062Y157085D01*
X30008Y157013D01*
X29990Y156964D01*
X29963Y156919D01*
X29940Y156831D01*
X29909Y156746D01*
X29905Y156694D01*
X29892Y156643D01*
X29894Y156553D01*
X29888Y156463D01*
X29898Y156411D01*
X29900Y156359D01*
X29927Y156273D01*
X29946Y156184D01*
X29970Y156138D01*
X29986Y156088D01*
X30036Y156013D01*
X30079Y155933D01*
X30115Y155895D01*
X30144Y155852D01*
X30213Y155794D01*
X30276Y155729D01*
X30316Y155707D01*
X30361Y155669D01*
X30503Y155606D01*
X30571Y155569D01*
X30879Y155463D01*
X33021Y152465D01*
X33021Y148779D01*
X31720Y146958D01*
X31712Y146943D01*
X31700Y146930D01*
X31646Y146817D01*
X31588Y146706D01*
X31585Y146689D01*
X31578Y146674D01*
X31557Y146550D01*
X31532Y146427D01*
X31534Y146410D01*
X31531Y146393D01*
X31545Y146269D01*
X31555Y146144D01*
X31561Y146128D01*
X31563Y146111D01*
X31593Y146046D01*
X31656Y145878D01*
X31685Y145839D01*
X31701Y145805D01*
X33241Y143495D01*
X32663Y140606D01*
X31809Y140037D01*
X31722Y139959D01*
X31632Y139887D01*
X31617Y139865D01*
X31597Y139848D01*
X31535Y139749D01*
X31469Y139655D01*
X31460Y139629D01*
X31446Y139607D01*
X31414Y139496D01*
X31376Y139386D01*
X31374Y139359D01*
X31367Y139334D01*
X31367Y139218D01*
X31361Y139102D01*
X31367Y139076D01*
X31367Y139049D01*
X31399Y138938D01*
X31426Y138825D01*
X31439Y138802D01*
X31446Y138776D01*
X31508Y138678D01*
X31564Y138577D01*
X31582Y138561D01*
X31598Y138536D01*
X31805Y138351D01*
X31809Y138347D01*
X32663Y137778D01*
X33241Y134889D01*
X31606Y132437D01*
X28717Y131859D01*
X24693Y134542D01*
X24692Y134542D01*
X24562Y134605D01*
X24437Y134665D01*
X24436Y134665D01*
X24292Y134689D01*
X24157Y134712D01*
X24156Y134712D01*
X24155Y134712D01*
X24007Y134695D01*
X23874Y134680D01*
X23874Y134679D01*
X23873Y134679D01*
X23868Y134677D01*
X23612Y134570D01*
X23589Y134552D01*
X23567Y134542D01*
X19543Y131859D01*
X16654Y132437D01*
X15019Y134889D01*
X15597Y137778D01*
X16451Y138347D01*
X16538Y138425D01*
X16628Y138497D01*
X16643Y138519D01*
X16663Y138536D01*
X16725Y138635D01*
X16791Y138729D01*
X16800Y138755D01*
X16814Y138777D01*
X16846Y138888D01*
X16884Y138998D01*
X16886Y139025D01*
X16893Y139050D01*
X16893Y139166D01*
X16899Y139282D01*
X16893Y139308D01*
X16893Y139335D01*
X16861Y139446D01*
X16834Y139559D01*
X16821Y139582D01*
X16814Y139608D01*
X16752Y139706D01*
X16696Y139807D01*
X16678Y139823D01*
X16662Y139848D01*
X16455Y140033D01*
X16451Y140037D01*
X15597Y140606D01*
X15019Y143495D01*
X16559Y145805D01*
X16566Y145820D01*
X16577Y145833D01*
X16628Y145948D01*
X16682Y146061D01*
X16685Y146078D01*
X16692Y146093D01*
X16708Y146218D01*
X16729Y146341D01*
X16727Y146358D01*
X16730Y146375D01*
X16711Y146499D01*
X16697Y146624D01*
X16690Y146639D01*
X16688Y146656D01*
X16657Y146720D01*
X16587Y146886D01*
X16557Y146924D01*
X16540Y146958D01*
X15239Y148779D01*
X15239Y152465D01*
X16886Y154769D01*
X16940Y154873D01*
X16999Y154974D01*
X17005Y154999D01*
X17017Y155022D01*
X17040Y155137D01*
X17069Y155249D01*
X17068Y155275D01*
X17073Y155300D01*
X17063Y155417D01*
X17060Y155533D01*
X17052Y155558D01*
X17050Y155584D01*
X17008Y155693D01*
X16972Y155804D01*
X16959Y155823D01*
X16949Y155849D01*
X16778Y156077D01*
X16777Y156077D01*
X15239Y157615D01*
X15239Y166489D01*
X15673Y166922D01*
X15690Y166946D01*
X15713Y166964D01*
X15776Y167059D01*
X15844Y167149D01*
X15854Y167177D01*
X15870Y167201D01*
X15905Y167309D01*
X15945Y167415D01*
X15947Y167444D01*
X15956Y167472D01*
X15959Y167585D01*
X15969Y167698D01*
X15963Y167727D01*
X15964Y167756D01*
X15935Y167866D01*
X15913Y167977D01*
X15899Y168003D01*
X15892Y168031D01*
X15834Y168128D01*
X15782Y168229D01*
X15761Y168251D01*
X15746Y168276D01*
X15664Y168353D01*
X15586Y168435D01*
X15561Y168450D01*
X15539Y168470D01*
X15438Y168522D01*
X15341Y168579D01*
X15312Y168586D01*
X15286Y168600D01*
X15209Y168613D01*
X15065Y168649D01*
X15003Y168647D01*
X14955Y168655D01*
X3556Y168655D01*
X3498Y168647D01*
X3440Y168649D01*
X3358Y168627D01*
X3274Y168615D01*
X3221Y168591D01*
X3165Y168577D01*
X3092Y168534D01*
X3015Y168499D01*
X2970Y168461D01*
X2920Y168431D01*
X2862Y168370D01*
X2798Y168315D01*
X2766Y168267D01*
X2726Y168224D01*
X2687Y168149D01*
X2640Y168079D01*
X2623Y168023D01*
X2596Y167971D01*
X2585Y167903D01*
X2555Y167808D01*
X2552Y167708D01*
X2541Y167640D01*
X2541Y33793D01*
X2543Y33774D01*
X2541Y33754D01*
X2563Y33633D01*
X2581Y33511D01*
X2589Y33494D01*
X2592Y33474D01*
X2647Y33364D01*
X2697Y33252D01*
X2709Y33237D01*
X2718Y33220D01*
X2801Y33129D01*
X2880Y33035D01*
X2897Y33024D01*
X2910Y33010D01*
X3015Y32945D01*
X3117Y32877D01*
X3136Y32872D01*
X3152Y32861D01*
X3271Y32829D01*
X3388Y32792D01*
X3408Y32791D01*
X3427Y32786D01*
X3549Y32788D01*
X3672Y32784D01*
X3691Y32789D01*
X3711Y32790D01*
X3829Y32825D01*
X3947Y32856D01*
X3964Y32866D01*
X3983Y32872D01*
X4086Y32939D01*
X4192Y33001D01*
X4205Y33016D01*
X4222Y33026D01*
X4268Y33083D01*
X4386Y33209D01*
X4410Y33254D01*
X4435Y33285D01*
X8210Y39824D01*
X14180Y44833D01*
X21503Y47499D01*
X29297Y47499D01*
X36620Y44833D01*
X42590Y39824D01*
X46486Y33075D01*
X47840Y25400D01*
X46486Y17725D01*
X42590Y10976D01*
X36620Y5967D01*
X32618Y4510D01*
X32522Y4459D01*
X32424Y4415D01*
X32397Y4393D01*
X32367Y4376D01*
X32289Y4301D01*
X32207Y4231D01*
X32188Y4203D01*
X32163Y4178D01*
X32109Y4085D01*
X32049Y3995D01*
X32039Y3962D01*
X32022Y3932D01*
X31996Y3827D01*
X31963Y3724D01*
X31963Y3689D01*
X31954Y3655D01*
X31959Y3548D01*
X31956Y3440D01*
X31965Y3406D01*
X31966Y3371D01*
X32001Y3269D01*
X32028Y3165D01*
X32046Y3135D01*
X32057Y3102D01*
X32118Y3013D01*
X32173Y2920D01*
X32199Y2896D01*
X32218Y2868D01*
X32302Y2800D01*
X32381Y2726D01*
X32412Y2710D01*
X32438Y2688D01*
X32538Y2645D01*
X32634Y2596D01*
X32664Y2591D01*
X32700Y2576D01*
X32912Y2550D01*
X32965Y2541D01*
X79724Y2541D01*
X79753Y2545D01*
G37*
%LPC*%
G36*
X696894Y464311D02*
X696894Y464311D01*
X697015Y465076D01*
X697596Y466863D01*
X698449Y468537D01*
X699554Y470058D01*
X700882Y471386D01*
X702403Y472491D01*
X704077Y473344D01*
X705864Y473925D01*
X706629Y474046D01*
X706629Y464311D01*
X696894Y464311D01*
G37*
%LPD*%
%LPC*%
G36*
X77134Y464311D02*
X77134Y464311D01*
X77255Y465076D01*
X77836Y466863D01*
X78689Y468537D01*
X79794Y470058D01*
X81122Y471386D01*
X82643Y472491D01*
X84317Y473344D01*
X86104Y473925D01*
X86869Y474046D01*
X86869Y464311D01*
X77134Y464311D01*
G37*
%LPD*%
%LPC*%
G36*
X387014Y464311D02*
X387014Y464311D01*
X387135Y465076D01*
X387716Y466863D01*
X388569Y468537D01*
X389674Y470058D01*
X391002Y471386D01*
X392523Y472491D01*
X394197Y473344D01*
X395984Y473925D01*
X396749Y474046D01*
X396749Y464311D01*
X387014Y464311D01*
G37*
%LPD*%
%LPC*%
G36*
X387014Y14731D02*
X387014Y14731D01*
X387135Y15496D01*
X387716Y17283D01*
X388569Y18957D01*
X389674Y20478D01*
X391002Y21806D01*
X392523Y22911D01*
X394197Y23764D01*
X395984Y24345D01*
X396749Y24466D01*
X396749Y14731D01*
X387014Y14731D01*
G37*
%LPD*%
%LPC*%
G36*
X696894Y14731D02*
X696894Y14731D01*
X697015Y15496D01*
X697596Y17283D01*
X698449Y18957D01*
X699554Y20478D01*
X700882Y21806D01*
X702403Y22911D01*
X704077Y23764D01*
X705864Y24345D01*
X706629Y24466D01*
X706629Y14731D01*
X696894Y14731D01*
G37*
%LPD*%
%LPC*%
G36*
X77134Y14731D02*
X77134Y14731D01*
X77255Y15496D01*
X77836Y17283D01*
X78689Y18957D01*
X79794Y20478D01*
X81122Y21806D01*
X82643Y22911D01*
X84317Y23764D01*
X86104Y24345D01*
X86869Y24466D01*
X86869Y14731D01*
X77134Y14731D01*
G37*
%LPD*%
G36*
X412769Y544081D02*
X412769Y544081D01*
X412791Y544084D01*
X412798Y544100D01*
X412807Y544106D01*
X412806Y544116D01*
X412813Y544132D01*
X412813Y558229D01*
X412801Y558247D01*
X412797Y558270D01*
X412782Y558277D01*
X412776Y558286D01*
X412766Y558284D01*
X412750Y558291D01*
X410210Y558291D01*
X410191Y558279D01*
X410169Y558276D01*
X410162Y558260D01*
X410153Y558254D01*
X410154Y558244D01*
X410147Y558229D01*
X410147Y544132D01*
X410159Y544113D01*
X410163Y544090D01*
X410178Y544083D01*
X410184Y544074D01*
X410194Y544076D01*
X410210Y544069D01*
X412750Y544069D01*
X412769Y544081D01*
G37*
G36*
X102889Y544081D02*
X102889Y544081D01*
X102911Y544084D01*
X102918Y544100D01*
X102927Y544106D01*
X102926Y544116D01*
X102933Y544132D01*
X102933Y558229D01*
X102921Y558247D01*
X102917Y558270D01*
X102902Y558277D01*
X102896Y558286D01*
X102886Y558284D01*
X102870Y558291D01*
X100330Y558291D01*
X100311Y558279D01*
X100289Y558276D01*
X100282Y558260D01*
X100273Y558254D01*
X100274Y558244D01*
X100267Y558229D01*
X100267Y544132D01*
X100279Y544113D01*
X100283Y544090D01*
X100298Y544083D01*
X100304Y544074D01*
X100314Y544076D01*
X100330Y544069D01*
X102870Y544069D01*
X102889Y544081D01*
G37*
G36*
X722649Y544081D02*
X722649Y544081D01*
X722671Y544084D01*
X722678Y544100D01*
X722687Y544106D01*
X722686Y544116D01*
X722693Y544132D01*
X722693Y558229D01*
X722681Y558247D01*
X722677Y558270D01*
X722662Y558277D01*
X722656Y558286D01*
X722646Y558284D01*
X722630Y558291D01*
X720090Y558291D01*
X720071Y558279D01*
X720049Y558276D01*
X720042Y558260D01*
X720033Y558254D01*
X720034Y558244D01*
X720027Y558229D01*
X720027Y544132D01*
X720039Y544113D01*
X720043Y544090D01*
X720058Y544083D01*
X720064Y544074D01*
X720074Y544076D01*
X720090Y544069D01*
X722630Y544069D01*
X722649Y544081D01*
G37*
G36*
X412769Y94501D02*
X412769Y94501D01*
X412791Y94504D01*
X412798Y94520D01*
X412807Y94526D01*
X412806Y94536D01*
X412813Y94552D01*
X412813Y108649D01*
X412801Y108667D01*
X412797Y108690D01*
X412782Y108697D01*
X412776Y108706D01*
X412766Y108704D01*
X412750Y108711D01*
X410210Y108711D01*
X410191Y108699D01*
X410169Y108696D01*
X410162Y108680D01*
X410153Y108674D01*
X410154Y108664D01*
X410147Y108649D01*
X410147Y94552D01*
X410159Y94533D01*
X410163Y94510D01*
X410178Y94503D01*
X410184Y94494D01*
X410194Y94496D01*
X410210Y94489D01*
X412750Y94489D01*
X412769Y94501D01*
G37*
G36*
X102889Y94501D02*
X102889Y94501D01*
X102911Y94504D01*
X102918Y94520D01*
X102927Y94526D01*
X102926Y94536D01*
X102933Y94552D01*
X102933Y108649D01*
X102921Y108667D01*
X102917Y108690D01*
X102902Y108697D01*
X102896Y108706D01*
X102886Y108704D01*
X102870Y108711D01*
X100330Y108711D01*
X100311Y108699D01*
X100289Y108696D01*
X100282Y108680D01*
X100273Y108674D01*
X100274Y108664D01*
X100267Y108649D01*
X100267Y94552D01*
X100279Y94533D01*
X100283Y94510D01*
X100298Y94503D01*
X100304Y94494D01*
X100314Y94496D01*
X100330Y94489D01*
X102870Y94489D01*
X102889Y94501D01*
G37*
G36*
X722649Y94501D02*
X722649Y94501D01*
X722671Y94504D01*
X722678Y94520D01*
X722687Y94526D01*
X722686Y94536D01*
X722693Y94552D01*
X722693Y108649D01*
X722681Y108667D01*
X722677Y108690D01*
X722662Y108697D01*
X722656Y108706D01*
X722646Y108704D01*
X722630Y108711D01*
X720090Y108711D01*
X720071Y108699D01*
X720049Y108696D01*
X720042Y108680D01*
X720033Y108674D01*
X720034Y108664D01*
X720027Y108649D01*
X720027Y94552D01*
X720039Y94533D01*
X720043Y94510D01*
X720058Y94503D01*
X720064Y94494D01*
X720074Y94496D01*
X720090Y94489D01*
X722630Y94489D01*
X722649Y94501D01*
G37*
G36*
X514940Y549859D02*
X514940Y549859D01*
X514963Y549863D01*
X514970Y549878D01*
X514979Y549884D01*
X514977Y549894D01*
X514984Y549910D01*
X514984Y552450D01*
X514972Y552469D01*
X514969Y552491D01*
X514953Y552498D01*
X514947Y552507D01*
X514937Y552506D01*
X514922Y552513D01*
X506095Y552513D01*
X506076Y552501D01*
X506054Y552497D01*
X506047Y552482D01*
X506038Y552476D01*
X506039Y552466D01*
X506032Y552450D01*
X506032Y549910D01*
X506044Y549891D01*
X506048Y549869D01*
X506063Y549862D01*
X506069Y549853D01*
X506079Y549854D01*
X506095Y549847D01*
X514922Y549847D01*
X514940Y549859D01*
G37*
G36*
X824820Y549859D02*
X824820Y549859D01*
X824843Y549863D01*
X824850Y549878D01*
X824859Y549884D01*
X824857Y549894D01*
X824864Y549910D01*
X824864Y552450D01*
X824852Y552469D01*
X824849Y552491D01*
X824833Y552498D01*
X824827Y552507D01*
X824817Y552506D01*
X824802Y552513D01*
X815975Y552513D01*
X815956Y552501D01*
X815934Y552497D01*
X815927Y552482D01*
X815918Y552476D01*
X815919Y552466D01*
X815912Y552450D01*
X815912Y549910D01*
X815924Y549891D01*
X815928Y549869D01*
X815943Y549862D01*
X815949Y549853D01*
X815959Y549854D01*
X815975Y549847D01*
X824802Y549847D01*
X824820Y549859D01*
G37*
G36*
X205060Y549859D02*
X205060Y549859D01*
X205083Y549863D01*
X205090Y549878D01*
X205099Y549884D01*
X205097Y549894D01*
X205104Y549910D01*
X205104Y552450D01*
X205092Y552469D01*
X205089Y552491D01*
X205073Y552498D01*
X205067Y552507D01*
X205057Y552506D01*
X205042Y552513D01*
X196215Y552513D01*
X196196Y552501D01*
X196174Y552497D01*
X196167Y552482D01*
X196158Y552476D01*
X196159Y552466D01*
X196152Y552450D01*
X196152Y549910D01*
X196164Y549891D01*
X196168Y549869D01*
X196183Y549862D01*
X196189Y549853D01*
X196199Y549854D01*
X196215Y549847D01*
X205042Y549847D01*
X205060Y549859D01*
G37*
G36*
X205060Y524459D02*
X205060Y524459D01*
X205083Y524463D01*
X205090Y524478D01*
X205099Y524484D01*
X205097Y524494D01*
X205104Y524510D01*
X205104Y527050D01*
X205092Y527069D01*
X205089Y527091D01*
X205073Y527098D01*
X205067Y527107D01*
X205057Y527106D01*
X205042Y527113D01*
X196215Y527113D01*
X196196Y527101D01*
X196174Y527097D01*
X196167Y527082D01*
X196158Y527076D01*
X196159Y527066D01*
X196152Y527050D01*
X196152Y524510D01*
X196164Y524491D01*
X196168Y524469D01*
X196183Y524462D01*
X196189Y524453D01*
X196199Y524454D01*
X196215Y524447D01*
X205042Y524447D01*
X205060Y524459D01*
G37*
G36*
X514940Y524459D02*
X514940Y524459D01*
X514963Y524463D01*
X514970Y524478D01*
X514979Y524484D01*
X514977Y524494D01*
X514984Y524510D01*
X514984Y527050D01*
X514972Y527069D01*
X514969Y527091D01*
X514953Y527098D01*
X514947Y527107D01*
X514937Y527106D01*
X514922Y527113D01*
X506095Y527113D01*
X506076Y527101D01*
X506054Y527097D01*
X506047Y527082D01*
X506038Y527076D01*
X506039Y527066D01*
X506032Y527050D01*
X506032Y524510D01*
X506044Y524491D01*
X506048Y524469D01*
X506063Y524462D01*
X506069Y524453D01*
X506079Y524454D01*
X506095Y524447D01*
X514922Y524447D01*
X514940Y524459D01*
G37*
G36*
X824820Y524459D02*
X824820Y524459D01*
X824843Y524463D01*
X824850Y524478D01*
X824859Y524484D01*
X824857Y524494D01*
X824864Y524510D01*
X824864Y527050D01*
X824852Y527069D01*
X824849Y527091D01*
X824833Y527098D01*
X824827Y527107D01*
X824817Y527106D01*
X824802Y527113D01*
X815975Y527113D01*
X815956Y527101D01*
X815934Y527097D01*
X815927Y527082D01*
X815918Y527076D01*
X815919Y527066D01*
X815912Y527050D01*
X815912Y524510D01*
X815924Y524491D01*
X815928Y524469D01*
X815943Y524462D01*
X815949Y524453D01*
X815959Y524454D01*
X815975Y524447D01*
X824802Y524447D01*
X824820Y524459D01*
G37*
G36*
X824820Y100279D02*
X824820Y100279D01*
X824843Y100283D01*
X824850Y100298D01*
X824859Y100304D01*
X824857Y100314D01*
X824864Y100330D01*
X824864Y102870D01*
X824852Y102889D01*
X824849Y102911D01*
X824833Y102918D01*
X824827Y102927D01*
X824817Y102926D01*
X824802Y102933D01*
X815975Y102933D01*
X815956Y102921D01*
X815934Y102917D01*
X815927Y102902D01*
X815918Y102896D01*
X815919Y102886D01*
X815912Y102870D01*
X815912Y100330D01*
X815924Y100311D01*
X815928Y100289D01*
X815943Y100282D01*
X815949Y100273D01*
X815959Y100274D01*
X815975Y100267D01*
X824802Y100267D01*
X824820Y100279D01*
G37*
G36*
X514940Y100279D02*
X514940Y100279D01*
X514963Y100283D01*
X514970Y100298D01*
X514979Y100304D01*
X514977Y100314D01*
X514984Y100330D01*
X514984Y102870D01*
X514972Y102889D01*
X514969Y102911D01*
X514953Y102918D01*
X514947Y102927D01*
X514937Y102926D01*
X514922Y102933D01*
X506095Y102933D01*
X506076Y102921D01*
X506054Y102917D01*
X506047Y102902D01*
X506038Y102896D01*
X506039Y102886D01*
X506032Y102870D01*
X506032Y100330D01*
X506044Y100311D01*
X506048Y100289D01*
X506063Y100282D01*
X506069Y100273D01*
X506079Y100274D01*
X506095Y100267D01*
X514922Y100267D01*
X514940Y100279D01*
G37*
G36*
X205060Y100279D02*
X205060Y100279D01*
X205083Y100283D01*
X205090Y100298D01*
X205099Y100304D01*
X205097Y100314D01*
X205104Y100330D01*
X205104Y102870D01*
X205092Y102889D01*
X205089Y102911D01*
X205073Y102918D01*
X205067Y102927D01*
X205057Y102926D01*
X205042Y102933D01*
X196215Y102933D01*
X196196Y102921D01*
X196174Y102917D01*
X196167Y102902D01*
X196158Y102896D01*
X196159Y102886D01*
X196152Y102870D01*
X196152Y100330D01*
X196164Y100311D01*
X196168Y100289D01*
X196183Y100282D01*
X196189Y100273D01*
X196199Y100274D01*
X196215Y100267D01*
X205042Y100267D01*
X205060Y100279D01*
G37*
G36*
X205060Y74879D02*
X205060Y74879D01*
X205083Y74883D01*
X205090Y74898D01*
X205099Y74904D01*
X205097Y74914D01*
X205104Y74930D01*
X205104Y77470D01*
X205092Y77489D01*
X205089Y77511D01*
X205073Y77518D01*
X205067Y77527D01*
X205057Y77526D01*
X205042Y77533D01*
X196215Y77533D01*
X196196Y77521D01*
X196174Y77517D01*
X196167Y77502D01*
X196158Y77496D01*
X196159Y77486D01*
X196152Y77470D01*
X196152Y74930D01*
X196164Y74911D01*
X196168Y74889D01*
X196183Y74882D01*
X196189Y74873D01*
X196199Y74874D01*
X196215Y74867D01*
X205042Y74867D01*
X205060Y74879D01*
G37*
G36*
X514940Y74879D02*
X514940Y74879D01*
X514963Y74883D01*
X514970Y74898D01*
X514979Y74904D01*
X514977Y74914D01*
X514984Y74930D01*
X514984Y77470D01*
X514972Y77489D01*
X514969Y77511D01*
X514953Y77518D01*
X514947Y77527D01*
X514937Y77526D01*
X514922Y77533D01*
X506095Y77533D01*
X506076Y77521D01*
X506054Y77517D01*
X506047Y77502D01*
X506038Y77496D01*
X506039Y77486D01*
X506032Y77470D01*
X506032Y74930D01*
X506044Y74911D01*
X506048Y74889D01*
X506063Y74882D01*
X506069Y74873D01*
X506079Y74874D01*
X506095Y74867D01*
X514922Y74867D01*
X514940Y74879D01*
G37*
G36*
X824820Y74879D02*
X824820Y74879D01*
X824843Y74883D01*
X824850Y74898D01*
X824859Y74904D01*
X824857Y74914D01*
X824864Y74930D01*
X824864Y77470D01*
X824852Y77489D01*
X824849Y77511D01*
X824833Y77518D01*
X824827Y77527D01*
X824817Y77526D01*
X824802Y77533D01*
X815975Y77533D01*
X815956Y77521D01*
X815934Y77517D01*
X815927Y77502D01*
X815918Y77496D01*
X815919Y77486D01*
X815912Y77470D01*
X815912Y74930D01*
X815924Y74911D01*
X815928Y74889D01*
X815943Y74882D01*
X815949Y74873D01*
X815959Y74874D01*
X815975Y74867D01*
X824802Y74867D01*
X824820Y74879D01*
G37*
D10*
X18796Y135636D02*
X29464Y142748D01*
X29464Y135636D02*
X18796Y142748D01*
X24130Y147659D02*
X24340Y147662D01*
X24550Y147669D01*
X24759Y147682D01*
X24968Y147699D01*
X25177Y147722D01*
X25385Y147749D01*
X25592Y147781D01*
X25799Y147819D01*
X26004Y147861D01*
X26209Y147908D01*
X26412Y147960D01*
X26614Y148017D01*
X26815Y148079D01*
X27014Y148145D01*
X27211Y148217D01*
X27407Y148293D01*
X27601Y148373D01*
X27793Y148458D01*
X27982Y148548D01*
X28067Y148579D01*
X28151Y148613D01*
X28233Y148651D01*
X28314Y148693D01*
X28393Y148738D01*
X28470Y148786D01*
X28545Y148837D01*
X28617Y148891D01*
X28688Y148948D01*
X28756Y149008D01*
X28821Y149071D01*
X28884Y149136D01*
X28944Y149204D01*
X29001Y149275D01*
X29055Y149347D01*
X29107Y149422D01*
X29155Y149499D01*
X29200Y149578D01*
X29241Y149659D01*
X29279Y149741D01*
X29314Y149825D01*
X29345Y149910D01*
X29373Y149996D01*
X29397Y150083D01*
X29417Y150172D01*
X29434Y150261D01*
X29447Y150351D01*
X29457Y150441D01*
X29462Y150531D01*
X29464Y150622D01*
X29462Y150713D01*
X29457Y150803D01*
X29447Y150893D01*
X29434Y150983D01*
X29417Y151072D01*
X29397Y151161D01*
X29373Y151248D01*
X29345Y151334D01*
X29314Y151419D01*
X29279Y151503D01*
X29241Y151585D01*
X29200Y151666D01*
X29155Y151745D01*
X29107Y151822D01*
X29056Y151897D01*
X29001Y151969D01*
X28944Y152040D01*
X28884Y152108D01*
X28821Y152173D01*
X28756Y152236D01*
X28688Y152296D01*
X28617Y152353D01*
X28545Y152407D01*
X28470Y152458D01*
X28393Y152506D01*
X28314Y152551D01*
X28233Y152593D01*
X28151Y152631D01*
X28067Y152665D01*
X27982Y152696D01*
X27793Y152786D01*
X27601Y152871D01*
X27407Y152951D01*
X27211Y153027D01*
X27014Y153099D01*
X26815Y153165D01*
X26614Y153227D01*
X26412Y153284D01*
X26209Y153336D01*
X26004Y153383D01*
X25799Y153425D01*
X25592Y153463D01*
X25385Y153495D01*
X25177Y153522D01*
X24968Y153545D01*
X24759Y153562D01*
X24550Y153575D01*
X24340Y153582D01*
X24130Y153585D01*
X24130Y147659D02*
X23920Y147662D01*
X23710Y147669D01*
X23501Y147682D01*
X23292Y147699D01*
X23083Y147722D01*
X22875Y147749D01*
X22668Y147781D01*
X22461Y147819D01*
X22256Y147861D01*
X22051Y147908D01*
X21848Y147960D01*
X21646Y148017D01*
X21445Y148079D01*
X21246Y148145D01*
X21049Y148217D01*
X20853Y148293D01*
X20659Y148373D01*
X20468Y148458D01*
X20278Y148548D01*
X20193Y148579D01*
X20109Y148613D01*
X20027Y148651D01*
X19946Y148693D01*
X19867Y148738D01*
X19790Y148786D01*
X19715Y148837D01*
X19643Y148891D01*
X19572Y148948D01*
X19504Y149008D01*
X19439Y149071D01*
X19376Y149136D01*
X19316Y149204D01*
X19259Y149275D01*
X19204Y149347D01*
X19153Y149422D01*
X19105Y149499D01*
X19060Y149578D01*
X19019Y149659D01*
X18981Y149741D01*
X18946Y149825D01*
X18915Y149910D01*
X18887Y149996D01*
X18863Y150083D01*
X18843Y150172D01*
X18826Y150261D01*
X18813Y150351D01*
X18803Y150441D01*
X18798Y150531D01*
X18796Y150622D01*
X20278Y152696D02*
X20468Y152786D01*
X20659Y152871D01*
X20853Y152951D01*
X21049Y153027D01*
X21246Y153099D01*
X21445Y153165D01*
X21646Y153227D01*
X21848Y153284D01*
X22051Y153336D01*
X22256Y153383D01*
X22461Y153425D01*
X22668Y153463D01*
X22875Y153495D01*
X23083Y153522D01*
X23292Y153545D01*
X23501Y153562D01*
X23710Y153575D01*
X23920Y153582D01*
X24130Y153585D01*
X20278Y152696D02*
X20193Y152665D01*
X20109Y152631D01*
X20027Y152593D01*
X19946Y152551D01*
X19867Y152506D01*
X19790Y152458D01*
X19715Y152407D01*
X19643Y152353D01*
X19572Y152296D01*
X19504Y152236D01*
X19439Y152173D01*
X19376Y152108D01*
X19316Y152040D01*
X19259Y151969D01*
X19204Y151897D01*
X19153Y151822D01*
X19105Y151745D01*
X19060Y151666D01*
X19019Y151585D01*
X18981Y151503D01*
X18946Y151419D01*
X18915Y151334D01*
X18887Y151248D01*
X18863Y151161D01*
X18843Y151072D01*
X18826Y150983D01*
X18813Y150893D01*
X18803Y150803D01*
X18798Y150713D01*
X18796Y150622D01*
X21167Y148251D02*
X27093Y152993D01*
X27093Y159089D02*
X29464Y162052D01*
X18796Y162052D01*
X18796Y159089D02*
X18796Y165015D01*
X328676Y135636D02*
X339344Y142748D01*
X339344Y135636D02*
X328676Y142748D01*
X334010Y147659D02*
X334220Y147662D01*
X334430Y147669D01*
X334639Y147682D01*
X334848Y147699D01*
X335057Y147722D01*
X335265Y147749D01*
X335472Y147781D01*
X335679Y147819D01*
X335884Y147861D01*
X336089Y147908D01*
X336292Y147960D01*
X336494Y148017D01*
X336695Y148079D01*
X336894Y148145D01*
X337091Y148217D01*
X337287Y148293D01*
X337481Y148373D01*
X337673Y148458D01*
X337862Y148548D01*
X337947Y148579D01*
X338031Y148613D01*
X338113Y148651D01*
X338194Y148693D01*
X338273Y148738D01*
X338350Y148786D01*
X338425Y148837D01*
X338497Y148891D01*
X338568Y148948D01*
X338636Y149008D01*
X338701Y149071D01*
X338764Y149136D01*
X338824Y149204D01*
X338881Y149275D01*
X338935Y149347D01*
X338987Y149422D01*
X339035Y149499D01*
X339080Y149578D01*
X339121Y149659D01*
X339159Y149741D01*
X339194Y149825D01*
X339225Y149910D01*
X339253Y149996D01*
X339277Y150083D01*
X339297Y150172D01*
X339314Y150261D01*
X339327Y150351D01*
X339337Y150441D01*
X339342Y150531D01*
X339344Y150622D01*
X339342Y150713D01*
X339337Y150803D01*
X339327Y150893D01*
X339314Y150983D01*
X339297Y151072D01*
X339277Y151161D01*
X339253Y151248D01*
X339225Y151334D01*
X339194Y151419D01*
X339159Y151503D01*
X339121Y151585D01*
X339080Y151666D01*
X339035Y151745D01*
X338987Y151822D01*
X338936Y151897D01*
X338881Y151969D01*
X338824Y152040D01*
X338764Y152108D01*
X338701Y152173D01*
X338636Y152236D01*
X338568Y152296D01*
X338497Y152353D01*
X338425Y152407D01*
X338350Y152458D01*
X338273Y152506D01*
X338194Y152551D01*
X338113Y152593D01*
X338031Y152631D01*
X337947Y152665D01*
X337862Y152696D01*
X337673Y152786D01*
X337481Y152871D01*
X337287Y152951D01*
X337091Y153027D01*
X336894Y153099D01*
X336695Y153165D01*
X336494Y153227D01*
X336292Y153284D01*
X336089Y153336D01*
X335884Y153383D01*
X335679Y153425D01*
X335472Y153463D01*
X335265Y153495D01*
X335057Y153522D01*
X334848Y153545D01*
X334639Y153562D01*
X334430Y153575D01*
X334220Y153582D01*
X334010Y153585D01*
X334010Y147659D02*
X333800Y147662D01*
X333590Y147669D01*
X333381Y147682D01*
X333172Y147699D01*
X332963Y147722D01*
X332755Y147749D01*
X332548Y147781D01*
X332341Y147819D01*
X332136Y147861D01*
X331931Y147908D01*
X331728Y147960D01*
X331526Y148017D01*
X331325Y148079D01*
X331126Y148145D01*
X330929Y148217D01*
X330733Y148293D01*
X330539Y148373D01*
X330348Y148458D01*
X330158Y148548D01*
X330073Y148579D01*
X329989Y148613D01*
X329907Y148651D01*
X329826Y148693D01*
X329747Y148738D01*
X329670Y148786D01*
X329595Y148837D01*
X329523Y148891D01*
X329452Y148948D01*
X329384Y149008D01*
X329319Y149071D01*
X329256Y149136D01*
X329196Y149204D01*
X329139Y149275D01*
X329084Y149347D01*
X329033Y149422D01*
X328985Y149499D01*
X328940Y149578D01*
X328899Y149659D01*
X328861Y149741D01*
X328826Y149825D01*
X328795Y149910D01*
X328767Y149996D01*
X328743Y150083D01*
X328723Y150172D01*
X328706Y150261D01*
X328693Y150351D01*
X328683Y150441D01*
X328678Y150531D01*
X328676Y150622D01*
X330158Y152696D02*
X330348Y152786D01*
X330539Y152871D01*
X330733Y152951D01*
X330929Y153027D01*
X331126Y153099D01*
X331325Y153165D01*
X331526Y153227D01*
X331728Y153284D01*
X331931Y153336D01*
X332136Y153383D01*
X332341Y153425D01*
X332548Y153463D01*
X332755Y153495D01*
X332963Y153522D01*
X333172Y153545D01*
X333381Y153562D01*
X333590Y153575D01*
X333800Y153582D01*
X334010Y153585D01*
X330158Y152696D02*
X330073Y152665D01*
X329989Y152631D01*
X329907Y152593D01*
X329826Y152551D01*
X329747Y152506D01*
X329670Y152458D01*
X329595Y152407D01*
X329523Y152353D01*
X329452Y152296D01*
X329384Y152236D01*
X329319Y152173D01*
X329256Y152108D01*
X329196Y152040D01*
X329139Y151969D01*
X329084Y151897D01*
X329033Y151822D01*
X328985Y151745D01*
X328940Y151666D01*
X328899Y151585D01*
X328861Y151503D01*
X328826Y151419D01*
X328795Y151334D01*
X328767Y151248D01*
X328743Y151161D01*
X328723Y151072D01*
X328706Y150983D01*
X328693Y150893D01*
X328683Y150803D01*
X328678Y150713D01*
X328676Y150622D01*
X331047Y148251D02*
X336973Y152993D01*
X336973Y159089D02*
X339344Y162052D01*
X328676Y162052D01*
X328676Y159089D02*
X328676Y165015D01*
X638556Y135636D02*
X649224Y142748D01*
X649224Y135636D02*
X638556Y142748D01*
X643890Y147659D02*
X644100Y147662D01*
X644310Y147669D01*
X644519Y147682D01*
X644728Y147699D01*
X644937Y147722D01*
X645145Y147749D01*
X645352Y147781D01*
X645559Y147819D01*
X645764Y147861D01*
X645969Y147908D01*
X646172Y147960D01*
X646374Y148017D01*
X646575Y148079D01*
X646774Y148145D01*
X646971Y148217D01*
X647167Y148293D01*
X647361Y148373D01*
X647553Y148458D01*
X647742Y148548D01*
X647827Y148579D01*
X647911Y148613D01*
X647993Y148651D01*
X648074Y148693D01*
X648153Y148738D01*
X648230Y148786D01*
X648305Y148837D01*
X648377Y148891D01*
X648448Y148948D01*
X648516Y149008D01*
X648581Y149071D01*
X648644Y149136D01*
X648704Y149204D01*
X648761Y149275D01*
X648815Y149347D01*
X648867Y149422D01*
X648915Y149499D01*
X648960Y149578D01*
X649001Y149659D01*
X649039Y149741D01*
X649074Y149825D01*
X649105Y149910D01*
X649133Y149996D01*
X649157Y150083D01*
X649177Y150172D01*
X649194Y150261D01*
X649207Y150351D01*
X649217Y150441D01*
X649222Y150531D01*
X649224Y150622D01*
X649222Y150713D01*
X649217Y150803D01*
X649207Y150893D01*
X649194Y150983D01*
X649177Y151072D01*
X649157Y151161D01*
X649133Y151248D01*
X649105Y151334D01*
X649074Y151419D01*
X649039Y151503D01*
X649001Y151585D01*
X648960Y151666D01*
X648915Y151745D01*
X648867Y151822D01*
X648816Y151897D01*
X648761Y151969D01*
X648704Y152040D01*
X648644Y152108D01*
X648581Y152173D01*
X648516Y152236D01*
X648448Y152296D01*
X648377Y152353D01*
X648305Y152407D01*
X648230Y152458D01*
X648153Y152506D01*
X648074Y152551D01*
X647993Y152593D01*
X647911Y152631D01*
X647827Y152665D01*
X647742Y152696D01*
X647553Y152786D01*
X647361Y152871D01*
X647167Y152951D01*
X646971Y153027D01*
X646774Y153099D01*
X646575Y153165D01*
X646374Y153227D01*
X646172Y153284D01*
X645969Y153336D01*
X645764Y153383D01*
X645559Y153425D01*
X645352Y153463D01*
X645145Y153495D01*
X644937Y153522D01*
X644728Y153545D01*
X644519Y153562D01*
X644310Y153575D01*
X644100Y153582D01*
X643890Y153585D01*
X643890Y147659D02*
X643680Y147662D01*
X643470Y147669D01*
X643261Y147682D01*
X643052Y147699D01*
X642843Y147722D01*
X642635Y147749D01*
X642428Y147781D01*
X642221Y147819D01*
X642016Y147861D01*
X641811Y147908D01*
X641608Y147960D01*
X641406Y148017D01*
X641205Y148079D01*
X641006Y148145D01*
X640809Y148217D01*
X640613Y148293D01*
X640419Y148373D01*
X640228Y148458D01*
X640038Y148548D01*
X639953Y148579D01*
X639869Y148613D01*
X639787Y148651D01*
X639706Y148693D01*
X639627Y148738D01*
X639550Y148786D01*
X639475Y148837D01*
X639403Y148891D01*
X639332Y148948D01*
X639264Y149008D01*
X639199Y149071D01*
X639136Y149136D01*
X639076Y149204D01*
X639019Y149275D01*
X638964Y149347D01*
X638913Y149422D01*
X638865Y149499D01*
X638820Y149578D01*
X638779Y149659D01*
X638741Y149741D01*
X638706Y149825D01*
X638675Y149910D01*
X638647Y149996D01*
X638623Y150083D01*
X638603Y150172D01*
X638586Y150261D01*
X638573Y150351D01*
X638563Y150441D01*
X638558Y150531D01*
X638556Y150622D01*
X640038Y152696D02*
X640228Y152786D01*
X640419Y152871D01*
X640613Y152951D01*
X640809Y153027D01*
X641006Y153099D01*
X641205Y153165D01*
X641406Y153227D01*
X641608Y153284D01*
X641811Y153336D01*
X642016Y153383D01*
X642221Y153425D01*
X642428Y153463D01*
X642635Y153495D01*
X642843Y153522D01*
X643052Y153545D01*
X643261Y153562D01*
X643470Y153575D01*
X643680Y153582D01*
X643890Y153585D01*
X640038Y152696D02*
X639953Y152665D01*
X639869Y152631D01*
X639787Y152593D01*
X639706Y152551D01*
X639627Y152506D01*
X639550Y152458D01*
X639475Y152407D01*
X639403Y152353D01*
X639332Y152296D01*
X639264Y152236D01*
X639199Y152173D01*
X639136Y152108D01*
X639076Y152040D01*
X639019Y151969D01*
X638964Y151897D01*
X638913Y151822D01*
X638865Y151745D01*
X638820Y151666D01*
X638779Y151585D01*
X638741Y151503D01*
X638706Y151419D01*
X638675Y151334D01*
X638647Y151248D01*
X638623Y151161D01*
X638603Y151072D01*
X638586Y150983D01*
X638573Y150893D01*
X638563Y150803D01*
X638558Y150713D01*
X638556Y150622D01*
X640927Y148251D02*
X646853Y152993D01*
X646853Y159089D02*
X649224Y162052D01*
X638556Y162052D01*
X638556Y159089D02*
X638556Y165015D01*
X29464Y592328D02*
X18796Y585216D01*
X18796Y592328D02*
X29464Y585216D01*
X27982Y598128D02*
X27793Y598038D01*
X27601Y597953D01*
X27407Y597873D01*
X27211Y597797D01*
X27014Y597725D01*
X26815Y597659D01*
X26614Y597597D01*
X26412Y597540D01*
X26209Y597488D01*
X26004Y597441D01*
X25799Y597399D01*
X25592Y597361D01*
X25385Y597329D01*
X25177Y597302D01*
X24968Y597279D01*
X24759Y597262D01*
X24550Y597249D01*
X24340Y597242D01*
X24130Y597239D01*
X27982Y598128D02*
X28067Y598159D01*
X28151Y598193D01*
X28233Y598231D01*
X28314Y598273D01*
X28393Y598318D01*
X28470Y598366D01*
X28545Y598417D01*
X28617Y598471D01*
X28688Y598528D01*
X28756Y598588D01*
X28821Y598651D01*
X28884Y598716D01*
X28944Y598784D01*
X29001Y598855D01*
X29055Y598927D01*
X29107Y599002D01*
X29155Y599079D01*
X29200Y599158D01*
X29241Y599239D01*
X29279Y599321D01*
X29314Y599405D01*
X29345Y599490D01*
X29373Y599576D01*
X29397Y599663D01*
X29417Y599752D01*
X29434Y599841D01*
X29447Y599931D01*
X29457Y600021D01*
X29462Y600111D01*
X29464Y600202D01*
X29462Y600293D01*
X29457Y600383D01*
X29447Y600473D01*
X29434Y600563D01*
X29417Y600652D01*
X29397Y600741D01*
X29373Y600828D01*
X29345Y600914D01*
X29314Y600999D01*
X29279Y601083D01*
X29241Y601165D01*
X29200Y601246D01*
X29155Y601325D01*
X29107Y601402D01*
X29056Y601477D01*
X29001Y601549D01*
X28944Y601620D01*
X28884Y601688D01*
X28821Y601753D01*
X28756Y601816D01*
X28688Y601876D01*
X28617Y601933D01*
X28545Y601987D01*
X28470Y602038D01*
X28393Y602086D01*
X28314Y602131D01*
X28233Y602173D01*
X28151Y602211D01*
X28067Y602245D01*
X27982Y602276D01*
X27793Y602366D01*
X27601Y602451D01*
X27407Y602531D01*
X27211Y602607D01*
X27014Y602679D01*
X26815Y602745D01*
X26614Y602807D01*
X26412Y602864D01*
X26209Y602916D01*
X26004Y602963D01*
X25799Y603005D01*
X25592Y603043D01*
X25385Y603075D01*
X25177Y603102D01*
X24968Y603125D01*
X24759Y603142D01*
X24550Y603155D01*
X24340Y603162D01*
X24130Y603165D01*
X24130Y597239D02*
X23920Y597242D01*
X23710Y597249D01*
X23501Y597262D01*
X23292Y597279D01*
X23083Y597302D01*
X22875Y597329D01*
X22668Y597361D01*
X22461Y597399D01*
X22256Y597441D01*
X22051Y597488D01*
X21848Y597540D01*
X21646Y597597D01*
X21445Y597659D01*
X21246Y597725D01*
X21049Y597797D01*
X20853Y597873D01*
X20659Y597953D01*
X20468Y598038D01*
X20278Y598128D01*
X20193Y598159D01*
X20109Y598193D01*
X20027Y598231D01*
X19946Y598273D01*
X19867Y598318D01*
X19790Y598366D01*
X19715Y598417D01*
X19643Y598471D01*
X19572Y598528D01*
X19504Y598588D01*
X19439Y598651D01*
X19376Y598716D01*
X19316Y598784D01*
X19259Y598855D01*
X19204Y598927D01*
X19153Y599002D01*
X19105Y599079D01*
X19060Y599158D01*
X19019Y599239D01*
X18981Y599321D01*
X18946Y599405D01*
X18915Y599490D01*
X18887Y599576D01*
X18863Y599663D01*
X18843Y599752D01*
X18826Y599841D01*
X18813Y599931D01*
X18803Y600021D01*
X18798Y600111D01*
X18796Y600202D01*
X20278Y602276D02*
X20468Y602366D01*
X20659Y602451D01*
X20853Y602531D01*
X21049Y602607D01*
X21246Y602679D01*
X21445Y602745D01*
X21646Y602807D01*
X21848Y602864D01*
X22051Y602916D01*
X22256Y602963D01*
X22461Y603005D01*
X22668Y603043D01*
X22875Y603075D01*
X23083Y603102D01*
X23292Y603125D01*
X23501Y603142D01*
X23710Y603155D01*
X23920Y603162D01*
X24130Y603165D01*
X20278Y602276D02*
X20193Y602245D01*
X20109Y602211D01*
X20027Y602173D01*
X19946Y602131D01*
X19867Y602086D01*
X19790Y602038D01*
X19715Y601987D01*
X19643Y601933D01*
X19572Y601876D01*
X19504Y601816D01*
X19439Y601753D01*
X19376Y601688D01*
X19316Y601620D01*
X19259Y601549D01*
X19204Y601477D01*
X19153Y601402D01*
X19105Y601325D01*
X19060Y601246D01*
X19019Y601165D01*
X18981Y601083D01*
X18946Y600999D01*
X18915Y600914D01*
X18887Y600828D01*
X18863Y600741D01*
X18843Y600652D01*
X18826Y600563D01*
X18813Y600473D01*
X18803Y600383D01*
X18798Y600293D01*
X18796Y600202D01*
X21167Y597831D02*
X27093Y602573D01*
X27093Y608669D02*
X29464Y611632D01*
X18796Y611632D01*
X18796Y608669D02*
X18796Y614595D01*
X328676Y585216D02*
X339344Y592328D01*
X339344Y585216D02*
X328676Y592328D01*
X334010Y597239D02*
X334220Y597242D01*
X334430Y597249D01*
X334639Y597262D01*
X334848Y597279D01*
X335057Y597302D01*
X335265Y597329D01*
X335472Y597361D01*
X335679Y597399D01*
X335884Y597441D01*
X336089Y597488D01*
X336292Y597540D01*
X336494Y597597D01*
X336695Y597659D01*
X336894Y597725D01*
X337091Y597797D01*
X337287Y597873D01*
X337481Y597953D01*
X337673Y598038D01*
X337862Y598128D01*
X337947Y598159D01*
X338031Y598193D01*
X338113Y598231D01*
X338194Y598273D01*
X338273Y598318D01*
X338350Y598366D01*
X338425Y598417D01*
X338497Y598471D01*
X338568Y598528D01*
X338636Y598588D01*
X338701Y598651D01*
X338764Y598716D01*
X338824Y598784D01*
X338881Y598855D01*
X338935Y598927D01*
X338987Y599002D01*
X339035Y599079D01*
X339080Y599158D01*
X339121Y599239D01*
X339159Y599321D01*
X339194Y599405D01*
X339225Y599490D01*
X339253Y599576D01*
X339277Y599663D01*
X339297Y599752D01*
X339314Y599841D01*
X339327Y599931D01*
X339337Y600021D01*
X339342Y600111D01*
X339344Y600202D01*
X339342Y600293D01*
X339337Y600383D01*
X339327Y600473D01*
X339314Y600563D01*
X339297Y600652D01*
X339277Y600741D01*
X339253Y600828D01*
X339225Y600914D01*
X339194Y600999D01*
X339159Y601083D01*
X339121Y601165D01*
X339080Y601246D01*
X339035Y601325D01*
X338987Y601402D01*
X338936Y601477D01*
X338881Y601549D01*
X338824Y601620D01*
X338764Y601688D01*
X338701Y601753D01*
X338636Y601816D01*
X338568Y601876D01*
X338497Y601933D01*
X338425Y601987D01*
X338350Y602038D01*
X338273Y602086D01*
X338194Y602131D01*
X338113Y602173D01*
X338031Y602211D01*
X337947Y602245D01*
X337862Y602276D01*
X337673Y602366D01*
X337481Y602451D01*
X337287Y602531D01*
X337091Y602607D01*
X336894Y602679D01*
X336695Y602745D01*
X336494Y602807D01*
X336292Y602864D01*
X336089Y602916D01*
X335884Y602963D01*
X335679Y603005D01*
X335472Y603043D01*
X335265Y603075D01*
X335057Y603102D01*
X334848Y603125D01*
X334639Y603142D01*
X334430Y603155D01*
X334220Y603162D01*
X334010Y603165D01*
X334010Y597239D02*
X333800Y597242D01*
X333590Y597249D01*
X333381Y597262D01*
X333172Y597279D01*
X332963Y597302D01*
X332755Y597329D01*
X332548Y597361D01*
X332341Y597399D01*
X332136Y597441D01*
X331931Y597488D01*
X331728Y597540D01*
X331526Y597597D01*
X331325Y597659D01*
X331126Y597725D01*
X330929Y597797D01*
X330733Y597873D01*
X330539Y597953D01*
X330348Y598038D01*
X330158Y598128D01*
X330073Y598159D01*
X329989Y598193D01*
X329907Y598231D01*
X329826Y598273D01*
X329747Y598318D01*
X329670Y598366D01*
X329595Y598417D01*
X329523Y598471D01*
X329452Y598528D01*
X329384Y598588D01*
X329319Y598651D01*
X329256Y598716D01*
X329196Y598784D01*
X329139Y598855D01*
X329084Y598927D01*
X329033Y599002D01*
X328985Y599079D01*
X328940Y599158D01*
X328899Y599239D01*
X328861Y599321D01*
X328826Y599405D01*
X328795Y599490D01*
X328767Y599576D01*
X328743Y599663D01*
X328723Y599752D01*
X328706Y599841D01*
X328693Y599931D01*
X328683Y600021D01*
X328678Y600111D01*
X328676Y600202D01*
X330158Y602276D02*
X330348Y602366D01*
X330539Y602451D01*
X330733Y602531D01*
X330929Y602607D01*
X331126Y602679D01*
X331325Y602745D01*
X331526Y602807D01*
X331728Y602864D01*
X331931Y602916D01*
X332136Y602963D01*
X332341Y603005D01*
X332548Y603043D01*
X332755Y603075D01*
X332963Y603102D01*
X333172Y603125D01*
X333381Y603142D01*
X333590Y603155D01*
X333800Y603162D01*
X334010Y603165D01*
X330158Y602276D02*
X330073Y602245D01*
X329989Y602211D01*
X329907Y602173D01*
X329826Y602131D01*
X329747Y602086D01*
X329670Y602038D01*
X329595Y601987D01*
X329523Y601933D01*
X329452Y601876D01*
X329384Y601816D01*
X329319Y601753D01*
X329256Y601688D01*
X329196Y601620D01*
X329139Y601549D01*
X329084Y601477D01*
X329033Y601402D01*
X328985Y601325D01*
X328940Y601246D01*
X328899Y601165D01*
X328861Y601083D01*
X328826Y600999D01*
X328795Y600914D01*
X328767Y600828D01*
X328743Y600741D01*
X328723Y600652D01*
X328706Y600563D01*
X328693Y600473D01*
X328683Y600383D01*
X328678Y600293D01*
X328676Y600202D01*
X331047Y597831D02*
X336973Y602573D01*
X336973Y608669D02*
X339344Y611632D01*
X328676Y611632D01*
X328676Y608669D02*
X328676Y614595D01*
X638556Y585216D02*
X649224Y592328D01*
X649224Y585216D02*
X638556Y592328D01*
X643890Y597239D02*
X644100Y597242D01*
X644310Y597249D01*
X644519Y597262D01*
X644728Y597279D01*
X644937Y597302D01*
X645145Y597329D01*
X645352Y597361D01*
X645559Y597399D01*
X645764Y597441D01*
X645969Y597488D01*
X646172Y597540D01*
X646374Y597597D01*
X646575Y597659D01*
X646774Y597725D01*
X646971Y597797D01*
X647167Y597873D01*
X647361Y597953D01*
X647553Y598038D01*
X647742Y598128D01*
X647827Y598159D01*
X647911Y598193D01*
X647993Y598231D01*
X648074Y598273D01*
X648153Y598318D01*
X648230Y598366D01*
X648305Y598417D01*
X648377Y598471D01*
X648448Y598528D01*
X648516Y598588D01*
X648581Y598651D01*
X648644Y598716D01*
X648704Y598784D01*
X648761Y598855D01*
X648815Y598927D01*
X648867Y599002D01*
X648915Y599079D01*
X648960Y599158D01*
X649001Y599239D01*
X649039Y599321D01*
X649074Y599405D01*
X649105Y599490D01*
X649133Y599576D01*
X649157Y599663D01*
X649177Y599752D01*
X649194Y599841D01*
X649207Y599931D01*
X649217Y600021D01*
X649222Y600111D01*
X649224Y600202D01*
X649222Y600293D01*
X649217Y600383D01*
X649207Y600473D01*
X649194Y600563D01*
X649177Y600652D01*
X649157Y600741D01*
X649133Y600828D01*
X649105Y600914D01*
X649074Y600999D01*
X649039Y601083D01*
X649001Y601165D01*
X648960Y601246D01*
X648915Y601325D01*
X648867Y601402D01*
X648816Y601477D01*
X648761Y601549D01*
X648704Y601620D01*
X648644Y601688D01*
X648581Y601753D01*
X648516Y601816D01*
X648448Y601876D01*
X648377Y601933D01*
X648305Y601987D01*
X648230Y602038D01*
X648153Y602086D01*
X648074Y602131D01*
X647993Y602173D01*
X647911Y602211D01*
X647827Y602245D01*
X647742Y602276D01*
X647553Y602366D01*
X647361Y602451D01*
X647167Y602531D01*
X646971Y602607D01*
X646774Y602679D01*
X646575Y602745D01*
X646374Y602807D01*
X646172Y602864D01*
X645969Y602916D01*
X645764Y602963D01*
X645559Y603005D01*
X645352Y603043D01*
X645145Y603075D01*
X644937Y603102D01*
X644728Y603125D01*
X644519Y603142D01*
X644310Y603155D01*
X644100Y603162D01*
X643890Y603165D01*
X643890Y597239D02*
X643680Y597242D01*
X643470Y597249D01*
X643261Y597262D01*
X643052Y597279D01*
X642843Y597302D01*
X642635Y597329D01*
X642428Y597361D01*
X642221Y597399D01*
X642016Y597441D01*
X641811Y597488D01*
X641608Y597540D01*
X641406Y597597D01*
X641205Y597659D01*
X641006Y597725D01*
X640809Y597797D01*
X640613Y597873D01*
X640419Y597953D01*
X640228Y598038D01*
X640038Y598128D01*
X639953Y598159D01*
X639869Y598193D01*
X639787Y598231D01*
X639706Y598273D01*
X639627Y598318D01*
X639550Y598366D01*
X639475Y598417D01*
X639403Y598471D01*
X639332Y598528D01*
X639264Y598588D01*
X639199Y598651D01*
X639136Y598716D01*
X639076Y598784D01*
X639019Y598855D01*
X638964Y598927D01*
X638913Y599002D01*
X638865Y599079D01*
X638820Y599158D01*
X638779Y599239D01*
X638741Y599321D01*
X638706Y599405D01*
X638675Y599490D01*
X638647Y599576D01*
X638623Y599663D01*
X638603Y599752D01*
X638586Y599841D01*
X638573Y599931D01*
X638563Y600021D01*
X638558Y600111D01*
X638556Y600202D01*
X640038Y602276D02*
X640228Y602366D01*
X640419Y602451D01*
X640613Y602531D01*
X640809Y602607D01*
X641006Y602679D01*
X641205Y602745D01*
X641406Y602807D01*
X641608Y602864D01*
X641811Y602916D01*
X642016Y602963D01*
X642221Y603005D01*
X642428Y603043D01*
X642635Y603075D01*
X642843Y603102D01*
X643052Y603125D01*
X643261Y603142D01*
X643470Y603155D01*
X643680Y603162D01*
X643890Y603165D01*
X640038Y602276D02*
X639953Y602245D01*
X639869Y602211D01*
X639787Y602173D01*
X639706Y602131D01*
X639627Y602086D01*
X639550Y602038D01*
X639475Y601987D01*
X639403Y601933D01*
X639332Y601876D01*
X639264Y601816D01*
X639199Y601753D01*
X639136Y601688D01*
X639076Y601620D01*
X639019Y601549D01*
X638964Y601477D01*
X638913Y601402D01*
X638865Y601325D01*
X638820Y601246D01*
X638779Y601165D01*
X638741Y601083D01*
X638706Y600999D01*
X638675Y600914D01*
X638647Y600828D01*
X638623Y600741D01*
X638603Y600652D01*
X638586Y600563D01*
X638573Y600473D01*
X638563Y600383D01*
X638558Y600293D01*
X638556Y600202D01*
X640927Y597831D02*
X646853Y602573D01*
X646853Y608669D02*
X649224Y611632D01*
X638556Y611632D01*
X638556Y608669D02*
X638556Y614595D01*
D11*
X101600Y91186D03*
X101600Y101600D03*
X101600Y112014D03*
D12*
X197993Y101600D03*
X208407Y101600D03*
D13*
X157480Y254000D03*
X147320Y177800D03*
D12*
X197993Y76200D03*
X208407Y76200D03*
D14*
X88900Y12700D03*
X114300Y12700D03*
X139700Y12700D03*
X165100Y12700D03*
X190500Y12700D03*
X215900Y12700D03*
D15*
X7620Y436880D03*
X297180Y7620D03*
D11*
X411480Y91186D03*
X411480Y101600D03*
X411480Y112014D03*
D12*
X507873Y101600D03*
X518287Y101600D03*
D13*
X467360Y254000D03*
X457200Y177800D03*
D12*
X507873Y76200D03*
X518287Y76200D03*
D14*
X398780Y12700D03*
X424180Y12700D03*
X449580Y12700D03*
X474980Y12700D03*
X500380Y12700D03*
X525780Y12700D03*
D15*
X317500Y436880D03*
X607060Y7620D03*
D11*
X721360Y91186D03*
X721360Y101600D03*
X721360Y112014D03*
D12*
X817753Y101600D03*
X828167Y101600D03*
D13*
X777240Y254000D03*
X767080Y177800D03*
D12*
X817753Y76200D03*
X828167Y76200D03*
D14*
X708660Y12700D03*
X734060Y12700D03*
X759460Y12700D03*
X784860Y12700D03*
X810260Y12700D03*
X835660Y12700D03*
D15*
X627380Y436880D03*
X916940Y7620D03*
D11*
X101600Y540766D03*
X101600Y551180D03*
X101600Y561594D03*
D12*
X197993Y551180D03*
X208407Y551180D03*
D13*
X157480Y703580D03*
X147320Y627380D03*
D12*
X197993Y525780D03*
X208407Y525780D03*
D14*
X88900Y462280D03*
X114300Y462280D03*
X139700Y462280D03*
X165100Y462280D03*
X190500Y462280D03*
X215900Y462280D03*
D15*
X7620Y886460D03*
X297180Y457200D03*
D11*
X411480Y540766D03*
X411480Y551180D03*
X411480Y561594D03*
D12*
X507873Y551180D03*
X518287Y551180D03*
D13*
X467360Y703580D03*
X457200Y627380D03*
D12*
X507873Y525780D03*
X518287Y525780D03*
D14*
X398780Y462280D03*
X424180Y462280D03*
X449580Y462280D03*
X474980Y462280D03*
X500380Y462280D03*
X525780Y462280D03*
D15*
X317500Y886460D03*
X607060Y457200D03*
D11*
X721360Y540766D03*
X721360Y551180D03*
X721360Y561594D03*
D12*
X817753Y551180D03*
X828167Y551180D03*
D13*
X777240Y703580D03*
X767080Y627380D03*
D12*
X817753Y525780D03*
X828167Y525780D03*
D14*
X708660Y462280D03*
X734060Y462280D03*
X759460Y462280D03*
X784860Y462280D03*
X810260Y462280D03*
X835660Y462280D03*
D15*
X627380Y886460D03*
X916940Y457200D03*
X-26238Y867410D03*
X950798Y867410D03*
D16*
X-26238Y63500D03*
D13*
X25400Y114300D03*
X25400Y101600D03*
X25400Y88900D03*
X63500Y25400D03*
X63500Y12700D03*
X76200Y152400D03*
X88900Y152400D03*
X101600Y152400D03*
X177800Y152400D03*
X190500Y152400D03*
X203200Y152400D03*
X241300Y12700D03*
X254000Y12700D03*
X241300Y25400D03*
X292100Y114300D03*
X292100Y101600D03*
X292100Y88900D03*
X266700Y50800D03*
X292100Y50800D03*
X279400Y50800D03*
X12700Y50800D03*
X38100Y50800D03*
X25400Y50800D03*
X35560Y106680D03*
D17*
X40640Y101600D01*
X81280Y101600D01*
X101600Y101600D01*
X167640Y101600D01*
X182880Y116840D01*
X208280Y116840D01*
X261620Y116840D01*
X266700Y111760D01*
X266700Y96520D01*
D13*
X266700Y96520D03*
D17*
X208407Y101600D02*
X208280Y101727D01*
X208280Y116840D01*
D13*
X167640Y101600D03*
D17*
X208407Y101600D02*
X208407Y76200D01*
X81280Y53340D02*
X81280Y101600D01*
X81280Y53340D02*
X88900Y45720D01*
X104140Y45720D01*
X114300Y35560D01*
X114300Y12700D01*
D13*
X81280Y53340D03*
X124460Y88900D03*
D18*
X142240Y88900D01*
D13*
X142240Y88900D03*
D18*
X182880Y88900D01*
D13*
X182880Y88900D03*
X233680Y55880D03*
X133350Y55880D03*
D18*
X233680Y55880D01*
D13*
X81280Y111760D03*
D18*
X81534Y112014D01*
X101600Y112014D01*
X101600Y91186D02*
X101600Y63500D01*
D13*
X101600Y63500D03*
D18*
X182880Y101600D02*
X197993Y101600D01*
D13*
X182880Y101600D03*
X165100Y177800D03*
D18*
X165100Y220980D01*
X157480Y228600D01*
X157480Y254000D01*
D13*
X203200Y129540D03*
D18*
X271780Y129540D01*
X276860Y124460D01*
X215900Y38100D02*
X215900Y12700D01*
X215900Y38100D02*
X220980Y43180D01*
X236220Y43180D01*
X246380Y53340D01*
X246380Y78740D01*
X251460Y83820D01*
X271780Y83820D01*
X276860Y88900D01*
X276860Y124460D01*
X197993Y76200D02*
X197993Y66167D01*
X200660Y63500D01*
X223520Y63500D01*
D13*
X223520Y63500D03*
X335280Y114300D03*
X335280Y101600D03*
X335280Y88900D03*
X373380Y25400D03*
X373380Y12700D03*
X386080Y152400D03*
X398780Y152400D03*
X411480Y152400D03*
X487680Y152400D03*
X500380Y152400D03*
X513080Y152400D03*
X551180Y12700D03*
X563880Y12700D03*
X551180Y25400D03*
X601980Y114300D03*
X601980Y101600D03*
X601980Y88900D03*
X576580Y50800D03*
X601980Y50800D03*
X589280Y50800D03*
X322580Y50800D03*
X347980Y50800D03*
X335280Y50800D03*
X345440Y106680D03*
D17*
X350520Y101600D01*
X391160Y101600D01*
X411480Y101600D01*
X477520Y101600D01*
X492760Y116840D01*
X518160Y116840D01*
X571500Y116840D01*
X576580Y111760D01*
X576580Y96520D01*
D13*
X576580Y96520D03*
D17*
X518287Y101600D02*
X518160Y101727D01*
X518160Y116840D01*
D13*
X477520Y101600D03*
D17*
X518287Y101600D02*
X518287Y76200D01*
X391160Y53340D02*
X391160Y101600D01*
X391160Y53340D02*
X398780Y45720D01*
X414020Y45720D01*
X424180Y35560D01*
X424180Y12700D01*
D13*
X391160Y53340D03*
X434340Y88900D03*
D18*
X452120Y88900D01*
D13*
X452120Y88900D03*
D18*
X492760Y88900D01*
D13*
X492760Y88900D03*
X543560Y55880D03*
X443230Y55880D03*
D18*
X543560Y55880D01*
D13*
X391160Y111760D03*
D18*
X391414Y112014D01*
X411480Y112014D01*
X411480Y91186D02*
X411480Y63500D01*
D13*
X411480Y63500D03*
D18*
X492760Y101600D02*
X507873Y101600D01*
D13*
X492760Y101600D03*
X474980Y177800D03*
D18*
X474980Y220980D01*
X467360Y228600D01*
X467360Y254000D01*
D13*
X513080Y129540D03*
D18*
X581660Y129540D01*
X586740Y124460D01*
X525780Y38100D02*
X525780Y12700D01*
X525780Y38100D02*
X530860Y43180D01*
X546100Y43180D01*
X556260Y53340D01*
X556260Y78740D01*
X561340Y83820D01*
X581660Y83820D01*
X586740Y88900D01*
X586740Y124460D01*
X507873Y76200D02*
X507873Y66167D01*
X510540Y63500D01*
X533400Y63500D01*
D13*
X533400Y63500D03*
X645160Y114300D03*
X645160Y101600D03*
X645160Y88900D03*
X683260Y25400D03*
X683260Y12700D03*
X695960Y152400D03*
X708660Y152400D03*
X721360Y152400D03*
X797560Y152400D03*
X810260Y152400D03*
X822960Y152400D03*
X861060Y12700D03*
X873760Y12700D03*
X861060Y25400D03*
X911860Y114300D03*
X911860Y101600D03*
X911860Y88900D03*
X886460Y50800D03*
X911860Y50800D03*
X899160Y50800D03*
X632460Y50800D03*
X657860Y50800D03*
X645160Y50800D03*
X655320Y106680D03*
D17*
X660400Y101600D01*
X701040Y101600D01*
X721360Y101600D01*
X787400Y101600D01*
X802640Y116840D01*
X828040Y116840D01*
X881380Y116840D01*
X886460Y111760D01*
X886460Y96520D01*
D13*
X886460Y96520D03*
D17*
X828167Y101600D02*
X828040Y101727D01*
X828040Y116840D01*
D13*
X787400Y101600D03*
D17*
X828167Y101600D02*
X828167Y76200D01*
X701040Y53340D02*
X701040Y101600D01*
X701040Y53340D02*
X708660Y45720D01*
X723900Y45720D01*
X734060Y35560D01*
X734060Y12700D01*
D13*
X701040Y53340D03*
X744220Y88900D03*
D18*
X762000Y88900D01*
D13*
X762000Y88900D03*
D18*
X802640Y88900D01*
D13*
X802640Y88900D03*
X853440Y55880D03*
X753110Y55880D03*
D18*
X853440Y55880D01*
D13*
X701040Y111760D03*
D18*
X701294Y112014D01*
X721360Y112014D01*
X721360Y91186D02*
X721360Y63500D01*
D13*
X721360Y63500D03*
D18*
X802640Y101600D02*
X817753Y101600D01*
D13*
X802640Y101600D03*
X784860Y177800D03*
D18*
X784860Y220980D01*
X777240Y228600D01*
X777240Y254000D01*
D13*
X822960Y129540D03*
D18*
X891540Y129540D01*
X896620Y124460D01*
X835660Y38100D02*
X835660Y12700D01*
X835660Y38100D02*
X840740Y43180D01*
X855980Y43180D01*
X866140Y53340D01*
X866140Y78740D01*
X871220Y83820D01*
X891540Y83820D01*
X896620Y88900D01*
X896620Y124460D01*
X817753Y76200D02*
X817753Y66167D01*
X820420Y63500D01*
X843280Y63500D01*
D13*
X843280Y63500D03*
X25400Y563880D03*
X25400Y551180D03*
X25400Y538480D03*
X63500Y474980D03*
X63500Y462280D03*
X76200Y601980D03*
X88900Y601980D03*
X101600Y601980D03*
X177800Y601980D03*
X190500Y601980D03*
X203200Y601980D03*
X241300Y462280D03*
X254000Y462280D03*
X241300Y474980D03*
X292100Y563880D03*
X292100Y551180D03*
X292100Y538480D03*
X266700Y500380D03*
X292100Y500380D03*
X279400Y500380D03*
X12700Y500380D03*
X38100Y500380D03*
X25400Y500380D03*
X35560Y556260D03*
D17*
X40640Y551180D01*
X81280Y551180D01*
X101600Y551180D01*
X167640Y551180D01*
X182880Y566420D01*
X208280Y566420D01*
X261620Y566420D01*
X266700Y561340D01*
X266700Y546100D01*
D13*
X266700Y546100D03*
D17*
X208407Y551180D02*
X208280Y551307D01*
X208280Y566420D01*
D13*
X167640Y551180D03*
D17*
X208407Y551180D02*
X208407Y525780D01*
X81280Y502920D02*
X81280Y551180D01*
X81280Y502920D02*
X88900Y495300D01*
X104140Y495300D01*
X114300Y485140D01*
X114300Y462280D01*
D13*
X81280Y502920D03*
X124460Y538480D03*
D18*
X142240Y538480D01*
D13*
X142240Y538480D03*
D18*
X182880Y538480D01*
D13*
X182880Y538480D03*
X233680Y505460D03*
X133350Y505460D03*
D18*
X233680Y505460D01*
D13*
X81280Y561340D03*
D18*
X81534Y561594D01*
X101600Y561594D01*
X101600Y540766D02*
X101600Y513080D01*
D13*
X101600Y513080D03*
D18*
X182880Y551180D02*
X197993Y551180D01*
D13*
X182880Y551180D03*
X165100Y627380D03*
D18*
X165100Y670560D01*
X157480Y678180D01*
X157480Y703580D01*
D13*
X203200Y579120D03*
D18*
X271780Y579120D01*
X276860Y574040D01*
X215900Y487680D02*
X215900Y462280D01*
X215900Y487680D02*
X220980Y492760D01*
X236220Y492760D01*
X246380Y502920D01*
X246380Y528320D01*
X251460Y533400D01*
X271780Y533400D01*
X276860Y538480D01*
X276860Y574040D01*
X197993Y525780D02*
X197993Y515747D01*
X200660Y513080D01*
X223520Y513080D01*
D13*
X223520Y513080D03*
X335280Y563880D03*
X335280Y551180D03*
X335280Y538480D03*
X373380Y474980D03*
X373380Y462280D03*
X386080Y601980D03*
X398780Y601980D03*
X411480Y601980D03*
X487680Y601980D03*
X500380Y601980D03*
X513080Y601980D03*
X551180Y462280D03*
X563880Y462280D03*
X551180Y474980D03*
X601980Y563880D03*
X601980Y551180D03*
X601980Y538480D03*
X576580Y500380D03*
X601980Y500380D03*
X589280Y500380D03*
X322580Y500380D03*
X347980Y500380D03*
X335280Y500380D03*
X345440Y556260D03*
D17*
X350520Y551180D01*
X391160Y551180D01*
X411480Y551180D01*
X477520Y551180D01*
X492760Y566420D01*
X518160Y566420D01*
X571500Y566420D01*
X576580Y561340D01*
X576580Y546100D01*
D13*
X576580Y546100D03*
D17*
X518287Y551180D02*
X518160Y551307D01*
X518160Y566420D01*
D13*
X477520Y551180D03*
D17*
X518287Y551180D02*
X518287Y525780D01*
X391160Y502920D02*
X391160Y551180D01*
X391160Y502920D02*
X398780Y495300D01*
X414020Y495300D01*
X424180Y485140D01*
X424180Y462280D01*
D13*
X391160Y502920D03*
X434340Y538480D03*
D18*
X452120Y538480D01*
D13*
X452120Y538480D03*
D18*
X492760Y538480D01*
D13*
X492760Y538480D03*
X543560Y505460D03*
X443230Y505460D03*
D18*
X543560Y505460D01*
D13*
X391160Y561340D03*
D18*
X391414Y561594D01*
X411480Y561594D01*
X411480Y540766D02*
X411480Y513080D01*
D13*
X411480Y513080D03*
D18*
X492760Y551180D02*
X507873Y551180D01*
D13*
X492760Y551180D03*
X474980Y627380D03*
D18*
X474980Y670560D01*
X467360Y678180D01*
X467360Y703580D01*
D13*
X513080Y579120D03*
D18*
X581660Y579120D01*
X586740Y574040D01*
X525780Y487680D02*
X525780Y462280D01*
X525780Y487680D02*
X530860Y492760D01*
X546100Y492760D01*
X556260Y502920D01*
X556260Y528320D01*
X561340Y533400D01*
X581660Y533400D01*
X586740Y538480D01*
X586740Y574040D01*
X507873Y525780D02*
X507873Y515747D01*
X510540Y513080D01*
X533400Y513080D01*
D13*
X533400Y513080D03*
X645160Y563880D03*
X645160Y551180D03*
X645160Y538480D03*
X683260Y474980D03*
X683260Y462280D03*
X695960Y601980D03*
X708660Y601980D03*
X721360Y601980D03*
X797560Y601980D03*
X810260Y601980D03*
X822960Y601980D03*
X861060Y462280D03*
X873760Y462280D03*
X861060Y474980D03*
X911860Y563880D03*
X911860Y551180D03*
X911860Y538480D03*
X886460Y500380D03*
X911860Y500380D03*
X899160Y500380D03*
X632460Y500380D03*
X657860Y500380D03*
X645160Y500380D03*
X655320Y556260D03*
D17*
X660400Y551180D01*
X701040Y551180D01*
X721360Y551180D01*
X787400Y551180D01*
X802640Y566420D01*
X828040Y566420D01*
X881380Y566420D01*
X886460Y561340D01*
X886460Y546100D01*
D13*
X886460Y546100D03*
D17*
X828167Y551180D02*
X828040Y551307D01*
X828040Y566420D01*
D13*
X787400Y551180D03*
D17*
X828167Y551180D02*
X828167Y525780D01*
X701040Y502920D02*
X701040Y551180D01*
X701040Y502920D02*
X708660Y495300D01*
X723900Y495300D01*
X734060Y485140D01*
X734060Y462280D01*
D13*
X701040Y502920D03*
X744220Y538480D03*
D18*
X762000Y538480D01*
D13*
X762000Y538480D03*
D18*
X802640Y538480D01*
D13*
X802640Y538480D03*
X853440Y505460D03*
X753110Y505460D03*
D18*
X853440Y505460D01*
D13*
X701040Y561340D03*
D18*
X701294Y561594D01*
X721360Y561594D01*
X721360Y540766D02*
X721360Y513080D01*
D13*
X721360Y513080D03*
D18*
X802640Y551180D02*
X817753Y551180D01*
D13*
X802640Y551180D03*
X784860Y627380D03*
D18*
X784860Y670560D01*
X777240Y678180D01*
X777240Y703580D01*
D13*
X822960Y579120D03*
D18*
X891540Y579120D01*
X896620Y574040D01*
X835660Y487680D02*
X835660Y462280D01*
X835660Y487680D02*
X840740Y492760D01*
X855980Y492760D01*
X866140Y502920D01*
X866140Y528320D01*
X871220Y533400D01*
X891540Y533400D01*
X896620Y538480D01*
X896620Y574040D01*
X817753Y525780D02*
X817753Y515747D01*
X820420Y513080D01*
X843280Y513080D01*
D13*
X843280Y513080D03*
M02*
