G04 EAGLE Gerber RS-274X export*
G75*
%MOMM*%
%FSLAX34Y34*%
%LPD*%
%INSoldermask Bottom*%
%IPPOS*%
%AMOC8*
5,1,8,0,0,1.08239X$1,22.5*%
G01*
%ADD10R,1.473200X0.863600*%
%ADD11R,0.863600X1.473200*%
%ADD12C,0.863600*%
%ADD13C,2.082800*%
%ADD14C,1.203200*%
%ADD15C,3.505200*%
%ADD16C,1.270000*%
%ADD17C,1.703200*%

G36*
X732525Y558660D02*
X732525Y558660D01*
X732590Y558662D01*
X732634Y558680D01*
X732681Y558688D01*
X732737Y558722D01*
X732798Y558746D01*
X732833Y558778D01*
X732874Y558802D01*
X732915Y558853D01*
X732964Y558898D01*
X732985Y558940D01*
X733015Y558976D01*
X733036Y559039D01*
X733066Y559097D01*
X733075Y559152D01*
X733087Y559189D01*
X733086Y559228D01*
X733094Y559283D01*
X733094Y563093D01*
X733082Y563157D01*
X733080Y563223D01*
X733063Y563267D01*
X733054Y563313D01*
X733021Y563370D01*
X732996Y563431D01*
X732964Y563466D01*
X732940Y563507D01*
X732889Y563548D01*
X732845Y563597D01*
X732803Y563618D01*
X732766Y563648D01*
X732704Y563669D01*
X732645Y563699D01*
X732591Y563707D01*
X732554Y563720D01*
X732514Y563719D01*
X732460Y563727D01*
X729920Y563727D01*
X729855Y563715D01*
X729789Y563713D01*
X729746Y563696D01*
X729699Y563687D01*
X729642Y563654D01*
X729581Y563629D01*
X729547Y563597D01*
X729506Y563573D01*
X729464Y563522D01*
X729416Y563478D01*
X729394Y563436D01*
X729364Y563399D01*
X729343Y563337D01*
X729313Y563278D01*
X729305Y563224D01*
X729293Y563186D01*
X729293Y563182D01*
X729294Y563146D01*
X729286Y563093D01*
X729286Y559283D01*
X729297Y559218D01*
X729299Y559152D01*
X729317Y559108D01*
X729325Y559062D01*
X729359Y559005D01*
X729383Y558944D01*
X729415Y558909D01*
X729439Y558869D01*
X729490Y558827D01*
X729535Y558779D01*
X729577Y558757D01*
X729614Y558727D01*
X729676Y558706D01*
X729734Y558676D01*
X729789Y558668D01*
X729826Y558655D01*
X729865Y558656D01*
X729920Y558648D01*
X732460Y558648D01*
X732525Y558660D01*
G37*
G36*
X102935Y558660D02*
X102935Y558660D01*
X103001Y558662D01*
X103044Y558680D01*
X103091Y558688D01*
X103148Y558722D01*
X103208Y558746D01*
X103243Y558778D01*
X103284Y558802D01*
X103326Y558853D01*
X103374Y558898D01*
X103396Y558940D01*
X103425Y558976D01*
X103446Y559039D01*
X103477Y559097D01*
X103485Y559152D01*
X103497Y559189D01*
X103496Y559228D01*
X103504Y559283D01*
X103504Y563093D01*
X103493Y563157D01*
X103491Y563223D01*
X103473Y563267D01*
X103465Y563313D01*
X103431Y563370D01*
X103406Y563431D01*
X103375Y563466D01*
X103350Y563507D01*
X103299Y563548D01*
X103255Y563597D01*
X103213Y563618D01*
X103176Y563648D01*
X103114Y563669D01*
X103055Y563699D01*
X103001Y563707D01*
X102964Y563720D01*
X102924Y563719D01*
X102870Y563727D01*
X100330Y563727D01*
X100265Y563715D01*
X100199Y563713D01*
X100156Y563696D01*
X100109Y563687D01*
X100052Y563654D01*
X99992Y563629D01*
X99957Y563597D01*
X99916Y563573D01*
X99875Y563522D01*
X99826Y563478D01*
X99804Y563436D01*
X99775Y563399D01*
X99754Y563337D01*
X99723Y563278D01*
X99715Y563224D01*
X99703Y563186D01*
X99703Y563182D01*
X99704Y563146D01*
X99696Y563093D01*
X99696Y559283D01*
X99707Y559218D01*
X99709Y559152D01*
X99727Y559108D01*
X99735Y559062D01*
X99769Y559005D01*
X99794Y558944D01*
X99825Y558909D01*
X99850Y558869D01*
X99901Y558827D01*
X99945Y558779D01*
X99987Y558757D01*
X100024Y558727D01*
X100086Y558706D01*
X100145Y558676D01*
X100199Y558668D01*
X100236Y558655D01*
X100276Y558656D01*
X100330Y558648D01*
X102870Y558648D01*
X102935Y558660D01*
G37*
G36*
X417742Y558660D02*
X417742Y558660D01*
X417808Y558662D01*
X417852Y558680D01*
X417898Y558688D01*
X417955Y558722D01*
X418016Y558746D01*
X418051Y558778D01*
X418092Y558802D01*
X418133Y558853D01*
X418182Y558898D01*
X418203Y558940D01*
X418233Y558976D01*
X418254Y559039D01*
X418284Y559097D01*
X418292Y559152D01*
X418305Y559189D01*
X418304Y559228D01*
X418312Y559283D01*
X418312Y563093D01*
X418300Y563157D01*
X418298Y563223D01*
X418281Y563267D01*
X418272Y563313D01*
X418239Y563370D01*
X418214Y563431D01*
X418182Y563466D01*
X418158Y563507D01*
X418107Y563548D01*
X418063Y563597D01*
X418021Y563618D01*
X417984Y563648D01*
X417922Y563669D01*
X417863Y563699D01*
X417809Y563707D01*
X417771Y563720D01*
X417732Y563719D01*
X417678Y563727D01*
X415138Y563727D01*
X415073Y563715D01*
X415007Y563713D01*
X414963Y563696D01*
X414917Y563687D01*
X414860Y563654D01*
X414799Y563629D01*
X414764Y563597D01*
X414724Y563573D01*
X414682Y563522D01*
X414634Y563478D01*
X414612Y563436D01*
X414582Y563399D01*
X414561Y563337D01*
X414531Y563278D01*
X414523Y563224D01*
X414510Y563186D01*
X414510Y563182D01*
X414511Y563146D01*
X414503Y563093D01*
X414503Y559283D01*
X414515Y559218D01*
X414517Y559152D01*
X414535Y559108D01*
X414543Y559062D01*
X414577Y559005D01*
X414601Y558944D01*
X414633Y558909D01*
X414657Y558869D01*
X414708Y558827D01*
X414753Y558779D01*
X414795Y558757D01*
X414831Y558727D01*
X414894Y558706D01*
X414952Y558676D01*
X415007Y558668D01*
X415044Y558655D01*
X415083Y558656D01*
X415138Y558648D01*
X417678Y558648D01*
X417742Y558660D01*
G37*
G36*
X417742Y548500D02*
X417742Y548500D01*
X417808Y548502D01*
X417852Y548520D01*
X417898Y548528D01*
X417955Y548562D01*
X418016Y548586D01*
X418051Y548618D01*
X418092Y548642D01*
X418133Y548693D01*
X418182Y548738D01*
X418203Y548780D01*
X418233Y548816D01*
X418254Y548879D01*
X418284Y548937D01*
X418292Y548992D01*
X418305Y549029D01*
X418304Y549068D01*
X418312Y549123D01*
X418312Y552933D01*
X418300Y552997D01*
X418298Y553063D01*
X418281Y553107D01*
X418272Y553153D01*
X418239Y553210D01*
X418214Y553271D01*
X418182Y553306D01*
X418158Y553347D01*
X418107Y553388D01*
X418063Y553437D01*
X418021Y553458D01*
X417984Y553488D01*
X417922Y553509D01*
X417863Y553539D01*
X417809Y553547D01*
X417771Y553560D01*
X417732Y553559D01*
X417678Y553567D01*
X415138Y553567D01*
X415073Y553555D01*
X415007Y553553D01*
X414963Y553536D01*
X414917Y553527D01*
X414860Y553494D01*
X414799Y553469D01*
X414764Y553437D01*
X414724Y553413D01*
X414682Y553362D01*
X414634Y553318D01*
X414612Y553276D01*
X414582Y553239D01*
X414561Y553177D01*
X414531Y553118D01*
X414523Y553064D01*
X414510Y553026D01*
X414510Y553022D01*
X414511Y552986D01*
X414503Y552933D01*
X414503Y549123D01*
X414515Y549058D01*
X414517Y548992D01*
X414535Y548948D01*
X414543Y548902D01*
X414577Y548845D01*
X414601Y548784D01*
X414633Y548749D01*
X414657Y548709D01*
X414708Y548667D01*
X414753Y548619D01*
X414795Y548597D01*
X414831Y548567D01*
X414894Y548546D01*
X414952Y548516D01*
X415007Y548508D01*
X415044Y548495D01*
X415083Y548496D01*
X415138Y548488D01*
X417678Y548488D01*
X417742Y548500D01*
G37*
G36*
X732525Y548500D02*
X732525Y548500D01*
X732590Y548502D01*
X732634Y548520D01*
X732681Y548528D01*
X732737Y548562D01*
X732798Y548586D01*
X732833Y548618D01*
X732874Y548642D01*
X732915Y548693D01*
X732964Y548738D01*
X732985Y548780D01*
X733015Y548816D01*
X733036Y548879D01*
X733066Y548937D01*
X733075Y548992D01*
X733087Y549029D01*
X733086Y549068D01*
X733094Y549123D01*
X733094Y552933D01*
X733082Y552997D01*
X733080Y553063D01*
X733063Y553107D01*
X733054Y553153D01*
X733021Y553210D01*
X732996Y553271D01*
X732964Y553306D01*
X732940Y553347D01*
X732889Y553388D01*
X732845Y553437D01*
X732803Y553458D01*
X732766Y553488D01*
X732704Y553509D01*
X732645Y553539D01*
X732591Y553547D01*
X732554Y553560D01*
X732514Y553559D01*
X732460Y553567D01*
X729920Y553567D01*
X729855Y553555D01*
X729789Y553553D01*
X729746Y553536D01*
X729699Y553527D01*
X729642Y553494D01*
X729581Y553469D01*
X729547Y553437D01*
X729506Y553413D01*
X729464Y553362D01*
X729416Y553318D01*
X729394Y553276D01*
X729364Y553239D01*
X729343Y553177D01*
X729313Y553118D01*
X729305Y553064D01*
X729293Y553026D01*
X729293Y553022D01*
X729294Y552986D01*
X729286Y552933D01*
X729286Y549123D01*
X729297Y549058D01*
X729299Y548992D01*
X729317Y548948D01*
X729325Y548902D01*
X729359Y548845D01*
X729383Y548784D01*
X729415Y548749D01*
X729439Y548709D01*
X729490Y548667D01*
X729535Y548619D01*
X729577Y548597D01*
X729614Y548567D01*
X729676Y548546D01*
X729734Y548516D01*
X729789Y548508D01*
X729826Y548495D01*
X729865Y548496D01*
X729920Y548488D01*
X732460Y548488D01*
X732525Y548500D01*
G37*
G36*
X102935Y548500D02*
X102935Y548500D01*
X103001Y548502D01*
X103044Y548520D01*
X103091Y548528D01*
X103148Y548562D01*
X103208Y548586D01*
X103243Y548618D01*
X103284Y548642D01*
X103326Y548693D01*
X103374Y548738D01*
X103396Y548780D01*
X103425Y548816D01*
X103446Y548879D01*
X103477Y548937D01*
X103485Y548992D01*
X103497Y549029D01*
X103496Y549068D01*
X103504Y549123D01*
X103504Y552933D01*
X103493Y552997D01*
X103491Y553063D01*
X103473Y553107D01*
X103465Y553153D01*
X103431Y553210D01*
X103406Y553271D01*
X103375Y553306D01*
X103350Y553347D01*
X103299Y553388D01*
X103255Y553437D01*
X103213Y553458D01*
X103176Y553488D01*
X103114Y553509D01*
X103055Y553539D01*
X103001Y553547D01*
X102964Y553560D01*
X102924Y553559D01*
X102870Y553567D01*
X100330Y553567D01*
X100265Y553555D01*
X100199Y553553D01*
X100156Y553536D01*
X100109Y553527D01*
X100052Y553494D01*
X99992Y553469D01*
X99957Y553437D01*
X99916Y553413D01*
X99875Y553362D01*
X99826Y553318D01*
X99804Y553276D01*
X99775Y553239D01*
X99754Y553177D01*
X99723Y553118D01*
X99715Y553064D01*
X99703Y553026D01*
X99703Y553022D01*
X99704Y552986D01*
X99696Y552933D01*
X99696Y549123D01*
X99707Y549058D01*
X99709Y548992D01*
X99727Y548948D01*
X99735Y548902D01*
X99769Y548845D01*
X99794Y548784D01*
X99825Y548749D01*
X99850Y548709D01*
X99901Y548667D01*
X99945Y548619D01*
X99987Y548597D01*
X100024Y548567D01*
X100086Y548546D01*
X100145Y548516D01*
X100199Y548508D01*
X100236Y548495D01*
X100276Y548496D01*
X100330Y548488D01*
X102870Y548488D01*
X102935Y548500D01*
G37*
G36*
X732525Y104152D02*
X732525Y104152D01*
X732590Y104154D01*
X732634Y104172D01*
X732681Y104180D01*
X732737Y104214D01*
X732798Y104239D01*
X732833Y104270D01*
X732874Y104295D01*
X732915Y104346D01*
X732964Y104390D01*
X732985Y104432D01*
X733015Y104469D01*
X733036Y104531D01*
X733066Y104590D01*
X733075Y104644D01*
X733087Y104681D01*
X733086Y104721D01*
X733094Y104775D01*
X733094Y108585D01*
X733082Y108650D01*
X733080Y108716D01*
X733063Y108759D01*
X733054Y108806D01*
X733021Y108863D01*
X732996Y108923D01*
X732964Y108958D01*
X732940Y108999D01*
X732889Y109041D01*
X732845Y109089D01*
X732803Y109111D01*
X732766Y109140D01*
X732704Y109161D01*
X732645Y109192D01*
X732591Y109200D01*
X732554Y109212D01*
X732514Y109211D01*
X732460Y109219D01*
X729920Y109219D01*
X729855Y109208D01*
X729789Y109206D01*
X729746Y109188D01*
X729699Y109180D01*
X729642Y109146D01*
X729581Y109121D01*
X729547Y109090D01*
X729506Y109065D01*
X729464Y109014D01*
X729416Y108970D01*
X729394Y108928D01*
X729364Y108891D01*
X729343Y108829D01*
X729313Y108770D01*
X729305Y108716D01*
X729293Y108679D01*
X729293Y108675D01*
X729293Y108674D01*
X729294Y108639D01*
X729286Y108585D01*
X729286Y104775D01*
X729297Y104710D01*
X729299Y104644D01*
X729317Y104601D01*
X729325Y104554D01*
X729359Y104497D01*
X729383Y104437D01*
X729415Y104402D01*
X729439Y104361D01*
X729490Y104320D01*
X729535Y104271D01*
X729577Y104249D01*
X729614Y104220D01*
X729676Y104199D01*
X729734Y104168D01*
X729789Y104160D01*
X729826Y104148D01*
X729865Y104149D01*
X729920Y104141D01*
X732460Y104141D01*
X732525Y104152D01*
G37*
G36*
X417742Y104152D02*
X417742Y104152D01*
X417808Y104154D01*
X417852Y104172D01*
X417898Y104180D01*
X417955Y104214D01*
X418016Y104239D01*
X418051Y104270D01*
X418092Y104295D01*
X418133Y104346D01*
X418182Y104390D01*
X418203Y104432D01*
X418233Y104469D01*
X418254Y104531D01*
X418284Y104590D01*
X418292Y104644D01*
X418305Y104681D01*
X418304Y104721D01*
X418312Y104775D01*
X418312Y108585D01*
X418300Y108650D01*
X418298Y108716D01*
X418281Y108759D01*
X418272Y108806D01*
X418239Y108863D01*
X418214Y108923D01*
X418182Y108958D01*
X418158Y108999D01*
X418107Y109041D01*
X418063Y109089D01*
X418021Y109111D01*
X417984Y109140D01*
X417922Y109161D01*
X417863Y109192D01*
X417809Y109200D01*
X417771Y109212D01*
X417732Y109211D01*
X417678Y109219D01*
X415138Y109219D01*
X415073Y109208D01*
X415007Y109206D01*
X414963Y109188D01*
X414917Y109180D01*
X414860Y109146D01*
X414799Y109121D01*
X414764Y109090D01*
X414724Y109065D01*
X414682Y109014D01*
X414634Y108970D01*
X414612Y108928D01*
X414582Y108891D01*
X414561Y108829D01*
X414531Y108770D01*
X414523Y108716D01*
X414510Y108679D01*
X414510Y108675D01*
X414510Y108674D01*
X414511Y108639D01*
X414503Y108585D01*
X414503Y104775D01*
X414515Y104710D01*
X414517Y104644D01*
X414535Y104601D01*
X414543Y104554D01*
X414577Y104497D01*
X414601Y104437D01*
X414633Y104402D01*
X414657Y104361D01*
X414708Y104320D01*
X414753Y104271D01*
X414795Y104249D01*
X414831Y104220D01*
X414894Y104199D01*
X414952Y104168D01*
X415007Y104160D01*
X415044Y104148D01*
X415083Y104149D01*
X415138Y104141D01*
X417678Y104141D01*
X417742Y104152D01*
G37*
G36*
X102935Y104152D02*
X102935Y104152D01*
X103001Y104154D01*
X103044Y104172D01*
X103091Y104180D01*
X103148Y104214D01*
X103208Y104239D01*
X103243Y104270D01*
X103284Y104295D01*
X103326Y104346D01*
X103374Y104390D01*
X103396Y104432D01*
X103425Y104469D01*
X103446Y104531D01*
X103477Y104590D01*
X103485Y104644D01*
X103497Y104681D01*
X103496Y104721D01*
X103504Y104775D01*
X103504Y108585D01*
X103493Y108650D01*
X103491Y108716D01*
X103473Y108759D01*
X103465Y108806D01*
X103431Y108863D01*
X103406Y108923D01*
X103375Y108958D01*
X103350Y108999D01*
X103299Y109041D01*
X103255Y109089D01*
X103213Y109111D01*
X103176Y109140D01*
X103114Y109161D01*
X103055Y109192D01*
X103001Y109200D01*
X102964Y109212D01*
X102924Y109211D01*
X102870Y109219D01*
X100330Y109219D01*
X100265Y109208D01*
X100199Y109206D01*
X100156Y109188D01*
X100109Y109180D01*
X100052Y109146D01*
X99992Y109121D01*
X99957Y109090D01*
X99916Y109065D01*
X99875Y109014D01*
X99826Y108970D01*
X99804Y108928D01*
X99775Y108891D01*
X99754Y108829D01*
X99723Y108770D01*
X99715Y108716D01*
X99703Y108679D01*
X99703Y108675D01*
X99703Y108674D01*
X99704Y108639D01*
X99696Y108585D01*
X99696Y104775D01*
X99707Y104710D01*
X99709Y104644D01*
X99727Y104601D01*
X99735Y104554D01*
X99769Y104497D01*
X99794Y104437D01*
X99825Y104402D01*
X99850Y104361D01*
X99901Y104320D01*
X99945Y104271D01*
X99987Y104249D01*
X100024Y104220D01*
X100086Y104199D01*
X100145Y104168D01*
X100199Y104160D01*
X100236Y104148D01*
X100276Y104149D01*
X100330Y104141D01*
X102870Y104141D01*
X102935Y104152D01*
G37*
G36*
X417742Y93992D02*
X417742Y93992D01*
X417808Y93994D01*
X417852Y94012D01*
X417898Y94020D01*
X417955Y94054D01*
X418016Y94079D01*
X418051Y94110D01*
X418092Y94135D01*
X418133Y94186D01*
X418182Y94230D01*
X418203Y94272D01*
X418233Y94309D01*
X418254Y94371D01*
X418284Y94430D01*
X418292Y94484D01*
X418305Y94521D01*
X418304Y94561D01*
X418312Y94615D01*
X418312Y98425D01*
X418300Y98490D01*
X418298Y98556D01*
X418281Y98599D01*
X418272Y98646D01*
X418239Y98703D01*
X418214Y98763D01*
X418182Y98798D01*
X418158Y98839D01*
X418107Y98881D01*
X418063Y98929D01*
X418021Y98951D01*
X417984Y98980D01*
X417922Y99001D01*
X417863Y99032D01*
X417809Y99040D01*
X417771Y99052D01*
X417732Y99051D01*
X417678Y99059D01*
X415138Y99059D01*
X415073Y99048D01*
X415007Y99046D01*
X414963Y99028D01*
X414917Y99020D01*
X414860Y98986D01*
X414799Y98961D01*
X414764Y98930D01*
X414724Y98905D01*
X414682Y98854D01*
X414634Y98810D01*
X414612Y98768D01*
X414582Y98731D01*
X414561Y98669D01*
X414531Y98610D01*
X414523Y98556D01*
X414510Y98519D01*
X414510Y98515D01*
X414510Y98514D01*
X414511Y98479D01*
X414503Y98425D01*
X414503Y94615D01*
X414515Y94550D01*
X414517Y94484D01*
X414535Y94441D01*
X414543Y94394D01*
X414577Y94337D01*
X414601Y94277D01*
X414633Y94242D01*
X414657Y94201D01*
X414708Y94160D01*
X414753Y94111D01*
X414795Y94089D01*
X414831Y94060D01*
X414894Y94039D01*
X414952Y94008D01*
X415007Y94000D01*
X415044Y93988D01*
X415083Y93989D01*
X415138Y93981D01*
X417678Y93981D01*
X417742Y93992D01*
G37*
G36*
X732525Y93992D02*
X732525Y93992D01*
X732590Y93994D01*
X732634Y94012D01*
X732681Y94020D01*
X732737Y94054D01*
X732798Y94079D01*
X732833Y94110D01*
X732874Y94135D01*
X732915Y94186D01*
X732964Y94230D01*
X732985Y94272D01*
X733015Y94309D01*
X733036Y94371D01*
X733066Y94430D01*
X733075Y94484D01*
X733087Y94521D01*
X733086Y94561D01*
X733094Y94615D01*
X733094Y98425D01*
X733082Y98490D01*
X733080Y98556D01*
X733063Y98599D01*
X733054Y98646D01*
X733021Y98703D01*
X732996Y98763D01*
X732964Y98798D01*
X732940Y98839D01*
X732889Y98881D01*
X732845Y98929D01*
X732803Y98951D01*
X732766Y98980D01*
X732704Y99001D01*
X732645Y99032D01*
X732591Y99040D01*
X732554Y99052D01*
X732514Y99051D01*
X732460Y99059D01*
X729920Y99059D01*
X729855Y99048D01*
X729789Y99046D01*
X729746Y99028D01*
X729699Y99020D01*
X729642Y98986D01*
X729581Y98961D01*
X729547Y98930D01*
X729506Y98905D01*
X729464Y98854D01*
X729416Y98810D01*
X729394Y98768D01*
X729364Y98731D01*
X729343Y98669D01*
X729313Y98610D01*
X729305Y98556D01*
X729293Y98519D01*
X729293Y98515D01*
X729293Y98514D01*
X729294Y98479D01*
X729286Y98425D01*
X729286Y94615D01*
X729297Y94550D01*
X729299Y94484D01*
X729317Y94441D01*
X729325Y94394D01*
X729359Y94337D01*
X729383Y94277D01*
X729415Y94242D01*
X729439Y94201D01*
X729490Y94160D01*
X729535Y94111D01*
X729577Y94089D01*
X729614Y94060D01*
X729676Y94039D01*
X729734Y94008D01*
X729789Y94000D01*
X729826Y93988D01*
X729865Y93989D01*
X729920Y93981D01*
X732460Y93981D01*
X732525Y93992D01*
G37*
G36*
X102935Y93992D02*
X102935Y93992D01*
X103001Y93994D01*
X103044Y94012D01*
X103091Y94020D01*
X103148Y94054D01*
X103208Y94079D01*
X103243Y94110D01*
X103284Y94135D01*
X103326Y94186D01*
X103374Y94230D01*
X103396Y94272D01*
X103425Y94309D01*
X103446Y94371D01*
X103477Y94430D01*
X103485Y94484D01*
X103497Y94521D01*
X103496Y94561D01*
X103504Y94615D01*
X103504Y98425D01*
X103493Y98490D01*
X103491Y98556D01*
X103473Y98599D01*
X103465Y98646D01*
X103431Y98703D01*
X103406Y98763D01*
X103375Y98798D01*
X103350Y98839D01*
X103299Y98881D01*
X103255Y98929D01*
X103213Y98951D01*
X103176Y98980D01*
X103114Y99001D01*
X103055Y99032D01*
X103001Y99040D01*
X102964Y99052D01*
X102924Y99051D01*
X102870Y99059D01*
X100330Y99059D01*
X100265Y99048D01*
X100199Y99046D01*
X100156Y99028D01*
X100109Y99020D01*
X100052Y98986D01*
X99992Y98961D01*
X99957Y98930D01*
X99916Y98905D01*
X99875Y98854D01*
X99826Y98810D01*
X99804Y98768D01*
X99775Y98731D01*
X99754Y98669D01*
X99723Y98610D01*
X99715Y98556D01*
X99703Y98519D01*
X99703Y98515D01*
X99703Y98514D01*
X99704Y98479D01*
X99696Y98425D01*
X99696Y94615D01*
X99707Y94550D01*
X99709Y94484D01*
X99727Y94441D01*
X99735Y94394D01*
X99769Y94337D01*
X99794Y94277D01*
X99825Y94242D01*
X99850Y94201D01*
X99901Y94160D01*
X99945Y94111D01*
X99987Y94089D01*
X100024Y94060D01*
X100086Y94039D01*
X100145Y94008D01*
X100199Y94000D01*
X100236Y93988D01*
X100276Y93989D01*
X100330Y93981D01*
X102870Y93981D01*
X102935Y93992D01*
G37*
G36*
X834760Y554215D02*
X834760Y554215D01*
X834825Y554217D01*
X834869Y554235D01*
X834916Y554243D01*
X834972Y554277D01*
X835033Y554301D01*
X835068Y554333D01*
X835109Y554357D01*
X835150Y554408D01*
X835199Y554453D01*
X835220Y554495D01*
X835250Y554531D01*
X835271Y554594D01*
X835301Y554652D01*
X835310Y554707D01*
X835322Y554744D01*
X835321Y554783D01*
X835329Y554838D01*
X835329Y557378D01*
X835317Y557442D01*
X835315Y557508D01*
X835298Y557552D01*
X835289Y557598D01*
X835256Y557655D01*
X835231Y557716D01*
X835199Y557751D01*
X835175Y557792D01*
X835124Y557833D01*
X835080Y557882D01*
X835038Y557903D01*
X835001Y557933D01*
X834939Y557954D01*
X834880Y557984D01*
X834826Y557992D01*
X834789Y558005D01*
X834749Y558004D01*
X834695Y558012D01*
X830885Y558012D01*
X830820Y558000D01*
X830754Y557998D01*
X830711Y557981D01*
X830664Y557972D01*
X830607Y557939D01*
X830546Y557914D01*
X830512Y557882D01*
X830471Y557858D01*
X830429Y557807D01*
X830381Y557763D01*
X830359Y557721D01*
X830329Y557684D01*
X830308Y557622D01*
X830278Y557563D01*
X830270Y557509D01*
X830258Y557471D01*
X830258Y557469D01*
X830258Y557468D01*
X830259Y557432D01*
X830251Y557378D01*
X830251Y554838D01*
X830262Y554773D01*
X830264Y554707D01*
X830282Y554663D01*
X830290Y554617D01*
X830324Y554560D01*
X830348Y554499D01*
X830380Y554464D01*
X830404Y554424D01*
X830455Y554382D01*
X830500Y554334D01*
X830542Y554312D01*
X830579Y554282D01*
X830641Y554261D01*
X830699Y554231D01*
X830754Y554223D01*
X830791Y554210D01*
X830830Y554211D01*
X830885Y554203D01*
X834695Y554203D01*
X834760Y554215D01*
G37*
G36*
X519977Y554215D02*
X519977Y554215D01*
X520043Y554217D01*
X520087Y554235D01*
X520133Y554243D01*
X520190Y554277D01*
X520251Y554301D01*
X520286Y554333D01*
X520327Y554357D01*
X520368Y554408D01*
X520417Y554453D01*
X520438Y554495D01*
X520468Y554531D01*
X520489Y554594D01*
X520519Y554652D01*
X520527Y554707D01*
X520540Y554744D01*
X520539Y554783D01*
X520547Y554838D01*
X520547Y557378D01*
X520535Y557442D01*
X520533Y557508D01*
X520516Y557552D01*
X520507Y557598D01*
X520474Y557655D01*
X520449Y557716D01*
X520417Y557751D01*
X520393Y557792D01*
X520342Y557833D01*
X520298Y557882D01*
X520256Y557903D01*
X520219Y557933D01*
X520157Y557954D01*
X520098Y557984D01*
X520044Y557992D01*
X520006Y558005D01*
X519967Y558004D01*
X519913Y558012D01*
X516103Y558012D01*
X516038Y558000D01*
X515972Y557998D01*
X515928Y557981D01*
X515882Y557972D01*
X515825Y557939D01*
X515764Y557914D01*
X515729Y557882D01*
X515689Y557858D01*
X515647Y557807D01*
X515599Y557763D01*
X515577Y557721D01*
X515547Y557684D01*
X515526Y557622D01*
X515496Y557563D01*
X515488Y557509D01*
X515475Y557471D01*
X515475Y557469D01*
X515475Y557468D01*
X515476Y557432D01*
X515468Y557378D01*
X515468Y554838D01*
X515480Y554773D01*
X515482Y554707D01*
X515500Y554663D01*
X515508Y554617D01*
X515542Y554560D01*
X515566Y554499D01*
X515598Y554464D01*
X515622Y554424D01*
X515673Y554382D01*
X515718Y554334D01*
X515760Y554312D01*
X515796Y554282D01*
X515859Y554261D01*
X515917Y554231D01*
X515972Y554223D01*
X516009Y554210D01*
X516048Y554211D01*
X516103Y554203D01*
X519913Y554203D01*
X519977Y554215D01*
G37*
G36*
X205170Y554215D02*
X205170Y554215D01*
X205236Y554217D01*
X205279Y554235D01*
X205326Y554243D01*
X205383Y554277D01*
X205443Y554301D01*
X205478Y554333D01*
X205519Y554357D01*
X205561Y554408D01*
X205609Y554453D01*
X205631Y554495D01*
X205660Y554531D01*
X205681Y554594D01*
X205712Y554652D01*
X205720Y554707D01*
X205732Y554744D01*
X205731Y554783D01*
X205739Y554838D01*
X205739Y557378D01*
X205728Y557442D01*
X205726Y557508D01*
X205708Y557552D01*
X205700Y557598D01*
X205666Y557655D01*
X205641Y557716D01*
X205610Y557751D01*
X205585Y557792D01*
X205534Y557833D01*
X205490Y557882D01*
X205448Y557903D01*
X205411Y557933D01*
X205349Y557954D01*
X205290Y557984D01*
X205236Y557992D01*
X205199Y558005D01*
X205159Y558004D01*
X205105Y558012D01*
X201295Y558012D01*
X201230Y558000D01*
X201164Y557998D01*
X201121Y557981D01*
X201074Y557972D01*
X201017Y557939D01*
X200957Y557914D01*
X200922Y557882D01*
X200881Y557858D01*
X200840Y557807D01*
X200791Y557763D01*
X200769Y557721D01*
X200740Y557684D01*
X200719Y557622D01*
X200688Y557563D01*
X200680Y557509D01*
X200668Y557471D01*
X200668Y557469D01*
X200668Y557468D01*
X200669Y557432D01*
X200661Y557378D01*
X200661Y554838D01*
X200672Y554773D01*
X200674Y554707D01*
X200692Y554663D01*
X200700Y554617D01*
X200734Y554560D01*
X200759Y554499D01*
X200790Y554464D01*
X200815Y554424D01*
X200866Y554382D01*
X200910Y554334D01*
X200952Y554312D01*
X200989Y554282D01*
X201051Y554261D01*
X201110Y554231D01*
X201164Y554223D01*
X201201Y554210D01*
X201241Y554211D01*
X201295Y554203D01*
X205105Y554203D01*
X205170Y554215D01*
G37*
G36*
X834760Y528815D02*
X834760Y528815D01*
X834825Y528817D01*
X834869Y528835D01*
X834916Y528843D01*
X834972Y528877D01*
X835033Y528901D01*
X835068Y528933D01*
X835109Y528957D01*
X835150Y529008D01*
X835199Y529053D01*
X835220Y529095D01*
X835250Y529131D01*
X835271Y529194D01*
X835301Y529252D01*
X835310Y529307D01*
X835322Y529344D01*
X835321Y529383D01*
X835329Y529438D01*
X835329Y531978D01*
X835317Y532042D01*
X835315Y532108D01*
X835298Y532152D01*
X835289Y532198D01*
X835256Y532255D01*
X835231Y532316D01*
X835199Y532351D01*
X835175Y532392D01*
X835124Y532433D01*
X835080Y532482D01*
X835038Y532503D01*
X835001Y532533D01*
X834939Y532554D01*
X834880Y532584D01*
X834826Y532592D01*
X834789Y532605D01*
X834749Y532604D01*
X834695Y532612D01*
X830885Y532612D01*
X830820Y532600D01*
X830754Y532598D01*
X830711Y532581D01*
X830664Y532572D01*
X830607Y532539D01*
X830546Y532514D01*
X830512Y532482D01*
X830471Y532458D01*
X830429Y532407D01*
X830381Y532363D01*
X830359Y532321D01*
X830329Y532284D01*
X830308Y532222D01*
X830278Y532163D01*
X830270Y532109D01*
X830258Y532071D01*
X830258Y532069D01*
X830258Y532068D01*
X830259Y532032D01*
X830251Y531978D01*
X830251Y529438D01*
X830262Y529373D01*
X830264Y529307D01*
X830282Y529263D01*
X830290Y529217D01*
X830324Y529160D01*
X830348Y529099D01*
X830380Y529064D01*
X830404Y529024D01*
X830455Y528982D01*
X830500Y528934D01*
X830542Y528912D01*
X830579Y528882D01*
X830641Y528861D01*
X830699Y528831D01*
X830754Y528823D01*
X830791Y528810D01*
X830830Y528811D01*
X830885Y528803D01*
X834695Y528803D01*
X834760Y528815D01*
G37*
G36*
X205170Y528815D02*
X205170Y528815D01*
X205236Y528817D01*
X205279Y528835D01*
X205326Y528843D01*
X205383Y528877D01*
X205443Y528901D01*
X205478Y528933D01*
X205519Y528957D01*
X205561Y529008D01*
X205609Y529053D01*
X205631Y529095D01*
X205660Y529131D01*
X205681Y529194D01*
X205712Y529252D01*
X205720Y529307D01*
X205732Y529344D01*
X205731Y529383D01*
X205739Y529438D01*
X205739Y531978D01*
X205728Y532042D01*
X205726Y532108D01*
X205708Y532152D01*
X205700Y532198D01*
X205666Y532255D01*
X205641Y532316D01*
X205610Y532351D01*
X205585Y532392D01*
X205534Y532433D01*
X205490Y532482D01*
X205448Y532503D01*
X205411Y532533D01*
X205349Y532554D01*
X205290Y532584D01*
X205236Y532592D01*
X205199Y532605D01*
X205159Y532604D01*
X205105Y532612D01*
X201295Y532612D01*
X201230Y532600D01*
X201164Y532598D01*
X201121Y532581D01*
X201074Y532572D01*
X201017Y532539D01*
X200957Y532514D01*
X200922Y532482D01*
X200881Y532458D01*
X200840Y532407D01*
X200791Y532363D01*
X200769Y532321D01*
X200740Y532284D01*
X200719Y532222D01*
X200688Y532163D01*
X200680Y532109D01*
X200668Y532071D01*
X200668Y532069D01*
X200668Y532068D01*
X200669Y532032D01*
X200661Y531978D01*
X200661Y529438D01*
X200672Y529373D01*
X200674Y529307D01*
X200692Y529263D01*
X200700Y529217D01*
X200734Y529160D01*
X200759Y529099D01*
X200790Y529064D01*
X200815Y529024D01*
X200866Y528982D01*
X200910Y528934D01*
X200952Y528912D01*
X200989Y528882D01*
X201051Y528861D01*
X201110Y528831D01*
X201164Y528823D01*
X201201Y528810D01*
X201241Y528811D01*
X201295Y528803D01*
X205105Y528803D01*
X205170Y528815D01*
G37*
G36*
X519977Y528815D02*
X519977Y528815D01*
X520043Y528817D01*
X520087Y528835D01*
X520133Y528843D01*
X520190Y528877D01*
X520251Y528901D01*
X520286Y528933D01*
X520327Y528957D01*
X520368Y529008D01*
X520417Y529053D01*
X520438Y529095D01*
X520468Y529131D01*
X520489Y529194D01*
X520519Y529252D01*
X520527Y529307D01*
X520540Y529344D01*
X520539Y529383D01*
X520547Y529438D01*
X520547Y531978D01*
X520535Y532042D01*
X520533Y532108D01*
X520516Y532152D01*
X520507Y532198D01*
X520474Y532255D01*
X520449Y532316D01*
X520417Y532351D01*
X520393Y532392D01*
X520342Y532433D01*
X520298Y532482D01*
X520256Y532503D01*
X520219Y532533D01*
X520157Y532554D01*
X520098Y532584D01*
X520044Y532592D01*
X520006Y532605D01*
X519967Y532604D01*
X519913Y532612D01*
X516103Y532612D01*
X516038Y532600D01*
X515972Y532598D01*
X515928Y532581D01*
X515882Y532572D01*
X515825Y532539D01*
X515764Y532514D01*
X515729Y532482D01*
X515689Y532458D01*
X515647Y532407D01*
X515599Y532363D01*
X515577Y532321D01*
X515547Y532284D01*
X515526Y532222D01*
X515496Y532163D01*
X515488Y532109D01*
X515475Y532071D01*
X515475Y532069D01*
X515475Y532068D01*
X515476Y532032D01*
X515468Y531978D01*
X515468Y529438D01*
X515480Y529373D01*
X515482Y529307D01*
X515500Y529263D01*
X515508Y529217D01*
X515542Y529160D01*
X515566Y529099D01*
X515598Y529064D01*
X515622Y529024D01*
X515673Y528982D01*
X515718Y528934D01*
X515760Y528912D01*
X515796Y528882D01*
X515859Y528861D01*
X515917Y528831D01*
X515972Y528823D01*
X516009Y528810D01*
X516048Y528811D01*
X516103Y528803D01*
X519913Y528803D01*
X519977Y528815D01*
G37*
G36*
X205170Y99707D02*
X205170Y99707D01*
X205236Y99709D01*
X205279Y99727D01*
X205326Y99735D01*
X205383Y99769D01*
X205443Y99794D01*
X205478Y99825D01*
X205519Y99850D01*
X205561Y99901D01*
X205609Y99945D01*
X205631Y99987D01*
X205660Y100024D01*
X205681Y100086D01*
X205712Y100145D01*
X205720Y100199D01*
X205732Y100236D01*
X205731Y100276D01*
X205739Y100330D01*
X205739Y102870D01*
X205728Y102935D01*
X205726Y103001D01*
X205708Y103044D01*
X205700Y103091D01*
X205666Y103148D01*
X205641Y103208D01*
X205610Y103243D01*
X205585Y103284D01*
X205534Y103326D01*
X205490Y103374D01*
X205448Y103396D01*
X205411Y103425D01*
X205349Y103446D01*
X205290Y103477D01*
X205236Y103485D01*
X205199Y103497D01*
X205159Y103496D01*
X205105Y103504D01*
X201295Y103504D01*
X201230Y103493D01*
X201164Y103491D01*
X201121Y103473D01*
X201074Y103465D01*
X201017Y103431D01*
X200957Y103406D01*
X200922Y103375D01*
X200881Y103350D01*
X200840Y103299D01*
X200791Y103255D01*
X200769Y103213D01*
X200740Y103176D01*
X200719Y103114D01*
X200688Y103055D01*
X200680Y103001D01*
X200668Y102964D01*
X200668Y102961D01*
X200669Y102924D01*
X200661Y102870D01*
X200661Y100330D01*
X200672Y100265D01*
X200674Y100199D01*
X200692Y100156D01*
X200700Y100109D01*
X200734Y100052D01*
X200759Y99992D01*
X200790Y99957D01*
X200815Y99916D01*
X200866Y99875D01*
X200910Y99826D01*
X200952Y99804D01*
X200989Y99775D01*
X201051Y99754D01*
X201110Y99723D01*
X201164Y99715D01*
X201201Y99703D01*
X201241Y99704D01*
X201295Y99696D01*
X205105Y99696D01*
X205170Y99707D01*
G37*
G36*
X519977Y99707D02*
X519977Y99707D01*
X520043Y99709D01*
X520087Y99727D01*
X520133Y99735D01*
X520190Y99769D01*
X520251Y99794D01*
X520286Y99825D01*
X520327Y99850D01*
X520368Y99901D01*
X520417Y99945D01*
X520438Y99987D01*
X520468Y100024D01*
X520489Y100086D01*
X520519Y100145D01*
X520527Y100199D01*
X520540Y100236D01*
X520539Y100276D01*
X520547Y100330D01*
X520547Y102870D01*
X520535Y102935D01*
X520533Y103001D01*
X520516Y103044D01*
X520507Y103091D01*
X520474Y103148D01*
X520449Y103208D01*
X520417Y103243D01*
X520393Y103284D01*
X520342Y103326D01*
X520298Y103374D01*
X520256Y103396D01*
X520219Y103425D01*
X520157Y103446D01*
X520098Y103477D01*
X520044Y103485D01*
X520006Y103497D01*
X519967Y103496D01*
X519913Y103504D01*
X516103Y103504D01*
X516038Y103493D01*
X515972Y103491D01*
X515928Y103473D01*
X515882Y103465D01*
X515825Y103431D01*
X515764Y103406D01*
X515729Y103375D01*
X515689Y103350D01*
X515647Y103299D01*
X515599Y103255D01*
X515577Y103213D01*
X515547Y103176D01*
X515526Y103114D01*
X515496Y103055D01*
X515488Y103001D01*
X515475Y102964D01*
X515475Y102961D01*
X515476Y102924D01*
X515468Y102870D01*
X515468Y100330D01*
X515480Y100265D01*
X515482Y100199D01*
X515500Y100156D01*
X515508Y100109D01*
X515542Y100052D01*
X515566Y99992D01*
X515598Y99957D01*
X515622Y99916D01*
X515673Y99875D01*
X515718Y99826D01*
X515760Y99804D01*
X515796Y99775D01*
X515859Y99754D01*
X515917Y99723D01*
X515972Y99715D01*
X516009Y99703D01*
X516048Y99704D01*
X516103Y99696D01*
X519913Y99696D01*
X519977Y99707D01*
G37*
G36*
X834760Y99707D02*
X834760Y99707D01*
X834825Y99709D01*
X834869Y99727D01*
X834916Y99735D01*
X834972Y99769D01*
X835033Y99794D01*
X835068Y99825D01*
X835109Y99850D01*
X835150Y99901D01*
X835199Y99945D01*
X835220Y99987D01*
X835250Y100024D01*
X835271Y100086D01*
X835301Y100145D01*
X835310Y100199D01*
X835322Y100236D01*
X835321Y100276D01*
X835329Y100330D01*
X835329Y102870D01*
X835317Y102935D01*
X835315Y103001D01*
X835298Y103044D01*
X835289Y103091D01*
X835256Y103148D01*
X835231Y103208D01*
X835199Y103243D01*
X835175Y103284D01*
X835124Y103326D01*
X835080Y103374D01*
X835038Y103396D01*
X835001Y103425D01*
X834939Y103446D01*
X834880Y103477D01*
X834826Y103485D01*
X834789Y103497D01*
X834749Y103496D01*
X834695Y103504D01*
X830885Y103504D01*
X830820Y103493D01*
X830754Y103491D01*
X830711Y103473D01*
X830664Y103465D01*
X830607Y103431D01*
X830546Y103406D01*
X830512Y103375D01*
X830471Y103350D01*
X830429Y103299D01*
X830381Y103255D01*
X830359Y103213D01*
X830329Y103176D01*
X830308Y103114D01*
X830278Y103055D01*
X830270Y103001D01*
X830258Y102964D01*
X830258Y102961D01*
X830259Y102924D01*
X830251Y102870D01*
X830251Y100330D01*
X830262Y100265D01*
X830264Y100199D01*
X830282Y100156D01*
X830290Y100109D01*
X830324Y100052D01*
X830348Y99992D01*
X830380Y99957D01*
X830404Y99916D01*
X830455Y99875D01*
X830500Y99826D01*
X830542Y99804D01*
X830579Y99775D01*
X830641Y99754D01*
X830699Y99723D01*
X830754Y99715D01*
X830791Y99703D01*
X830830Y99704D01*
X830885Y99696D01*
X834695Y99696D01*
X834760Y99707D01*
G37*
G36*
X834760Y74307D02*
X834760Y74307D01*
X834825Y74309D01*
X834869Y74327D01*
X834916Y74335D01*
X834972Y74369D01*
X835033Y74394D01*
X835068Y74425D01*
X835109Y74450D01*
X835150Y74501D01*
X835199Y74545D01*
X835220Y74587D01*
X835250Y74624D01*
X835271Y74686D01*
X835301Y74745D01*
X835310Y74799D01*
X835322Y74836D01*
X835321Y74876D01*
X835329Y74930D01*
X835329Y77470D01*
X835317Y77535D01*
X835315Y77601D01*
X835298Y77644D01*
X835289Y77691D01*
X835256Y77748D01*
X835231Y77808D01*
X835199Y77843D01*
X835175Y77884D01*
X835124Y77926D01*
X835080Y77974D01*
X835038Y77996D01*
X835001Y78025D01*
X834939Y78046D01*
X834880Y78077D01*
X834826Y78085D01*
X834789Y78097D01*
X834749Y78096D01*
X834695Y78104D01*
X830885Y78104D01*
X830820Y78093D01*
X830754Y78091D01*
X830711Y78073D01*
X830664Y78065D01*
X830607Y78031D01*
X830546Y78006D01*
X830512Y77975D01*
X830471Y77950D01*
X830429Y77899D01*
X830381Y77855D01*
X830359Y77813D01*
X830329Y77776D01*
X830308Y77714D01*
X830278Y77655D01*
X830270Y77601D01*
X830258Y77564D01*
X830258Y77561D01*
X830259Y77524D01*
X830251Y77470D01*
X830251Y74930D01*
X830262Y74865D01*
X830264Y74799D01*
X830282Y74756D01*
X830290Y74709D01*
X830324Y74652D01*
X830348Y74592D01*
X830380Y74557D01*
X830404Y74516D01*
X830455Y74475D01*
X830500Y74426D01*
X830542Y74404D01*
X830579Y74375D01*
X830641Y74354D01*
X830699Y74323D01*
X830754Y74315D01*
X830791Y74303D01*
X830830Y74304D01*
X830885Y74296D01*
X834695Y74296D01*
X834760Y74307D01*
G37*
G36*
X519977Y74307D02*
X519977Y74307D01*
X520043Y74309D01*
X520087Y74327D01*
X520133Y74335D01*
X520190Y74369D01*
X520251Y74394D01*
X520286Y74425D01*
X520327Y74450D01*
X520368Y74501D01*
X520417Y74545D01*
X520438Y74587D01*
X520468Y74624D01*
X520489Y74686D01*
X520519Y74745D01*
X520527Y74799D01*
X520540Y74836D01*
X520539Y74876D01*
X520547Y74930D01*
X520547Y77470D01*
X520535Y77535D01*
X520533Y77601D01*
X520516Y77644D01*
X520507Y77691D01*
X520474Y77748D01*
X520449Y77808D01*
X520417Y77843D01*
X520393Y77884D01*
X520342Y77926D01*
X520298Y77974D01*
X520256Y77996D01*
X520219Y78025D01*
X520157Y78046D01*
X520098Y78077D01*
X520044Y78085D01*
X520006Y78097D01*
X519967Y78096D01*
X519913Y78104D01*
X516103Y78104D01*
X516038Y78093D01*
X515972Y78091D01*
X515928Y78073D01*
X515882Y78065D01*
X515825Y78031D01*
X515764Y78006D01*
X515729Y77975D01*
X515689Y77950D01*
X515647Y77899D01*
X515599Y77855D01*
X515577Y77813D01*
X515547Y77776D01*
X515526Y77714D01*
X515496Y77655D01*
X515488Y77601D01*
X515475Y77564D01*
X515475Y77561D01*
X515476Y77524D01*
X515468Y77470D01*
X515468Y74930D01*
X515480Y74865D01*
X515482Y74799D01*
X515500Y74756D01*
X515508Y74709D01*
X515542Y74652D01*
X515566Y74592D01*
X515598Y74557D01*
X515622Y74516D01*
X515673Y74475D01*
X515718Y74426D01*
X515760Y74404D01*
X515796Y74375D01*
X515859Y74354D01*
X515917Y74323D01*
X515972Y74315D01*
X516009Y74303D01*
X516048Y74304D01*
X516103Y74296D01*
X519913Y74296D01*
X519977Y74307D01*
G37*
G36*
X205170Y74307D02*
X205170Y74307D01*
X205236Y74309D01*
X205279Y74327D01*
X205326Y74335D01*
X205383Y74369D01*
X205443Y74394D01*
X205478Y74425D01*
X205519Y74450D01*
X205561Y74501D01*
X205609Y74545D01*
X205631Y74587D01*
X205660Y74624D01*
X205681Y74686D01*
X205712Y74745D01*
X205720Y74799D01*
X205732Y74836D01*
X205731Y74876D01*
X205739Y74930D01*
X205739Y77470D01*
X205728Y77535D01*
X205726Y77601D01*
X205708Y77644D01*
X205700Y77691D01*
X205666Y77748D01*
X205641Y77808D01*
X205610Y77843D01*
X205585Y77884D01*
X205534Y77926D01*
X205490Y77974D01*
X205448Y77996D01*
X205411Y78025D01*
X205349Y78046D01*
X205290Y78077D01*
X205236Y78085D01*
X205199Y78097D01*
X205159Y78096D01*
X205105Y78104D01*
X201295Y78104D01*
X201230Y78093D01*
X201164Y78091D01*
X201121Y78073D01*
X201074Y78065D01*
X201017Y78031D01*
X200957Y78006D01*
X200922Y77975D01*
X200881Y77950D01*
X200840Y77899D01*
X200791Y77855D01*
X200769Y77813D01*
X200740Y77776D01*
X200719Y77714D01*
X200688Y77655D01*
X200680Y77601D01*
X200668Y77564D01*
X200668Y77561D01*
X200669Y77524D01*
X200661Y77470D01*
X200661Y74930D01*
X200672Y74865D01*
X200674Y74799D01*
X200692Y74756D01*
X200700Y74709D01*
X200734Y74652D01*
X200759Y74592D01*
X200790Y74557D01*
X200815Y74516D01*
X200866Y74475D01*
X200910Y74426D01*
X200952Y74404D01*
X200989Y74375D01*
X201051Y74354D01*
X201110Y74323D01*
X201164Y74315D01*
X201201Y74303D01*
X201241Y74304D01*
X201295Y74296D01*
X205105Y74296D01*
X205170Y74307D01*
G37*
D10*
X101600Y91186D03*
X101600Y101600D03*
X101600Y112014D03*
D11*
X197993Y101600D03*
X208407Y101600D03*
D12*
X157480Y254000D03*
X147320Y177800D03*
D11*
X197993Y76200D03*
X208407Y76200D03*
D13*
X88900Y12700D03*
X114300Y12700D03*
X139700Y12700D03*
X165100Y12700D03*
X190500Y12700D03*
X215900Y12700D03*
D14*
X7620Y436880D03*
X297180Y7620D03*
D15*
X25400Y419100D03*
X279400Y419100D03*
X25400Y25400D03*
X279400Y25400D03*
D10*
X416408Y91186D03*
X416408Y101600D03*
X416408Y112014D03*
D11*
X512801Y101600D03*
X523215Y101600D03*
D12*
X472288Y254000D03*
X462128Y177800D03*
D11*
X512801Y76200D03*
X523215Y76200D03*
D13*
X403708Y12700D03*
X429108Y12700D03*
X454508Y12700D03*
X479908Y12700D03*
X505308Y12700D03*
X530708Y12700D03*
D14*
X322428Y436880D03*
X611988Y7620D03*
D15*
X340208Y419100D03*
X594208Y419100D03*
X340208Y25400D03*
X594208Y25400D03*
D10*
X731190Y91186D03*
X731190Y101600D03*
X731190Y112014D03*
D11*
X827583Y101600D03*
X837997Y101600D03*
D12*
X787070Y254000D03*
X776910Y177800D03*
D11*
X827583Y76200D03*
X837997Y76200D03*
D13*
X718490Y12700D03*
X743890Y12700D03*
X769290Y12700D03*
X794690Y12700D03*
X820090Y12700D03*
X845490Y12700D03*
D14*
X637210Y436880D03*
X926770Y7620D03*
D15*
X654990Y419100D03*
X908990Y419100D03*
X654990Y25400D03*
X908990Y25400D03*
D10*
X101600Y545694D03*
X101600Y556108D03*
X101600Y566522D03*
D11*
X197993Y556108D03*
X208407Y556108D03*
D12*
X157480Y708508D03*
X147320Y632308D03*
D11*
X197993Y530708D03*
X208407Y530708D03*
D13*
X88900Y467208D03*
X114300Y467208D03*
X139700Y467208D03*
X165100Y467208D03*
X190500Y467208D03*
X215900Y467208D03*
D14*
X7620Y891388D03*
X297180Y462128D03*
D15*
X25400Y873608D03*
X279400Y873608D03*
X25400Y479908D03*
X279400Y479908D03*
D10*
X416408Y545694D03*
X416408Y556108D03*
X416408Y566522D03*
D11*
X512801Y556108D03*
X523215Y556108D03*
D12*
X472288Y708508D03*
X462128Y632308D03*
D11*
X512801Y530708D03*
X523215Y530708D03*
D13*
X403708Y467208D03*
X429108Y467208D03*
X454508Y467208D03*
X479908Y467208D03*
X505308Y467208D03*
X530708Y467208D03*
D14*
X322428Y891388D03*
X611988Y462128D03*
D15*
X340208Y873608D03*
X594208Y873608D03*
X340208Y479908D03*
X594208Y479908D03*
D10*
X731190Y545694D03*
X731190Y556108D03*
X731190Y566522D03*
D11*
X827583Y556108D03*
X837997Y556108D03*
D12*
X787070Y708508D03*
X776910Y632308D03*
D11*
X827583Y530708D03*
X837997Y530708D03*
D13*
X718490Y467208D03*
X743890Y467208D03*
X769290Y467208D03*
X794690Y467208D03*
X820090Y467208D03*
X845490Y467208D03*
D14*
X637210Y891388D03*
X926770Y462128D03*
D15*
X654990Y873608D03*
X908990Y873608D03*
X654990Y479908D03*
X908990Y479908D03*
D14*
X-31166Y877240D03*
X965556Y877240D03*
D16*
X-40221Y63500D02*
X-40218Y63722D01*
X-40210Y63944D01*
X-40196Y64166D01*
X-40177Y64388D01*
X-40153Y64608D01*
X-40123Y64829D01*
X-40088Y65048D01*
X-40047Y65267D01*
X-40001Y65484D01*
X-39950Y65700D01*
X-39893Y65915D01*
X-39831Y66129D01*
X-39764Y66340D01*
X-39692Y66551D01*
X-39614Y66759D01*
X-39532Y66965D01*
X-39444Y67169D01*
X-39352Y67372D01*
X-39254Y67571D01*
X-39152Y67768D01*
X-39045Y67963D01*
X-38933Y68155D01*
X-38816Y68344D01*
X-38695Y68531D01*
X-38569Y68714D01*
X-38439Y68894D01*
X-38304Y69071D01*
X-38166Y69244D01*
X-38023Y69414D01*
X-37875Y69581D01*
X-37724Y69744D01*
X-37569Y69903D01*
X-37410Y70058D01*
X-37247Y70209D01*
X-37080Y70357D01*
X-36910Y70500D01*
X-36737Y70638D01*
X-36560Y70773D01*
X-36380Y70903D01*
X-36197Y71029D01*
X-36010Y71150D01*
X-35821Y71267D01*
X-35629Y71379D01*
X-35434Y71486D01*
X-35237Y71588D01*
X-35038Y71686D01*
X-34835Y71778D01*
X-34631Y71866D01*
X-34425Y71948D01*
X-34217Y72026D01*
X-34006Y72098D01*
X-33795Y72165D01*
X-33581Y72227D01*
X-33366Y72284D01*
X-33150Y72335D01*
X-32933Y72381D01*
X-32714Y72422D01*
X-32495Y72457D01*
X-32274Y72487D01*
X-32054Y72511D01*
X-31832Y72530D01*
X-31610Y72544D01*
X-31388Y72552D01*
X-31166Y72555D01*
X-30944Y72552D01*
X-30722Y72544D01*
X-30500Y72530D01*
X-30278Y72511D01*
X-30058Y72487D01*
X-29837Y72457D01*
X-29618Y72422D01*
X-29399Y72381D01*
X-29182Y72335D01*
X-28966Y72284D01*
X-28751Y72227D01*
X-28537Y72165D01*
X-28326Y72098D01*
X-28115Y72026D01*
X-27907Y71948D01*
X-27701Y71866D01*
X-27497Y71778D01*
X-27294Y71686D01*
X-27095Y71588D01*
X-26898Y71486D01*
X-26703Y71379D01*
X-26511Y71267D01*
X-26322Y71150D01*
X-26135Y71029D01*
X-25952Y70903D01*
X-25772Y70773D01*
X-25595Y70638D01*
X-25422Y70500D01*
X-25252Y70357D01*
X-25085Y70209D01*
X-24922Y70058D01*
X-24763Y69903D01*
X-24608Y69744D01*
X-24457Y69581D01*
X-24309Y69414D01*
X-24166Y69244D01*
X-24028Y69071D01*
X-23893Y68894D01*
X-23763Y68714D01*
X-23637Y68531D01*
X-23516Y68344D01*
X-23399Y68155D01*
X-23287Y67963D01*
X-23180Y67768D01*
X-23078Y67571D01*
X-22980Y67372D01*
X-22888Y67169D01*
X-22800Y66965D01*
X-22718Y66759D01*
X-22640Y66551D01*
X-22568Y66340D01*
X-22501Y66129D01*
X-22439Y65915D01*
X-22382Y65700D01*
X-22331Y65484D01*
X-22285Y65267D01*
X-22244Y65048D01*
X-22209Y64829D01*
X-22179Y64608D01*
X-22155Y64388D01*
X-22136Y64166D01*
X-22122Y63944D01*
X-22114Y63722D01*
X-22111Y63500D01*
X-22114Y63278D01*
X-22122Y63056D01*
X-22136Y62834D01*
X-22155Y62612D01*
X-22179Y62392D01*
X-22209Y62171D01*
X-22244Y61952D01*
X-22285Y61733D01*
X-22331Y61516D01*
X-22382Y61300D01*
X-22439Y61085D01*
X-22501Y60871D01*
X-22568Y60660D01*
X-22640Y60449D01*
X-22718Y60241D01*
X-22800Y60035D01*
X-22888Y59831D01*
X-22980Y59628D01*
X-23078Y59429D01*
X-23180Y59232D01*
X-23287Y59037D01*
X-23399Y58845D01*
X-23516Y58656D01*
X-23637Y58469D01*
X-23763Y58286D01*
X-23893Y58106D01*
X-24028Y57929D01*
X-24166Y57756D01*
X-24309Y57586D01*
X-24457Y57419D01*
X-24608Y57256D01*
X-24763Y57097D01*
X-24922Y56942D01*
X-25085Y56791D01*
X-25252Y56643D01*
X-25422Y56500D01*
X-25595Y56362D01*
X-25772Y56227D01*
X-25952Y56097D01*
X-26135Y55971D01*
X-26322Y55850D01*
X-26511Y55733D01*
X-26703Y55621D01*
X-26898Y55514D01*
X-27095Y55412D01*
X-27294Y55314D01*
X-27497Y55222D01*
X-27701Y55134D01*
X-27907Y55052D01*
X-28115Y54974D01*
X-28326Y54902D01*
X-28537Y54835D01*
X-28751Y54773D01*
X-28966Y54716D01*
X-29182Y54665D01*
X-29399Y54619D01*
X-29618Y54578D01*
X-29837Y54543D01*
X-30058Y54513D01*
X-30278Y54489D01*
X-30500Y54470D01*
X-30722Y54456D01*
X-30944Y54448D01*
X-31166Y54445D01*
X-31388Y54448D01*
X-31610Y54456D01*
X-31832Y54470D01*
X-32054Y54489D01*
X-32274Y54513D01*
X-32495Y54543D01*
X-32714Y54578D01*
X-32933Y54619D01*
X-33150Y54665D01*
X-33366Y54716D01*
X-33581Y54773D01*
X-33795Y54835D01*
X-34006Y54902D01*
X-34217Y54974D01*
X-34425Y55052D01*
X-34631Y55134D01*
X-34835Y55222D01*
X-35038Y55314D01*
X-35237Y55412D01*
X-35434Y55514D01*
X-35629Y55621D01*
X-35821Y55733D01*
X-36010Y55850D01*
X-36197Y55971D01*
X-36380Y56097D01*
X-36560Y56227D01*
X-36737Y56362D01*
X-36910Y56500D01*
X-37080Y56643D01*
X-37247Y56791D01*
X-37410Y56942D01*
X-37569Y57097D01*
X-37724Y57256D01*
X-37875Y57419D01*
X-38023Y57586D01*
X-38166Y57756D01*
X-38304Y57929D01*
X-38439Y58106D01*
X-38569Y58286D01*
X-38695Y58469D01*
X-38816Y58656D01*
X-38933Y58845D01*
X-39045Y59037D01*
X-39152Y59232D01*
X-39254Y59429D01*
X-39352Y59628D01*
X-39444Y59831D01*
X-39532Y60035D01*
X-39614Y60241D01*
X-39692Y60449D01*
X-39764Y60660D01*
X-39831Y60871D01*
X-39893Y61085D01*
X-39950Y61300D01*
X-40001Y61516D01*
X-40047Y61733D01*
X-40088Y61952D01*
X-40123Y62171D01*
X-40153Y62392D01*
X-40177Y62612D01*
X-40196Y62834D01*
X-40210Y63056D01*
X-40218Y63278D01*
X-40221Y63500D01*
D17*
X-31166Y63500D03*
M02*
