G04 EAGLE Gerber RS-274X export*
G75*
%MOMM*%
%FSLAX34Y34*%
%LPD*%
%INSolderpaste Top*%
%IPPOS*%
%AMOC8*
5,1,8,0,0,1.08239X$1,22.5*%
G01*
%ADD10R,1.100000X1.000000*%
%ADD11C,0.300000*%
%ADD12R,2.000000X1.200000*%
%ADD13R,1.350000X0.600000*%
%ADD14R,0.600000X1.200000*%
%ADD15R,1.000000X1.100000*%


D10*
X143900Y152400D03*
X160900Y152400D03*
D11*
X233870Y148900D02*
X233870Y155900D01*
X240870Y155900D01*
X240870Y148900D01*
X233870Y148900D01*
X233870Y151750D02*
X240870Y151750D01*
X240870Y154600D02*
X233870Y154600D01*
X216330Y155900D02*
X216330Y148900D01*
X216330Y155900D02*
X223330Y155900D01*
X223330Y148900D01*
X216330Y148900D01*
X216330Y151750D02*
X223330Y151750D01*
X223330Y154600D02*
X216330Y154600D01*
D12*
X290750Y73600D03*
X290750Y129600D03*
D13*
X254000Y86600D03*
X254000Y96600D03*
X254000Y106600D03*
X254000Y116600D03*
D12*
X14050Y129600D03*
X14050Y73600D03*
D13*
X50800Y116600D03*
X50800Y106600D03*
X50800Y96600D03*
X50800Y86600D03*
D10*
X110100Y101600D03*
X93100Y101600D03*
X93100Y76200D03*
X110100Y76200D03*
X211700Y101600D03*
X194700Y101600D03*
D14*
X171450Y129600D03*
X158750Y129600D03*
X146050Y129600D03*
X133350Y129600D03*
X133350Y73600D03*
X146050Y73600D03*
X158750Y73600D03*
X171450Y73600D03*
D15*
X63500Y59300D03*
X63500Y42300D03*
D10*
X194700Y76200D03*
X211700Y76200D03*
X453780Y152400D03*
X470780Y152400D03*
D11*
X543750Y148900D02*
X543750Y155900D01*
X550750Y155900D01*
X550750Y148900D01*
X543750Y148900D01*
X543750Y151750D02*
X550750Y151750D01*
X550750Y154600D02*
X543750Y154600D01*
X526210Y155900D02*
X526210Y148900D01*
X526210Y155900D02*
X533210Y155900D01*
X533210Y148900D01*
X526210Y148900D01*
X526210Y151750D02*
X533210Y151750D01*
X533210Y154600D02*
X526210Y154600D01*
D12*
X600630Y73600D03*
X600630Y129600D03*
D13*
X563880Y86600D03*
X563880Y96600D03*
X563880Y106600D03*
X563880Y116600D03*
D12*
X323930Y129600D03*
X323930Y73600D03*
D13*
X360680Y116600D03*
X360680Y106600D03*
X360680Y96600D03*
X360680Y86600D03*
D10*
X419980Y101600D03*
X402980Y101600D03*
X402980Y76200D03*
X419980Y76200D03*
X521580Y101600D03*
X504580Y101600D03*
D14*
X481330Y129600D03*
X468630Y129600D03*
X455930Y129600D03*
X443230Y129600D03*
X443230Y73600D03*
X455930Y73600D03*
X468630Y73600D03*
X481330Y73600D03*
D15*
X373380Y59300D03*
X373380Y42300D03*
D10*
X504580Y76200D03*
X521580Y76200D03*
X763660Y152400D03*
X780660Y152400D03*
D11*
X853630Y148900D02*
X853630Y155900D01*
X860630Y155900D01*
X860630Y148900D01*
X853630Y148900D01*
X853630Y151750D02*
X860630Y151750D01*
X860630Y154600D02*
X853630Y154600D01*
X836090Y155900D02*
X836090Y148900D01*
X836090Y155900D02*
X843090Y155900D01*
X843090Y148900D01*
X836090Y148900D01*
X836090Y151750D02*
X843090Y151750D01*
X843090Y154600D02*
X836090Y154600D01*
D12*
X910510Y73600D03*
X910510Y129600D03*
D13*
X873760Y86600D03*
X873760Y96600D03*
X873760Y106600D03*
X873760Y116600D03*
D12*
X633810Y129600D03*
X633810Y73600D03*
D13*
X670560Y116600D03*
X670560Y106600D03*
X670560Y96600D03*
X670560Y86600D03*
D10*
X729860Y101600D03*
X712860Y101600D03*
X712860Y76200D03*
X729860Y76200D03*
X831460Y101600D03*
X814460Y101600D03*
D14*
X791210Y129600D03*
X778510Y129600D03*
X765810Y129600D03*
X753110Y129600D03*
X753110Y73600D03*
X765810Y73600D03*
X778510Y73600D03*
X791210Y73600D03*
D15*
X683260Y59300D03*
X683260Y42300D03*
D10*
X814460Y76200D03*
X831460Y76200D03*
X143900Y601980D03*
X160900Y601980D03*
D11*
X233870Y598480D02*
X233870Y605480D01*
X240870Y605480D01*
X240870Y598480D01*
X233870Y598480D01*
X233870Y601330D02*
X240870Y601330D01*
X240870Y604180D02*
X233870Y604180D01*
X216330Y605480D02*
X216330Y598480D01*
X216330Y605480D02*
X223330Y605480D01*
X223330Y598480D01*
X216330Y598480D01*
X216330Y601330D02*
X223330Y601330D01*
X223330Y604180D02*
X216330Y604180D01*
D12*
X290750Y523180D03*
X290750Y579180D03*
D13*
X254000Y536180D03*
X254000Y546180D03*
X254000Y556180D03*
X254000Y566180D03*
D12*
X14050Y579180D03*
X14050Y523180D03*
D13*
X50800Y566180D03*
X50800Y556180D03*
X50800Y546180D03*
X50800Y536180D03*
D10*
X110100Y551180D03*
X93100Y551180D03*
X93100Y525780D03*
X110100Y525780D03*
X211700Y551180D03*
X194700Y551180D03*
D14*
X171450Y579180D03*
X158750Y579180D03*
X146050Y579180D03*
X133350Y579180D03*
X133350Y523180D03*
X146050Y523180D03*
X158750Y523180D03*
X171450Y523180D03*
D15*
X63500Y508880D03*
X63500Y491880D03*
D10*
X194700Y525780D03*
X211700Y525780D03*
X453780Y601980D03*
X470780Y601980D03*
D11*
X543750Y598480D02*
X543750Y605480D01*
X550750Y605480D01*
X550750Y598480D01*
X543750Y598480D01*
X543750Y601330D02*
X550750Y601330D01*
X550750Y604180D02*
X543750Y604180D01*
X526210Y605480D02*
X526210Y598480D01*
X526210Y605480D02*
X533210Y605480D01*
X533210Y598480D01*
X526210Y598480D01*
X526210Y601330D02*
X533210Y601330D01*
X533210Y604180D02*
X526210Y604180D01*
D12*
X600630Y523180D03*
X600630Y579180D03*
D13*
X563880Y536180D03*
X563880Y546180D03*
X563880Y556180D03*
X563880Y566180D03*
D12*
X323930Y579180D03*
X323930Y523180D03*
D13*
X360680Y566180D03*
X360680Y556180D03*
X360680Y546180D03*
X360680Y536180D03*
D10*
X419980Y551180D03*
X402980Y551180D03*
X402980Y525780D03*
X419980Y525780D03*
X521580Y551180D03*
X504580Y551180D03*
D14*
X481330Y579180D03*
X468630Y579180D03*
X455930Y579180D03*
X443230Y579180D03*
X443230Y523180D03*
X455930Y523180D03*
X468630Y523180D03*
X481330Y523180D03*
D15*
X373380Y508880D03*
X373380Y491880D03*
D10*
X504580Y525780D03*
X521580Y525780D03*
X763660Y601980D03*
X780660Y601980D03*
D11*
X853630Y598480D02*
X853630Y605480D01*
X860630Y605480D01*
X860630Y598480D01*
X853630Y598480D01*
X853630Y601330D02*
X860630Y601330D01*
X860630Y604180D02*
X853630Y604180D01*
X836090Y605480D02*
X836090Y598480D01*
X836090Y605480D02*
X843090Y605480D01*
X843090Y598480D01*
X836090Y598480D01*
X836090Y601330D02*
X843090Y601330D01*
X843090Y604180D02*
X836090Y604180D01*
D12*
X910510Y523180D03*
X910510Y579180D03*
D13*
X873760Y536180D03*
X873760Y546180D03*
X873760Y556180D03*
X873760Y566180D03*
D12*
X633810Y579180D03*
X633810Y523180D03*
D13*
X670560Y566180D03*
X670560Y556180D03*
X670560Y546180D03*
X670560Y536180D03*
D10*
X729860Y551180D03*
X712860Y551180D03*
X712860Y525780D03*
X729860Y525780D03*
X831460Y551180D03*
X814460Y551180D03*
D14*
X791210Y579180D03*
X778510Y579180D03*
X765810Y579180D03*
X753110Y579180D03*
X753110Y523180D03*
X765810Y523180D03*
X778510Y523180D03*
X791210Y523180D03*
D15*
X683260Y508880D03*
X683260Y491880D03*
D10*
X814460Y525780D03*
X831460Y525780D03*
M02*
