G04 EAGLE Gerber RS-274X export*
G75*
%MOMM*%
%FSLAX34Y34*%
%LPD*%
%INSoldermask Top*%
%IPPOS*%
%AMOC8*
5,1,8,0,0,1.08239X$1,22.5*%
G01*
%ADD10R,1.303200X1.203200*%
%ADD11C,0.505344*%
%ADD12R,2.203200X1.403200*%
%ADD13R,1.553200X0.803200*%
%ADD14C,0.863600*%
%ADD15R,0.803200X1.403200*%
%ADD16R,1.203200X1.303200*%
%ADD17C,2.082800*%
%ADD18C,1.203200*%
%ADD19C,3.505200*%
%ADD20C,1.270000*%
%ADD21C,1.703200*%


D10*
X143900Y152400D03*
X160900Y152400D03*
D11*
X233880Y148910D02*
X233880Y155890D01*
X240860Y155890D01*
X240860Y148910D01*
X233880Y148910D01*
X233880Y153710D02*
X240860Y153710D01*
X216340Y155890D02*
X216340Y148910D01*
X216340Y155890D02*
X223320Y155890D01*
X223320Y148910D01*
X216340Y148910D01*
X216340Y153710D02*
X223320Y153710D01*
D12*
X290750Y73600D03*
X290750Y129600D03*
D13*
X254000Y86600D03*
X254000Y96600D03*
X254000Y106600D03*
X254000Y116600D03*
D12*
X14050Y129600D03*
X14050Y73600D03*
D13*
X50800Y116600D03*
X50800Y106600D03*
X50800Y96600D03*
X50800Y86600D03*
D14*
X157480Y254000D03*
X147320Y177800D03*
D10*
X110100Y101600D03*
X93100Y101600D03*
X93100Y76200D03*
X110100Y76200D03*
X211700Y101600D03*
X194700Y101600D03*
D15*
X171450Y129600D03*
X158750Y129600D03*
X146050Y129600D03*
X133350Y129600D03*
X133350Y73600D03*
X146050Y73600D03*
X158750Y73600D03*
X171450Y73600D03*
D16*
X63500Y59300D03*
X63500Y42300D03*
D17*
X88900Y12700D03*
X114300Y12700D03*
X139700Y12700D03*
X165100Y12700D03*
X190500Y12700D03*
X215900Y12700D03*
D10*
X194700Y76200D03*
X211700Y76200D03*
D18*
X7620Y436880D03*
X297180Y7620D03*
D19*
X25400Y419100D03*
X279400Y419100D03*
X25400Y25400D03*
X279400Y25400D03*
D10*
X458708Y152400D03*
X475708Y152400D03*
D11*
X548688Y148910D02*
X548688Y155890D01*
X555668Y155890D01*
X555668Y148910D01*
X548688Y148910D01*
X548688Y153710D02*
X555668Y153710D01*
X531148Y155890D02*
X531148Y148910D01*
X531148Y155890D02*
X538128Y155890D01*
X538128Y148910D01*
X531148Y148910D01*
X531148Y153710D02*
X538128Y153710D01*
D12*
X605558Y73600D03*
X605558Y129600D03*
D13*
X568808Y86600D03*
X568808Y96600D03*
X568808Y106600D03*
X568808Y116600D03*
D12*
X328858Y129600D03*
X328858Y73600D03*
D13*
X365608Y116600D03*
X365608Y106600D03*
X365608Y96600D03*
X365608Y86600D03*
D14*
X472288Y254000D03*
X462128Y177800D03*
D10*
X424908Y101600D03*
X407908Y101600D03*
X407908Y76200D03*
X424908Y76200D03*
X526508Y101600D03*
X509508Y101600D03*
D15*
X486258Y129600D03*
X473558Y129600D03*
X460858Y129600D03*
X448158Y129600D03*
X448158Y73600D03*
X460858Y73600D03*
X473558Y73600D03*
X486258Y73600D03*
D16*
X378308Y59300D03*
X378308Y42300D03*
D17*
X403708Y12700D03*
X429108Y12700D03*
X454508Y12700D03*
X479908Y12700D03*
X505308Y12700D03*
X530708Y12700D03*
D10*
X509508Y76200D03*
X526508Y76200D03*
D18*
X322428Y436880D03*
X611988Y7620D03*
D19*
X340208Y419100D03*
X594208Y419100D03*
X340208Y25400D03*
X594208Y25400D03*
D10*
X773490Y152400D03*
X790490Y152400D03*
D11*
X863470Y148910D02*
X863470Y155890D01*
X870450Y155890D01*
X870450Y148910D01*
X863470Y148910D01*
X863470Y153710D02*
X870450Y153710D01*
X845930Y155890D02*
X845930Y148910D01*
X845930Y155890D02*
X852910Y155890D01*
X852910Y148910D01*
X845930Y148910D01*
X845930Y153710D02*
X852910Y153710D01*
D12*
X920340Y73600D03*
X920340Y129600D03*
D13*
X883590Y86600D03*
X883590Y96600D03*
X883590Y106600D03*
X883590Y116600D03*
D12*
X643640Y129600D03*
X643640Y73600D03*
D13*
X680390Y116600D03*
X680390Y106600D03*
X680390Y96600D03*
X680390Y86600D03*
D14*
X787070Y254000D03*
X776910Y177800D03*
D10*
X739690Y101600D03*
X722690Y101600D03*
X722690Y76200D03*
X739690Y76200D03*
X841290Y101600D03*
X824290Y101600D03*
D15*
X801040Y129600D03*
X788340Y129600D03*
X775640Y129600D03*
X762940Y129600D03*
X762940Y73600D03*
X775640Y73600D03*
X788340Y73600D03*
X801040Y73600D03*
D16*
X693090Y59300D03*
X693090Y42300D03*
D17*
X718490Y12700D03*
X743890Y12700D03*
X769290Y12700D03*
X794690Y12700D03*
X820090Y12700D03*
X845490Y12700D03*
D10*
X824290Y76200D03*
X841290Y76200D03*
D18*
X637210Y436880D03*
X926770Y7620D03*
D19*
X654990Y419100D03*
X908990Y419100D03*
X654990Y25400D03*
X908990Y25400D03*
D10*
X143900Y606908D03*
X160900Y606908D03*
D11*
X233880Y603418D02*
X233880Y610398D01*
X240860Y610398D01*
X240860Y603418D01*
X233880Y603418D01*
X233880Y608218D02*
X240860Y608218D01*
X216340Y610398D02*
X216340Y603418D01*
X216340Y610398D02*
X223320Y610398D01*
X223320Y603418D01*
X216340Y603418D01*
X216340Y608218D02*
X223320Y608218D01*
D12*
X290750Y528108D03*
X290750Y584108D03*
D13*
X254000Y541108D03*
X254000Y551108D03*
X254000Y561108D03*
X254000Y571108D03*
D12*
X14050Y584108D03*
X14050Y528108D03*
D13*
X50800Y571108D03*
X50800Y561108D03*
X50800Y551108D03*
X50800Y541108D03*
D14*
X157480Y708508D03*
X147320Y632308D03*
D10*
X110100Y556108D03*
X93100Y556108D03*
X93100Y530708D03*
X110100Y530708D03*
X211700Y556108D03*
X194700Y556108D03*
D15*
X171450Y584108D03*
X158750Y584108D03*
X146050Y584108D03*
X133350Y584108D03*
X133350Y528108D03*
X146050Y528108D03*
X158750Y528108D03*
X171450Y528108D03*
D16*
X63500Y513808D03*
X63500Y496808D03*
D17*
X88900Y467208D03*
X114300Y467208D03*
X139700Y467208D03*
X165100Y467208D03*
X190500Y467208D03*
X215900Y467208D03*
D10*
X194700Y530708D03*
X211700Y530708D03*
D18*
X7620Y891388D03*
X297180Y462128D03*
D19*
X25400Y873608D03*
X279400Y873608D03*
X25400Y479908D03*
X279400Y479908D03*
D10*
X458708Y606908D03*
X475708Y606908D03*
D11*
X548688Y603418D02*
X548688Y610398D01*
X555668Y610398D01*
X555668Y603418D01*
X548688Y603418D01*
X548688Y608218D02*
X555668Y608218D01*
X531148Y610398D02*
X531148Y603418D01*
X531148Y610398D02*
X538128Y610398D01*
X538128Y603418D01*
X531148Y603418D01*
X531148Y608218D02*
X538128Y608218D01*
D12*
X605558Y528108D03*
X605558Y584108D03*
D13*
X568808Y541108D03*
X568808Y551108D03*
X568808Y561108D03*
X568808Y571108D03*
D12*
X328858Y584108D03*
X328858Y528108D03*
D13*
X365608Y571108D03*
X365608Y561108D03*
X365608Y551108D03*
X365608Y541108D03*
D14*
X472288Y708508D03*
X462128Y632308D03*
D10*
X424908Y556108D03*
X407908Y556108D03*
X407908Y530708D03*
X424908Y530708D03*
X526508Y556108D03*
X509508Y556108D03*
D15*
X486258Y584108D03*
X473558Y584108D03*
X460858Y584108D03*
X448158Y584108D03*
X448158Y528108D03*
X460858Y528108D03*
X473558Y528108D03*
X486258Y528108D03*
D16*
X378308Y513808D03*
X378308Y496808D03*
D17*
X403708Y467208D03*
X429108Y467208D03*
X454508Y467208D03*
X479908Y467208D03*
X505308Y467208D03*
X530708Y467208D03*
D10*
X509508Y530708D03*
X526508Y530708D03*
D18*
X322428Y891388D03*
X611988Y462128D03*
D19*
X340208Y873608D03*
X594208Y873608D03*
X340208Y479908D03*
X594208Y479908D03*
D10*
X773490Y606908D03*
X790490Y606908D03*
D11*
X863470Y603418D02*
X863470Y610398D01*
X870450Y610398D01*
X870450Y603418D01*
X863470Y603418D01*
X863470Y608218D02*
X870450Y608218D01*
X845930Y610398D02*
X845930Y603418D01*
X845930Y610398D02*
X852910Y610398D01*
X852910Y603418D01*
X845930Y603418D01*
X845930Y608218D02*
X852910Y608218D01*
D12*
X920340Y528108D03*
X920340Y584108D03*
D13*
X883590Y541108D03*
X883590Y551108D03*
X883590Y561108D03*
X883590Y571108D03*
D12*
X643640Y584108D03*
X643640Y528108D03*
D13*
X680390Y571108D03*
X680390Y561108D03*
X680390Y551108D03*
X680390Y541108D03*
D14*
X787070Y708508D03*
X776910Y632308D03*
D10*
X739690Y556108D03*
X722690Y556108D03*
X722690Y530708D03*
X739690Y530708D03*
X841290Y556108D03*
X824290Y556108D03*
D15*
X801040Y584108D03*
X788340Y584108D03*
X775640Y584108D03*
X762940Y584108D03*
X762940Y528108D03*
X775640Y528108D03*
X788340Y528108D03*
X801040Y528108D03*
D16*
X693090Y513808D03*
X693090Y496808D03*
D17*
X718490Y467208D03*
X743890Y467208D03*
X769290Y467208D03*
X794690Y467208D03*
X820090Y467208D03*
X845490Y467208D03*
D10*
X824290Y530708D03*
X841290Y530708D03*
D18*
X637210Y891388D03*
X926770Y462128D03*
D19*
X654990Y873608D03*
X908990Y873608D03*
X654990Y479908D03*
X908990Y479908D03*
D18*
X-31166Y877240D03*
X965556Y877240D03*
D20*
X-40221Y63500D02*
X-40218Y63722D01*
X-40210Y63944D01*
X-40196Y64166D01*
X-40177Y64388D01*
X-40153Y64608D01*
X-40123Y64829D01*
X-40088Y65048D01*
X-40047Y65267D01*
X-40001Y65484D01*
X-39950Y65700D01*
X-39893Y65915D01*
X-39831Y66129D01*
X-39764Y66340D01*
X-39692Y66551D01*
X-39614Y66759D01*
X-39532Y66965D01*
X-39444Y67169D01*
X-39352Y67372D01*
X-39254Y67571D01*
X-39152Y67768D01*
X-39045Y67963D01*
X-38933Y68155D01*
X-38816Y68344D01*
X-38695Y68531D01*
X-38569Y68714D01*
X-38439Y68894D01*
X-38304Y69071D01*
X-38166Y69244D01*
X-38023Y69414D01*
X-37875Y69581D01*
X-37724Y69744D01*
X-37569Y69903D01*
X-37410Y70058D01*
X-37247Y70209D01*
X-37080Y70357D01*
X-36910Y70500D01*
X-36737Y70638D01*
X-36560Y70773D01*
X-36380Y70903D01*
X-36197Y71029D01*
X-36010Y71150D01*
X-35821Y71267D01*
X-35629Y71379D01*
X-35434Y71486D01*
X-35237Y71588D01*
X-35038Y71686D01*
X-34835Y71778D01*
X-34631Y71866D01*
X-34425Y71948D01*
X-34217Y72026D01*
X-34006Y72098D01*
X-33795Y72165D01*
X-33581Y72227D01*
X-33366Y72284D01*
X-33150Y72335D01*
X-32933Y72381D01*
X-32714Y72422D01*
X-32495Y72457D01*
X-32274Y72487D01*
X-32054Y72511D01*
X-31832Y72530D01*
X-31610Y72544D01*
X-31388Y72552D01*
X-31166Y72555D01*
X-30944Y72552D01*
X-30722Y72544D01*
X-30500Y72530D01*
X-30278Y72511D01*
X-30058Y72487D01*
X-29837Y72457D01*
X-29618Y72422D01*
X-29399Y72381D01*
X-29182Y72335D01*
X-28966Y72284D01*
X-28751Y72227D01*
X-28537Y72165D01*
X-28326Y72098D01*
X-28115Y72026D01*
X-27907Y71948D01*
X-27701Y71866D01*
X-27497Y71778D01*
X-27294Y71686D01*
X-27095Y71588D01*
X-26898Y71486D01*
X-26703Y71379D01*
X-26511Y71267D01*
X-26322Y71150D01*
X-26135Y71029D01*
X-25952Y70903D01*
X-25772Y70773D01*
X-25595Y70638D01*
X-25422Y70500D01*
X-25252Y70357D01*
X-25085Y70209D01*
X-24922Y70058D01*
X-24763Y69903D01*
X-24608Y69744D01*
X-24457Y69581D01*
X-24309Y69414D01*
X-24166Y69244D01*
X-24028Y69071D01*
X-23893Y68894D01*
X-23763Y68714D01*
X-23637Y68531D01*
X-23516Y68344D01*
X-23399Y68155D01*
X-23287Y67963D01*
X-23180Y67768D01*
X-23078Y67571D01*
X-22980Y67372D01*
X-22888Y67169D01*
X-22800Y66965D01*
X-22718Y66759D01*
X-22640Y66551D01*
X-22568Y66340D01*
X-22501Y66129D01*
X-22439Y65915D01*
X-22382Y65700D01*
X-22331Y65484D01*
X-22285Y65267D01*
X-22244Y65048D01*
X-22209Y64829D01*
X-22179Y64608D01*
X-22155Y64388D01*
X-22136Y64166D01*
X-22122Y63944D01*
X-22114Y63722D01*
X-22111Y63500D01*
X-22114Y63278D01*
X-22122Y63056D01*
X-22136Y62834D01*
X-22155Y62612D01*
X-22179Y62392D01*
X-22209Y62171D01*
X-22244Y61952D01*
X-22285Y61733D01*
X-22331Y61516D01*
X-22382Y61300D01*
X-22439Y61085D01*
X-22501Y60871D01*
X-22568Y60660D01*
X-22640Y60449D01*
X-22718Y60241D01*
X-22800Y60035D01*
X-22888Y59831D01*
X-22980Y59628D01*
X-23078Y59429D01*
X-23180Y59232D01*
X-23287Y59037D01*
X-23399Y58845D01*
X-23516Y58656D01*
X-23637Y58469D01*
X-23763Y58286D01*
X-23893Y58106D01*
X-24028Y57929D01*
X-24166Y57756D01*
X-24309Y57586D01*
X-24457Y57419D01*
X-24608Y57256D01*
X-24763Y57097D01*
X-24922Y56942D01*
X-25085Y56791D01*
X-25252Y56643D01*
X-25422Y56500D01*
X-25595Y56362D01*
X-25772Y56227D01*
X-25952Y56097D01*
X-26135Y55971D01*
X-26322Y55850D01*
X-26511Y55733D01*
X-26703Y55621D01*
X-26898Y55514D01*
X-27095Y55412D01*
X-27294Y55314D01*
X-27497Y55222D01*
X-27701Y55134D01*
X-27907Y55052D01*
X-28115Y54974D01*
X-28326Y54902D01*
X-28537Y54835D01*
X-28751Y54773D01*
X-28966Y54716D01*
X-29182Y54665D01*
X-29399Y54619D01*
X-29618Y54578D01*
X-29837Y54543D01*
X-30058Y54513D01*
X-30278Y54489D01*
X-30500Y54470D01*
X-30722Y54456D01*
X-30944Y54448D01*
X-31166Y54445D01*
X-31388Y54448D01*
X-31610Y54456D01*
X-31832Y54470D01*
X-32054Y54489D01*
X-32274Y54513D01*
X-32495Y54543D01*
X-32714Y54578D01*
X-32933Y54619D01*
X-33150Y54665D01*
X-33366Y54716D01*
X-33581Y54773D01*
X-33795Y54835D01*
X-34006Y54902D01*
X-34217Y54974D01*
X-34425Y55052D01*
X-34631Y55134D01*
X-34835Y55222D01*
X-35038Y55314D01*
X-35237Y55412D01*
X-35434Y55514D01*
X-35629Y55621D01*
X-35821Y55733D01*
X-36010Y55850D01*
X-36197Y55971D01*
X-36380Y56097D01*
X-36560Y56227D01*
X-36737Y56362D01*
X-36910Y56500D01*
X-37080Y56643D01*
X-37247Y56791D01*
X-37410Y56942D01*
X-37569Y57097D01*
X-37724Y57256D01*
X-37875Y57419D01*
X-38023Y57586D01*
X-38166Y57756D01*
X-38304Y57929D01*
X-38439Y58106D01*
X-38569Y58286D01*
X-38695Y58469D01*
X-38816Y58656D01*
X-38933Y58845D01*
X-39045Y59037D01*
X-39152Y59232D01*
X-39254Y59429D01*
X-39352Y59628D01*
X-39444Y59831D01*
X-39532Y60035D01*
X-39614Y60241D01*
X-39692Y60449D01*
X-39764Y60660D01*
X-39831Y60871D01*
X-39893Y61085D01*
X-39950Y61300D01*
X-40001Y61516D01*
X-40047Y61733D01*
X-40088Y61952D01*
X-40123Y62171D01*
X-40153Y62392D01*
X-40177Y62612D01*
X-40196Y62834D01*
X-40210Y63056D01*
X-40218Y63278D01*
X-40221Y63500D01*
D21*
X-31166Y63500D03*
M02*
