G04 EAGLE Gerber RS-274X export*
G75*
%MOMM*%
%FSLAX34Y34*%
%LPD*%
%INBottom Copper*%
%IPPOS*%
%AMOC8*
5,1,8,0,0,1.08239X$1,22.5*%
G01*
%ADD10C,0.203200*%
%ADD11R,1.270000X0.660400*%
%ADD12R,0.660400X1.270000*%
%ADD13C,0.660400*%
%ADD14C,1.879600*%
%ADD15C,1.000000*%
%ADD16C,1.500000*%
%ADD17C,0.508000*%
%ADD18C,0.254000*%

G36*
X709343Y457052D02*
X709343Y457052D01*
X709372Y457050D01*
X709484Y457072D01*
X709596Y457088D01*
X709622Y457100D01*
X709651Y457106D01*
X709752Y457158D01*
X709855Y457204D01*
X709877Y457223D01*
X709904Y457237D01*
X709986Y457315D01*
X710072Y457388D01*
X710088Y457412D01*
X710110Y457433D01*
X710167Y457530D01*
X710230Y457625D01*
X710239Y457653D01*
X710253Y457678D01*
X710281Y457788D01*
X710315Y457896D01*
X710316Y457925D01*
X710323Y457953D01*
X710320Y458067D01*
X710323Y458180D01*
X710315Y458208D01*
X710314Y458238D01*
X710279Y458346D01*
X710251Y458455D01*
X710236Y458480D01*
X710227Y458508D01*
X710181Y458572D01*
X710106Y458699D01*
X710060Y458742D01*
X710032Y458781D01*
X709383Y459430D01*
X708279Y460950D01*
X707426Y462625D01*
X706845Y464412D01*
X706724Y465176D01*
X717474Y465176D01*
X717532Y465185D01*
X717590Y465183D01*
X717672Y465204D01*
X717755Y465216D01*
X717809Y465240D01*
X717865Y465255D01*
X717938Y465298D01*
X718015Y465332D01*
X718059Y465370D01*
X718109Y465400D01*
X718167Y465462D01*
X718232Y465516D01*
X718264Y465565D01*
X718304Y465607D01*
X718342Y465683D01*
X718389Y465753D01*
X718407Y465809D01*
X718433Y465861D01*
X718445Y465929D01*
X718475Y466024D01*
X718478Y466124D01*
X718489Y466192D01*
X718489Y467208D01*
X719506Y467208D01*
X719564Y467217D01*
X719622Y467215D01*
X719704Y467236D01*
X719787Y467248D01*
X719841Y467272D01*
X719897Y467287D01*
X719970Y467330D01*
X720047Y467365D01*
X720091Y467402D01*
X720142Y467432D01*
X720199Y467494D01*
X720264Y467548D01*
X720296Y467597D01*
X720336Y467640D01*
X720375Y467715D01*
X720421Y467785D01*
X720439Y467841D01*
X720466Y467893D01*
X720477Y467961D01*
X720507Y468056D01*
X720510Y468156D01*
X720521Y468224D01*
X720521Y478973D01*
X721285Y478852D01*
X723073Y478272D01*
X724747Y477419D01*
X726267Y476314D01*
X727596Y474985D01*
X728701Y473465D01*
X729554Y471791D01*
X730159Y469927D01*
X730172Y469901D01*
X730179Y469872D01*
X730185Y469862D01*
X730186Y469855D01*
X730200Y469832D01*
X730211Y469799D01*
X730252Y469737D01*
X730284Y469672D01*
X730303Y469651D01*
X730318Y469624D01*
X730331Y469611D01*
X730332Y469611D01*
X730338Y469605D01*
X730347Y469596D01*
X730369Y469563D01*
X730427Y469514D01*
X730475Y469461D01*
X730499Y469446D01*
X730521Y469425D01*
X730556Y469406D01*
X730587Y469380D01*
X730656Y469349D01*
X730717Y469311D01*
X730744Y469304D01*
X730771Y469289D01*
X730810Y469281D01*
X730846Y469264D01*
X730922Y469254D01*
X730990Y469235D01*
X731018Y469235D01*
X731048Y469228D01*
X731088Y469231D01*
X731128Y469225D01*
X731204Y469236D01*
X731275Y469237D01*
X731301Y469245D01*
X731332Y469247D01*
X731370Y469260D01*
X731409Y469266D01*
X731479Y469297D01*
X731547Y469318D01*
X731571Y469333D01*
X731599Y469343D01*
X731632Y469367D01*
X731668Y469383D01*
X731726Y469432D01*
X731787Y469471D01*
X731805Y469492D01*
X731830Y469510D01*
X731854Y469542D01*
X731885Y469568D01*
X731916Y469617D01*
X731919Y469622D01*
X731974Y469685D01*
X731986Y469710D01*
X732005Y469734D01*
X732021Y469775D01*
X732043Y469808D01*
X732051Y469833D01*
X732063Y469852D01*
X733769Y473970D01*
X737127Y477329D01*
X738182Y477766D01*
X738184Y477767D01*
X738185Y477767D01*
X738303Y477837D01*
X738427Y477910D01*
X738428Y477912D01*
X738430Y477912D01*
X738526Y478015D01*
X738622Y478117D01*
X738623Y478119D01*
X738624Y478120D01*
X738687Y478242D01*
X738753Y478370D01*
X738753Y478371D01*
X738754Y478373D01*
X738756Y478388D01*
X738808Y478649D01*
X738805Y478679D01*
X738809Y478704D01*
X738809Y487543D01*
X738802Y487595D01*
X738802Y487622D01*
X738796Y487645D01*
X738794Y487717D01*
X738777Y487769D01*
X738769Y487824D01*
X738733Y487904D01*
X738707Y487987D01*
X738679Y488026D01*
X738653Y488083D01*
X738557Y488197D01*
X738512Y488260D01*
X731923Y494849D01*
X731853Y494902D01*
X731789Y494962D01*
X731740Y494987D01*
X731695Y495020D01*
X731614Y495052D01*
X731536Y495091D01*
X731488Y495099D01*
X731430Y495122D01*
X731282Y495134D01*
X731205Y495147D01*
X717479Y495147D01*
X715612Y495920D01*
X714040Y497492D01*
X709543Y501990D01*
X709518Y502008D01*
X709498Y502032D01*
X709431Y502073D01*
X709315Y502160D01*
X709255Y502183D01*
X709213Y502210D01*
X707560Y502894D01*
X705917Y504538D01*
X705027Y506685D01*
X705027Y509010D01*
X705712Y510663D01*
X705720Y510693D01*
X705734Y510720D01*
X705747Y510798D01*
X705783Y510938D01*
X705781Y511002D01*
X705789Y511051D01*
X705789Y550012D01*
X705781Y550069D01*
X705782Y550128D01*
X705761Y550210D01*
X705749Y550293D01*
X705725Y550346D01*
X705711Y550403D01*
X705668Y550475D01*
X705633Y550553D01*
X705595Y550597D01*
X705565Y550647D01*
X705504Y550705D01*
X705449Y550770D01*
X705401Y550802D01*
X705358Y550842D01*
X705283Y550880D01*
X705213Y550927D01*
X705157Y550945D01*
X705105Y550971D01*
X705037Y550983D01*
X704942Y551013D01*
X704842Y551015D01*
X704774Y551027D01*
X669219Y551027D01*
X667352Y551800D01*
X663823Y555330D01*
X663798Y555348D01*
X663778Y555372D01*
X663711Y555413D01*
X663595Y555500D01*
X663535Y555523D01*
X663493Y555550D01*
X661840Y556234D01*
X660197Y557878D01*
X659307Y560025D01*
X659307Y562350D01*
X660197Y564497D01*
X661840Y566141D01*
X663988Y567030D01*
X666312Y567030D01*
X668460Y566141D01*
X670103Y564497D01*
X670788Y562844D01*
X670803Y562818D01*
X670813Y562788D01*
X670859Y562724D01*
X670932Y562599D01*
X670979Y562555D01*
X671008Y562515D01*
X672037Y561486D01*
X672107Y561433D01*
X672171Y561373D01*
X672220Y561348D01*
X672264Y561315D01*
X672346Y561284D01*
X672424Y561244D01*
X672471Y561236D01*
X672530Y561214D01*
X672678Y561201D01*
X672755Y561188D01*
X705235Y561188D01*
X705264Y561192D01*
X705294Y561190D01*
X705405Y561212D01*
X705517Y561228D01*
X705543Y561240D01*
X705572Y561246D01*
X705673Y561298D01*
X705776Y561344D01*
X705798Y561363D01*
X705825Y561377D01*
X705907Y561455D01*
X705993Y561528D01*
X706009Y561552D01*
X706031Y561573D01*
X706088Y561670D01*
X706151Y561765D01*
X706160Y561793D01*
X706174Y561818D01*
X706202Y561928D01*
X706236Y562036D01*
X706237Y562065D01*
X706244Y562094D01*
X706241Y562207D01*
X706244Y562320D01*
X706236Y562348D01*
X706235Y562378D01*
X706200Y562486D01*
X706172Y562595D01*
X706157Y562620D01*
X706148Y562648D01*
X706102Y562712D01*
X706027Y562839D01*
X705981Y562882D01*
X705953Y562922D01*
X705917Y562958D01*
X705027Y565105D01*
X705027Y567430D01*
X705917Y569577D01*
X707560Y571221D01*
X709708Y572110D01*
X712032Y572110D01*
X714180Y571221D01*
X714771Y570630D01*
X714840Y570577D01*
X714904Y570517D01*
X714954Y570492D01*
X714998Y570459D01*
X715079Y570428D01*
X715157Y570388D01*
X715205Y570380D01*
X715263Y570358D01*
X715411Y570345D01*
X715488Y570332D01*
X721335Y570332D01*
X721422Y570345D01*
X721509Y570347D01*
X721562Y570364D01*
X721616Y570372D01*
X721696Y570408D01*
X721779Y570435D01*
X721819Y570463D01*
X721876Y570488D01*
X721989Y570584D01*
X722053Y570630D01*
X723787Y572364D01*
X738592Y572364D01*
X740081Y570876D01*
X740081Y562204D01*
X740089Y562146D01*
X740087Y562087D01*
X740109Y562006D01*
X740120Y561922D01*
X740144Y561869D01*
X740159Y561812D01*
X740202Y561740D01*
X740237Y561663D01*
X740274Y561618D01*
X740304Y561568D01*
X740366Y561510D01*
X740420Y561446D01*
X740469Y561413D01*
X740512Y561373D01*
X740587Y561335D01*
X740657Y561288D01*
X740713Y561270D01*
X740765Y561244D01*
X740833Y561232D01*
X740928Y561202D01*
X741028Y561200D01*
X741096Y561188D01*
X794026Y561188D01*
X794057Y561193D01*
X794087Y561190D01*
X794164Y561208D01*
X794308Y561228D01*
X794366Y561254D01*
X794415Y561266D01*
X795573Y561746D01*
X795600Y561761D01*
X795629Y561771D01*
X795693Y561816D01*
X795818Y561890D01*
X795862Y561937D01*
X795903Y561966D01*
X808020Y574083D01*
X809592Y575655D01*
X811459Y576428D01*
X830813Y576428D01*
X830898Y576440D01*
X830984Y576443D01*
X831038Y576460D01*
X831094Y576468D01*
X831172Y576503D01*
X831254Y576529D01*
X831302Y576561D01*
X831353Y576584D01*
X831419Y576640D01*
X831490Y576688D01*
X831527Y576731D01*
X831570Y576768D01*
X831618Y576840D01*
X831673Y576905D01*
X831697Y576957D01*
X831728Y577005D01*
X831754Y577087D01*
X831789Y577165D01*
X831797Y577221D01*
X831814Y577276D01*
X831816Y577362D01*
X831828Y577447D01*
X831820Y577503D01*
X831821Y577560D01*
X831799Y577643D01*
X831787Y577728D01*
X831764Y577780D01*
X831749Y577835D01*
X831705Y577909D01*
X831670Y577987D01*
X831633Y578030D01*
X831604Y578079D01*
X831541Y578138D01*
X831486Y578204D01*
X831444Y578230D01*
X831397Y578274D01*
X831268Y578340D01*
X831201Y578382D01*
X829480Y579094D01*
X827837Y580738D01*
X826947Y582885D01*
X826947Y585210D01*
X827837Y587357D01*
X829480Y589001D01*
X831628Y589890D01*
X833952Y589890D01*
X836100Y589001D01*
X836945Y588156D01*
X837014Y588103D01*
X837078Y588043D01*
X837128Y588018D01*
X837172Y587985D01*
X837253Y587954D01*
X837331Y587914D01*
X837379Y587906D01*
X837437Y587884D01*
X837585Y587871D01*
X837662Y587858D01*
X902948Y587858D01*
X910261Y580546D01*
X910261Y541829D01*
X902948Y534517D01*
X883049Y534517D01*
X882962Y534505D01*
X882875Y534502D01*
X882822Y534485D01*
X882767Y534477D01*
X882687Y534441D01*
X882604Y534414D01*
X882565Y534386D01*
X882508Y534361D01*
X882395Y534265D01*
X882331Y534219D01*
X880078Y531966D01*
X880025Y531897D01*
X879965Y531833D01*
X879940Y531783D01*
X879907Y531739D01*
X879876Y531658D01*
X879836Y531580D01*
X879828Y531532D01*
X879806Y531474D01*
X879794Y531326D01*
X879781Y531249D01*
X879781Y506269D01*
X877251Y503740D01*
X877251Y503739D01*
X867388Y493877D01*
X852569Y493877D01*
X852482Y493865D01*
X852395Y493862D01*
X852342Y493845D01*
X852287Y493837D01*
X852207Y493801D01*
X852124Y493774D01*
X852085Y493746D01*
X852028Y493721D01*
X851915Y493625D01*
X851851Y493579D01*
X849598Y491326D01*
X849545Y491257D01*
X849485Y491193D01*
X849460Y491143D01*
X849427Y491099D01*
X849396Y491018D01*
X849356Y490940D01*
X849348Y490892D01*
X849326Y490834D01*
X849317Y490727D01*
X849315Y490719D01*
X849314Y490688D01*
X849314Y490686D01*
X849301Y490609D01*
X849301Y479230D01*
X849301Y479228D01*
X849301Y479227D01*
X849321Y479087D01*
X849340Y478948D01*
X849341Y478947D01*
X849341Y478945D01*
X849398Y478819D01*
X849457Y478689D01*
X849458Y478688D01*
X849458Y478686D01*
X849550Y478579D01*
X849640Y478472D01*
X849642Y478471D01*
X849643Y478470D01*
X849656Y478462D01*
X849877Y478314D01*
X849906Y478305D01*
X849927Y478292D01*
X852253Y477329D01*
X855611Y473970D01*
X857429Y469582D01*
X857429Y464833D01*
X855611Y460445D01*
X853948Y458781D01*
X853930Y458758D01*
X853908Y458739D01*
X853845Y458645D01*
X853777Y458554D01*
X853766Y458527D01*
X853750Y458502D01*
X853716Y458394D01*
X853675Y458289D01*
X853673Y458259D01*
X853664Y458231D01*
X853661Y458118D01*
X853652Y458005D01*
X853658Y457977D01*
X853657Y457947D01*
X853686Y457838D01*
X853708Y457727D01*
X853721Y457700D01*
X853729Y457672D01*
X853787Y457575D01*
X853839Y457474D01*
X853859Y457453D01*
X853874Y457428D01*
X853957Y457350D01*
X854035Y457268D01*
X854060Y457253D01*
X854081Y457233D01*
X854182Y457182D01*
X854280Y457124D01*
X854308Y457117D01*
X854334Y457104D01*
X854412Y457091D01*
X854555Y457054D01*
X854618Y457056D01*
X854665Y457048D01*
X901425Y457048D01*
X901532Y457063D01*
X901639Y457071D01*
X901672Y457083D01*
X901707Y457088D01*
X901805Y457132D01*
X901906Y457170D01*
X901934Y457190D01*
X901966Y457204D01*
X902048Y457274D01*
X902135Y457338D01*
X902156Y457366D01*
X902183Y457388D01*
X902243Y457478D01*
X902309Y457563D01*
X902321Y457596D01*
X902341Y457625D01*
X902373Y457728D01*
X902413Y457828D01*
X902416Y457863D01*
X902426Y457896D01*
X902429Y458003D01*
X902439Y458111D01*
X902433Y458145D01*
X902434Y458180D01*
X902406Y458284D01*
X902386Y458390D01*
X902371Y458421D01*
X902362Y458455D01*
X902307Y458548D01*
X902258Y458644D01*
X902234Y458669D01*
X902217Y458699D01*
X902138Y458773D01*
X902064Y458852D01*
X902037Y458868D01*
X902009Y458894D01*
X901818Y458991D01*
X901772Y459018D01*
X897770Y460474D01*
X891800Y465484D01*
X887903Y472233D01*
X886550Y479908D01*
X887903Y487582D01*
X891800Y494331D01*
X897770Y499341D01*
X905093Y502006D01*
X912886Y502006D01*
X920210Y499341D01*
X926180Y494332D01*
X929770Y488113D01*
X929782Y488098D01*
X929790Y488080D01*
X929869Y487986D01*
X929945Y487889D01*
X929961Y487878D01*
X929973Y487863D01*
X930075Y487795D01*
X930176Y487722D01*
X930194Y487716D01*
X930210Y487705D01*
X930327Y487668D01*
X930443Y487626D01*
X930462Y487625D01*
X930481Y487619D01*
X930604Y487616D01*
X930727Y487608D01*
X930746Y487612D01*
X930765Y487612D01*
X930884Y487643D01*
X931004Y487669D01*
X931021Y487679D01*
X931040Y487683D01*
X931146Y487746D01*
X931254Y487805D01*
X931268Y487819D01*
X931285Y487829D01*
X931369Y487918D01*
X931457Y488005D01*
X931466Y488022D01*
X931479Y488036D01*
X931535Y488145D01*
X931596Y488253D01*
X931600Y488272D01*
X931609Y488289D01*
X931621Y488361D01*
X931660Y488530D01*
X931658Y488580D01*
X931664Y488620D01*
X931725Y622147D01*
X931716Y622205D01*
X931718Y622264D01*
X931697Y622345D01*
X931685Y622429D01*
X931661Y622482D01*
X931646Y622539D01*
X931603Y622611D01*
X931569Y622688D01*
X931531Y622733D01*
X931501Y622783D01*
X931439Y622841D01*
X931385Y622905D01*
X931336Y622938D01*
X931293Y622978D01*
X931218Y623016D01*
X931149Y623063D01*
X931093Y623081D01*
X931040Y623107D01*
X930972Y623119D01*
X930878Y623149D01*
X930777Y623151D01*
X930709Y623163D01*
X633146Y623163D01*
X633088Y623155D01*
X633029Y623156D01*
X632948Y623135D01*
X632864Y623123D01*
X632811Y623099D01*
X632754Y623084D01*
X632682Y623041D01*
X632605Y623007D01*
X632560Y622969D01*
X632510Y622939D01*
X632452Y622878D01*
X632388Y622823D01*
X632355Y622774D01*
X632315Y622732D01*
X632277Y622657D01*
X632230Y622586D01*
X632213Y622531D01*
X632186Y622479D01*
X632175Y622411D01*
X632145Y622315D01*
X632142Y622216D01*
X632131Y622148D01*
X632131Y488301D01*
X632133Y488281D01*
X632131Y488262D01*
X632153Y488141D01*
X632170Y488019D01*
X632178Y488001D01*
X632182Y487982D01*
X632236Y487872D01*
X632287Y487760D01*
X632299Y487745D01*
X632308Y487727D01*
X632391Y487636D01*
X632470Y487543D01*
X632487Y487532D01*
X632500Y487517D01*
X632605Y487453D01*
X632707Y487385D01*
X632726Y487379D01*
X632742Y487369D01*
X632861Y487336D01*
X632978Y487299D01*
X632998Y487299D01*
X633016Y487294D01*
X633139Y487295D01*
X633262Y487292D01*
X633281Y487297D01*
X633301Y487297D01*
X633419Y487333D01*
X633537Y487364D01*
X633554Y487374D01*
X633573Y487379D01*
X633676Y487446D01*
X633782Y487509D01*
X633795Y487523D01*
X633811Y487534D01*
X633858Y487591D01*
X633976Y487716D01*
X633999Y487762D01*
X634025Y487793D01*
X637800Y494331D01*
X643770Y499341D01*
X651093Y502006D01*
X658886Y502006D01*
X666210Y499341D01*
X672180Y494332D01*
X676076Y487582D01*
X677429Y479908D01*
X676076Y472233D01*
X672180Y465484D01*
X666210Y460474D01*
X662207Y459018D01*
X662112Y458967D01*
X662014Y458923D01*
X661987Y458900D01*
X661956Y458884D01*
X661879Y458809D01*
X661797Y458739D01*
X661777Y458710D01*
X661752Y458686D01*
X661699Y458592D01*
X661639Y458502D01*
X661629Y458469D01*
X661611Y458439D01*
X661586Y458334D01*
X661553Y458231D01*
X661552Y458197D01*
X661544Y458163D01*
X661549Y458055D01*
X661546Y457947D01*
X661555Y457914D01*
X661556Y457879D01*
X661591Y457776D01*
X661618Y457672D01*
X661636Y457642D01*
X661647Y457609D01*
X661708Y457520D01*
X661763Y457428D01*
X661788Y457404D01*
X661808Y457375D01*
X661892Y457307D01*
X661970Y457233D01*
X662001Y457217D01*
X662028Y457195D01*
X662127Y457153D01*
X662224Y457104D01*
X662254Y457099D01*
X662290Y457084D01*
X662502Y457057D01*
X662555Y457048D01*
X709314Y457048D01*
X709343Y457052D01*
G37*
G36*
X394561Y457052D02*
X394561Y457052D01*
X394590Y457050D01*
X394701Y457072D01*
X394813Y457088D01*
X394840Y457100D01*
X394869Y457106D01*
X394970Y457158D01*
X395073Y457204D01*
X395095Y457223D01*
X395121Y457237D01*
X395203Y457315D01*
X395290Y457388D01*
X395306Y457412D01*
X395327Y457433D01*
X395385Y457530D01*
X395447Y457625D01*
X395456Y457653D01*
X395471Y457678D01*
X395499Y457788D01*
X395533Y457896D01*
X395534Y457925D01*
X395541Y457953D01*
X395538Y458067D01*
X395541Y458180D01*
X395533Y458208D01*
X395532Y458238D01*
X395497Y458346D01*
X395469Y458455D01*
X395454Y458480D01*
X395445Y458508D01*
X395399Y458572D01*
X395323Y458699D01*
X395278Y458742D01*
X395250Y458781D01*
X394601Y459430D01*
X393497Y460950D01*
X392644Y462625D01*
X392063Y464412D01*
X391942Y465176D01*
X402691Y465176D01*
X402749Y465185D01*
X402808Y465183D01*
X402889Y465204D01*
X402973Y465216D01*
X403026Y465240D01*
X403083Y465255D01*
X403155Y465298D01*
X403232Y465332D01*
X403277Y465370D01*
X403327Y465400D01*
X403385Y465462D01*
X403449Y465516D01*
X403482Y465565D01*
X403522Y465607D01*
X403560Y465683D01*
X403607Y465753D01*
X403625Y465809D01*
X403651Y465861D01*
X403663Y465929D01*
X403693Y466024D01*
X403695Y466124D01*
X403707Y466192D01*
X403707Y467208D01*
X404724Y467208D01*
X404781Y467217D01*
X404840Y467215D01*
X404922Y467236D01*
X405005Y467248D01*
X405058Y467272D01*
X405115Y467287D01*
X405187Y467330D01*
X405264Y467365D01*
X405309Y467402D01*
X405359Y467432D01*
X405417Y467494D01*
X405481Y467548D01*
X405514Y467597D01*
X405554Y467640D01*
X405592Y467715D01*
X405639Y467785D01*
X405657Y467841D01*
X405683Y467893D01*
X405695Y467961D01*
X405725Y468056D01*
X405727Y468156D01*
X405739Y468224D01*
X405739Y478973D01*
X406503Y478852D01*
X408291Y478272D01*
X409965Y477419D01*
X411485Y476314D01*
X412814Y474985D01*
X413919Y473465D01*
X414772Y471791D01*
X415377Y469927D01*
X415390Y469901D01*
X415397Y469872D01*
X415402Y469862D01*
X415404Y469855D01*
X415418Y469832D01*
X415429Y469799D01*
X415470Y469737D01*
X415502Y469672D01*
X415521Y469651D01*
X415536Y469624D01*
X415549Y469611D01*
X415556Y469605D01*
X415565Y469596D01*
X415587Y469563D01*
X415644Y469514D01*
X415693Y469461D01*
X415717Y469446D01*
X415739Y469425D01*
X415774Y469406D01*
X415804Y469380D01*
X415874Y469349D01*
X415934Y469311D01*
X415961Y469304D01*
X415988Y469289D01*
X416028Y469281D01*
X416064Y469264D01*
X416139Y469254D01*
X416208Y469235D01*
X416236Y469235D01*
X416266Y469228D01*
X416306Y469231D01*
X416346Y469225D01*
X416421Y469236D01*
X416492Y469237D01*
X416519Y469245D01*
X416550Y469247D01*
X416587Y469260D01*
X416627Y469266D01*
X416697Y469297D01*
X416765Y469318D01*
X416788Y469333D01*
X416817Y469343D01*
X416850Y469367D01*
X416886Y469383D01*
X416944Y469432D01*
X417004Y469471D01*
X417023Y469492D01*
X417047Y469510D01*
X417072Y469542D01*
X417103Y469568D01*
X417133Y469617D01*
X417137Y469622D01*
X417192Y469685D01*
X417204Y469710D01*
X417222Y469734D01*
X417239Y469775D01*
X417261Y469808D01*
X417269Y469833D01*
X417281Y469852D01*
X418986Y473970D01*
X422345Y477329D01*
X423400Y477766D01*
X423402Y477767D01*
X423403Y477767D01*
X423520Y477836D01*
X423645Y477910D01*
X423646Y477912D01*
X423647Y477912D01*
X423743Y478014D01*
X423840Y478117D01*
X423841Y478118D01*
X423842Y478120D01*
X423906Y478245D01*
X423970Y478370D01*
X423971Y478371D01*
X423971Y478373D01*
X423974Y478388D01*
X424025Y478649D01*
X424023Y478679D01*
X424027Y478704D01*
X424027Y487543D01*
X424019Y487595D01*
X424020Y487622D01*
X424014Y487645D01*
X424012Y487717D01*
X423995Y487769D01*
X423987Y487824D01*
X423951Y487904D01*
X423924Y487987D01*
X423896Y488026D01*
X423871Y488083D01*
X423775Y488197D01*
X423729Y488260D01*
X417140Y494849D01*
X417071Y494902D01*
X417007Y494962D01*
X416957Y494987D01*
X416913Y495020D01*
X416832Y495052D01*
X416754Y495091D01*
X416706Y495099D01*
X416648Y495122D01*
X416500Y495134D01*
X416423Y495147D01*
X402697Y495147D01*
X400830Y495920D01*
X399258Y497492D01*
X394760Y501990D01*
X394736Y502008D01*
X394716Y502032D01*
X394649Y502073D01*
X394533Y502160D01*
X394473Y502183D01*
X394431Y502210D01*
X392778Y502894D01*
X391134Y504538D01*
X390245Y506685D01*
X390245Y509010D01*
X390930Y510663D01*
X390937Y510693D01*
X390951Y510720D01*
X390964Y510798D01*
X391001Y510938D01*
X390999Y511002D01*
X391007Y511051D01*
X391007Y550012D01*
X390999Y550069D01*
X391000Y550128D01*
X390979Y550210D01*
X390967Y550293D01*
X390943Y550346D01*
X390928Y550403D01*
X390885Y550475D01*
X390851Y550553D01*
X390813Y550597D01*
X390783Y550647D01*
X390722Y550705D01*
X390667Y550770D01*
X390618Y550802D01*
X390576Y550842D01*
X390501Y550880D01*
X390430Y550927D01*
X390375Y550945D01*
X390323Y550971D01*
X390255Y550983D01*
X390159Y551013D01*
X390060Y551015D01*
X389992Y551027D01*
X354437Y551027D01*
X352570Y551800D01*
X350998Y553372D01*
X349040Y555330D01*
X349016Y555348D01*
X348996Y555372D01*
X348929Y555413D01*
X348813Y555500D01*
X348753Y555523D01*
X348711Y555550D01*
X347058Y556234D01*
X345414Y557878D01*
X344525Y560025D01*
X344525Y562350D01*
X345414Y564497D01*
X347058Y566141D01*
X349205Y567030D01*
X351530Y567030D01*
X353677Y566141D01*
X355321Y564497D01*
X356006Y562844D01*
X356021Y562818D01*
X356031Y562788D01*
X356076Y562724D01*
X356150Y562599D01*
X356197Y562555D01*
X356226Y562515D01*
X357255Y561486D01*
X357325Y561433D01*
X357388Y561373D01*
X357438Y561348D01*
X357482Y561315D01*
X357564Y561284D01*
X357642Y561244D01*
X357689Y561236D01*
X357748Y561214D01*
X357895Y561201D01*
X357973Y561188D01*
X390453Y561188D01*
X390482Y561192D01*
X390511Y561190D01*
X390622Y561212D01*
X390734Y561228D01*
X390761Y561240D01*
X390790Y561246D01*
X390891Y561298D01*
X390994Y561344D01*
X391016Y561363D01*
X391042Y561377D01*
X391125Y561455D01*
X391211Y561528D01*
X391227Y561552D01*
X391248Y561573D01*
X391306Y561670D01*
X391368Y561765D01*
X391377Y561793D01*
X391392Y561818D01*
X391420Y561928D01*
X391454Y562036D01*
X391455Y562065D01*
X391462Y562094D01*
X391459Y562207D01*
X391462Y562320D01*
X391454Y562348D01*
X391453Y562378D01*
X391418Y562486D01*
X391390Y562595D01*
X391375Y562620D01*
X391366Y562648D01*
X391320Y562712D01*
X391244Y562839D01*
X391199Y562882D01*
X391171Y562922D01*
X391134Y562958D01*
X390245Y565105D01*
X390245Y567430D01*
X391134Y569577D01*
X392778Y571221D01*
X394925Y572110D01*
X397250Y572110D01*
X399397Y571221D01*
X399988Y570630D01*
X400058Y570577D01*
X400122Y570517D01*
X400171Y570492D01*
X400216Y570459D01*
X400297Y570428D01*
X400375Y570388D01*
X400423Y570380D01*
X400481Y570358D01*
X400629Y570345D01*
X400706Y570332D01*
X406553Y570332D01*
X406639Y570345D01*
X406727Y570347D01*
X406779Y570364D01*
X406834Y570372D01*
X406914Y570408D01*
X406997Y570435D01*
X407036Y570463D01*
X407094Y570488D01*
X407207Y570584D01*
X407271Y570630D01*
X409005Y572364D01*
X423810Y572364D01*
X425298Y570876D01*
X425298Y562204D01*
X425307Y562146D01*
X425305Y562087D01*
X425326Y562006D01*
X425338Y561922D01*
X425362Y561869D01*
X425377Y561812D01*
X425420Y561740D01*
X425454Y561663D01*
X425492Y561618D01*
X425522Y561568D01*
X425584Y561510D01*
X425638Y561446D01*
X425687Y561413D01*
X425729Y561373D01*
X425804Y561335D01*
X425875Y561288D01*
X425931Y561270D01*
X425983Y561244D01*
X426051Y561232D01*
X426146Y561202D01*
X426246Y561200D01*
X426314Y561188D01*
X479244Y561188D01*
X479274Y561193D01*
X479305Y561190D01*
X479382Y561208D01*
X479525Y561228D01*
X479584Y561254D01*
X479632Y561266D01*
X480791Y561746D01*
X480818Y561761D01*
X480847Y561771D01*
X480911Y561816D01*
X481036Y561890D01*
X481080Y561937D01*
X481120Y561966D01*
X494810Y575655D01*
X496677Y576428D01*
X516030Y576428D01*
X516115Y576440D01*
X516201Y576443D01*
X516256Y576460D01*
X516312Y576468D01*
X516390Y576503D01*
X516472Y576529D01*
X516519Y576561D01*
X516571Y576584D01*
X516637Y576640D01*
X516708Y576688D01*
X516745Y576731D01*
X516788Y576768D01*
X516836Y576840D01*
X516891Y576905D01*
X516914Y576957D01*
X516946Y577005D01*
X516972Y577087D01*
X517007Y577165D01*
X517014Y577221D01*
X517032Y577276D01*
X517034Y577362D01*
X517046Y577447D01*
X517037Y577503D01*
X517039Y577560D01*
X517017Y577643D01*
X517005Y577728D01*
X516981Y577780D01*
X516967Y577835D01*
X516923Y577909D01*
X516888Y577987D01*
X516851Y578030D01*
X516822Y578079D01*
X516759Y578138D01*
X516704Y578204D01*
X516662Y578230D01*
X516615Y578274D01*
X516485Y578340D01*
X516419Y578382D01*
X514698Y579094D01*
X513054Y580738D01*
X512165Y582885D01*
X512165Y585210D01*
X513054Y587357D01*
X514698Y589001D01*
X516845Y589890D01*
X519170Y589890D01*
X521317Y589001D01*
X522162Y588156D01*
X522232Y588103D01*
X522296Y588043D01*
X522345Y588018D01*
X522390Y587985D01*
X522471Y587954D01*
X522549Y587914D01*
X522597Y587906D01*
X522655Y587884D01*
X522803Y587871D01*
X522880Y587858D01*
X588166Y587858D01*
X595478Y580546D01*
X595478Y541829D01*
X588166Y534517D01*
X568267Y534517D01*
X568180Y534505D01*
X568093Y534502D01*
X568040Y534485D01*
X567985Y534477D01*
X567905Y534441D01*
X567822Y534414D01*
X567783Y534386D01*
X567726Y534361D01*
X567612Y534265D01*
X567549Y534219D01*
X565296Y531966D01*
X565243Y531897D01*
X565183Y531833D01*
X565158Y531783D01*
X565125Y531739D01*
X565094Y531658D01*
X565054Y531580D01*
X565046Y531532D01*
X565024Y531474D01*
X565011Y531326D01*
X564998Y531249D01*
X564998Y506269D01*
X552606Y493877D01*
X537787Y493877D01*
X537700Y493865D01*
X537613Y493862D01*
X537560Y493845D01*
X537505Y493837D01*
X537425Y493801D01*
X537342Y493774D01*
X537303Y493746D01*
X537246Y493721D01*
X537132Y493625D01*
X537069Y493579D01*
X534816Y491326D01*
X534763Y491257D01*
X534703Y491193D01*
X534678Y491143D01*
X534645Y491099D01*
X534614Y491018D01*
X534574Y490940D01*
X534566Y490892D01*
X534544Y490834D01*
X534535Y490727D01*
X534532Y490719D01*
X534532Y490688D01*
X534531Y490686D01*
X534518Y490609D01*
X534518Y479230D01*
X534519Y479228D01*
X534518Y479227D01*
X534539Y479087D01*
X534558Y478948D01*
X534559Y478947D01*
X534559Y478945D01*
X534616Y478819D01*
X534674Y478689D01*
X534675Y478688D01*
X534676Y478686D01*
X534767Y478579D01*
X534858Y478472D01*
X534859Y478471D01*
X534860Y478470D01*
X534873Y478462D01*
X535095Y478314D01*
X535124Y478305D01*
X535145Y478292D01*
X537470Y477329D01*
X540829Y473970D01*
X542646Y469582D01*
X542646Y464833D01*
X540829Y460445D01*
X539165Y458781D01*
X539148Y458758D01*
X539125Y458739D01*
X539063Y458645D01*
X538994Y458554D01*
X538984Y458527D01*
X538968Y458502D01*
X538934Y458394D01*
X538893Y458289D01*
X538891Y458259D01*
X538882Y458231D01*
X538879Y458118D01*
X538870Y458005D01*
X538875Y457977D01*
X538875Y457947D01*
X538903Y457838D01*
X538926Y457727D01*
X538939Y457700D01*
X538947Y457672D01*
X539004Y457575D01*
X539057Y457474D01*
X539077Y457453D01*
X539092Y457428D01*
X539174Y457350D01*
X539252Y457268D01*
X539278Y457253D01*
X539299Y457233D01*
X539400Y457182D01*
X539498Y457124D01*
X539526Y457117D01*
X539552Y457104D01*
X539630Y457091D01*
X539773Y457054D01*
X539836Y457056D01*
X539883Y457048D01*
X586643Y457048D01*
X586750Y457063D01*
X586857Y457071D01*
X586890Y457083D01*
X586924Y457088D01*
X587023Y457132D01*
X587124Y457170D01*
X587152Y457190D01*
X587184Y457204D01*
X587266Y457274D01*
X587353Y457338D01*
X587374Y457366D01*
X587401Y457388D01*
X587460Y457478D01*
X587526Y457563D01*
X587539Y457596D01*
X587558Y457625D01*
X587591Y457728D01*
X587630Y457828D01*
X587634Y457863D01*
X587644Y457896D01*
X587647Y458003D01*
X587657Y458111D01*
X587651Y458145D01*
X587651Y458180D01*
X587624Y458284D01*
X587604Y458390D01*
X587588Y458421D01*
X587580Y458455D01*
X587524Y458548D01*
X587476Y458644D01*
X587452Y458669D01*
X587434Y458699D01*
X587356Y458773D01*
X587282Y458852D01*
X587255Y458868D01*
X587227Y458894D01*
X587036Y458991D01*
X586990Y459018D01*
X582988Y460474D01*
X577018Y465484D01*
X573121Y472233D01*
X571768Y479908D01*
X573121Y487582D01*
X577018Y494331D01*
X582988Y499341D01*
X590311Y502006D01*
X598104Y502006D01*
X605427Y499341D01*
X611397Y494332D01*
X614988Y488113D01*
X615000Y488098D01*
X615008Y488080D01*
X615087Y487986D01*
X615163Y487889D01*
X615179Y487878D01*
X615191Y487863D01*
X615293Y487795D01*
X615393Y487722D01*
X615412Y487716D01*
X615428Y487705D01*
X615545Y487668D01*
X615661Y487626D01*
X615680Y487625D01*
X615699Y487619D01*
X615822Y487616D01*
X615945Y487608D01*
X615964Y487612D01*
X615983Y487612D01*
X616102Y487643D01*
X616222Y487669D01*
X616239Y487679D01*
X616258Y487683D01*
X616364Y487746D01*
X616472Y487805D01*
X616486Y487819D01*
X616502Y487829D01*
X616587Y487918D01*
X616674Y488005D01*
X616684Y488022D01*
X616697Y488036D01*
X616753Y488145D01*
X616813Y488253D01*
X616818Y488272D01*
X616827Y488289D01*
X616839Y488361D01*
X616878Y488530D01*
X616876Y488580D01*
X616882Y488620D01*
X616942Y622147D01*
X616934Y622205D01*
X616936Y622264D01*
X616914Y622345D01*
X616903Y622429D01*
X616879Y622482D01*
X616864Y622539D01*
X616821Y622611D01*
X616786Y622688D01*
X616749Y622733D01*
X616719Y622783D01*
X616657Y622841D01*
X616603Y622905D01*
X616554Y622938D01*
X616511Y622978D01*
X616436Y623016D01*
X616366Y623063D01*
X616310Y623081D01*
X616258Y623107D01*
X616190Y623119D01*
X616095Y623149D01*
X615995Y623151D01*
X615927Y623163D01*
X318364Y623163D01*
X318306Y623155D01*
X318247Y623156D01*
X318166Y623135D01*
X318082Y623123D01*
X318029Y623099D01*
X317972Y623084D01*
X317900Y623041D01*
X317823Y623007D01*
X317778Y622969D01*
X317728Y622939D01*
X317670Y622878D01*
X317606Y622823D01*
X317573Y622774D01*
X317533Y622732D01*
X317495Y622657D01*
X317448Y622586D01*
X317430Y622531D01*
X317404Y622479D01*
X317392Y622411D01*
X317362Y622315D01*
X317360Y622216D01*
X317348Y622148D01*
X317348Y488301D01*
X317351Y488281D01*
X317349Y488262D01*
X317371Y488141D01*
X317388Y488019D01*
X317396Y488001D01*
X317400Y487982D01*
X317454Y487872D01*
X317504Y487760D01*
X317517Y487745D01*
X317526Y487727D01*
X317609Y487636D01*
X317688Y487543D01*
X317704Y487532D01*
X317718Y487517D01*
X317823Y487453D01*
X317925Y487385D01*
X317943Y487379D01*
X317960Y487369D01*
X318079Y487336D01*
X318196Y487299D01*
X318215Y487299D01*
X318234Y487294D01*
X318357Y487295D01*
X318480Y487292D01*
X318499Y487297D01*
X318518Y487297D01*
X318636Y487333D01*
X318755Y487364D01*
X318772Y487374D01*
X318791Y487379D01*
X318894Y487446D01*
X318999Y487509D01*
X319013Y487523D01*
X319029Y487534D01*
X319076Y487591D01*
X319194Y487716D01*
X319217Y487762D01*
X319243Y487793D01*
X323018Y494331D01*
X328988Y499341D01*
X336311Y502006D01*
X344104Y502006D01*
X351427Y499341D01*
X357397Y494332D01*
X361294Y487582D01*
X362647Y479908D01*
X361294Y472233D01*
X357397Y465484D01*
X351427Y460474D01*
X347425Y459018D01*
X347330Y458967D01*
X347231Y458923D01*
X347205Y458900D01*
X347174Y458884D01*
X347097Y458809D01*
X347014Y458739D01*
X346995Y458710D01*
X346970Y458686D01*
X346917Y458592D01*
X346857Y458502D01*
X346846Y458469D01*
X346829Y458439D01*
X346804Y458334D01*
X346771Y458231D01*
X346770Y458197D01*
X346762Y458163D01*
X346767Y458055D01*
X346764Y457947D01*
X346773Y457914D01*
X346774Y457879D01*
X346808Y457776D01*
X346836Y457672D01*
X346853Y457642D01*
X346864Y457609D01*
X346926Y457520D01*
X346981Y457428D01*
X347006Y457404D01*
X347026Y457375D01*
X347109Y457307D01*
X347188Y457233D01*
X347219Y457217D01*
X347246Y457195D01*
X347345Y457153D01*
X347441Y457104D01*
X347472Y457099D01*
X347507Y457084D01*
X347720Y457057D01*
X347772Y457048D01*
X394532Y457048D01*
X394561Y457052D01*
G37*
G36*
X394561Y2545D02*
X394561Y2545D01*
X394590Y2542D01*
X394701Y2565D01*
X394813Y2581D01*
X394840Y2593D01*
X394869Y2598D01*
X394970Y2651D01*
X395073Y2697D01*
X395095Y2716D01*
X395121Y2729D01*
X395203Y2807D01*
X395290Y2880D01*
X395306Y2905D01*
X395327Y2925D01*
X395385Y3023D01*
X395447Y3117D01*
X395456Y3145D01*
X395471Y3170D01*
X395499Y3280D01*
X395533Y3388D01*
X395534Y3418D01*
X395541Y3446D01*
X395538Y3559D01*
X395541Y3672D01*
X395533Y3701D01*
X395532Y3730D01*
X395497Y3838D01*
X395469Y3947D01*
X395454Y3973D01*
X395445Y4001D01*
X395399Y4065D01*
X395323Y4192D01*
X395278Y4235D01*
X395250Y4274D01*
X394601Y4922D01*
X393497Y6443D01*
X392644Y8117D01*
X392063Y9904D01*
X391942Y10669D01*
X402691Y10669D01*
X402749Y10677D01*
X402808Y10675D01*
X402889Y10697D01*
X402973Y10709D01*
X403026Y10733D01*
X403083Y10747D01*
X403155Y10790D01*
X403232Y10825D01*
X403277Y10863D01*
X403327Y10893D01*
X403385Y10954D01*
X403449Y11009D01*
X403482Y11057D01*
X403522Y11100D01*
X403560Y11175D01*
X403607Y11245D01*
X403625Y11301D01*
X403651Y11353D01*
X403663Y11421D01*
X403693Y11516D01*
X403695Y11616D01*
X403707Y11684D01*
X403707Y12701D01*
X404724Y12701D01*
X404781Y12709D01*
X404840Y12708D01*
X404922Y12729D01*
X405005Y12741D01*
X405058Y12765D01*
X405115Y12779D01*
X405187Y12822D01*
X405264Y12857D01*
X405309Y12895D01*
X405359Y12925D01*
X405417Y12986D01*
X405481Y13041D01*
X405514Y13089D01*
X405554Y13132D01*
X405592Y13207D01*
X405639Y13277D01*
X405657Y13333D01*
X405683Y13385D01*
X405695Y13453D01*
X405725Y13548D01*
X405727Y13648D01*
X405739Y13716D01*
X405739Y24466D01*
X406503Y24345D01*
X408291Y23764D01*
X409965Y22911D01*
X411485Y21806D01*
X412814Y20478D01*
X413919Y18957D01*
X414772Y17283D01*
X415377Y15420D01*
X415390Y15394D01*
X415397Y15364D01*
X415402Y15354D01*
X415404Y15348D01*
X415418Y15324D01*
X415429Y15291D01*
X415470Y15229D01*
X415502Y15164D01*
X415521Y15143D01*
X415536Y15117D01*
X415549Y15104D01*
X415549Y15103D01*
X415556Y15097D01*
X415565Y15088D01*
X415587Y15055D01*
X415644Y15007D01*
X415693Y14953D01*
X415717Y14939D01*
X415739Y14917D01*
X415774Y14898D01*
X415804Y14872D01*
X415874Y14841D01*
X415934Y14804D01*
X415961Y14796D01*
X415988Y14782D01*
X416028Y14773D01*
X416064Y14757D01*
X416139Y14746D01*
X416208Y14727D01*
X416236Y14727D01*
X416266Y14721D01*
X416306Y14723D01*
X416346Y14718D01*
X416421Y14729D01*
X416492Y14729D01*
X416519Y14737D01*
X416550Y14739D01*
X416587Y14753D01*
X416627Y14759D01*
X416697Y14790D01*
X416765Y14810D01*
X416788Y14825D01*
X416817Y14836D01*
X416850Y14859D01*
X416886Y14876D01*
X416944Y14925D01*
X417004Y14963D01*
X417023Y14985D01*
X417047Y15002D01*
X417072Y15034D01*
X417103Y15060D01*
X417133Y15109D01*
X417137Y15115D01*
X417192Y15177D01*
X417204Y15203D01*
X417222Y15226D01*
X417239Y15268D01*
X417261Y15300D01*
X417269Y15325D01*
X417281Y15345D01*
X418986Y19463D01*
X422345Y22821D01*
X423400Y23258D01*
X423402Y23259D01*
X423403Y23259D01*
X423520Y23329D01*
X423645Y23403D01*
X423646Y23404D01*
X423647Y23405D01*
X423743Y23506D01*
X423840Y23609D01*
X423841Y23611D01*
X423842Y23612D01*
X423906Y23737D01*
X423970Y23862D01*
X423971Y23864D01*
X423971Y23865D01*
X423974Y23880D01*
X424025Y24141D01*
X424023Y24172D01*
X424027Y24196D01*
X424027Y33035D01*
X424019Y33087D01*
X424020Y33115D01*
X424014Y33138D01*
X424012Y33209D01*
X423995Y33262D01*
X423987Y33316D01*
X423951Y33396D01*
X423924Y33479D01*
X423896Y33519D01*
X423871Y33576D01*
X423775Y33689D01*
X423729Y33753D01*
X417140Y40342D01*
X417071Y40394D01*
X417007Y40454D01*
X416957Y40480D01*
X416913Y40513D01*
X416832Y40544D01*
X416754Y40584D01*
X416706Y40592D01*
X416648Y40614D01*
X416500Y40626D01*
X416423Y40639D01*
X402697Y40639D01*
X400830Y41413D01*
X394760Y47482D01*
X394736Y47500D01*
X394716Y47524D01*
X394649Y47566D01*
X394533Y47653D01*
X394473Y47676D01*
X394431Y47702D01*
X392778Y48387D01*
X391134Y50030D01*
X390245Y52178D01*
X390245Y54502D01*
X390930Y56155D01*
X390937Y56185D01*
X390951Y56213D01*
X390964Y56290D01*
X391001Y56431D01*
X390999Y56495D01*
X391007Y56544D01*
X391007Y95504D01*
X390999Y95562D01*
X391000Y95620D01*
X390979Y95702D01*
X390967Y95786D01*
X390943Y95839D01*
X390928Y95895D01*
X390885Y95968D01*
X390851Y96045D01*
X390813Y96090D01*
X390783Y96140D01*
X390722Y96198D01*
X390667Y96262D01*
X390618Y96294D01*
X390576Y96334D01*
X390501Y96373D01*
X390430Y96420D01*
X390375Y96437D01*
X390323Y96464D01*
X390255Y96475D01*
X390159Y96505D01*
X390060Y96508D01*
X389992Y96519D01*
X354437Y96519D01*
X352570Y97293D01*
X350998Y98865D01*
X349040Y100822D01*
X349016Y100840D01*
X348996Y100864D01*
X348929Y100906D01*
X348813Y100993D01*
X348753Y101016D01*
X348711Y101042D01*
X347058Y101727D01*
X345414Y103370D01*
X344525Y105518D01*
X344525Y107842D01*
X345414Y109990D01*
X347058Y111633D01*
X349205Y112523D01*
X351530Y112523D01*
X353677Y111633D01*
X355321Y109990D01*
X356006Y108337D01*
X356021Y108310D01*
X356031Y108281D01*
X356076Y108217D01*
X356150Y108092D01*
X356197Y108047D01*
X356226Y108007D01*
X357255Y106978D01*
X357324Y106926D01*
X357388Y106866D01*
X357438Y106840D01*
X357482Y106807D01*
X357564Y106776D01*
X357642Y106736D01*
X357689Y106728D01*
X357748Y106706D01*
X357895Y106694D01*
X357973Y106681D01*
X390453Y106681D01*
X390482Y106685D01*
X390511Y106682D01*
X390622Y106705D01*
X390734Y106721D01*
X390761Y106733D01*
X390790Y106738D01*
X390891Y106791D01*
X390994Y106837D01*
X391016Y106856D01*
X391042Y106869D01*
X391125Y106947D01*
X391211Y107020D01*
X391227Y107045D01*
X391248Y107065D01*
X391306Y107163D01*
X391368Y107257D01*
X391377Y107285D01*
X391392Y107310D01*
X391420Y107420D01*
X391454Y107528D01*
X391455Y107557D01*
X391462Y107586D01*
X391459Y107699D01*
X391462Y107812D01*
X391454Y107841D01*
X391453Y107870D01*
X391418Y107978D01*
X391390Y108087D01*
X391375Y108113D01*
X391366Y108141D01*
X391320Y108205D01*
X391244Y108332D01*
X391199Y108375D01*
X391171Y108414D01*
X391134Y108450D01*
X390245Y110598D01*
X390245Y112922D01*
X391134Y115070D01*
X392778Y116713D01*
X394925Y117603D01*
X397250Y117603D01*
X399397Y116713D01*
X399988Y116122D01*
X400058Y116070D01*
X400122Y116010D01*
X400171Y115984D01*
X400216Y115951D01*
X400297Y115920D01*
X400375Y115880D01*
X400423Y115872D01*
X400481Y115850D01*
X400629Y115838D01*
X400706Y115825D01*
X406553Y115825D01*
X406639Y115837D01*
X406727Y115840D01*
X406779Y115857D01*
X406834Y115865D01*
X406914Y115900D01*
X406997Y115927D01*
X407036Y115955D01*
X407094Y115981D01*
X407207Y116077D01*
X407271Y116122D01*
X409005Y117857D01*
X423810Y117857D01*
X425298Y116368D01*
X425298Y107696D01*
X425307Y107638D01*
X425305Y107580D01*
X425326Y107498D01*
X425338Y107414D01*
X425362Y107361D01*
X425377Y107305D01*
X425420Y107232D01*
X425454Y107155D01*
X425492Y107110D01*
X425522Y107060D01*
X425584Y107002D01*
X425638Y106938D01*
X425687Y106906D01*
X425729Y106866D01*
X425804Y106827D01*
X425875Y106780D01*
X425931Y106763D01*
X425983Y106736D01*
X426051Y106725D01*
X426146Y106695D01*
X426246Y106692D01*
X426314Y106681D01*
X479244Y106681D01*
X479274Y106685D01*
X479305Y106683D01*
X479382Y106700D01*
X479525Y106721D01*
X479584Y106747D01*
X479632Y106758D01*
X480791Y107238D01*
X480818Y107254D01*
X480847Y107263D01*
X480911Y107309D01*
X481036Y107382D01*
X481080Y107429D01*
X481120Y107458D01*
X494810Y121147D01*
X496677Y121921D01*
X516030Y121921D01*
X516115Y121933D01*
X516201Y121935D01*
X516256Y121953D01*
X516312Y121961D01*
X516390Y121996D01*
X516472Y122022D01*
X516519Y122054D01*
X516571Y122077D01*
X516637Y122132D01*
X516708Y122180D01*
X516745Y122224D01*
X516788Y122260D01*
X516836Y122332D01*
X516891Y122398D01*
X516914Y122450D01*
X516946Y122497D01*
X516972Y122579D01*
X517007Y122658D01*
X517014Y122714D01*
X517032Y122768D01*
X517034Y122854D01*
X517046Y122939D01*
X517037Y122995D01*
X517039Y123052D01*
X517017Y123135D01*
X517005Y123221D01*
X516981Y123272D01*
X516967Y123327D01*
X516923Y123401D01*
X516888Y123480D01*
X516851Y123523D01*
X516822Y123572D01*
X516759Y123631D01*
X516704Y123696D01*
X516662Y123722D01*
X516615Y123766D01*
X516485Y123832D01*
X516419Y123874D01*
X514698Y124587D01*
X513054Y126230D01*
X512165Y128378D01*
X512165Y130702D01*
X513054Y132850D01*
X514698Y134493D01*
X516845Y135383D01*
X519170Y135383D01*
X521317Y134493D01*
X522162Y133648D01*
X522232Y133596D01*
X522296Y133536D01*
X522345Y133510D01*
X522390Y133477D01*
X522471Y133446D01*
X522549Y133406D01*
X522597Y133398D01*
X522655Y133376D01*
X522803Y133364D01*
X522880Y133351D01*
X588166Y133351D01*
X592949Y128568D01*
X595478Y126038D01*
X595478Y87322D01*
X588166Y80009D01*
X568267Y80009D01*
X568180Y79997D01*
X568093Y79994D01*
X568040Y79977D01*
X567985Y79969D01*
X567905Y79934D01*
X567822Y79907D01*
X567783Y79879D01*
X567726Y79853D01*
X567612Y79757D01*
X567549Y79712D01*
X565296Y77459D01*
X565243Y77389D01*
X565183Y77325D01*
X565158Y77276D01*
X565125Y77232D01*
X565094Y77150D01*
X565054Y77072D01*
X565046Y77025D01*
X565024Y76966D01*
X565011Y76818D01*
X564998Y76741D01*
X564998Y51762D01*
X552606Y39369D01*
X537787Y39369D01*
X537700Y39357D01*
X537613Y39354D01*
X537560Y39337D01*
X537505Y39329D01*
X537425Y39294D01*
X537342Y39267D01*
X537303Y39239D01*
X537246Y39213D01*
X537132Y39117D01*
X537069Y39072D01*
X534816Y36819D01*
X534763Y36749D01*
X534703Y36685D01*
X534678Y36636D01*
X534645Y36592D01*
X534614Y36510D01*
X534574Y36432D01*
X534566Y36385D01*
X534544Y36326D01*
X534535Y36219D01*
X534532Y36212D01*
X534532Y36181D01*
X534531Y36178D01*
X534518Y36101D01*
X534518Y24722D01*
X534519Y24721D01*
X534518Y24719D01*
X534539Y24579D01*
X534558Y24441D01*
X534559Y24439D01*
X534559Y24438D01*
X534616Y24312D01*
X534674Y24181D01*
X534675Y24180D01*
X534676Y24179D01*
X534767Y24072D01*
X534858Y23964D01*
X534859Y23964D01*
X534860Y23962D01*
X534873Y23954D01*
X535095Y23807D01*
X535124Y23798D01*
X535145Y23784D01*
X537470Y22821D01*
X540829Y19463D01*
X542646Y15075D01*
X542646Y10325D01*
X540829Y5937D01*
X539165Y4274D01*
X539148Y4250D01*
X539125Y4231D01*
X539063Y4137D01*
X538994Y4047D01*
X538984Y4019D01*
X538968Y3995D01*
X538934Y3887D01*
X538893Y3781D01*
X538891Y3752D01*
X538882Y3724D01*
X538879Y3610D01*
X538870Y3498D01*
X538875Y3469D01*
X538875Y3440D01*
X538903Y3330D01*
X538926Y3219D01*
X538939Y3193D01*
X538947Y3165D01*
X539004Y3067D01*
X539057Y2967D01*
X539077Y2945D01*
X539092Y2920D01*
X539174Y2843D01*
X539252Y2761D01*
X539278Y2746D01*
X539299Y2726D01*
X539400Y2674D01*
X539498Y2617D01*
X539526Y2610D01*
X539552Y2596D01*
X539630Y2583D01*
X539773Y2547D01*
X539836Y2549D01*
X539883Y2541D01*
X586643Y2541D01*
X586750Y2556D01*
X586857Y2564D01*
X586890Y2576D01*
X586924Y2581D01*
X587023Y2625D01*
X587124Y2662D01*
X587152Y2683D01*
X587184Y2697D01*
X587266Y2766D01*
X587353Y2830D01*
X587374Y2858D01*
X587401Y2880D01*
X587460Y2970D01*
X587526Y3056D01*
X587539Y3088D01*
X587558Y3117D01*
X587591Y3220D01*
X587630Y3320D01*
X587634Y3355D01*
X587644Y3388D01*
X587647Y3496D01*
X587657Y3603D01*
X587651Y3638D01*
X587651Y3672D01*
X587624Y3777D01*
X587604Y3883D01*
X587588Y3914D01*
X587580Y3947D01*
X587524Y4040D01*
X587476Y4136D01*
X587452Y4162D01*
X587434Y4192D01*
X587356Y4266D01*
X587282Y4345D01*
X587255Y4360D01*
X587227Y4386D01*
X587036Y4484D01*
X586990Y4510D01*
X582988Y5967D01*
X577018Y10976D01*
X573121Y17725D01*
X571768Y25400D01*
X573121Y33075D01*
X577018Y39824D01*
X582988Y44833D01*
X590311Y47499D01*
X598104Y47499D01*
X605427Y44833D01*
X611397Y39824D01*
X614988Y33605D01*
X615000Y33590D01*
X615008Y33572D01*
X615087Y33478D01*
X615163Y33381D01*
X615179Y33370D01*
X615191Y33355D01*
X615293Y33287D01*
X615393Y33215D01*
X615412Y33208D01*
X615428Y33198D01*
X615545Y33160D01*
X615661Y33119D01*
X615680Y33117D01*
X615699Y33112D01*
X615822Y33108D01*
X615945Y33101D01*
X615964Y33105D01*
X615983Y33104D01*
X616102Y33135D01*
X616222Y33162D01*
X616239Y33171D01*
X616258Y33176D01*
X616364Y33239D01*
X616472Y33298D01*
X616486Y33311D01*
X616502Y33321D01*
X616587Y33411D01*
X616674Y33497D01*
X616684Y33514D01*
X616697Y33528D01*
X616753Y33637D01*
X616813Y33745D01*
X616818Y33764D01*
X616827Y33781D01*
X616839Y33854D01*
X616878Y34022D01*
X616876Y34073D01*
X616882Y34112D01*
X616942Y167640D01*
X616934Y167698D01*
X616936Y167756D01*
X616914Y167838D01*
X616903Y167921D01*
X616879Y167975D01*
X616864Y168031D01*
X616821Y168104D01*
X616786Y168181D01*
X616749Y168225D01*
X616719Y168276D01*
X616657Y168333D01*
X616603Y168398D01*
X616554Y168430D01*
X616511Y168470D01*
X616436Y168509D01*
X616366Y168555D01*
X616310Y168573D01*
X616258Y168600D01*
X616190Y168611D01*
X616095Y168641D01*
X615995Y168644D01*
X615927Y168655D01*
X318364Y168655D01*
X318306Y168647D01*
X318247Y168649D01*
X318166Y168627D01*
X318082Y168615D01*
X318029Y168592D01*
X317972Y168577D01*
X317900Y168534D01*
X317823Y168499D01*
X317778Y168461D01*
X317728Y168432D01*
X317670Y168370D01*
X317606Y168316D01*
X317573Y168267D01*
X317533Y168224D01*
X317495Y168149D01*
X317448Y168079D01*
X317430Y168023D01*
X317404Y167971D01*
X317392Y167903D01*
X317362Y167808D01*
X317360Y167708D01*
X317348Y167640D01*
X317348Y33793D01*
X317351Y33774D01*
X317349Y33754D01*
X317371Y33633D01*
X317388Y33511D01*
X317396Y33494D01*
X317400Y33474D01*
X317454Y33364D01*
X317504Y33252D01*
X317517Y33237D01*
X317526Y33220D01*
X317609Y33129D01*
X317688Y33035D01*
X317704Y33024D01*
X317718Y33010D01*
X317823Y32945D01*
X317925Y32877D01*
X317943Y32872D01*
X317960Y32861D01*
X318079Y32829D01*
X318196Y32792D01*
X318215Y32791D01*
X318234Y32786D01*
X318357Y32788D01*
X318480Y32784D01*
X318499Y32789D01*
X318518Y32790D01*
X318636Y32825D01*
X318755Y32856D01*
X318772Y32866D01*
X318791Y32872D01*
X318894Y32939D01*
X318999Y33001D01*
X319013Y33016D01*
X319029Y33026D01*
X319076Y33083D01*
X319194Y33209D01*
X319217Y33254D01*
X319243Y33285D01*
X323018Y39824D01*
X328988Y44833D01*
X336311Y47499D01*
X344104Y47499D01*
X351427Y44833D01*
X357397Y39824D01*
X361294Y33075D01*
X362647Y25400D01*
X361294Y17725D01*
X357397Y10976D01*
X351427Y5967D01*
X347425Y4510D01*
X347330Y4459D01*
X347231Y4415D01*
X347205Y4393D01*
X347174Y4376D01*
X347097Y4301D01*
X347014Y4231D01*
X346995Y4203D01*
X346970Y4178D01*
X346917Y4085D01*
X346857Y3995D01*
X346846Y3962D01*
X346829Y3932D01*
X346804Y3827D01*
X346771Y3724D01*
X346770Y3689D01*
X346762Y3655D01*
X346767Y3548D01*
X346764Y3440D01*
X346773Y3406D01*
X346774Y3371D01*
X346808Y3269D01*
X346836Y3165D01*
X346853Y3135D01*
X346864Y3102D01*
X346926Y3013D01*
X346981Y2920D01*
X347006Y2896D01*
X347026Y2868D01*
X347109Y2800D01*
X347188Y2726D01*
X347219Y2710D01*
X347246Y2688D01*
X347345Y2645D01*
X347441Y2596D01*
X347472Y2591D01*
X347507Y2576D01*
X347720Y2550D01*
X347772Y2541D01*
X394532Y2541D01*
X394561Y2545D01*
G37*
G36*
X709343Y2545D02*
X709343Y2545D01*
X709372Y2542D01*
X709484Y2565D01*
X709596Y2581D01*
X709622Y2593D01*
X709651Y2598D01*
X709752Y2651D01*
X709855Y2697D01*
X709877Y2716D01*
X709904Y2729D01*
X709986Y2807D01*
X710072Y2880D01*
X710088Y2905D01*
X710110Y2925D01*
X710167Y3023D01*
X710230Y3117D01*
X710239Y3145D01*
X710253Y3170D01*
X710281Y3280D01*
X710315Y3388D01*
X710316Y3418D01*
X710323Y3446D01*
X710320Y3559D01*
X710323Y3672D01*
X710315Y3701D01*
X710314Y3730D01*
X710279Y3838D01*
X710251Y3947D01*
X710236Y3973D01*
X710227Y4001D01*
X710181Y4065D01*
X710106Y4192D01*
X710060Y4235D01*
X710032Y4274D01*
X709383Y4922D01*
X708279Y6443D01*
X707426Y8117D01*
X706845Y9904D01*
X706724Y10669D01*
X717474Y10669D01*
X717532Y10677D01*
X717590Y10675D01*
X717672Y10697D01*
X717755Y10709D01*
X717809Y10733D01*
X717865Y10747D01*
X717938Y10790D01*
X718015Y10825D01*
X718059Y10863D01*
X718109Y10893D01*
X718167Y10954D01*
X718232Y11009D01*
X718264Y11057D01*
X718304Y11100D01*
X718342Y11175D01*
X718389Y11245D01*
X718407Y11301D01*
X718433Y11353D01*
X718445Y11421D01*
X718475Y11516D01*
X718478Y11616D01*
X718489Y11684D01*
X718489Y12701D01*
X719506Y12701D01*
X719564Y12709D01*
X719622Y12708D01*
X719704Y12729D01*
X719787Y12741D01*
X719841Y12765D01*
X719897Y12779D01*
X719970Y12822D01*
X720047Y12857D01*
X720091Y12895D01*
X720142Y12925D01*
X720199Y12986D01*
X720264Y13041D01*
X720296Y13089D01*
X720336Y13132D01*
X720375Y13207D01*
X720421Y13277D01*
X720439Y13333D01*
X720466Y13385D01*
X720477Y13453D01*
X720507Y13548D01*
X720510Y13648D01*
X720521Y13716D01*
X720521Y24466D01*
X721285Y24345D01*
X723073Y23764D01*
X724747Y22911D01*
X726267Y21806D01*
X727596Y20478D01*
X728701Y18957D01*
X729554Y17283D01*
X730159Y15420D01*
X730174Y15389D01*
X730182Y15356D01*
X730186Y15350D01*
X730186Y15348D01*
X730200Y15324D01*
X730211Y15291D01*
X730252Y15230D01*
X730284Y15164D01*
X730306Y15140D01*
X730324Y15109D01*
X730349Y15085D01*
X730369Y15055D01*
X730426Y15007D01*
X730475Y14953D01*
X730503Y14936D01*
X730528Y14912D01*
X730560Y14895D01*
X730587Y14872D01*
X730656Y14842D01*
X730717Y14804D01*
X730748Y14795D01*
X730779Y14778D01*
X730814Y14771D01*
X730846Y14757D01*
X730921Y14746D01*
X730990Y14727D01*
X731023Y14727D01*
X731057Y14720D01*
X731093Y14723D01*
X731128Y14718D01*
X731203Y14729D01*
X731275Y14729D01*
X731306Y14739D01*
X731341Y14741D01*
X731374Y14753D01*
X731409Y14759D01*
X731479Y14790D01*
X731547Y14810D01*
X731575Y14828D01*
X731608Y14840D01*
X731636Y14861D01*
X731668Y14876D01*
X731726Y14925D01*
X731787Y14963D01*
X731808Y14988D01*
X731836Y15009D01*
X731858Y15037D01*
X731885Y15060D01*
X731916Y15109D01*
X731919Y15115D01*
X731974Y15177D01*
X731988Y15207D01*
X732009Y15234D01*
X732024Y15271D01*
X732043Y15300D01*
X732051Y15325D01*
X732063Y15345D01*
X733769Y19463D01*
X737127Y22821D01*
X738182Y23258D01*
X738184Y23259D01*
X738185Y23260D01*
X738303Y23330D01*
X738427Y23403D01*
X738428Y23404D01*
X738430Y23405D01*
X738526Y23508D01*
X738622Y23610D01*
X738623Y23611D01*
X738624Y23612D01*
X738687Y23735D01*
X738753Y23862D01*
X738753Y23864D01*
X738754Y23865D01*
X738756Y23880D01*
X738808Y24141D01*
X738805Y24172D01*
X738809Y24196D01*
X738809Y33035D01*
X738802Y33087D01*
X738802Y33115D01*
X738796Y33138D01*
X738794Y33209D01*
X738777Y33262D01*
X738769Y33316D01*
X738733Y33396D01*
X738707Y33479D01*
X738679Y33519D01*
X738653Y33576D01*
X738557Y33689D01*
X738512Y33753D01*
X731923Y40342D01*
X731853Y40394D01*
X731789Y40454D01*
X731740Y40480D01*
X731695Y40513D01*
X731614Y40544D01*
X731536Y40584D01*
X731488Y40592D01*
X731430Y40614D01*
X731282Y40626D01*
X731205Y40639D01*
X717479Y40639D01*
X715612Y41413D01*
X709543Y47482D01*
X709518Y47500D01*
X709498Y47524D01*
X709431Y47566D01*
X709315Y47653D01*
X709255Y47676D01*
X709213Y47702D01*
X707560Y48387D01*
X705917Y50030D01*
X705027Y52178D01*
X705027Y54502D01*
X705712Y56155D01*
X705720Y56185D01*
X705734Y56213D01*
X705747Y56290D01*
X705783Y56431D01*
X705781Y56495D01*
X705789Y56544D01*
X705789Y95504D01*
X705781Y95562D01*
X705782Y95620D01*
X705761Y95702D01*
X705749Y95786D01*
X705725Y95839D01*
X705711Y95895D01*
X705668Y95968D01*
X705633Y96045D01*
X705595Y96090D01*
X705565Y96140D01*
X705504Y96198D01*
X705449Y96262D01*
X705401Y96294D01*
X705358Y96334D01*
X705283Y96373D01*
X705213Y96420D01*
X705157Y96437D01*
X705105Y96464D01*
X705037Y96475D01*
X704942Y96505D01*
X704842Y96508D01*
X704774Y96519D01*
X669219Y96519D01*
X667352Y97293D01*
X665780Y98865D01*
X663823Y100822D01*
X663798Y100841D01*
X663778Y100864D01*
X663711Y100906D01*
X663595Y100993D01*
X663535Y101016D01*
X663493Y101042D01*
X661840Y101727D01*
X660197Y103370D01*
X659307Y105518D01*
X659307Y107842D01*
X660197Y109990D01*
X661840Y111633D01*
X663988Y112523D01*
X666312Y112523D01*
X668460Y111633D01*
X670103Y109990D01*
X670788Y108337D01*
X670803Y108310D01*
X670813Y108281D01*
X670859Y108216D01*
X670932Y108092D01*
X670979Y108048D01*
X671008Y108007D01*
X672037Y106978D01*
X672107Y106926D01*
X672171Y106866D01*
X672220Y106840D01*
X672264Y106807D01*
X672346Y106776D01*
X672424Y106736D01*
X672471Y106728D01*
X672530Y106706D01*
X672678Y106694D01*
X672755Y106681D01*
X705235Y106681D01*
X705264Y106685D01*
X705294Y106682D01*
X705405Y106705D01*
X705517Y106721D01*
X705543Y106733D01*
X705572Y106738D01*
X705673Y106791D01*
X705776Y106837D01*
X705798Y106856D01*
X705825Y106869D01*
X705907Y106947D01*
X705993Y107020D01*
X706009Y107045D01*
X706031Y107065D01*
X706088Y107163D01*
X706151Y107257D01*
X706160Y107285D01*
X706174Y107310D01*
X706202Y107420D01*
X706236Y107528D01*
X706237Y107557D01*
X706244Y107586D01*
X706241Y107699D01*
X706244Y107812D01*
X706236Y107841D01*
X706235Y107870D01*
X706200Y107978D01*
X706172Y108087D01*
X706157Y108113D01*
X706148Y108141D01*
X706102Y108205D01*
X706027Y108332D01*
X705981Y108375D01*
X705953Y108414D01*
X705917Y108450D01*
X705027Y110598D01*
X705027Y112922D01*
X705917Y115070D01*
X707560Y116713D01*
X709708Y117603D01*
X712032Y117603D01*
X714180Y116713D01*
X714771Y116122D01*
X714840Y116070D01*
X714904Y116010D01*
X714954Y115984D01*
X714998Y115951D01*
X715079Y115920D01*
X715157Y115880D01*
X715205Y115872D01*
X715263Y115850D01*
X715411Y115838D01*
X715488Y115825D01*
X721335Y115825D01*
X721421Y115837D01*
X721509Y115840D01*
X721562Y115857D01*
X721616Y115865D01*
X721696Y115900D01*
X721779Y115927D01*
X721819Y115955D01*
X721876Y115981D01*
X721989Y116077D01*
X722053Y116122D01*
X723787Y117857D01*
X738592Y117857D01*
X740081Y116368D01*
X740081Y107696D01*
X740089Y107638D01*
X740087Y107580D01*
X740109Y107498D01*
X740120Y107414D01*
X740144Y107361D01*
X740159Y107305D01*
X740202Y107232D01*
X740237Y107155D01*
X740274Y107110D01*
X740304Y107060D01*
X740366Y107002D01*
X740420Y106938D01*
X740469Y106906D01*
X740512Y106866D01*
X740587Y106827D01*
X740657Y106780D01*
X740713Y106763D01*
X740765Y106736D01*
X740833Y106725D01*
X740928Y106695D01*
X741028Y106692D01*
X741096Y106681D01*
X794026Y106681D01*
X794057Y106685D01*
X794087Y106683D01*
X794164Y106700D01*
X794308Y106721D01*
X794366Y106747D01*
X794415Y106758D01*
X795573Y107238D01*
X795600Y107254D01*
X795629Y107263D01*
X795693Y107309D01*
X795818Y107382D01*
X795862Y107429D01*
X795903Y107458D01*
X809592Y121147D01*
X811459Y121921D01*
X830813Y121921D01*
X830898Y121933D01*
X830984Y121935D01*
X831038Y121953D01*
X831094Y121961D01*
X831172Y121996D01*
X831254Y122022D01*
X831302Y122054D01*
X831354Y122077D01*
X831419Y122132D01*
X831490Y122180D01*
X831527Y122224D01*
X831571Y122260D01*
X831618Y122332D01*
X831673Y122398D01*
X831697Y122450D01*
X831728Y122497D01*
X831754Y122579D01*
X831789Y122658D01*
X831797Y122714D01*
X831814Y122768D01*
X831816Y122854D01*
X831828Y122939D01*
X831820Y122995D01*
X831821Y123052D01*
X831799Y123135D01*
X831787Y123221D01*
X831764Y123272D01*
X831749Y123327D01*
X831705Y123401D01*
X831670Y123480D01*
X831633Y123523D01*
X831604Y123572D01*
X831541Y123631D01*
X831486Y123696D01*
X831444Y123722D01*
X831397Y123766D01*
X831268Y123832D01*
X831201Y123874D01*
X829480Y124587D01*
X827837Y126230D01*
X826947Y128378D01*
X826947Y130702D01*
X827837Y132850D01*
X829480Y134493D01*
X831628Y135383D01*
X833952Y135383D01*
X836100Y134493D01*
X836945Y133648D01*
X837014Y133596D01*
X837078Y133536D01*
X837128Y133510D01*
X837172Y133477D01*
X837253Y133446D01*
X837331Y133406D01*
X837379Y133398D01*
X837437Y133376D01*
X837585Y133364D01*
X837662Y133351D01*
X902948Y133351D01*
X907731Y128568D01*
X910261Y126038D01*
X910261Y87322D01*
X902948Y80009D01*
X883049Y80009D01*
X882962Y79997D01*
X882875Y79994D01*
X882822Y79977D01*
X882767Y79969D01*
X882687Y79934D01*
X882604Y79907D01*
X882565Y79879D01*
X882508Y79853D01*
X882395Y79757D01*
X882331Y79712D01*
X880078Y77459D01*
X880025Y77389D01*
X879965Y77325D01*
X879940Y77276D01*
X879907Y77232D01*
X879876Y77150D01*
X879836Y77072D01*
X879828Y77025D01*
X879806Y76966D01*
X879794Y76818D01*
X879781Y76741D01*
X879781Y51762D01*
X867388Y39369D01*
X852569Y39369D01*
X852482Y39357D01*
X852395Y39354D01*
X852342Y39337D01*
X852287Y39329D01*
X852207Y39294D01*
X852124Y39267D01*
X852085Y39239D01*
X852028Y39213D01*
X851915Y39117D01*
X851851Y39072D01*
X849598Y36819D01*
X849545Y36749D01*
X849485Y36685D01*
X849460Y36636D01*
X849427Y36592D01*
X849396Y36510D01*
X849356Y36432D01*
X849348Y36385D01*
X849326Y36326D01*
X849317Y36219D01*
X849315Y36212D01*
X849314Y36181D01*
X849314Y36178D01*
X849301Y36101D01*
X849301Y24722D01*
X849301Y24721D01*
X849301Y24719D01*
X849321Y24579D01*
X849340Y24441D01*
X849341Y24439D01*
X849341Y24438D01*
X849398Y24312D01*
X849457Y24181D01*
X849458Y24180D01*
X849458Y24179D01*
X849550Y24072D01*
X849640Y23964D01*
X849642Y23964D01*
X849643Y23962D01*
X849656Y23954D01*
X849877Y23807D01*
X849906Y23798D01*
X849927Y23784D01*
X852253Y22821D01*
X855611Y19463D01*
X857429Y15075D01*
X857429Y10325D01*
X855611Y5937D01*
X853948Y4274D01*
X853930Y4250D01*
X853908Y4231D01*
X853845Y4137D01*
X853777Y4047D01*
X853766Y4019D01*
X853750Y3995D01*
X853716Y3887D01*
X853675Y3781D01*
X853673Y3752D01*
X853664Y3724D01*
X853661Y3610D01*
X853652Y3498D01*
X853658Y3469D01*
X853657Y3440D01*
X853686Y3330D01*
X853708Y3219D01*
X853721Y3193D01*
X853729Y3165D01*
X853787Y3067D01*
X853839Y2967D01*
X853859Y2945D01*
X853874Y2920D01*
X853957Y2843D01*
X854035Y2761D01*
X854060Y2746D01*
X854081Y2726D01*
X854182Y2674D01*
X854280Y2617D01*
X854308Y2610D01*
X854334Y2596D01*
X854412Y2583D01*
X854555Y2547D01*
X854618Y2549D01*
X854665Y2541D01*
X901425Y2541D01*
X901532Y2556D01*
X901639Y2564D01*
X901672Y2576D01*
X901707Y2581D01*
X901805Y2625D01*
X901906Y2662D01*
X901934Y2683D01*
X901966Y2697D01*
X902048Y2767D01*
X902135Y2830D01*
X902156Y2858D01*
X902183Y2880D01*
X902243Y2970D01*
X902309Y3056D01*
X902321Y3088D01*
X902341Y3117D01*
X902373Y3220D01*
X902413Y3320D01*
X902416Y3355D01*
X902426Y3388D01*
X902429Y3496D01*
X902439Y3603D01*
X902433Y3638D01*
X902434Y3672D01*
X902406Y3777D01*
X902386Y3883D01*
X902371Y3914D01*
X902362Y3947D01*
X902307Y4040D01*
X902258Y4136D01*
X902234Y4162D01*
X902217Y4192D01*
X902138Y4266D01*
X902064Y4345D01*
X902037Y4360D01*
X902009Y4386D01*
X901818Y4484D01*
X901772Y4510D01*
X897770Y5967D01*
X891800Y10976D01*
X887903Y17725D01*
X886550Y25400D01*
X887903Y33075D01*
X891800Y39824D01*
X897770Y44833D01*
X905093Y47499D01*
X912886Y47499D01*
X920210Y44833D01*
X926180Y39824D01*
X929770Y33605D01*
X929782Y33590D01*
X929790Y33572D01*
X929869Y33478D01*
X929945Y33381D01*
X929961Y33370D01*
X929973Y33355D01*
X930075Y33287D01*
X930176Y33215D01*
X930194Y33208D01*
X930210Y33198D01*
X930327Y33160D01*
X930443Y33119D01*
X930462Y33117D01*
X930481Y33112D01*
X930604Y33108D01*
X930727Y33101D01*
X930746Y33105D01*
X930765Y33104D01*
X930884Y33135D01*
X931004Y33162D01*
X931021Y33171D01*
X931040Y33176D01*
X931146Y33239D01*
X931254Y33298D01*
X931268Y33311D01*
X931285Y33321D01*
X931369Y33411D01*
X931457Y33497D01*
X931466Y33514D01*
X931479Y33528D01*
X931535Y33637D01*
X931596Y33745D01*
X931600Y33764D01*
X931609Y33781D01*
X931621Y33854D01*
X931660Y34022D01*
X931658Y34073D01*
X931664Y34112D01*
X931725Y167640D01*
X931716Y167698D01*
X931718Y167756D01*
X931697Y167838D01*
X931685Y167921D01*
X931661Y167975D01*
X931646Y168031D01*
X931603Y168104D01*
X931569Y168181D01*
X931531Y168225D01*
X931501Y168276D01*
X931439Y168333D01*
X931385Y168398D01*
X931336Y168430D01*
X931293Y168470D01*
X931218Y168509D01*
X931149Y168555D01*
X931093Y168573D01*
X931040Y168600D01*
X930972Y168611D01*
X930878Y168641D01*
X930777Y168644D01*
X930709Y168655D01*
X633146Y168655D01*
X633088Y168647D01*
X633029Y168649D01*
X632948Y168627D01*
X632864Y168615D01*
X632811Y168592D01*
X632754Y168577D01*
X632682Y168534D01*
X632605Y168499D01*
X632560Y168461D01*
X632510Y168432D01*
X632452Y168370D01*
X632388Y168316D01*
X632355Y168267D01*
X632315Y168224D01*
X632277Y168149D01*
X632230Y168079D01*
X632213Y168023D01*
X632186Y167971D01*
X632175Y167903D01*
X632145Y167808D01*
X632142Y167708D01*
X632131Y167640D01*
X632131Y33793D01*
X632133Y33774D01*
X632131Y33754D01*
X632153Y33633D01*
X632170Y33511D01*
X632178Y33494D01*
X632182Y33474D01*
X632236Y33364D01*
X632287Y33252D01*
X632299Y33237D01*
X632308Y33220D01*
X632391Y33129D01*
X632470Y33035D01*
X632487Y33024D01*
X632500Y33010D01*
X632605Y32945D01*
X632707Y32877D01*
X632726Y32872D01*
X632742Y32861D01*
X632861Y32829D01*
X632978Y32792D01*
X632998Y32791D01*
X633016Y32786D01*
X633139Y32788D01*
X633262Y32784D01*
X633281Y32789D01*
X633301Y32790D01*
X633419Y32825D01*
X633537Y32856D01*
X633554Y32866D01*
X633573Y32872D01*
X633676Y32939D01*
X633782Y33001D01*
X633795Y33016D01*
X633811Y33026D01*
X633858Y33083D01*
X633976Y33209D01*
X633999Y33254D01*
X634025Y33285D01*
X637800Y39824D01*
X643770Y44833D01*
X651093Y47499D01*
X658886Y47499D01*
X666210Y44833D01*
X672180Y39824D01*
X676076Y33075D01*
X677429Y25400D01*
X676076Y17725D01*
X672180Y10976D01*
X666210Y5967D01*
X662207Y4510D01*
X662112Y4459D01*
X662014Y4415D01*
X661987Y4393D01*
X661956Y4376D01*
X661879Y4301D01*
X661797Y4231D01*
X661777Y4203D01*
X661752Y4178D01*
X661699Y4085D01*
X661639Y3995D01*
X661629Y3962D01*
X661611Y3932D01*
X661586Y3827D01*
X661553Y3724D01*
X661552Y3689D01*
X661544Y3655D01*
X661549Y3548D01*
X661546Y3440D01*
X661555Y3406D01*
X661556Y3371D01*
X661591Y3269D01*
X661618Y3165D01*
X661636Y3135D01*
X661647Y3102D01*
X661708Y3013D01*
X661763Y2920D01*
X661788Y2896D01*
X661808Y2868D01*
X661892Y2800D01*
X661970Y2726D01*
X662001Y2710D01*
X662028Y2688D01*
X662127Y2645D01*
X662224Y2596D01*
X662254Y2591D01*
X662290Y2576D01*
X662502Y2550D01*
X662555Y2541D01*
X709314Y2541D01*
X709343Y2545D01*
G37*
G36*
X79753Y457052D02*
X79753Y457052D01*
X79783Y457050D01*
X79894Y457072D01*
X80006Y457088D01*
X80033Y457100D01*
X80061Y457106D01*
X80162Y457158D01*
X80265Y457204D01*
X80288Y457223D01*
X80314Y457237D01*
X80396Y457315D01*
X80482Y457388D01*
X80499Y457412D01*
X80520Y457433D01*
X80577Y457530D01*
X80640Y457625D01*
X80649Y457653D01*
X80664Y457678D01*
X80691Y457788D01*
X80726Y457896D01*
X80726Y457925D01*
X80734Y457953D01*
X80730Y458067D01*
X80733Y458180D01*
X80726Y458208D01*
X80725Y458238D01*
X80690Y458346D01*
X80661Y458455D01*
X80646Y458480D01*
X80637Y458508D01*
X80591Y458572D01*
X80516Y458699D01*
X80470Y458742D01*
X80442Y458781D01*
X79794Y459430D01*
X78689Y460950D01*
X77836Y462625D01*
X77255Y464412D01*
X77134Y465176D01*
X87884Y465176D01*
X87942Y465185D01*
X88000Y465183D01*
X88082Y465204D01*
X88165Y465216D01*
X88219Y465240D01*
X88275Y465255D01*
X88348Y465298D01*
X88425Y465332D01*
X88469Y465370D01*
X88520Y465400D01*
X88577Y465462D01*
X88642Y465516D01*
X88674Y465565D01*
X88714Y465607D01*
X88753Y465683D01*
X88799Y465753D01*
X88817Y465809D01*
X88844Y465861D01*
X88855Y465929D01*
X88885Y466024D01*
X88888Y466124D01*
X88899Y466192D01*
X88899Y467208D01*
X89916Y467208D01*
X89974Y467217D01*
X90032Y467215D01*
X90114Y467236D01*
X90197Y467248D01*
X90251Y467272D01*
X90307Y467287D01*
X90380Y467330D01*
X90457Y467365D01*
X90502Y467402D01*
X90552Y467432D01*
X90610Y467494D01*
X90674Y467548D01*
X90706Y467597D01*
X90746Y467640D01*
X90785Y467715D01*
X90831Y467785D01*
X90849Y467841D01*
X90876Y467893D01*
X90887Y467961D01*
X90917Y468056D01*
X90920Y468156D01*
X90931Y468224D01*
X90931Y478973D01*
X91696Y478852D01*
X93483Y478272D01*
X95157Y477419D01*
X96678Y476314D01*
X98006Y474985D01*
X99111Y473465D01*
X99964Y471791D01*
X100569Y469927D01*
X100582Y469901D01*
X100589Y469872D01*
X100595Y469862D01*
X100596Y469855D01*
X100610Y469832D01*
X100621Y469799D01*
X100662Y469737D01*
X100694Y469672D01*
X100714Y469651D01*
X100728Y469624D01*
X100741Y469611D01*
X100742Y469611D01*
X100748Y469605D01*
X100757Y469596D01*
X100779Y469563D01*
X100837Y469514D01*
X100885Y469461D01*
X100909Y469446D01*
X100931Y469425D01*
X100966Y469406D01*
X100997Y469380D01*
X101066Y469349D01*
X101127Y469311D01*
X101154Y469304D01*
X101181Y469289D01*
X101220Y469281D01*
X101257Y469264D01*
X101332Y469254D01*
X101401Y469235D01*
X101428Y469235D01*
X101459Y469228D01*
X101499Y469231D01*
X101538Y469225D01*
X101614Y469236D01*
X101685Y469237D01*
X101711Y469245D01*
X101742Y469247D01*
X101780Y469260D01*
X101820Y469266D01*
X101889Y469297D01*
X101957Y469318D01*
X101981Y469333D01*
X102010Y469343D01*
X102042Y469367D01*
X102079Y469383D01*
X102136Y469432D01*
X102197Y469471D01*
X102215Y469492D01*
X102240Y469510D01*
X102265Y469542D01*
X102295Y469568D01*
X102326Y469617D01*
X102330Y469622D01*
X102384Y469685D01*
X102396Y469710D01*
X102415Y469734D01*
X102431Y469775D01*
X102453Y469808D01*
X102461Y469833D01*
X102473Y469852D01*
X104179Y473970D01*
X107537Y477329D01*
X108593Y477766D01*
X108594Y477767D01*
X108595Y477767D01*
X108712Y477836D01*
X108837Y477910D01*
X108839Y477912D01*
X108840Y477912D01*
X108935Y478014D01*
X109033Y478117D01*
X109033Y478118D01*
X109034Y478120D01*
X109098Y478245D01*
X109163Y478370D01*
X109163Y478371D01*
X109164Y478373D01*
X109166Y478388D01*
X109218Y478649D01*
X109215Y478679D01*
X109219Y478704D01*
X109219Y487543D01*
X109212Y487595D01*
X109213Y487622D01*
X109206Y487645D01*
X109204Y487717D01*
X109187Y487769D01*
X109179Y487824D01*
X109144Y487904D01*
X109117Y487987D01*
X109089Y488026D01*
X109063Y488083D01*
X108967Y488197D01*
X108922Y488260D01*
X102333Y494849D01*
X102263Y494902D01*
X102199Y494962D01*
X102150Y494987D01*
X102106Y495020D01*
X102024Y495052D01*
X101946Y495091D01*
X101898Y495099D01*
X101840Y495122D01*
X101692Y495134D01*
X101615Y495147D01*
X87889Y495147D01*
X86022Y495920D01*
X79953Y501990D01*
X79928Y502008D01*
X79908Y502032D01*
X79841Y502073D01*
X79726Y502160D01*
X79665Y502183D01*
X79623Y502210D01*
X77970Y502894D01*
X76327Y504538D01*
X75437Y506685D01*
X75437Y509010D01*
X76122Y510663D01*
X76130Y510693D01*
X76144Y510720D01*
X76157Y510798D01*
X76193Y510938D01*
X76191Y511002D01*
X76199Y511051D01*
X76199Y550012D01*
X76191Y550069D01*
X76193Y550128D01*
X76171Y550210D01*
X76159Y550293D01*
X76136Y550346D01*
X76121Y550403D01*
X76078Y550475D01*
X76043Y550553D01*
X76005Y550597D01*
X75976Y550647D01*
X75914Y550705D01*
X75860Y550770D01*
X75811Y550802D01*
X75768Y550842D01*
X75693Y550880D01*
X75623Y550927D01*
X75567Y550945D01*
X75515Y550971D01*
X75447Y550983D01*
X75352Y551013D01*
X75252Y551015D01*
X75184Y551027D01*
X39629Y551027D01*
X37762Y551800D01*
X36190Y553372D01*
X34233Y555330D01*
X34208Y555348D01*
X34188Y555372D01*
X34121Y555413D01*
X34006Y555500D01*
X33945Y555523D01*
X33903Y555550D01*
X32250Y556234D01*
X30607Y557878D01*
X29717Y560025D01*
X29717Y562350D01*
X30607Y564497D01*
X32250Y566141D01*
X34398Y567030D01*
X36722Y567030D01*
X38870Y566141D01*
X40513Y564497D01*
X41198Y562844D01*
X41214Y562818D01*
X41223Y562788D01*
X41269Y562724D01*
X41342Y562599D01*
X41389Y562555D01*
X41418Y562515D01*
X42447Y561486D01*
X42517Y561433D01*
X42581Y561373D01*
X42630Y561348D01*
X42674Y561315D01*
X42756Y561284D01*
X42834Y561244D01*
X42882Y561236D01*
X42940Y561214D01*
X43088Y561201D01*
X43165Y561188D01*
X75645Y561188D01*
X75675Y561192D01*
X75704Y561190D01*
X75815Y561212D01*
X75927Y561228D01*
X75954Y561240D01*
X75982Y561246D01*
X76083Y561298D01*
X76186Y561344D01*
X76209Y561363D01*
X76235Y561377D01*
X76317Y561455D01*
X76403Y561528D01*
X76420Y561552D01*
X76441Y561573D01*
X76498Y561670D01*
X76561Y561765D01*
X76570Y561793D01*
X76585Y561818D01*
X76612Y561928D01*
X76647Y562036D01*
X76647Y562065D01*
X76655Y562094D01*
X76651Y562207D01*
X76654Y562320D01*
X76647Y562348D01*
X76646Y562378D01*
X76611Y562486D01*
X76582Y562595D01*
X76567Y562620D01*
X76558Y562648D01*
X76513Y562712D01*
X76437Y562839D01*
X76391Y562882D01*
X76363Y562922D01*
X76327Y562958D01*
X75437Y565105D01*
X75437Y567430D01*
X76327Y569577D01*
X77970Y571221D01*
X80118Y572110D01*
X82442Y572110D01*
X84590Y571221D01*
X85181Y570630D01*
X85251Y570577D01*
X85314Y570517D01*
X85364Y570492D01*
X85408Y570459D01*
X85490Y570428D01*
X85568Y570388D01*
X85615Y570380D01*
X85674Y570358D01*
X85821Y570345D01*
X85899Y570332D01*
X91745Y570332D01*
X91832Y570345D01*
X91919Y570347D01*
X91972Y570364D01*
X92027Y570372D01*
X92106Y570408D01*
X92190Y570435D01*
X92229Y570463D01*
X92286Y570488D01*
X92399Y570584D01*
X92463Y570630D01*
X94198Y572364D01*
X109002Y572364D01*
X110491Y570876D01*
X110491Y562204D01*
X110499Y562146D01*
X110497Y562087D01*
X110519Y562006D01*
X110531Y561922D01*
X110554Y561869D01*
X110569Y561812D01*
X110612Y561740D01*
X110647Y561663D01*
X110685Y561618D01*
X110714Y561568D01*
X110776Y561510D01*
X110830Y561446D01*
X110879Y561413D01*
X110922Y561373D01*
X110997Y561335D01*
X111067Y561288D01*
X111123Y561270D01*
X111175Y561244D01*
X111243Y561232D01*
X111338Y561202D01*
X111438Y561200D01*
X111506Y561188D01*
X164436Y561188D01*
X164467Y561193D01*
X164498Y561190D01*
X164574Y561208D01*
X164718Y561228D01*
X164776Y561254D01*
X164825Y561266D01*
X165983Y561746D01*
X166010Y561761D01*
X166039Y561771D01*
X166103Y561816D01*
X166228Y561890D01*
X166273Y561937D01*
X166313Y561966D01*
X180002Y575655D01*
X181869Y576428D01*
X201223Y576428D01*
X201308Y576440D01*
X201394Y576443D01*
X201448Y576460D01*
X201504Y576468D01*
X201583Y576503D01*
X201665Y576529D01*
X201712Y576561D01*
X201764Y576584D01*
X201829Y576640D01*
X201901Y576688D01*
X201937Y576731D01*
X201981Y576768D01*
X202028Y576840D01*
X202084Y576905D01*
X202107Y576957D01*
X202138Y577005D01*
X202164Y577087D01*
X202199Y577165D01*
X202207Y577221D01*
X202224Y577276D01*
X202226Y577362D01*
X202238Y577447D01*
X202230Y577503D01*
X202231Y577560D01*
X202210Y577643D01*
X202197Y577728D01*
X202174Y577780D01*
X202160Y577835D01*
X202116Y577909D01*
X202080Y577987D01*
X202043Y578030D01*
X202014Y578079D01*
X201952Y578138D01*
X201896Y578204D01*
X201854Y578230D01*
X201807Y578274D01*
X201678Y578340D01*
X201611Y578382D01*
X199890Y579094D01*
X198247Y580738D01*
X197357Y582885D01*
X197357Y585210D01*
X198247Y587357D01*
X199890Y589001D01*
X202038Y589890D01*
X204362Y589890D01*
X206510Y589001D01*
X207355Y588156D01*
X207425Y588103D01*
X207488Y588043D01*
X207538Y588018D01*
X207582Y587985D01*
X207664Y587954D01*
X207742Y587914D01*
X207789Y587906D01*
X207848Y587884D01*
X207995Y587871D01*
X208073Y587858D01*
X273358Y587858D01*
X278141Y583076D01*
X280671Y580546D01*
X280671Y541829D01*
X273358Y534517D01*
X253459Y534517D01*
X253372Y534505D01*
X253285Y534502D01*
X253232Y534485D01*
X253177Y534477D01*
X253098Y534441D01*
X253014Y534414D01*
X252975Y534386D01*
X252918Y534361D01*
X252805Y534265D01*
X252741Y534219D01*
X250488Y531966D01*
X250436Y531897D01*
X250376Y531833D01*
X250350Y531783D01*
X250317Y531739D01*
X250286Y531658D01*
X250246Y531580D01*
X250238Y531532D01*
X250216Y531474D01*
X250204Y531326D01*
X250191Y531249D01*
X250191Y506269D01*
X237798Y493877D01*
X222979Y493877D01*
X222892Y493865D01*
X222805Y493862D01*
X222752Y493845D01*
X222697Y493837D01*
X222618Y493801D01*
X222534Y493774D01*
X222495Y493746D01*
X222438Y493721D01*
X222325Y493625D01*
X222261Y493579D01*
X220008Y491326D01*
X219956Y491257D01*
X219896Y491193D01*
X219870Y491143D01*
X219837Y491099D01*
X219806Y491018D01*
X219766Y490940D01*
X219758Y490892D01*
X219736Y490834D01*
X219727Y490727D01*
X219725Y490719D01*
X219724Y490688D01*
X219724Y490686D01*
X219711Y490609D01*
X219711Y479230D01*
X219711Y479228D01*
X219711Y479227D01*
X219731Y479087D01*
X219751Y478948D01*
X219751Y478947D01*
X219751Y478945D01*
X219808Y478819D01*
X219867Y478689D01*
X219868Y478688D01*
X219869Y478686D01*
X219960Y478579D01*
X220050Y478472D01*
X220052Y478471D01*
X220053Y478470D01*
X220066Y478462D01*
X220287Y478314D01*
X220316Y478305D01*
X220337Y478292D01*
X222663Y477329D01*
X226021Y473970D01*
X227839Y469582D01*
X227839Y464833D01*
X226021Y460445D01*
X224358Y458781D01*
X224340Y458758D01*
X224318Y458739D01*
X224255Y458645D01*
X224187Y458554D01*
X224176Y458527D01*
X224160Y458502D01*
X224126Y458394D01*
X224086Y458289D01*
X224083Y458259D01*
X224074Y458231D01*
X224071Y458118D01*
X224062Y458005D01*
X224068Y457977D01*
X224067Y457947D01*
X224096Y457838D01*
X224118Y457727D01*
X224132Y457700D01*
X224139Y457672D01*
X224197Y457575D01*
X224249Y457474D01*
X224269Y457453D01*
X224284Y457428D01*
X224367Y457350D01*
X224445Y457268D01*
X224470Y457253D01*
X224491Y457233D01*
X224592Y457182D01*
X224690Y457124D01*
X224718Y457117D01*
X224745Y457104D01*
X224822Y457091D01*
X224966Y457054D01*
X225028Y457056D01*
X225076Y457048D01*
X271835Y457048D01*
X271942Y457063D01*
X272050Y457071D01*
X272082Y457083D01*
X272117Y457088D01*
X272215Y457132D01*
X272316Y457170D01*
X272344Y457190D01*
X272376Y457204D01*
X272458Y457274D01*
X272545Y457338D01*
X272567Y457366D01*
X272593Y457388D01*
X272653Y457478D01*
X272719Y457563D01*
X272731Y457596D01*
X272751Y457625D01*
X272783Y457728D01*
X272823Y457828D01*
X272826Y457863D01*
X272836Y457896D01*
X272839Y458003D01*
X272849Y458111D01*
X272843Y458145D01*
X272844Y458180D01*
X272817Y458284D01*
X272796Y458390D01*
X272781Y458421D01*
X272772Y458455D01*
X272717Y458548D01*
X272668Y458644D01*
X272645Y458669D01*
X272627Y458699D01*
X272548Y458773D01*
X272475Y458852D01*
X272448Y458868D01*
X272419Y458894D01*
X272229Y458991D01*
X272182Y459018D01*
X268180Y460474D01*
X262210Y465484D01*
X258314Y472233D01*
X256960Y479908D01*
X258314Y487582D01*
X262210Y494331D01*
X268180Y499341D01*
X275503Y502006D01*
X283297Y502006D01*
X290620Y499341D01*
X296590Y494331D01*
X300180Y488113D01*
X300192Y488098D01*
X300200Y488080D01*
X300279Y487986D01*
X300355Y487889D01*
X300371Y487878D01*
X300384Y487863D01*
X300486Y487795D01*
X300586Y487722D01*
X300604Y487716D01*
X300620Y487705D01*
X300737Y487668D01*
X300853Y487626D01*
X300873Y487625D01*
X300891Y487619D01*
X301014Y487616D01*
X301137Y487608D01*
X301156Y487612D01*
X301175Y487612D01*
X301294Y487643D01*
X301415Y487669D01*
X301432Y487679D01*
X301450Y487683D01*
X301556Y487746D01*
X301664Y487805D01*
X301678Y487819D01*
X301695Y487829D01*
X301779Y487918D01*
X301867Y488005D01*
X301876Y488022D01*
X301889Y488036D01*
X301945Y488145D01*
X302006Y488253D01*
X302010Y488272D01*
X302019Y488289D01*
X302031Y488361D01*
X302071Y488530D01*
X302068Y488580D01*
X302075Y488620D01*
X302135Y622147D01*
X302127Y622205D01*
X302128Y622264D01*
X302107Y622345D01*
X302095Y622429D01*
X302071Y622482D01*
X302056Y622539D01*
X302013Y622611D01*
X301979Y622688D01*
X301941Y622733D01*
X301911Y622783D01*
X301850Y622841D01*
X301795Y622905D01*
X301747Y622938D01*
X301704Y622978D01*
X301629Y623016D01*
X301559Y623063D01*
X301503Y623081D01*
X301451Y623107D01*
X301383Y623119D01*
X301288Y623149D01*
X301188Y623151D01*
X301119Y623163D01*
X3556Y623163D01*
X3498Y623155D01*
X3440Y623156D01*
X3358Y623135D01*
X3274Y623123D01*
X3221Y623099D01*
X3165Y623084D01*
X3092Y623041D01*
X3015Y623007D01*
X2970Y622969D01*
X2920Y622939D01*
X2862Y622878D01*
X2798Y622823D01*
X2766Y622774D01*
X2726Y622732D01*
X2687Y622657D01*
X2640Y622586D01*
X2623Y622531D01*
X2596Y622479D01*
X2585Y622411D01*
X2555Y622315D01*
X2552Y622216D01*
X2541Y622148D01*
X2541Y488301D01*
X2543Y488281D01*
X2541Y488262D01*
X2563Y488141D01*
X2581Y488019D01*
X2589Y488001D01*
X2592Y487982D01*
X2647Y487872D01*
X2697Y487760D01*
X2709Y487745D01*
X2718Y487727D01*
X2801Y487636D01*
X2880Y487543D01*
X2897Y487532D01*
X2910Y487517D01*
X3015Y487453D01*
X3117Y487385D01*
X3136Y487379D01*
X3152Y487369D01*
X3271Y487336D01*
X3388Y487299D01*
X3408Y487299D01*
X3427Y487294D01*
X3549Y487295D01*
X3672Y487292D01*
X3691Y487297D01*
X3711Y487297D01*
X3829Y487333D01*
X3947Y487364D01*
X3964Y487374D01*
X3983Y487380D01*
X4086Y487446D01*
X4192Y487509D01*
X4205Y487523D01*
X4222Y487534D01*
X4268Y487591D01*
X4386Y487716D01*
X4410Y487762D01*
X4435Y487793D01*
X8210Y494331D01*
X14180Y499341D01*
X21503Y502006D01*
X29297Y502006D01*
X36620Y499341D01*
X42590Y494332D01*
X46486Y487582D01*
X47840Y479908D01*
X46486Y472233D01*
X42590Y465484D01*
X36620Y460474D01*
X32618Y459018D01*
X32522Y458967D01*
X32424Y458923D01*
X32397Y458900D01*
X32367Y458884D01*
X32289Y458809D01*
X32207Y458739D01*
X32188Y458710D01*
X32163Y458686D01*
X32109Y458592D01*
X32049Y458502D01*
X32039Y458469D01*
X32022Y458439D01*
X31996Y458334D01*
X31964Y458231D01*
X31963Y458197D01*
X31954Y458163D01*
X31959Y458055D01*
X31956Y457947D01*
X31965Y457914D01*
X31966Y457879D01*
X32001Y457776D01*
X32028Y457672D01*
X32046Y457642D01*
X32057Y457609D01*
X32118Y457520D01*
X32173Y457428D01*
X32199Y457404D01*
X32218Y457375D01*
X32302Y457307D01*
X32381Y457233D01*
X32412Y457217D01*
X32438Y457195D01*
X32538Y457153D01*
X32634Y457104D01*
X32664Y457099D01*
X32700Y457084D01*
X32912Y457057D01*
X32965Y457048D01*
X79724Y457048D01*
X79753Y457052D01*
G37*
G36*
X79753Y2545D02*
X79753Y2545D01*
X79783Y2542D01*
X79894Y2565D01*
X80006Y2581D01*
X80033Y2593D01*
X80061Y2598D01*
X80162Y2651D01*
X80265Y2697D01*
X80288Y2716D01*
X80314Y2729D01*
X80396Y2807D01*
X80482Y2880D01*
X80499Y2905D01*
X80520Y2925D01*
X80577Y3023D01*
X80640Y3117D01*
X80649Y3145D01*
X80664Y3170D01*
X80691Y3280D01*
X80726Y3388D01*
X80726Y3418D01*
X80734Y3446D01*
X80730Y3559D01*
X80733Y3672D01*
X80726Y3701D01*
X80725Y3730D01*
X80690Y3838D01*
X80661Y3947D01*
X80646Y3973D01*
X80637Y4001D01*
X80591Y4065D01*
X80516Y4192D01*
X80470Y4235D01*
X80442Y4274D01*
X79794Y4922D01*
X78689Y6443D01*
X77836Y8117D01*
X77255Y9904D01*
X77134Y10669D01*
X87884Y10669D01*
X87942Y10677D01*
X88000Y10675D01*
X88082Y10697D01*
X88165Y10709D01*
X88219Y10733D01*
X88275Y10747D01*
X88348Y10790D01*
X88425Y10825D01*
X88469Y10863D01*
X88520Y10893D01*
X88577Y10954D01*
X88642Y11009D01*
X88674Y11057D01*
X88714Y11100D01*
X88753Y11175D01*
X88799Y11245D01*
X88817Y11301D01*
X88844Y11353D01*
X88855Y11421D01*
X88885Y11516D01*
X88888Y11616D01*
X88899Y11684D01*
X88899Y12701D01*
X89916Y12701D01*
X89974Y12709D01*
X90032Y12708D01*
X90114Y12729D01*
X90197Y12741D01*
X90251Y12765D01*
X90307Y12779D01*
X90380Y12822D01*
X90457Y12857D01*
X90502Y12895D01*
X90552Y12925D01*
X90610Y12986D01*
X90674Y13041D01*
X90706Y13089D01*
X90746Y13132D01*
X90785Y13207D01*
X90831Y13277D01*
X90849Y13333D01*
X90876Y13385D01*
X90887Y13453D01*
X90917Y13548D01*
X90920Y13648D01*
X90931Y13716D01*
X90931Y24466D01*
X91696Y24345D01*
X93483Y23764D01*
X95157Y22911D01*
X96678Y21806D01*
X98006Y20478D01*
X99111Y18957D01*
X99964Y17283D01*
X100569Y15420D01*
X100584Y15389D01*
X100592Y15356D01*
X100596Y15350D01*
X100596Y15348D01*
X100610Y15324D01*
X100621Y15291D01*
X100662Y15230D01*
X100694Y15164D01*
X100717Y15140D01*
X100734Y15109D01*
X100759Y15085D01*
X100779Y15055D01*
X100837Y15007D01*
X100885Y14953D01*
X100913Y14936D01*
X100938Y14912D01*
X100970Y14895D01*
X100997Y14872D01*
X101066Y14842D01*
X101127Y14804D01*
X101158Y14795D01*
X101189Y14778D01*
X101224Y14771D01*
X101257Y14757D01*
X101332Y14746D01*
X101401Y14727D01*
X101433Y14727D01*
X101468Y14720D01*
X101503Y14723D01*
X101538Y14718D01*
X101613Y14729D01*
X101685Y14729D01*
X101716Y14739D01*
X101751Y14741D01*
X101784Y14753D01*
X101820Y14759D01*
X101889Y14790D01*
X101957Y14810D01*
X101985Y14828D01*
X102018Y14840D01*
X102046Y14861D01*
X102079Y14876D01*
X102136Y14925D01*
X102197Y14963D01*
X102218Y14988D01*
X102246Y15009D01*
X102268Y15037D01*
X102295Y15060D01*
X102326Y15109D01*
X102330Y15115D01*
X102384Y15177D01*
X102398Y15207D01*
X102419Y15234D01*
X102434Y15271D01*
X102453Y15300D01*
X102461Y15325D01*
X102473Y15345D01*
X104179Y19463D01*
X107537Y22821D01*
X108593Y23258D01*
X108594Y23259D01*
X108595Y23260D01*
X108714Y23330D01*
X108837Y23403D01*
X108838Y23404D01*
X108840Y23405D01*
X108937Y23508D01*
X109033Y23610D01*
X109033Y23611D01*
X109034Y23612D01*
X109097Y23735D01*
X109163Y23862D01*
X109163Y23864D01*
X109164Y23865D01*
X109166Y23880D01*
X109218Y24141D01*
X109215Y24172D01*
X109219Y24196D01*
X109219Y33035D01*
X109212Y33087D01*
X109213Y33115D01*
X109206Y33138D01*
X109204Y33209D01*
X109187Y33262D01*
X109179Y33316D01*
X109144Y33396D01*
X109117Y33479D01*
X109089Y33519D01*
X109063Y33576D01*
X108967Y33689D01*
X108922Y33753D01*
X102333Y40342D01*
X102263Y40394D01*
X102199Y40454D01*
X102150Y40480D01*
X102106Y40513D01*
X102024Y40544D01*
X101946Y40584D01*
X101898Y40592D01*
X101840Y40614D01*
X101692Y40626D01*
X101615Y40639D01*
X87889Y40639D01*
X86022Y41413D01*
X84450Y42985D01*
X79953Y47482D01*
X79928Y47501D01*
X79908Y47524D01*
X79841Y47566D01*
X79726Y47653D01*
X79665Y47676D01*
X79623Y47702D01*
X77970Y48387D01*
X76327Y50030D01*
X75437Y52178D01*
X75437Y54502D01*
X76122Y56155D01*
X76130Y56185D01*
X76144Y56213D01*
X76157Y56290D01*
X76193Y56431D01*
X76191Y56495D01*
X76199Y56544D01*
X76199Y95504D01*
X76191Y95562D01*
X76193Y95620D01*
X76171Y95702D01*
X76159Y95786D01*
X76136Y95839D01*
X76121Y95895D01*
X76078Y95968D01*
X76043Y96045D01*
X76005Y96090D01*
X75976Y96140D01*
X75914Y96198D01*
X75860Y96262D01*
X75811Y96294D01*
X75768Y96334D01*
X75693Y96373D01*
X75623Y96420D01*
X75567Y96437D01*
X75515Y96464D01*
X75447Y96475D01*
X75352Y96505D01*
X75252Y96508D01*
X75184Y96519D01*
X39629Y96519D01*
X37762Y97293D01*
X34233Y100822D01*
X34208Y100840D01*
X34188Y100864D01*
X34121Y100906D01*
X34006Y100993D01*
X33945Y101016D01*
X33903Y101042D01*
X32250Y101727D01*
X30607Y103370D01*
X29717Y105518D01*
X29717Y107842D01*
X30607Y109990D01*
X32250Y111633D01*
X34398Y112523D01*
X36722Y112523D01*
X38870Y111633D01*
X40513Y109990D01*
X41198Y108337D01*
X41214Y108310D01*
X41223Y108281D01*
X41269Y108217D01*
X41342Y108092D01*
X41389Y108047D01*
X41418Y108007D01*
X42447Y106978D01*
X42517Y106926D01*
X42581Y106866D01*
X42630Y106840D01*
X42674Y106807D01*
X42756Y106776D01*
X42834Y106736D01*
X42882Y106728D01*
X42940Y106706D01*
X43088Y106694D01*
X43165Y106681D01*
X75645Y106681D01*
X75675Y106685D01*
X75704Y106682D01*
X75815Y106705D01*
X75927Y106721D01*
X75954Y106733D01*
X75982Y106738D01*
X76083Y106791D01*
X76186Y106837D01*
X76209Y106856D01*
X76235Y106869D01*
X76317Y106947D01*
X76403Y107020D01*
X76420Y107045D01*
X76441Y107065D01*
X76498Y107163D01*
X76561Y107257D01*
X76570Y107285D01*
X76585Y107310D01*
X76612Y107420D01*
X76647Y107528D01*
X76647Y107557D01*
X76655Y107586D01*
X76651Y107699D01*
X76654Y107812D01*
X76647Y107841D01*
X76646Y107870D01*
X76611Y107978D01*
X76582Y108087D01*
X76567Y108113D01*
X76558Y108141D01*
X76513Y108205D01*
X76437Y108332D01*
X76391Y108375D01*
X76363Y108414D01*
X76327Y108450D01*
X75437Y110598D01*
X75437Y112922D01*
X76327Y115070D01*
X77970Y116713D01*
X80118Y117603D01*
X82442Y117603D01*
X84590Y116713D01*
X85181Y116122D01*
X85251Y116070D01*
X85314Y116010D01*
X85364Y115984D01*
X85408Y115951D01*
X85490Y115920D01*
X85568Y115880D01*
X85615Y115872D01*
X85674Y115850D01*
X85821Y115838D01*
X85899Y115825D01*
X91745Y115825D01*
X91832Y115837D01*
X91919Y115840D01*
X91972Y115857D01*
X92027Y115865D01*
X92106Y115900D01*
X92190Y115927D01*
X92229Y115955D01*
X92286Y115981D01*
X92399Y116077D01*
X92463Y116122D01*
X94198Y117857D01*
X109002Y117857D01*
X110491Y116368D01*
X110491Y107696D01*
X110499Y107638D01*
X110497Y107580D01*
X110519Y107498D01*
X110531Y107414D01*
X110554Y107361D01*
X110569Y107305D01*
X110612Y107232D01*
X110647Y107155D01*
X110685Y107110D01*
X110714Y107060D01*
X110776Y107002D01*
X110830Y106938D01*
X110879Y106906D01*
X110922Y106866D01*
X110997Y106827D01*
X111067Y106780D01*
X111123Y106763D01*
X111175Y106736D01*
X111243Y106725D01*
X111338Y106695D01*
X111438Y106692D01*
X111506Y106681D01*
X164436Y106681D01*
X164467Y106685D01*
X164498Y106683D01*
X164574Y106700D01*
X164718Y106721D01*
X164777Y106747D01*
X164825Y106758D01*
X165983Y107238D01*
X166010Y107254D01*
X166039Y107263D01*
X166103Y107309D01*
X166228Y107382D01*
X166272Y107429D01*
X166313Y107458D01*
X178430Y119575D01*
X180002Y121147D01*
X181869Y121921D01*
X201223Y121921D01*
X201308Y121933D01*
X201394Y121935D01*
X201448Y121953D01*
X201504Y121961D01*
X201583Y121996D01*
X201664Y122022D01*
X201712Y122054D01*
X201764Y122077D01*
X201829Y122132D01*
X201901Y122180D01*
X201937Y122224D01*
X201981Y122260D01*
X202028Y122332D01*
X202084Y122398D01*
X202107Y122450D01*
X202138Y122497D01*
X202164Y122579D01*
X202199Y122658D01*
X202207Y122714D01*
X202224Y122768D01*
X202226Y122854D01*
X202238Y122939D01*
X202230Y122995D01*
X202231Y123052D01*
X202210Y123135D01*
X202197Y123220D01*
X202174Y123272D01*
X202160Y123327D01*
X202116Y123401D01*
X202080Y123480D01*
X202043Y123523D01*
X202014Y123572D01*
X201952Y123631D01*
X201896Y123696D01*
X201854Y123722D01*
X201807Y123766D01*
X201678Y123832D01*
X201611Y123874D01*
X199890Y124587D01*
X198247Y126230D01*
X197357Y128378D01*
X197357Y130702D01*
X198247Y132850D01*
X199890Y134493D01*
X202038Y135383D01*
X204362Y135383D01*
X206510Y134493D01*
X207355Y133648D01*
X207425Y133596D01*
X207488Y133536D01*
X207538Y133510D01*
X207582Y133477D01*
X207664Y133446D01*
X207742Y133406D01*
X207789Y133398D01*
X207848Y133376D01*
X207995Y133364D01*
X208073Y133351D01*
X273358Y133351D01*
X280671Y126038D01*
X280671Y87322D01*
X273358Y80009D01*
X253459Y80009D01*
X253372Y79997D01*
X253285Y79994D01*
X253232Y79977D01*
X253177Y79969D01*
X253098Y79934D01*
X253014Y79907D01*
X252975Y79879D01*
X252918Y79853D01*
X252805Y79757D01*
X252741Y79712D01*
X250488Y77459D01*
X250436Y77389D01*
X250376Y77325D01*
X250350Y77276D01*
X250317Y77232D01*
X250286Y77150D01*
X250246Y77072D01*
X250238Y77025D01*
X250216Y76966D01*
X250204Y76818D01*
X250191Y76741D01*
X250191Y51762D01*
X237798Y39369D01*
X222979Y39369D01*
X222892Y39357D01*
X222805Y39354D01*
X222752Y39337D01*
X222697Y39329D01*
X222618Y39294D01*
X222534Y39267D01*
X222495Y39239D01*
X222438Y39213D01*
X222325Y39117D01*
X222261Y39072D01*
X220008Y36819D01*
X219956Y36749D01*
X219896Y36685D01*
X219870Y36636D01*
X219837Y36592D01*
X219806Y36510D01*
X219766Y36432D01*
X219758Y36385D01*
X219736Y36326D01*
X219727Y36219D01*
X219725Y36212D01*
X219724Y36181D01*
X219724Y36178D01*
X219711Y36101D01*
X219711Y24722D01*
X219711Y24721D01*
X219711Y24719D01*
X219731Y24579D01*
X219751Y24441D01*
X219751Y24439D01*
X219751Y24438D01*
X219808Y24312D01*
X219867Y24181D01*
X219868Y24180D01*
X219869Y24179D01*
X219960Y24072D01*
X220050Y23964D01*
X220052Y23964D01*
X220053Y23962D01*
X220066Y23954D01*
X220287Y23807D01*
X220316Y23798D01*
X220337Y23784D01*
X222663Y22821D01*
X226021Y19463D01*
X227839Y15075D01*
X227839Y10325D01*
X226021Y5937D01*
X224358Y4274D01*
X224340Y4250D01*
X224318Y4231D01*
X224255Y4137D01*
X224187Y4047D01*
X224176Y4019D01*
X224160Y3995D01*
X224126Y3887D01*
X224086Y3781D01*
X224083Y3752D01*
X224074Y3724D01*
X224071Y3610D01*
X224062Y3498D01*
X224068Y3469D01*
X224067Y3440D01*
X224096Y3330D01*
X224118Y3219D01*
X224132Y3193D01*
X224139Y3165D01*
X224197Y3067D01*
X224249Y2967D01*
X224269Y2945D01*
X224284Y2920D01*
X224367Y2843D01*
X224445Y2761D01*
X224470Y2746D01*
X224491Y2726D01*
X224592Y2674D01*
X224690Y2617D01*
X224718Y2610D01*
X224745Y2596D01*
X224822Y2583D01*
X224966Y2547D01*
X225028Y2549D01*
X225076Y2541D01*
X271835Y2541D01*
X271942Y2556D01*
X272050Y2564D01*
X272082Y2576D01*
X272117Y2581D01*
X272215Y2625D01*
X272316Y2662D01*
X272344Y2683D01*
X272376Y2697D01*
X272458Y2766D01*
X272545Y2830D01*
X272567Y2858D01*
X272593Y2880D01*
X272653Y2970D01*
X272719Y3056D01*
X272731Y3088D01*
X272751Y3117D01*
X272783Y3220D01*
X272823Y3320D01*
X272826Y3355D01*
X272837Y3388D01*
X272839Y3496D01*
X272849Y3603D01*
X272843Y3638D01*
X272844Y3672D01*
X272817Y3777D01*
X272796Y3883D01*
X272781Y3914D01*
X272772Y3947D01*
X272717Y4040D01*
X272668Y4136D01*
X272645Y4162D01*
X272627Y4192D01*
X272548Y4266D01*
X272475Y4345D01*
X272448Y4360D01*
X272419Y4386D01*
X272229Y4484D01*
X272182Y4510D01*
X268180Y5967D01*
X262210Y10976D01*
X258314Y17725D01*
X256960Y25400D01*
X258314Y33075D01*
X262210Y39824D01*
X268180Y44833D01*
X275503Y47499D01*
X283297Y47499D01*
X290620Y44833D01*
X296590Y39824D01*
X300180Y33605D01*
X300192Y33590D01*
X300200Y33572D01*
X300280Y33478D01*
X300355Y33381D01*
X300371Y33370D01*
X300384Y33355D01*
X300486Y33287D01*
X300586Y33215D01*
X300604Y33208D01*
X300620Y33198D01*
X300737Y33160D01*
X300853Y33119D01*
X300873Y33117D01*
X300891Y33112D01*
X301014Y33108D01*
X301137Y33101D01*
X301156Y33105D01*
X301175Y33104D01*
X301295Y33135D01*
X301415Y33162D01*
X301432Y33171D01*
X301450Y33176D01*
X301557Y33239D01*
X301664Y33298D01*
X301678Y33311D01*
X301695Y33321D01*
X301779Y33411D01*
X301867Y33497D01*
X301876Y33514D01*
X301889Y33528D01*
X301945Y33637D01*
X302006Y33745D01*
X302010Y33764D01*
X302019Y33781D01*
X302031Y33854D01*
X302071Y34022D01*
X302068Y34073D01*
X302075Y34112D01*
X302135Y167640D01*
X302127Y167698D01*
X302128Y167756D01*
X302107Y167838D01*
X302095Y167921D01*
X302071Y167975D01*
X302056Y168031D01*
X302013Y168104D01*
X301979Y168181D01*
X301941Y168225D01*
X301911Y168276D01*
X301850Y168333D01*
X301795Y168398D01*
X301747Y168430D01*
X301704Y168470D01*
X301629Y168509D01*
X301559Y168555D01*
X301503Y168573D01*
X301451Y168600D01*
X301383Y168611D01*
X301288Y168641D01*
X301188Y168644D01*
X301119Y168655D01*
X3556Y168655D01*
X3498Y168647D01*
X3440Y168649D01*
X3358Y168627D01*
X3274Y168615D01*
X3221Y168591D01*
X3165Y168577D01*
X3092Y168534D01*
X3015Y168499D01*
X2970Y168461D01*
X2920Y168431D01*
X2862Y168370D01*
X2798Y168315D01*
X2766Y168267D01*
X2726Y168224D01*
X2687Y168149D01*
X2640Y168079D01*
X2623Y168023D01*
X2596Y167971D01*
X2585Y167903D01*
X2555Y167808D01*
X2552Y167708D01*
X2541Y167640D01*
X2541Y33793D01*
X2543Y33774D01*
X2541Y33754D01*
X2563Y33633D01*
X2581Y33511D01*
X2589Y33494D01*
X2592Y33474D01*
X2647Y33364D01*
X2697Y33252D01*
X2709Y33237D01*
X2718Y33220D01*
X2801Y33129D01*
X2880Y33035D01*
X2897Y33024D01*
X2910Y33010D01*
X3015Y32945D01*
X3117Y32877D01*
X3136Y32872D01*
X3152Y32861D01*
X3271Y32829D01*
X3388Y32792D01*
X3408Y32791D01*
X3427Y32786D01*
X3549Y32788D01*
X3672Y32784D01*
X3691Y32789D01*
X3711Y32790D01*
X3829Y32825D01*
X3947Y32856D01*
X3964Y32866D01*
X3983Y32872D01*
X4086Y32939D01*
X4192Y33001D01*
X4205Y33016D01*
X4222Y33026D01*
X4268Y33083D01*
X4386Y33209D01*
X4410Y33254D01*
X4435Y33285D01*
X8210Y39824D01*
X14180Y44833D01*
X21503Y47499D01*
X29297Y47499D01*
X36620Y44833D01*
X42590Y39824D01*
X46486Y33075D01*
X47840Y25400D01*
X46486Y17725D01*
X42590Y10976D01*
X36620Y5967D01*
X32618Y4510D01*
X32522Y4459D01*
X32424Y4415D01*
X32397Y4393D01*
X32367Y4376D01*
X32289Y4301D01*
X32207Y4231D01*
X32188Y4203D01*
X32163Y4178D01*
X32109Y4085D01*
X32049Y3995D01*
X32039Y3962D01*
X32022Y3932D01*
X31996Y3827D01*
X31963Y3724D01*
X31963Y3689D01*
X31954Y3655D01*
X31959Y3548D01*
X31956Y3440D01*
X31965Y3406D01*
X31966Y3371D01*
X32001Y3269D01*
X32028Y3165D01*
X32046Y3135D01*
X32057Y3102D01*
X32118Y3013D01*
X32173Y2920D01*
X32199Y2896D01*
X32218Y2868D01*
X32302Y2800D01*
X32381Y2726D01*
X32412Y2710D01*
X32438Y2688D01*
X32538Y2645D01*
X32634Y2596D01*
X32664Y2591D01*
X32700Y2576D01*
X32912Y2550D01*
X32965Y2541D01*
X79724Y2541D01*
X79753Y2545D01*
G37*
%LPC*%
G36*
X706724Y469239D02*
X706724Y469239D01*
X706845Y470003D01*
X707426Y471791D01*
X708279Y473465D01*
X709384Y474985D01*
X710712Y476314D01*
X712233Y477419D01*
X713907Y478272D01*
X715694Y478852D01*
X716459Y478973D01*
X716459Y469239D01*
X706724Y469239D01*
G37*
%LPD*%
%LPC*%
G36*
X391942Y469239D02*
X391942Y469239D01*
X392063Y470003D01*
X392644Y471791D01*
X393497Y473465D01*
X394601Y474985D01*
X395930Y476314D01*
X397450Y477419D01*
X399125Y478272D01*
X400912Y478852D01*
X401676Y478973D01*
X401676Y469239D01*
X391942Y469239D01*
G37*
%LPD*%
%LPC*%
G36*
X77134Y469239D02*
X77134Y469239D01*
X77255Y470003D01*
X77836Y471791D01*
X78689Y473465D01*
X79794Y474985D01*
X81122Y476314D01*
X82643Y477419D01*
X84317Y478272D01*
X86104Y478852D01*
X86869Y478973D01*
X86869Y469239D01*
X77134Y469239D01*
G37*
%LPD*%
%LPC*%
G36*
X391942Y14731D02*
X391942Y14731D01*
X392063Y15496D01*
X392644Y17283D01*
X393497Y18957D01*
X394601Y20478D01*
X395930Y21806D01*
X397450Y22911D01*
X399125Y23764D01*
X400912Y24345D01*
X401676Y24466D01*
X401676Y14731D01*
X391942Y14731D01*
G37*
%LPD*%
%LPC*%
G36*
X706724Y14731D02*
X706724Y14731D01*
X706845Y15496D01*
X707426Y17283D01*
X708279Y18957D01*
X709384Y20478D01*
X710712Y21806D01*
X712233Y22911D01*
X713907Y23764D01*
X715694Y24345D01*
X716459Y24466D01*
X716459Y14731D01*
X706724Y14731D01*
G37*
%LPD*%
%LPC*%
G36*
X77134Y14731D02*
X77134Y14731D01*
X77255Y15496D01*
X77836Y17283D01*
X78689Y18957D01*
X79794Y20478D01*
X81122Y21806D01*
X82643Y22911D01*
X84317Y23764D01*
X86104Y24345D01*
X86869Y24466D01*
X86869Y14731D01*
X77134Y14731D01*
G37*
%LPD*%
G36*
X102889Y549009D02*
X102889Y549009D01*
X102911Y549012D01*
X102918Y549028D01*
X102927Y549033D01*
X102926Y549043D01*
X102933Y549059D01*
X102933Y563156D01*
X102921Y563175D01*
X102917Y563197D01*
X102902Y563205D01*
X102896Y563213D01*
X102886Y563212D01*
X102870Y563219D01*
X100330Y563219D01*
X100311Y563207D01*
X100289Y563203D01*
X100282Y563188D01*
X100273Y563182D01*
X100274Y563172D01*
X100267Y563156D01*
X100267Y549059D01*
X100279Y549040D01*
X100283Y549018D01*
X100298Y549011D01*
X100304Y549002D01*
X100314Y549003D01*
X100330Y548996D01*
X102870Y548996D01*
X102889Y549009D01*
G37*
G36*
X417697Y549009D02*
X417697Y549009D01*
X417719Y549012D01*
X417726Y549028D01*
X417735Y549033D01*
X417733Y549043D01*
X417740Y549059D01*
X417740Y563156D01*
X417728Y563175D01*
X417725Y563197D01*
X417709Y563205D01*
X417704Y563213D01*
X417693Y563212D01*
X417678Y563219D01*
X415138Y563219D01*
X415119Y563207D01*
X415096Y563203D01*
X415089Y563188D01*
X415080Y563182D01*
X415082Y563172D01*
X415075Y563156D01*
X415075Y549059D01*
X415087Y549040D01*
X415090Y549018D01*
X415106Y549011D01*
X415112Y549002D01*
X415122Y549003D01*
X415138Y548996D01*
X417678Y548996D01*
X417697Y549009D01*
G37*
G36*
X732479Y549009D02*
X732479Y549009D01*
X732501Y549012D01*
X732508Y549028D01*
X732517Y549033D01*
X732515Y549043D01*
X732523Y549059D01*
X732523Y563156D01*
X732510Y563175D01*
X732507Y563197D01*
X732491Y563205D01*
X732486Y563213D01*
X732476Y563212D01*
X732460Y563219D01*
X729920Y563219D01*
X729901Y563207D01*
X729879Y563203D01*
X729871Y563188D01*
X729863Y563182D01*
X729864Y563172D01*
X729857Y563156D01*
X729857Y549059D01*
X729869Y549040D01*
X729873Y549018D01*
X729888Y549011D01*
X729894Y549002D01*
X729904Y549003D01*
X729920Y548996D01*
X732460Y548996D01*
X732479Y549009D01*
G37*
G36*
X417697Y94501D02*
X417697Y94501D01*
X417719Y94504D01*
X417726Y94520D01*
X417735Y94526D01*
X417733Y94536D01*
X417740Y94552D01*
X417740Y108649D01*
X417728Y108667D01*
X417725Y108690D01*
X417709Y108697D01*
X417704Y108706D01*
X417693Y108704D01*
X417678Y108711D01*
X415138Y108711D01*
X415119Y108699D01*
X415096Y108696D01*
X415089Y108680D01*
X415080Y108674D01*
X415082Y108664D01*
X415075Y108649D01*
X415075Y94552D01*
X415087Y94533D01*
X415090Y94510D01*
X415106Y94503D01*
X415112Y94494D01*
X415122Y94496D01*
X415138Y94489D01*
X417678Y94489D01*
X417697Y94501D01*
G37*
G36*
X732479Y94501D02*
X732479Y94501D01*
X732501Y94504D01*
X732508Y94520D01*
X732517Y94526D01*
X732515Y94536D01*
X732523Y94552D01*
X732523Y108649D01*
X732510Y108667D01*
X732507Y108690D01*
X732491Y108697D01*
X732486Y108706D01*
X732476Y108704D01*
X732460Y108711D01*
X729920Y108711D01*
X729901Y108699D01*
X729879Y108696D01*
X729871Y108680D01*
X729863Y108674D01*
X729864Y108664D01*
X729857Y108649D01*
X729857Y94552D01*
X729869Y94533D01*
X729873Y94510D01*
X729888Y94503D01*
X729894Y94494D01*
X729904Y94496D01*
X729920Y94489D01*
X732460Y94489D01*
X732479Y94501D01*
G37*
G36*
X102889Y94501D02*
X102889Y94501D01*
X102911Y94504D01*
X102918Y94520D01*
X102927Y94526D01*
X102926Y94536D01*
X102933Y94552D01*
X102933Y108649D01*
X102921Y108667D01*
X102917Y108690D01*
X102902Y108697D01*
X102896Y108706D01*
X102886Y108704D01*
X102870Y108711D01*
X100330Y108711D01*
X100311Y108699D01*
X100289Y108696D01*
X100282Y108680D01*
X100273Y108674D01*
X100274Y108664D01*
X100267Y108649D01*
X100267Y94552D01*
X100279Y94533D01*
X100283Y94510D01*
X100298Y94503D01*
X100304Y94494D01*
X100314Y94496D01*
X100330Y94489D01*
X102870Y94489D01*
X102889Y94501D01*
G37*
G36*
X519868Y554787D02*
X519868Y554787D01*
X519890Y554790D01*
X519898Y554806D01*
X519906Y554812D01*
X519905Y554822D01*
X519912Y554838D01*
X519912Y557378D01*
X519900Y557397D01*
X519896Y557419D01*
X519881Y557426D01*
X519875Y557435D01*
X519865Y557433D01*
X519849Y557440D01*
X511023Y557440D01*
X511004Y557428D01*
X510981Y557425D01*
X510974Y557409D01*
X510965Y557404D01*
X510967Y557393D01*
X510960Y557378D01*
X510960Y554838D01*
X510972Y554819D01*
X510975Y554796D01*
X510991Y554789D01*
X510997Y554780D01*
X511007Y554782D01*
X511023Y554775D01*
X519849Y554775D01*
X519868Y554787D01*
G37*
G36*
X205060Y554787D02*
X205060Y554787D01*
X205083Y554790D01*
X205090Y554806D01*
X205099Y554812D01*
X205097Y554822D01*
X205104Y554838D01*
X205104Y557378D01*
X205092Y557397D01*
X205089Y557419D01*
X205073Y557426D01*
X205067Y557435D01*
X205057Y557433D01*
X205042Y557440D01*
X196215Y557440D01*
X196196Y557428D01*
X196174Y557425D01*
X196167Y557409D01*
X196158Y557404D01*
X196159Y557393D01*
X196152Y557378D01*
X196152Y554838D01*
X196164Y554819D01*
X196168Y554796D01*
X196183Y554789D01*
X196189Y554780D01*
X196199Y554782D01*
X196215Y554775D01*
X205042Y554775D01*
X205060Y554787D01*
G37*
G36*
X834650Y554787D02*
X834650Y554787D01*
X834673Y554790D01*
X834680Y554806D01*
X834688Y554812D01*
X834687Y554822D01*
X834694Y554838D01*
X834694Y557378D01*
X834682Y557397D01*
X834679Y557419D01*
X834663Y557426D01*
X834657Y557435D01*
X834647Y557433D01*
X834631Y557440D01*
X825805Y557440D01*
X825786Y557428D01*
X825764Y557425D01*
X825756Y557409D01*
X825748Y557404D01*
X825749Y557393D01*
X825742Y557378D01*
X825742Y554838D01*
X825754Y554819D01*
X825758Y554796D01*
X825773Y554789D01*
X825779Y554780D01*
X825789Y554782D01*
X825805Y554775D01*
X834631Y554775D01*
X834650Y554787D01*
G37*
G36*
X205060Y529387D02*
X205060Y529387D01*
X205083Y529390D01*
X205090Y529406D01*
X205099Y529412D01*
X205097Y529422D01*
X205104Y529438D01*
X205104Y531978D01*
X205092Y531997D01*
X205089Y532019D01*
X205073Y532026D01*
X205067Y532035D01*
X205057Y532033D01*
X205042Y532040D01*
X196215Y532040D01*
X196196Y532028D01*
X196174Y532025D01*
X196167Y532009D01*
X196158Y532004D01*
X196159Y531993D01*
X196152Y531978D01*
X196152Y529438D01*
X196164Y529419D01*
X196168Y529396D01*
X196183Y529389D01*
X196189Y529380D01*
X196199Y529382D01*
X196215Y529375D01*
X205042Y529375D01*
X205060Y529387D01*
G37*
G36*
X834650Y529387D02*
X834650Y529387D01*
X834673Y529390D01*
X834680Y529406D01*
X834688Y529412D01*
X834687Y529422D01*
X834694Y529438D01*
X834694Y531978D01*
X834682Y531997D01*
X834679Y532019D01*
X834663Y532026D01*
X834657Y532035D01*
X834647Y532033D01*
X834631Y532040D01*
X825805Y532040D01*
X825786Y532028D01*
X825764Y532025D01*
X825756Y532009D01*
X825748Y532004D01*
X825749Y531993D01*
X825742Y531978D01*
X825742Y529438D01*
X825754Y529419D01*
X825758Y529396D01*
X825773Y529389D01*
X825779Y529380D01*
X825789Y529382D01*
X825805Y529375D01*
X834631Y529375D01*
X834650Y529387D01*
G37*
G36*
X519868Y529387D02*
X519868Y529387D01*
X519890Y529390D01*
X519898Y529406D01*
X519906Y529412D01*
X519905Y529422D01*
X519912Y529438D01*
X519912Y531978D01*
X519900Y531997D01*
X519896Y532019D01*
X519881Y532026D01*
X519875Y532035D01*
X519865Y532033D01*
X519849Y532040D01*
X511023Y532040D01*
X511004Y532028D01*
X510981Y532025D01*
X510974Y532009D01*
X510965Y532004D01*
X510967Y531993D01*
X510960Y531978D01*
X510960Y529438D01*
X510972Y529419D01*
X510975Y529396D01*
X510991Y529389D01*
X510997Y529380D01*
X511007Y529382D01*
X511023Y529375D01*
X519849Y529375D01*
X519868Y529387D01*
G37*
G36*
X519868Y100279D02*
X519868Y100279D01*
X519890Y100283D01*
X519898Y100298D01*
X519906Y100304D01*
X519905Y100314D01*
X519912Y100330D01*
X519912Y102870D01*
X519900Y102889D01*
X519896Y102911D01*
X519881Y102918D01*
X519875Y102927D01*
X519865Y102926D01*
X519849Y102933D01*
X511023Y102933D01*
X511004Y102921D01*
X510981Y102917D01*
X510974Y102902D01*
X510965Y102896D01*
X510967Y102886D01*
X510960Y102870D01*
X510960Y100330D01*
X510972Y100311D01*
X510975Y100289D01*
X510991Y100282D01*
X510997Y100273D01*
X511007Y100274D01*
X511023Y100267D01*
X519849Y100267D01*
X519868Y100279D01*
G37*
G36*
X205060Y100279D02*
X205060Y100279D01*
X205083Y100283D01*
X205090Y100298D01*
X205099Y100304D01*
X205097Y100314D01*
X205104Y100330D01*
X205104Y102870D01*
X205092Y102889D01*
X205089Y102911D01*
X205073Y102918D01*
X205067Y102927D01*
X205057Y102926D01*
X205042Y102933D01*
X196215Y102933D01*
X196196Y102921D01*
X196174Y102917D01*
X196167Y102902D01*
X196158Y102896D01*
X196159Y102886D01*
X196152Y102870D01*
X196152Y100330D01*
X196164Y100311D01*
X196168Y100289D01*
X196183Y100282D01*
X196189Y100273D01*
X196199Y100274D01*
X196215Y100267D01*
X205042Y100267D01*
X205060Y100279D01*
G37*
G36*
X834650Y100279D02*
X834650Y100279D01*
X834673Y100283D01*
X834680Y100298D01*
X834688Y100304D01*
X834687Y100314D01*
X834694Y100330D01*
X834694Y102870D01*
X834682Y102889D01*
X834679Y102911D01*
X834663Y102918D01*
X834657Y102927D01*
X834647Y102926D01*
X834631Y102933D01*
X825805Y102933D01*
X825786Y102921D01*
X825764Y102917D01*
X825756Y102902D01*
X825748Y102896D01*
X825749Y102886D01*
X825742Y102870D01*
X825742Y100330D01*
X825754Y100311D01*
X825758Y100289D01*
X825773Y100282D01*
X825779Y100273D01*
X825789Y100274D01*
X825805Y100267D01*
X834631Y100267D01*
X834650Y100279D01*
G37*
G36*
X519868Y74879D02*
X519868Y74879D01*
X519890Y74883D01*
X519898Y74898D01*
X519906Y74904D01*
X519905Y74914D01*
X519912Y74930D01*
X519912Y77470D01*
X519900Y77489D01*
X519896Y77511D01*
X519881Y77518D01*
X519875Y77527D01*
X519865Y77526D01*
X519849Y77533D01*
X511023Y77533D01*
X511004Y77521D01*
X510981Y77517D01*
X510974Y77502D01*
X510965Y77496D01*
X510967Y77486D01*
X510960Y77470D01*
X510960Y74930D01*
X510972Y74911D01*
X510975Y74889D01*
X510991Y74882D01*
X510997Y74873D01*
X511007Y74874D01*
X511023Y74867D01*
X519849Y74867D01*
X519868Y74879D01*
G37*
G36*
X205060Y74879D02*
X205060Y74879D01*
X205083Y74883D01*
X205090Y74898D01*
X205099Y74904D01*
X205097Y74914D01*
X205104Y74930D01*
X205104Y77470D01*
X205092Y77489D01*
X205089Y77511D01*
X205073Y77518D01*
X205067Y77527D01*
X205057Y77526D01*
X205042Y77533D01*
X196215Y77533D01*
X196196Y77521D01*
X196174Y77517D01*
X196167Y77502D01*
X196158Y77496D01*
X196159Y77486D01*
X196152Y77470D01*
X196152Y74930D01*
X196164Y74911D01*
X196168Y74889D01*
X196183Y74882D01*
X196189Y74873D01*
X196199Y74874D01*
X196215Y74867D01*
X205042Y74867D01*
X205060Y74879D01*
G37*
G36*
X834650Y74879D02*
X834650Y74879D01*
X834673Y74883D01*
X834680Y74898D01*
X834688Y74904D01*
X834687Y74914D01*
X834694Y74930D01*
X834694Y77470D01*
X834682Y77489D01*
X834679Y77511D01*
X834663Y77518D01*
X834657Y77527D01*
X834647Y77526D01*
X834631Y77533D01*
X825805Y77533D01*
X825786Y77521D01*
X825764Y77517D01*
X825756Y77502D01*
X825748Y77496D01*
X825749Y77486D01*
X825742Y77470D01*
X825742Y74930D01*
X825754Y74911D01*
X825758Y74889D01*
X825773Y74882D01*
X825779Y74873D01*
X825789Y74874D01*
X825805Y74867D01*
X834631Y74867D01*
X834650Y74879D01*
G37*
D10*
X51816Y407416D02*
X62484Y414528D01*
X62484Y407416D02*
X51816Y414528D01*
X57150Y419439D02*
X57360Y419442D01*
X57570Y419449D01*
X57779Y419462D01*
X57988Y419479D01*
X58197Y419502D01*
X58405Y419529D01*
X58612Y419561D01*
X58819Y419599D01*
X59024Y419641D01*
X59229Y419688D01*
X59432Y419740D01*
X59634Y419797D01*
X59835Y419859D01*
X60034Y419925D01*
X60231Y419997D01*
X60427Y420073D01*
X60621Y420153D01*
X60813Y420238D01*
X61002Y420328D01*
X61087Y420359D01*
X61171Y420393D01*
X61253Y420431D01*
X61334Y420473D01*
X61413Y420518D01*
X61490Y420566D01*
X61565Y420617D01*
X61637Y420671D01*
X61708Y420728D01*
X61776Y420788D01*
X61841Y420851D01*
X61904Y420916D01*
X61964Y420984D01*
X62021Y421055D01*
X62075Y421127D01*
X62127Y421202D01*
X62175Y421279D01*
X62220Y421358D01*
X62261Y421439D01*
X62299Y421521D01*
X62334Y421605D01*
X62365Y421690D01*
X62393Y421776D01*
X62417Y421863D01*
X62437Y421952D01*
X62454Y422041D01*
X62467Y422131D01*
X62477Y422221D01*
X62482Y422311D01*
X62484Y422402D01*
X62482Y422493D01*
X62477Y422583D01*
X62467Y422673D01*
X62454Y422763D01*
X62437Y422852D01*
X62417Y422941D01*
X62393Y423028D01*
X62365Y423114D01*
X62334Y423199D01*
X62299Y423283D01*
X62261Y423365D01*
X62220Y423446D01*
X62175Y423525D01*
X62127Y423602D01*
X62076Y423677D01*
X62021Y423749D01*
X61964Y423820D01*
X61904Y423888D01*
X61841Y423953D01*
X61776Y424016D01*
X61708Y424076D01*
X61637Y424133D01*
X61565Y424187D01*
X61490Y424238D01*
X61413Y424286D01*
X61334Y424331D01*
X61253Y424373D01*
X61171Y424411D01*
X61087Y424445D01*
X61002Y424476D01*
X60813Y424566D01*
X60621Y424651D01*
X60427Y424731D01*
X60231Y424807D01*
X60034Y424879D01*
X59835Y424945D01*
X59634Y425007D01*
X59432Y425064D01*
X59229Y425116D01*
X59024Y425163D01*
X58819Y425205D01*
X58612Y425243D01*
X58405Y425275D01*
X58197Y425302D01*
X57988Y425325D01*
X57779Y425342D01*
X57570Y425355D01*
X57360Y425362D01*
X57150Y425365D01*
X57150Y419439D02*
X56940Y419442D01*
X56730Y419449D01*
X56521Y419462D01*
X56312Y419479D01*
X56103Y419502D01*
X55895Y419529D01*
X55688Y419561D01*
X55481Y419599D01*
X55276Y419641D01*
X55071Y419688D01*
X54868Y419740D01*
X54666Y419797D01*
X54465Y419859D01*
X54266Y419925D01*
X54069Y419997D01*
X53873Y420073D01*
X53679Y420153D01*
X53488Y420238D01*
X53298Y420328D01*
X53213Y420359D01*
X53129Y420393D01*
X53047Y420431D01*
X52966Y420473D01*
X52887Y420518D01*
X52810Y420566D01*
X52735Y420617D01*
X52663Y420671D01*
X52592Y420728D01*
X52524Y420788D01*
X52459Y420851D01*
X52396Y420916D01*
X52336Y420984D01*
X52279Y421055D01*
X52224Y421127D01*
X52173Y421202D01*
X52125Y421279D01*
X52080Y421358D01*
X52039Y421439D01*
X52001Y421521D01*
X51966Y421605D01*
X51935Y421690D01*
X51907Y421776D01*
X51883Y421863D01*
X51863Y421952D01*
X51846Y422041D01*
X51833Y422131D01*
X51823Y422221D01*
X51818Y422311D01*
X51816Y422402D01*
X53298Y424476D02*
X53488Y424566D01*
X53679Y424651D01*
X53873Y424731D01*
X54069Y424807D01*
X54266Y424879D01*
X54465Y424945D01*
X54666Y425007D01*
X54868Y425064D01*
X55071Y425116D01*
X55276Y425163D01*
X55481Y425205D01*
X55688Y425243D01*
X55895Y425275D01*
X56103Y425302D01*
X56312Y425325D01*
X56521Y425342D01*
X56730Y425355D01*
X56940Y425362D01*
X57150Y425365D01*
X53298Y424476D02*
X53213Y424445D01*
X53129Y424411D01*
X53047Y424373D01*
X52966Y424331D01*
X52887Y424286D01*
X52810Y424238D01*
X52735Y424187D01*
X52663Y424133D01*
X52592Y424076D01*
X52524Y424016D01*
X52459Y423953D01*
X52396Y423888D01*
X52336Y423820D01*
X52279Y423749D01*
X52224Y423677D01*
X52173Y423602D01*
X52125Y423525D01*
X52080Y423446D01*
X52039Y423365D01*
X52001Y423283D01*
X51966Y423199D01*
X51935Y423114D01*
X51907Y423028D01*
X51883Y422941D01*
X51863Y422852D01*
X51846Y422763D01*
X51833Y422673D01*
X51823Y422583D01*
X51818Y422493D01*
X51816Y422402D01*
X54187Y420031D02*
X60113Y424773D01*
X60113Y430869D02*
X62484Y433832D01*
X51816Y433832D01*
X51816Y430869D02*
X51816Y436795D01*
X366624Y407416D02*
X377292Y414528D01*
X377292Y407416D02*
X366624Y414528D01*
X371958Y419439D02*
X372168Y419442D01*
X372378Y419449D01*
X372587Y419462D01*
X372796Y419479D01*
X373005Y419502D01*
X373213Y419529D01*
X373420Y419561D01*
X373627Y419599D01*
X373832Y419641D01*
X374037Y419688D01*
X374240Y419740D01*
X374442Y419797D01*
X374643Y419859D01*
X374842Y419925D01*
X375039Y419997D01*
X375235Y420073D01*
X375429Y420153D01*
X375621Y420238D01*
X375810Y420328D01*
X375895Y420359D01*
X375979Y420393D01*
X376061Y420431D01*
X376142Y420473D01*
X376221Y420518D01*
X376298Y420566D01*
X376373Y420617D01*
X376445Y420671D01*
X376516Y420728D01*
X376584Y420788D01*
X376649Y420851D01*
X376712Y420916D01*
X376772Y420984D01*
X376829Y421055D01*
X376883Y421127D01*
X376935Y421202D01*
X376983Y421279D01*
X377028Y421358D01*
X377069Y421439D01*
X377107Y421521D01*
X377142Y421605D01*
X377173Y421690D01*
X377201Y421776D01*
X377225Y421863D01*
X377245Y421952D01*
X377262Y422041D01*
X377275Y422131D01*
X377285Y422221D01*
X377290Y422311D01*
X377292Y422402D01*
X377290Y422493D01*
X377285Y422583D01*
X377275Y422673D01*
X377262Y422763D01*
X377245Y422852D01*
X377225Y422941D01*
X377201Y423028D01*
X377173Y423114D01*
X377142Y423199D01*
X377107Y423283D01*
X377069Y423365D01*
X377028Y423446D01*
X376983Y423525D01*
X376935Y423602D01*
X376884Y423677D01*
X376829Y423749D01*
X376772Y423820D01*
X376712Y423888D01*
X376649Y423953D01*
X376584Y424016D01*
X376516Y424076D01*
X376445Y424133D01*
X376373Y424187D01*
X376298Y424238D01*
X376221Y424286D01*
X376142Y424331D01*
X376061Y424373D01*
X375979Y424411D01*
X375895Y424445D01*
X375810Y424476D01*
X375621Y424566D01*
X375429Y424651D01*
X375235Y424731D01*
X375039Y424807D01*
X374842Y424879D01*
X374643Y424945D01*
X374442Y425007D01*
X374240Y425064D01*
X374037Y425116D01*
X373832Y425163D01*
X373627Y425205D01*
X373420Y425243D01*
X373213Y425275D01*
X373005Y425302D01*
X372796Y425325D01*
X372587Y425342D01*
X372378Y425355D01*
X372168Y425362D01*
X371958Y425365D01*
X371958Y419439D02*
X371748Y419442D01*
X371538Y419449D01*
X371329Y419462D01*
X371120Y419479D01*
X370911Y419502D01*
X370703Y419529D01*
X370496Y419561D01*
X370289Y419599D01*
X370084Y419641D01*
X369879Y419688D01*
X369676Y419740D01*
X369474Y419797D01*
X369273Y419859D01*
X369074Y419925D01*
X368877Y419997D01*
X368681Y420073D01*
X368487Y420153D01*
X368296Y420238D01*
X368106Y420328D01*
X368105Y420328D02*
X368020Y420359D01*
X367936Y420393D01*
X367854Y420431D01*
X367773Y420473D01*
X367694Y420518D01*
X367617Y420566D01*
X367542Y420617D01*
X367470Y420671D01*
X367399Y420728D01*
X367331Y420788D01*
X367266Y420851D01*
X367203Y420916D01*
X367143Y420984D01*
X367086Y421055D01*
X367031Y421127D01*
X366980Y421202D01*
X366932Y421279D01*
X366887Y421358D01*
X366846Y421439D01*
X366808Y421521D01*
X366773Y421605D01*
X366742Y421690D01*
X366714Y421776D01*
X366690Y421863D01*
X366670Y421952D01*
X366653Y422041D01*
X366640Y422131D01*
X366630Y422221D01*
X366625Y422311D01*
X366623Y422402D01*
X368106Y424476D02*
X368296Y424566D01*
X368487Y424651D01*
X368681Y424731D01*
X368877Y424807D01*
X369074Y424879D01*
X369273Y424945D01*
X369474Y425007D01*
X369676Y425064D01*
X369879Y425116D01*
X370084Y425163D01*
X370289Y425205D01*
X370496Y425243D01*
X370703Y425275D01*
X370911Y425302D01*
X371120Y425325D01*
X371329Y425342D01*
X371538Y425355D01*
X371748Y425362D01*
X371958Y425365D01*
X368105Y424476D02*
X368020Y424445D01*
X367936Y424411D01*
X367854Y424373D01*
X367773Y424331D01*
X367694Y424286D01*
X367617Y424238D01*
X367542Y424187D01*
X367470Y424133D01*
X367399Y424076D01*
X367331Y424016D01*
X367266Y423953D01*
X367203Y423888D01*
X367143Y423820D01*
X367086Y423749D01*
X367031Y423677D01*
X366980Y423602D01*
X366932Y423525D01*
X366887Y423446D01*
X366846Y423365D01*
X366808Y423283D01*
X366773Y423199D01*
X366742Y423114D01*
X366714Y423028D01*
X366690Y422941D01*
X366670Y422852D01*
X366653Y422763D01*
X366640Y422673D01*
X366630Y422583D01*
X366625Y422493D01*
X366623Y422402D01*
X368994Y420031D02*
X374921Y424773D01*
X374921Y430869D02*
X377292Y433832D01*
X366624Y433832D01*
X366624Y430869D02*
X366624Y436795D01*
X681406Y407416D02*
X692074Y414528D01*
X692074Y407416D02*
X681406Y414528D01*
X686740Y419439D02*
X686950Y419442D01*
X687160Y419449D01*
X687369Y419462D01*
X687578Y419479D01*
X687787Y419502D01*
X687995Y419529D01*
X688202Y419561D01*
X688409Y419599D01*
X688614Y419641D01*
X688819Y419688D01*
X689022Y419740D01*
X689224Y419797D01*
X689425Y419859D01*
X689624Y419925D01*
X689821Y419997D01*
X690017Y420073D01*
X690211Y420153D01*
X690403Y420238D01*
X690592Y420328D01*
X690677Y420359D01*
X690761Y420393D01*
X690843Y420431D01*
X690924Y420473D01*
X691003Y420518D01*
X691080Y420566D01*
X691155Y420617D01*
X691227Y420671D01*
X691298Y420728D01*
X691366Y420788D01*
X691431Y420851D01*
X691494Y420916D01*
X691554Y420984D01*
X691611Y421055D01*
X691665Y421127D01*
X691717Y421202D01*
X691765Y421279D01*
X691810Y421358D01*
X691851Y421439D01*
X691889Y421521D01*
X691924Y421605D01*
X691955Y421690D01*
X691983Y421776D01*
X692007Y421863D01*
X692027Y421952D01*
X692044Y422041D01*
X692057Y422131D01*
X692067Y422221D01*
X692072Y422311D01*
X692074Y422402D01*
X692072Y422493D01*
X692067Y422583D01*
X692057Y422673D01*
X692044Y422763D01*
X692027Y422852D01*
X692007Y422941D01*
X691983Y423028D01*
X691955Y423114D01*
X691924Y423199D01*
X691889Y423283D01*
X691851Y423365D01*
X691810Y423446D01*
X691765Y423525D01*
X691717Y423602D01*
X691666Y423677D01*
X691611Y423749D01*
X691554Y423820D01*
X691494Y423888D01*
X691431Y423953D01*
X691366Y424016D01*
X691298Y424076D01*
X691227Y424133D01*
X691155Y424187D01*
X691080Y424238D01*
X691003Y424286D01*
X690924Y424331D01*
X690843Y424373D01*
X690761Y424411D01*
X690677Y424445D01*
X690592Y424476D01*
X690403Y424566D01*
X690211Y424651D01*
X690017Y424731D01*
X689821Y424807D01*
X689624Y424879D01*
X689425Y424945D01*
X689224Y425007D01*
X689022Y425064D01*
X688819Y425116D01*
X688614Y425163D01*
X688409Y425205D01*
X688202Y425243D01*
X687995Y425275D01*
X687787Y425302D01*
X687578Y425325D01*
X687369Y425342D01*
X687160Y425355D01*
X686950Y425362D01*
X686740Y425365D01*
X686740Y419439D02*
X686530Y419442D01*
X686320Y419449D01*
X686111Y419462D01*
X685902Y419479D01*
X685693Y419502D01*
X685485Y419529D01*
X685278Y419561D01*
X685071Y419599D01*
X684866Y419641D01*
X684661Y419688D01*
X684458Y419740D01*
X684256Y419797D01*
X684055Y419859D01*
X683856Y419925D01*
X683659Y419997D01*
X683463Y420073D01*
X683269Y420153D01*
X683078Y420238D01*
X682888Y420328D01*
X682803Y420359D01*
X682719Y420393D01*
X682637Y420431D01*
X682556Y420473D01*
X682477Y420518D01*
X682400Y420566D01*
X682325Y420617D01*
X682253Y420671D01*
X682182Y420728D01*
X682114Y420788D01*
X682049Y420851D01*
X681986Y420916D01*
X681926Y420984D01*
X681869Y421055D01*
X681814Y421127D01*
X681763Y421202D01*
X681715Y421279D01*
X681670Y421358D01*
X681629Y421439D01*
X681591Y421521D01*
X681556Y421605D01*
X681525Y421690D01*
X681497Y421776D01*
X681473Y421863D01*
X681453Y421952D01*
X681436Y422041D01*
X681423Y422131D01*
X681413Y422221D01*
X681408Y422311D01*
X681406Y422402D01*
X682888Y424476D02*
X683078Y424566D01*
X683269Y424651D01*
X683463Y424731D01*
X683659Y424807D01*
X683856Y424879D01*
X684055Y424945D01*
X684256Y425007D01*
X684458Y425064D01*
X684661Y425116D01*
X684866Y425163D01*
X685071Y425205D01*
X685278Y425243D01*
X685485Y425275D01*
X685693Y425302D01*
X685902Y425325D01*
X686111Y425342D01*
X686320Y425355D01*
X686530Y425362D01*
X686740Y425365D01*
X682888Y424476D02*
X682803Y424445D01*
X682719Y424411D01*
X682637Y424373D01*
X682556Y424331D01*
X682477Y424286D01*
X682400Y424238D01*
X682325Y424187D01*
X682253Y424133D01*
X682182Y424076D01*
X682114Y424016D01*
X682049Y423953D01*
X681986Y423888D01*
X681926Y423820D01*
X681869Y423749D01*
X681814Y423677D01*
X681763Y423602D01*
X681715Y423525D01*
X681670Y423446D01*
X681629Y423365D01*
X681591Y423283D01*
X681556Y423199D01*
X681525Y423114D01*
X681497Y423028D01*
X681473Y422941D01*
X681453Y422852D01*
X681436Y422763D01*
X681423Y422673D01*
X681413Y422583D01*
X681408Y422493D01*
X681406Y422402D01*
X683776Y420031D02*
X689703Y424773D01*
X689703Y430869D02*
X692074Y433832D01*
X681406Y433832D01*
X681406Y430869D02*
X681406Y436795D01*
X62484Y869036D02*
X51816Y861924D01*
X51816Y869036D02*
X62484Y861924D01*
X61002Y874835D02*
X60813Y874745D01*
X60621Y874660D01*
X60427Y874580D01*
X60231Y874504D01*
X60034Y874432D01*
X59835Y874366D01*
X59634Y874304D01*
X59432Y874247D01*
X59229Y874195D01*
X59024Y874148D01*
X58819Y874106D01*
X58612Y874068D01*
X58405Y874036D01*
X58197Y874009D01*
X57988Y873986D01*
X57779Y873969D01*
X57570Y873956D01*
X57360Y873949D01*
X57150Y873946D01*
X61002Y874836D02*
X61087Y874867D01*
X61171Y874901D01*
X61253Y874939D01*
X61334Y874981D01*
X61413Y875026D01*
X61490Y875074D01*
X61565Y875125D01*
X61637Y875179D01*
X61708Y875236D01*
X61776Y875296D01*
X61841Y875359D01*
X61904Y875424D01*
X61964Y875492D01*
X62021Y875563D01*
X62075Y875635D01*
X62127Y875710D01*
X62175Y875787D01*
X62220Y875866D01*
X62261Y875947D01*
X62299Y876029D01*
X62334Y876113D01*
X62365Y876198D01*
X62393Y876284D01*
X62417Y876371D01*
X62437Y876460D01*
X62454Y876549D01*
X62467Y876639D01*
X62477Y876729D01*
X62482Y876819D01*
X62484Y876910D01*
X62482Y877001D01*
X62477Y877091D01*
X62467Y877181D01*
X62454Y877271D01*
X62437Y877360D01*
X62417Y877449D01*
X62393Y877536D01*
X62365Y877622D01*
X62334Y877707D01*
X62299Y877791D01*
X62261Y877873D01*
X62220Y877954D01*
X62175Y878033D01*
X62127Y878110D01*
X62076Y878185D01*
X62021Y878257D01*
X61964Y878328D01*
X61904Y878396D01*
X61841Y878461D01*
X61776Y878524D01*
X61708Y878584D01*
X61637Y878641D01*
X61565Y878695D01*
X61490Y878746D01*
X61413Y878794D01*
X61334Y878839D01*
X61253Y878881D01*
X61171Y878919D01*
X61087Y878953D01*
X61002Y878984D01*
X60813Y879074D01*
X60621Y879159D01*
X60427Y879239D01*
X60231Y879315D01*
X60034Y879387D01*
X59835Y879453D01*
X59634Y879515D01*
X59432Y879572D01*
X59229Y879624D01*
X59024Y879671D01*
X58819Y879713D01*
X58612Y879751D01*
X58405Y879783D01*
X58197Y879810D01*
X57988Y879833D01*
X57779Y879850D01*
X57570Y879863D01*
X57360Y879870D01*
X57150Y879873D01*
X57150Y873947D02*
X56940Y873950D01*
X56730Y873957D01*
X56521Y873970D01*
X56312Y873987D01*
X56103Y874010D01*
X55895Y874037D01*
X55688Y874069D01*
X55481Y874107D01*
X55276Y874149D01*
X55071Y874196D01*
X54868Y874248D01*
X54666Y874305D01*
X54465Y874367D01*
X54266Y874433D01*
X54069Y874505D01*
X53873Y874581D01*
X53679Y874661D01*
X53488Y874746D01*
X53298Y874836D01*
X53213Y874867D01*
X53129Y874901D01*
X53047Y874939D01*
X52966Y874981D01*
X52887Y875026D01*
X52810Y875074D01*
X52735Y875125D01*
X52663Y875179D01*
X52592Y875236D01*
X52524Y875296D01*
X52459Y875359D01*
X52396Y875424D01*
X52336Y875492D01*
X52279Y875563D01*
X52224Y875635D01*
X52173Y875710D01*
X52125Y875787D01*
X52080Y875866D01*
X52039Y875947D01*
X52001Y876029D01*
X51966Y876113D01*
X51935Y876198D01*
X51907Y876284D01*
X51883Y876371D01*
X51863Y876460D01*
X51846Y876549D01*
X51833Y876639D01*
X51823Y876729D01*
X51818Y876819D01*
X51816Y876910D01*
X53298Y878984D02*
X53488Y879074D01*
X53679Y879159D01*
X53873Y879239D01*
X54069Y879315D01*
X54266Y879387D01*
X54465Y879453D01*
X54666Y879515D01*
X54868Y879572D01*
X55071Y879624D01*
X55276Y879671D01*
X55481Y879713D01*
X55688Y879751D01*
X55895Y879783D01*
X56103Y879810D01*
X56312Y879833D01*
X56521Y879850D01*
X56730Y879863D01*
X56940Y879870D01*
X57150Y879873D01*
X53298Y878984D02*
X53213Y878953D01*
X53129Y878919D01*
X53047Y878881D01*
X52966Y878839D01*
X52887Y878794D01*
X52810Y878746D01*
X52735Y878695D01*
X52663Y878641D01*
X52592Y878584D01*
X52524Y878524D01*
X52459Y878461D01*
X52396Y878396D01*
X52336Y878328D01*
X52279Y878257D01*
X52224Y878185D01*
X52173Y878110D01*
X52125Y878033D01*
X52080Y877954D01*
X52039Y877873D01*
X52001Y877791D01*
X51966Y877707D01*
X51935Y877622D01*
X51907Y877536D01*
X51883Y877449D01*
X51863Y877360D01*
X51846Y877271D01*
X51833Y877181D01*
X51823Y877091D01*
X51818Y877001D01*
X51816Y876910D01*
X54187Y874539D02*
X60113Y879280D01*
X60113Y885376D02*
X62484Y888340D01*
X51816Y888340D01*
X51816Y891303D02*
X51816Y885376D01*
X366624Y861924D02*
X377292Y869036D01*
X377292Y861924D02*
X366624Y869036D01*
X371958Y873946D02*
X372168Y873949D01*
X372378Y873956D01*
X372587Y873969D01*
X372796Y873986D01*
X373005Y874009D01*
X373213Y874036D01*
X373420Y874068D01*
X373627Y874106D01*
X373832Y874148D01*
X374037Y874195D01*
X374240Y874247D01*
X374442Y874304D01*
X374643Y874366D01*
X374842Y874432D01*
X375039Y874504D01*
X375235Y874580D01*
X375429Y874660D01*
X375621Y874745D01*
X375810Y874835D01*
X375810Y874836D02*
X375895Y874867D01*
X375979Y874901D01*
X376061Y874939D01*
X376142Y874981D01*
X376221Y875026D01*
X376298Y875074D01*
X376373Y875125D01*
X376445Y875179D01*
X376516Y875236D01*
X376584Y875296D01*
X376649Y875359D01*
X376712Y875424D01*
X376772Y875492D01*
X376829Y875563D01*
X376883Y875635D01*
X376935Y875710D01*
X376983Y875787D01*
X377028Y875866D01*
X377069Y875947D01*
X377107Y876029D01*
X377142Y876113D01*
X377173Y876198D01*
X377201Y876284D01*
X377225Y876371D01*
X377245Y876460D01*
X377262Y876549D01*
X377275Y876639D01*
X377285Y876729D01*
X377290Y876819D01*
X377292Y876910D01*
X377290Y877001D01*
X377285Y877091D01*
X377275Y877181D01*
X377262Y877271D01*
X377245Y877360D01*
X377225Y877449D01*
X377201Y877536D01*
X377173Y877622D01*
X377142Y877707D01*
X377107Y877791D01*
X377069Y877873D01*
X377028Y877954D01*
X376983Y878033D01*
X376935Y878110D01*
X376884Y878185D01*
X376829Y878257D01*
X376772Y878328D01*
X376712Y878396D01*
X376649Y878461D01*
X376584Y878524D01*
X376516Y878584D01*
X376445Y878641D01*
X376373Y878695D01*
X376298Y878746D01*
X376221Y878794D01*
X376142Y878839D01*
X376061Y878881D01*
X375979Y878919D01*
X375895Y878953D01*
X375810Y878984D01*
X375621Y879074D01*
X375429Y879159D01*
X375235Y879239D01*
X375039Y879315D01*
X374842Y879387D01*
X374643Y879453D01*
X374442Y879515D01*
X374240Y879572D01*
X374037Y879624D01*
X373832Y879671D01*
X373627Y879713D01*
X373420Y879751D01*
X373213Y879783D01*
X373005Y879810D01*
X372796Y879833D01*
X372587Y879850D01*
X372378Y879863D01*
X372168Y879870D01*
X371958Y879873D01*
X371958Y873947D02*
X371748Y873950D01*
X371538Y873957D01*
X371329Y873970D01*
X371120Y873987D01*
X370911Y874010D01*
X370703Y874037D01*
X370496Y874069D01*
X370289Y874107D01*
X370084Y874149D01*
X369879Y874196D01*
X369676Y874248D01*
X369474Y874305D01*
X369273Y874367D01*
X369074Y874433D01*
X368877Y874505D01*
X368681Y874581D01*
X368487Y874661D01*
X368296Y874746D01*
X368106Y874836D01*
X368105Y874836D02*
X368020Y874867D01*
X367936Y874901D01*
X367854Y874939D01*
X367773Y874981D01*
X367694Y875026D01*
X367617Y875074D01*
X367542Y875125D01*
X367470Y875179D01*
X367399Y875236D01*
X367331Y875296D01*
X367266Y875359D01*
X367203Y875424D01*
X367143Y875492D01*
X367086Y875563D01*
X367031Y875635D01*
X366980Y875710D01*
X366932Y875787D01*
X366887Y875866D01*
X366846Y875947D01*
X366808Y876029D01*
X366773Y876113D01*
X366742Y876198D01*
X366714Y876284D01*
X366690Y876371D01*
X366670Y876460D01*
X366653Y876549D01*
X366640Y876639D01*
X366630Y876729D01*
X366625Y876819D01*
X366623Y876910D01*
X368106Y878984D02*
X368296Y879074D01*
X368487Y879159D01*
X368681Y879239D01*
X368877Y879315D01*
X369074Y879387D01*
X369273Y879453D01*
X369474Y879515D01*
X369676Y879572D01*
X369879Y879624D01*
X370084Y879671D01*
X370289Y879713D01*
X370496Y879751D01*
X370703Y879783D01*
X370911Y879810D01*
X371120Y879833D01*
X371329Y879850D01*
X371538Y879863D01*
X371748Y879870D01*
X371958Y879873D01*
X368105Y878984D02*
X368020Y878953D01*
X367936Y878919D01*
X367854Y878881D01*
X367773Y878839D01*
X367694Y878794D01*
X367617Y878746D01*
X367542Y878695D01*
X367470Y878641D01*
X367399Y878584D01*
X367331Y878524D01*
X367266Y878461D01*
X367203Y878396D01*
X367143Y878328D01*
X367086Y878257D01*
X367031Y878185D01*
X366980Y878110D01*
X366932Y878033D01*
X366887Y877954D01*
X366846Y877873D01*
X366808Y877791D01*
X366773Y877707D01*
X366742Y877622D01*
X366714Y877536D01*
X366690Y877449D01*
X366670Y877360D01*
X366653Y877271D01*
X366640Y877181D01*
X366630Y877091D01*
X366625Y877001D01*
X366623Y876910D01*
X368994Y874539D02*
X374921Y879280D01*
X374921Y885376D02*
X377292Y888340D01*
X366624Y888340D01*
X366624Y891303D02*
X366624Y885376D01*
X681406Y861924D02*
X692074Y869036D01*
X692074Y861924D02*
X681406Y869036D01*
X686740Y873946D02*
X686950Y873949D01*
X687160Y873956D01*
X687369Y873969D01*
X687578Y873986D01*
X687787Y874009D01*
X687995Y874036D01*
X688202Y874068D01*
X688409Y874106D01*
X688614Y874148D01*
X688819Y874195D01*
X689022Y874247D01*
X689224Y874304D01*
X689425Y874366D01*
X689624Y874432D01*
X689821Y874504D01*
X690017Y874580D01*
X690211Y874660D01*
X690403Y874745D01*
X690592Y874835D01*
X690592Y874836D02*
X690677Y874867D01*
X690761Y874901D01*
X690843Y874939D01*
X690924Y874981D01*
X691003Y875026D01*
X691080Y875074D01*
X691155Y875125D01*
X691227Y875179D01*
X691298Y875236D01*
X691366Y875296D01*
X691431Y875359D01*
X691494Y875424D01*
X691554Y875492D01*
X691611Y875563D01*
X691665Y875635D01*
X691717Y875710D01*
X691765Y875787D01*
X691810Y875866D01*
X691851Y875947D01*
X691889Y876029D01*
X691924Y876113D01*
X691955Y876198D01*
X691983Y876284D01*
X692007Y876371D01*
X692027Y876460D01*
X692044Y876549D01*
X692057Y876639D01*
X692067Y876729D01*
X692072Y876819D01*
X692074Y876910D01*
X692072Y877001D01*
X692067Y877091D01*
X692057Y877181D01*
X692044Y877271D01*
X692027Y877360D01*
X692007Y877449D01*
X691983Y877536D01*
X691955Y877622D01*
X691924Y877707D01*
X691889Y877791D01*
X691851Y877873D01*
X691810Y877954D01*
X691765Y878033D01*
X691717Y878110D01*
X691666Y878185D01*
X691611Y878257D01*
X691554Y878328D01*
X691494Y878396D01*
X691431Y878461D01*
X691366Y878524D01*
X691298Y878584D01*
X691227Y878641D01*
X691155Y878695D01*
X691080Y878746D01*
X691003Y878794D01*
X690924Y878839D01*
X690843Y878881D01*
X690761Y878919D01*
X690677Y878953D01*
X690592Y878984D01*
X690403Y879074D01*
X690211Y879159D01*
X690017Y879239D01*
X689821Y879315D01*
X689624Y879387D01*
X689425Y879453D01*
X689224Y879515D01*
X689022Y879572D01*
X688819Y879624D01*
X688614Y879671D01*
X688409Y879713D01*
X688202Y879751D01*
X687995Y879783D01*
X687787Y879810D01*
X687578Y879833D01*
X687369Y879850D01*
X687160Y879863D01*
X686950Y879870D01*
X686740Y879873D01*
X686740Y873947D02*
X686530Y873950D01*
X686320Y873957D01*
X686111Y873970D01*
X685902Y873987D01*
X685693Y874010D01*
X685485Y874037D01*
X685278Y874069D01*
X685071Y874107D01*
X684866Y874149D01*
X684661Y874196D01*
X684458Y874248D01*
X684256Y874305D01*
X684055Y874367D01*
X683856Y874433D01*
X683659Y874505D01*
X683463Y874581D01*
X683269Y874661D01*
X683078Y874746D01*
X682888Y874836D01*
X682803Y874867D01*
X682719Y874901D01*
X682637Y874939D01*
X682556Y874981D01*
X682477Y875026D01*
X682400Y875074D01*
X682325Y875125D01*
X682253Y875179D01*
X682182Y875236D01*
X682114Y875296D01*
X682049Y875359D01*
X681986Y875424D01*
X681926Y875492D01*
X681869Y875563D01*
X681814Y875635D01*
X681763Y875710D01*
X681715Y875787D01*
X681670Y875866D01*
X681629Y875947D01*
X681591Y876029D01*
X681556Y876113D01*
X681525Y876198D01*
X681497Y876284D01*
X681473Y876371D01*
X681453Y876460D01*
X681436Y876549D01*
X681423Y876639D01*
X681413Y876729D01*
X681408Y876819D01*
X681406Y876910D01*
X682888Y878984D02*
X683078Y879074D01*
X683269Y879159D01*
X683463Y879239D01*
X683659Y879315D01*
X683856Y879387D01*
X684055Y879453D01*
X684256Y879515D01*
X684458Y879572D01*
X684661Y879624D01*
X684866Y879671D01*
X685071Y879713D01*
X685278Y879751D01*
X685485Y879783D01*
X685693Y879810D01*
X685902Y879833D01*
X686111Y879850D01*
X686320Y879863D01*
X686530Y879870D01*
X686740Y879873D01*
X682888Y878984D02*
X682803Y878953D01*
X682719Y878919D01*
X682637Y878881D01*
X682556Y878839D01*
X682477Y878794D01*
X682400Y878746D01*
X682325Y878695D01*
X682253Y878641D01*
X682182Y878584D01*
X682114Y878524D01*
X682049Y878461D01*
X681986Y878396D01*
X681926Y878328D01*
X681869Y878257D01*
X681814Y878185D01*
X681763Y878110D01*
X681715Y878033D01*
X681670Y877954D01*
X681629Y877873D01*
X681591Y877791D01*
X681556Y877707D01*
X681525Y877622D01*
X681497Y877536D01*
X681473Y877449D01*
X681453Y877360D01*
X681436Y877271D01*
X681423Y877181D01*
X681413Y877091D01*
X681408Y877001D01*
X681406Y876910D01*
X683776Y874539D02*
X689703Y879280D01*
X689703Y885376D02*
X692074Y888340D01*
X681406Y888340D01*
X681406Y891303D02*
X681406Y885376D01*
D11*
X101600Y91186D03*
X101600Y101600D03*
X101600Y112014D03*
D12*
X197993Y101600D03*
X208407Y101600D03*
D13*
X157480Y254000D03*
X147320Y177800D03*
D12*
X197993Y76200D03*
X208407Y76200D03*
D14*
X88900Y12700D03*
X114300Y12700D03*
X139700Y12700D03*
X165100Y12700D03*
X190500Y12700D03*
X215900Y12700D03*
D15*
X7620Y436880D03*
X297180Y7620D03*
D11*
X416408Y91186D03*
X416408Y101600D03*
X416408Y112014D03*
D12*
X512801Y101600D03*
X523215Y101600D03*
D13*
X472288Y254000D03*
X462128Y177800D03*
D12*
X512801Y76200D03*
X523215Y76200D03*
D14*
X403708Y12700D03*
X429108Y12700D03*
X454508Y12700D03*
X479908Y12700D03*
X505308Y12700D03*
X530708Y12700D03*
D15*
X322428Y436880D03*
X611988Y7620D03*
D11*
X731190Y91186D03*
X731190Y101600D03*
X731190Y112014D03*
D12*
X827583Y101600D03*
X837997Y101600D03*
D13*
X787070Y254000D03*
X776910Y177800D03*
D12*
X827583Y76200D03*
X837997Y76200D03*
D14*
X718490Y12700D03*
X743890Y12700D03*
X769290Y12700D03*
X794690Y12700D03*
X820090Y12700D03*
X845490Y12700D03*
D15*
X637210Y436880D03*
X926770Y7620D03*
D11*
X101600Y545694D03*
X101600Y556108D03*
X101600Y566522D03*
D12*
X197993Y556108D03*
X208407Y556108D03*
D13*
X157480Y708508D03*
X147320Y632308D03*
D12*
X197993Y530708D03*
X208407Y530708D03*
D14*
X88900Y467208D03*
X114300Y467208D03*
X139700Y467208D03*
X165100Y467208D03*
X190500Y467208D03*
X215900Y467208D03*
D15*
X7620Y891388D03*
X297180Y462128D03*
D11*
X416408Y545694D03*
X416408Y556108D03*
X416408Y566522D03*
D12*
X512801Y556108D03*
X523215Y556108D03*
D13*
X472288Y708508D03*
X462128Y632308D03*
D12*
X512801Y530708D03*
X523215Y530708D03*
D14*
X403708Y467208D03*
X429108Y467208D03*
X454508Y467208D03*
X479908Y467208D03*
X505308Y467208D03*
X530708Y467208D03*
D15*
X322428Y891388D03*
X611988Y462128D03*
D11*
X731190Y545694D03*
X731190Y556108D03*
X731190Y566522D03*
D12*
X827583Y556108D03*
X837997Y556108D03*
D13*
X787070Y708508D03*
X776910Y632308D03*
D12*
X827583Y530708D03*
X837997Y530708D03*
D14*
X718490Y467208D03*
X743890Y467208D03*
X769290Y467208D03*
X794690Y467208D03*
X820090Y467208D03*
X845490Y467208D03*
D15*
X637210Y891388D03*
X926770Y462128D03*
X-31166Y877240D03*
X965556Y877240D03*
D16*
X-31166Y63500D03*
D13*
X12700Y114300D03*
X12700Y101600D03*
X12700Y88900D03*
X63500Y25400D03*
X63500Y12700D03*
X76200Y152400D03*
X88900Y152400D03*
X101600Y152400D03*
X177800Y152400D03*
X190500Y152400D03*
X203200Y152400D03*
X241300Y12700D03*
X254000Y12700D03*
X241300Y25400D03*
X292100Y114300D03*
X292100Y101600D03*
X292100Y88900D03*
X266700Y50800D03*
X292100Y50800D03*
X279400Y50800D03*
X12700Y50800D03*
X38100Y50800D03*
X25400Y50800D03*
X35560Y106680D03*
D17*
X40640Y101600D01*
X81280Y101600D01*
X101600Y101600D01*
X167640Y101600D01*
X182880Y116840D01*
X208280Y116840D01*
X261620Y116840D01*
X266700Y111760D01*
X266700Y96520D01*
D13*
X266700Y96520D03*
D17*
X208407Y101600D02*
X208280Y101727D01*
X208280Y116840D01*
D13*
X167640Y101600D03*
D17*
X208407Y101600D02*
X208407Y76200D01*
X81280Y53340D02*
X81280Y101600D01*
X81280Y53340D02*
X88900Y45720D01*
X104140Y45720D01*
X114300Y35560D01*
X114300Y12700D01*
D13*
X81280Y53340D03*
X124460Y88900D03*
D18*
X142240Y88900D01*
D13*
X142240Y88900D03*
D18*
X182880Y88900D01*
D13*
X182880Y88900D03*
X233680Y55880D03*
X133350Y55880D03*
D18*
X233680Y55880D01*
D13*
X81280Y111760D03*
D18*
X81534Y112014D01*
X101600Y112014D01*
X101600Y91186D02*
X101600Y63500D01*
D13*
X101600Y63500D03*
D18*
X182880Y101600D02*
X197993Y101600D01*
D13*
X182880Y101600D03*
X165100Y177800D03*
D18*
X165100Y220980D01*
X157480Y228600D01*
X157480Y254000D01*
D13*
X203200Y129540D03*
D18*
X271780Y129540D01*
X276860Y124460D01*
X215900Y38100D02*
X215900Y12700D01*
X215900Y38100D02*
X220980Y43180D01*
X236220Y43180D01*
X246380Y53340D01*
X246380Y78740D01*
X251460Y83820D01*
X271780Y83820D01*
X276860Y88900D01*
X276860Y124460D01*
X197993Y76200D02*
X197993Y66167D01*
X200660Y63500D01*
X223520Y63500D01*
D13*
X223520Y63500D03*
X327508Y114300D03*
X327508Y101600D03*
X327508Y88900D03*
X378308Y25400D03*
X378308Y12700D03*
X391008Y152400D03*
X403708Y152400D03*
X416408Y152400D03*
X492608Y152400D03*
X505308Y152400D03*
X518008Y152400D03*
X556108Y12700D03*
X568808Y12700D03*
X556108Y25400D03*
X606908Y114300D03*
X606908Y101600D03*
X606908Y88900D03*
X581508Y50800D03*
X606908Y50800D03*
X594208Y50800D03*
X327508Y50800D03*
X352908Y50800D03*
X340208Y50800D03*
X350368Y106680D03*
D17*
X355448Y101600D01*
X396088Y101600D01*
X416408Y101600D01*
X482448Y101600D01*
X497688Y116840D01*
X523088Y116840D01*
X576428Y116840D01*
X581508Y111760D01*
X581508Y96520D01*
D13*
X581508Y96520D03*
D17*
X523215Y101600D02*
X523088Y101727D01*
X523088Y116840D01*
D13*
X482448Y101600D03*
D17*
X523215Y101600D02*
X523215Y76200D01*
X396088Y53340D02*
X396088Y101600D01*
X396088Y53340D02*
X403708Y45720D01*
X418948Y45720D01*
X429108Y35560D01*
X429108Y12700D01*
D13*
X396088Y53340D03*
X439268Y88900D03*
D18*
X457048Y88900D01*
D13*
X457048Y88900D03*
D18*
X497688Y88900D01*
D13*
X497688Y88900D03*
X548488Y55880D03*
X448158Y55880D03*
D18*
X548488Y55880D01*
D13*
X396088Y111760D03*
D18*
X396342Y112014D01*
X416408Y112014D01*
X416408Y91186D02*
X416408Y63500D01*
D13*
X416408Y63500D03*
D18*
X497688Y101600D02*
X512801Y101600D01*
D13*
X497688Y101600D03*
X479908Y177800D03*
D18*
X479908Y220980D01*
X472288Y228600D01*
X472288Y254000D01*
D13*
X518008Y129540D03*
D18*
X586588Y129540D01*
X591668Y124460D01*
X530708Y38100D02*
X530708Y12700D01*
X530708Y38100D02*
X535788Y43180D01*
X551028Y43180D01*
X561188Y53340D01*
X561188Y78740D01*
X566268Y83820D01*
X586588Y83820D01*
X591668Y88900D01*
X591668Y124460D01*
X512801Y76200D02*
X512801Y66167D01*
X515468Y63500D01*
X538328Y63500D01*
D13*
X538328Y63500D03*
X642290Y114300D03*
X642290Y101600D03*
X642290Y88900D03*
X693090Y25400D03*
X693090Y12700D03*
X705790Y152400D03*
X718490Y152400D03*
X731190Y152400D03*
X807390Y152400D03*
X820090Y152400D03*
X832790Y152400D03*
X870890Y12700D03*
X883590Y12700D03*
X870890Y25400D03*
X921690Y114300D03*
X921690Y101600D03*
X921690Y88900D03*
X896290Y50800D03*
X921690Y50800D03*
X908990Y50800D03*
X642290Y50800D03*
X667690Y50800D03*
X654990Y50800D03*
X665150Y106680D03*
D17*
X670230Y101600D01*
X710870Y101600D01*
X731190Y101600D01*
X797230Y101600D01*
X812470Y116840D01*
X837870Y116840D01*
X891210Y116840D01*
X896290Y111760D01*
X896290Y96520D01*
D13*
X896290Y96520D03*
D17*
X837997Y101600D02*
X837870Y101727D01*
X837870Y116840D01*
D13*
X797230Y101600D03*
D17*
X837997Y101600D02*
X837997Y76200D01*
X710870Y53340D02*
X710870Y101600D01*
X710870Y53340D02*
X718490Y45720D01*
X733730Y45720D01*
X743890Y35560D01*
X743890Y12700D01*
D13*
X710870Y53340D03*
X754050Y88900D03*
D18*
X771830Y88900D01*
D13*
X771830Y88900D03*
D18*
X812470Y88900D01*
D13*
X812470Y88900D03*
X863270Y55880D03*
X762940Y55880D03*
D18*
X863270Y55880D01*
D13*
X710870Y111760D03*
D18*
X711124Y112014D01*
X731190Y112014D01*
X731190Y91186D02*
X731190Y63500D01*
D13*
X731190Y63500D03*
D18*
X812470Y101600D02*
X827583Y101600D01*
D13*
X812470Y101600D03*
X794690Y177800D03*
D18*
X794690Y220980D01*
X787070Y228600D01*
X787070Y254000D01*
D13*
X832790Y129540D03*
D18*
X901370Y129540D01*
X906450Y124460D01*
X845490Y38100D02*
X845490Y12700D01*
X845490Y38100D02*
X850570Y43180D01*
X865810Y43180D01*
X875970Y53340D01*
X875970Y78740D01*
X881050Y83820D01*
X901370Y83820D01*
X906450Y88900D01*
X906450Y124460D01*
X827583Y76200D02*
X827583Y66167D01*
X830250Y63500D01*
X853110Y63500D01*
D13*
X853110Y63500D03*
X12700Y568808D03*
X12700Y556108D03*
X12700Y543408D03*
X63500Y479908D03*
X63500Y467208D03*
X76200Y606908D03*
X88900Y606908D03*
X101600Y606908D03*
X177800Y606908D03*
X190500Y606908D03*
X203200Y606908D03*
X241300Y467208D03*
X254000Y467208D03*
X241300Y479908D03*
X292100Y568808D03*
X292100Y556108D03*
X292100Y543408D03*
X266700Y505308D03*
X292100Y505308D03*
X279400Y505308D03*
X12700Y505308D03*
X38100Y505308D03*
X25400Y505308D03*
X35560Y561188D03*
D17*
X40640Y556108D01*
X81280Y556108D01*
X101600Y556108D01*
X167640Y556108D01*
X182880Y571348D01*
X208280Y571348D01*
X261620Y571348D01*
X266700Y566268D01*
X266700Y551028D01*
D13*
X266700Y551028D03*
D17*
X208407Y556108D02*
X208280Y556235D01*
X208280Y571348D01*
D13*
X167640Y556108D03*
D17*
X208407Y556108D02*
X208407Y530708D01*
X81280Y507848D02*
X81280Y556108D01*
X81280Y507848D02*
X88900Y500228D01*
X104140Y500228D01*
X114300Y490068D01*
X114300Y467208D01*
D13*
X81280Y507848D03*
X124460Y543408D03*
D18*
X142240Y543408D01*
D13*
X142240Y543408D03*
D18*
X182880Y543408D01*
D13*
X182880Y543408D03*
X233680Y510388D03*
X133350Y510388D03*
D18*
X233680Y510388D01*
D13*
X81280Y566268D03*
D18*
X81534Y566522D01*
X101600Y566522D01*
X101600Y545694D02*
X101600Y518008D01*
D13*
X101600Y518008D03*
D18*
X182880Y556108D02*
X197993Y556108D01*
D13*
X182880Y556108D03*
X165100Y632308D03*
D18*
X165100Y675488D01*
X157480Y683108D01*
X157480Y708508D01*
D13*
X203200Y584048D03*
D18*
X271780Y584048D01*
X276860Y578968D01*
X215900Y492608D02*
X215900Y467208D01*
X215900Y492608D02*
X220980Y497688D01*
X236220Y497688D01*
X246380Y507848D01*
X246380Y533248D01*
X251460Y538328D01*
X271780Y538328D01*
X276860Y543408D01*
X276860Y578968D01*
X197993Y530708D02*
X197993Y520675D01*
X200660Y518008D01*
X223520Y518008D01*
D13*
X223520Y518008D03*
X327508Y568808D03*
X327508Y556108D03*
X327508Y543408D03*
X378308Y479908D03*
X378308Y467208D03*
X391008Y606908D03*
X403708Y606908D03*
X416408Y606908D03*
X492608Y606908D03*
X505308Y606908D03*
X518008Y606908D03*
X556108Y467208D03*
X568808Y467208D03*
X556108Y479908D03*
X606908Y568808D03*
X606908Y556108D03*
X606908Y543408D03*
X581508Y505308D03*
X606908Y505308D03*
X594208Y505308D03*
X327508Y505308D03*
X352908Y505308D03*
X340208Y505308D03*
X350368Y561188D03*
D17*
X355448Y556108D01*
X396088Y556108D01*
X416408Y556108D01*
X482448Y556108D01*
X497688Y571348D01*
X523088Y571348D01*
X576428Y571348D01*
X581508Y566268D01*
X581508Y551028D01*
D13*
X581508Y551028D03*
D17*
X523215Y556108D02*
X523088Y556235D01*
X523088Y571348D01*
D13*
X482448Y556108D03*
D17*
X523215Y556108D02*
X523215Y530708D01*
X396088Y507848D02*
X396088Y556108D01*
X396088Y507848D02*
X403708Y500228D01*
X418948Y500228D01*
X429108Y490068D01*
X429108Y467208D01*
D13*
X396088Y507848D03*
X439268Y543408D03*
D18*
X457048Y543408D01*
D13*
X457048Y543408D03*
D18*
X497688Y543408D01*
D13*
X497688Y543408D03*
X548488Y510388D03*
X448158Y510388D03*
D18*
X548488Y510388D01*
D13*
X396088Y566268D03*
D18*
X396342Y566522D01*
X416408Y566522D01*
X416408Y545694D02*
X416408Y518008D01*
D13*
X416408Y518008D03*
D18*
X497688Y556108D02*
X512801Y556108D01*
D13*
X497688Y556108D03*
X479908Y632308D03*
D18*
X479908Y675488D01*
X472288Y683108D01*
X472288Y708508D01*
D13*
X518008Y584048D03*
D18*
X586588Y584048D01*
X591668Y578968D01*
X530708Y492608D02*
X530708Y467208D01*
X530708Y492608D02*
X535788Y497688D01*
X551028Y497688D01*
X561188Y507848D01*
X561188Y533248D01*
X566268Y538328D01*
X586588Y538328D01*
X591668Y543408D01*
X591668Y578968D01*
X512801Y530708D02*
X512801Y520675D01*
X515468Y518008D01*
X538328Y518008D01*
D13*
X538328Y518008D03*
X642290Y568808D03*
X642290Y556108D03*
X642290Y543408D03*
X693090Y479908D03*
X693090Y467208D03*
X705790Y606908D03*
X718490Y606908D03*
X731190Y606908D03*
X807390Y606908D03*
X820090Y606908D03*
X832790Y606908D03*
X870890Y467208D03*
X883590Y467208D03*
X870890Y479908D03*
X921690Y568808D03*
X921690Y556108D03*
X921690Y543408D03*
X896290Y505308D03*
X921690Y505308D03*
X908990Y505308D03*
X642290Y505308D03*
X667690Y505308D03*
X654990Y505308D03*
X665150Y561188D03*
D17*
X670230Y556108D01*
X710870Y556108D01*
X731190Y556108D01*
X797230Y556108D01*
X812470Y571348D01*
X837870Y571348D01*
X891210Y571348D01*
X896290Y566268D01*
X896290Y551028D01*
D13*
X896290Y551028D03*
D17*
X837997Y556108D02*
X837870Y556235D01*
X837870Y571348D01*
D13*
X797230Y556108D03*
D17*
X837997Y556108D02*
X837997Y530708D01*
X710870Y507848D02*
X710870Y556108D01*
X710870Y507848D02*
X718490Y500228D01*
X733730Y500228D01*
X743890Y490068D01*
X743890Y467208D01*
D13*
X710870Y507848D03*
X754050Y543408D03*
D18*
X771830Y543408D01*
D13*
X771830Y543408D03*
D18*
X812470Y543408D01*
D13*
X812470Y543408D03*
X863270Y510388D03*
X762940Y510388D03*
D18*
X863270Y510388D01*
D13*
X710870Y566268D03*
D18*
X711124Y566522D01*
X731190Y566522D01*
X731190Y545694D02*
X731190Y518008D01*
D13*
X731190Y518008D03*
D18*
X812470Y556108D02*
X827583Y556108D01*
D13*
X812470Y556108D03*
X794690Y632308D03*
D18*
X794690Y675488D01*
X787070Y683108D01*
X787070Y708508D01*
D13*
X832790Y584048D03*
D18*
X901370Y584048D01*
X906450Y578968D01*
X845490Y492608D02*
X845490Y467208D01*
X845490Y492608D02*
X850570Y497688D01*
X865810Y497688D01*
X875970Y507848D01*
X875970Y533248D01*
X881050Y538328D01*
X901370Y538328D01*
X906450Y543408D01*
X906450Y578968D01*
X827583Y530708D02*
X827583Y520675D01*
X830250Y518008D01*
X853110Y518008D01*
D13*
X853110Y518008D03*
M02*
