M48
;GenerationSoftware,Autodesk,EAGLE,9.6.2*%
;CreationDate,2021-11-04T18:24:19Z*%
FMAT,2
ICI,OFF
METRIC,TZ,000.000
T3C0.305
T2C1.016
T1C3.302
%
G90
M71
T1
X59421Y41910
X65499Y47991
X2540Y41910
X27940Y41910
X2540Y2540
X27940Y2540
X34021Y41910
X2540Y87361
X34021Y2540
X59421Y2540
X65499Y41910
X90899Y41910
X65499Y2540
X90899Y2540
X90899Y47991
X27940Y87361
X2540Y47991
X27940Y47991
X34021Y87361
X59421Y87361
X34021Y47991
X59421Y47991
X65499Y87361
X90899Y87361
T2
X40371Y1270
X84549Y46721
X8890Y1270
X11430Y1270
X13970Y1270
X16510Y1270
X19050Y1270
X21590Y1270
X42911Y1270
X45451Y1270
X47991Y1270
X50531Y1270
X53071Y1270
X71849Y1270
X74389Y1270
X76929Y1270
X79469Y1270
X82009Y1270
X84549Y1270
X8890Y46721
X11430Y46721
X13970Y46721
X16510Y46721
X19050Y46721
X21590Y46721
X40371Y46721
X42911Y46721
X45451Y46721
X47991Y46721
X50531Y46721
X53071Y46721
X71849Y46721
X74389Y46721
X76929Y46721
X79469Y46721
X82009Y46721
T3
X34021Y5080
X35037Y10668
X58151Y9652
X48245Y10160
X39609Y5334
X43927Y8890
X45705Y8890
X49769Y8890
X54849Y5588
X44816Y5588
X39609Y11176
X41641Y6350
X49769Y10160
X47991Y17780
X51801Y12954
X53833Y6350
X64229Y11430
X64229Y10160
X64229Y8890
X69309Y2540
X69309Y1270
X70579Y15240
X71849Y15240
X73119Y15240
X80739Y15240
X82009Y15240
X83279Y15240
X87089Y1270
X88359Y1270
X87089Y2540
X92169Y11430
X92169Y10160
X92169Y8890
X89629Y5080
X92169Y5080
X90899Y5080
X64229Y5080
X66769Y5080
X65499Y5080
X66515Y10668
X89629Y9652
X79723Y10160
X71087Y5334
X75405Y8890
X77183Y8890
X81247Y8890
X86327Y5588
X76294Y5588
X71087Y11176
X73119Y6350
X81247Y10160
X79469Y17780
X83279Y12954
X85311Y6350
X1270Y56881
X1270Y55611
X1270Y54341
X6350Y47991
X6350Y46721
X7620Y60691
X8890Y60691
X10160Y60691
X17780Y60691
X19050Y60691
X20320Y60691
X24130Y46721
X25400Y46721
X24130Y47991
X29210Y56881
X29210Y55611
X29210Y54341
X26670Y50531
X29210Y50531
X27940Y50531
X1270Y50531
X3810Y50531
X2540Y50531
X3556Y56119
X26670Y55103
X16764Y55611
X8128Y50785
X12446Y54341
X14224Y54341
X18288Y54341
X23368Y51039
X13335Y51039
X8128Y56627
X10160Y51801
X18288Y55611
X16510Y63231
X22352Y6350
X22352Y51801
X32751Y56881
X32751Y55611
X32751Y54341
X37831Y47991
X37831Y46721
X39101Y60691
X40371Y60691
X41641Y60691
X49261Y60691
X50531Y60691
X51801Y60691
X55611Y46721
X56881Y46721
X55611Y47991
X60691Y56881
X60691Y55611
X60691Y54341
X58151Y50531
X60691Y50531
X59421Y50531
X32751Y50531
X35291Y50531
X34021Y50531
X35037Y56119
X58151Y55103
X48245Y55611
X39609Y50785
X43927Y54341
X45705Y54341
X49769Y54341
X54849Y51039
X44816Y51039
X39609Y56627
X41641Y51801
X49769Y55611
X47991Y63231
X51801Y58405
X53833Y51801
X64229Y56881
X64229Y55611
X64229Y54341
X69309Y47991
X69309Y46721
X70579Y60691
X71849Y60691
X73119Y60691
X80739Y60691
X82009Y60691
X83279Y60691
X87089Y46721
X88359Y46721
X87089Y47991
X92169Y56881
X92169Y55611
X92169Y54341
X89629Y50531
X92169Y50531
X90899Y50531
X64229Y50531
X66769Y50531
X65499Y50531
X66515Y56119
X89629Y55103
X79723Y55611
X71087Y50785
X75405Y54341
X77183Y54341
X81247Y54341
X86327Y51039
X76294Y51039
X71087Y56627
X73119Y51801
X81247Y55611
X1270Y11430
X83279Y58405
X85311Y51801
X1270Y10160
X1270Y8890
X6350Y2540
X6350Y1270
X7620Y15240
X8890Y15240
X10160Y15240
X17780Y15240
X19050Y15240
X20320Y15240
X24130Y1270
X25400Y1270
X24130Y2540
X29210Y11430
X29210Y10160
X29210Y8890
X26670Y5080
X29210Y5080
X27940Y5080
X1270Y5080
X3810Y5080
X2540Y5080
X3556Y10668
X26670Y9652
X15748Y25400
X14732Y17780
X16764Y10160
X8128Y5334
X12446Y8890
X14224Y8890
X18288Y8890
X23368Y5588
X47229Y25400
X46213Y17780
X20320Y58405
X13335Y5588
X8128Y11176
X10160Y6350
X18288Y10160
X16510Y17780
X78707Y25400
X77691Y17780
X20320Y12954
X32751Y11430
X32751Y10160
X32751Y8890
X37831Y2540
X37831Y1270
X15748Y70851
X14732Y63231
X39101Y15240
X40371Y15240
X41641Y15240
X49261Y15240
X50531Y15240
X51801Y15240
X47229Y70851
X46213Y63231
X55611Y1270
X56881Y1270
X55611Y2540
X60691Y11430
X60691Y10160
X60691Y8890
X78707Y70851
X77691Y63231
X58151Y5080
X60691Y5080
X59421Y5080
X32751Y5080
X35291Y5080
X79469Y63231
M30