G04 EAGLE Gerber RS-274X export*
G75*
%MOMM*%
%FSLAX34Y34*%
%LPD*%
%INSoldermask Bottom*%
%IPPOS*%
%AMOC8*
5,1,8,0,0,1.08239X$1,22.5*%
G01*
%ADD10R,1.473200X0.863600*%
%ADD11R,0.863600X1.473200*%
%ADD12C,0.863600*%
%ADD13C,2.082800*%
%ADD14C,1.203200*%
%ADD15C,3.505200*%
%ADD16C,1.270000*%
%ADD17C,1.703200*%

G36*
X722695Y553732D02*
X722695Y553732D01*
X722761Y553734D01*
X722804Y553752D01*
X722851Y553760D01*
X722908Y553794D01*
X722968Y553819D01*
X723003Y553850D01*
X723044Y553875D01*
X723086Y553926D01*
X723134Y553970D01*
X723156Y554012D01*
X723185Y554049D01*
X723206Y554111D01*
X723237Y554170D01*
X723245Y554224D01*
X723257Y554261D01*
X723256Y554301D01*
X723264Y554355D01*
X723264Y558165D01*
X723253Y558230D01*
X723251Y558296D01*
X723233Y558339D01*
X723225Y558386D01*
X723191Y558443D01*
X723166Y558503D01*
X723135Y558538D01*
X723110Y558579D01*
X723059Y558621D01*
X723015Y558669D01*
X722973Y558691D01*
X722936Y558720D01*
X722874Y558741D01*
X722815Y558772D01*
X722761Y558780D01*
X722724Y558792D01*
X722684Y558791D01*
X722630Y558799D01*
X720090Y558799D01*
X720025Y558788D01*
X719959Y558786D01*
X719916Y558768D01*
X719869Y558760D01*
X719812Y558726D01*
X719752Y558701D01*
X719717Y558670D01*
X719676Y558645D01*
X719635Y558594D01*
X719586Y558550D01*
X719564Y558508D01*
X719535Y558471D01*
X719514Y558409D01*
X719483Y558350D01*
X719475Y558296D01*
X719463Y558259D01*
X719463Y558255D01*
X719463Y558254D01*
X719464Y558219D01*
X719456Y558165D01*
X719456Y554355D01*
X719467Y554290D01*
X719469Y554224D01*
X719487Y554181D01*
X719495Y554134D01*
X719529Y554077D01*
X719554Y554017D01*
X719585Y553982D01*
X719610Y553941D01*
X719661Y553900D01*
X719705Y553851D01*
X719747Y553829D01*
X719784Y553800D01*
X719846Y553779D01*
X719905Y553748D01*
X719959Y553740D01*
X719996Y553728D01*
X720036Y553729D01*
X720090Y553721D01*
X722630Y553721D01*
X722695Y553732D01*
G37*
G36*
X102935Y553732D02*
X102935Y553732D01*
X103001Y553734D01*
X103044Y553752D01*
X103091Y553760D01*
X103148Y553794D01*
X103208Y553819D01*
X103243Y553850D01*
X103284Y553875D01*
X103326Y553926D01*
X103374Y553970D01*
X103396Y554012D01*
X103425Y554049D01*
X103446Y554111D01*
X103477Y554170D01*
X103485Y554224D01*
X103497Y554261D01*
X103496Y554301D01*
X103504Y554355D01*
X103504Y558165D01*
X103493Y558230D01*
X103491Y558296D01*
X103473Y558339D01*
X103465Y558386D01*
X103431Y558443D01*
X103406Y558503D01*
X103375Y558538D01*
X103350Y558579D01*
X103299Y558621D01*
X103255Y558669D01*
X103213Y558691D01*
X103176Y558720D01*
X103114Y558741D01*
X103055Y558772D01*
X103001Y558780D01*
X102964Y558792D01*
X102924Y558791D01*
X102870Y558799D01*
X100330Y558799D01*
X100265Y558788D01*
X100199Y558786D01*
X100156Y558768D01*
X100109Y558760D01*
X100052Y558726D01*
X99992Y558701D01*
X99957Y558670D01*
X99916Y558645D01*
X99875Y558594D01*
X99826Y558550D01*
X99804Y558508D01*
X99775Y558471D01*
X99754Y558409D01*
X99723Y558350D01*
X99715Y558296D01*
X99703Y558259D01*
X99703Y558255D01*
X99703Y558254D01*
X99704Y558219D01*
X99696Y558165D01*
X99696Y554355D01*
X99707Y554290D01*
X99709Y554224D01*
X99727Y554181D01*
X99735Y554134D01*
X99769Y554077D01*
X99794Y554017D01*
X99825Y553982D01*
X99850Y553941D01*
X99901Y553900D01*
X99945Y553851D01*
X99987Y553829D01*
X100024Y553800D01*
X100086Y553779D01*
X100145Y553748D01*
X100199Y553740D01*
X100236Y553728D01*
X100276Y553729D01*
X100330Y553721D01*
X102870Y553721D01*
X102935Y553732D01*
G37*
G36*
X412815Y553732D02*
X412815Y553732D01*
X412881Y553734D01*
X412924Y553752D01*
X412971Y553760D01*
X413028Y553794D01*
X413088Y553819D01*
X413123Y553850D01*
X413164Y553875D01*
X413206Y553926D01*
X413254Y553970D01*
X413276Y554012D01*
X413305Y554049D01*
X413326Y554111D01*
X413357Y554170D01*
X413365Y554224D01*
X413377Y554261D01*
X413376Y554301D01*
X413384Y554355D01*
X413384Y558165D01*
X413373Y558230D01*
X413371Y558296D01*
X413353Y558339D01*
X413345Y558386D01*
X413311Y558443D01*
X413286Y558503D01*
X413255Y558538D01*
X413230Y558579D01*
X413179Y558621D01*
X413135Y558669D01*
X413093Y558691D01*
X413056Y558720D01*
X412994Y558741D01*
X412935Y558772D01*
X412881Y558780D01*
X412844Y558792D01*
X412804Y558791D01*
X412750Y558799D01*
X410210Y558799D01*
X410145Y558788D01*
X410079Y558786D01*
X410036Y558768D01*
X409989Y558760D01*
X409932Y558726D01*
X409872Y558701D01*
X409837Y558670D01*
X409796Y558645D01*
X409755Y558594D01*
X409706Y558550D01*
X409684Y558508D01*
X409655Y558471D01*
X409634Y558409D01*
X409603Y558350D01*
X409595Y558296D01*
X409583Y558259D01*
X409583Y558255D01*
X409583Y558254D01*
X409584Y558219D01*
X409576Y558165D01*
X409576Y554355D01*
X409587Y554290D01*
X409589Y554224D01*
X409607Y554181D01*
X409615Y554134D01*
X409649Y554077D01*
X409674Y554017D01*
X409705Y553982D01*
X409730Y553941D01*
X409781Y553900D01*
X409825Y553851D01*
X409867Y553829D01*
X409904Y553800D01*
X409966Y553779D01*
X410025Y553748D01*
X410079Y553740D01*
X410116Y553728D01*
X410156Y553729D01*
X410210Y553721D01*
X412750Y553721D01*
X412815Y553732D01*
G37*
G36*
X412815Y543572D02*
X412815Y543572D01*
X412881Y543574D01*
X412924Y543592D01*
X412971Y543600D01*
X413028Y543634D01*
X413088Y543659D01*
X413123Y543690D01*
X413164Y543715D01*
X413206Y543766D01*
X413254Y543810D01*
X413276Y543852D01*
X413305Y543889D01*
X413326Y543951D01*
X413357Y544010D01*
X413365Y544064D01*
X413377Y544101D01*
X413376Y544141D01*
X413384Y544195D01*
X413384Y548005D01*
X413373Y548070D01*
X413371Y548136D01*
X413353Y548179D01*
X413345Y548226D01*
X413311Y548283D01*
X413286Y548343D01*
X413255Y548378D01*
X413230Y548419D01*
X413179Y548461D01*
X413135Y548509D01*
X413093Y548531D01*
X413056Y548560D01*
X412994Y548581D01*
X412935Y548612D01*
X412881Y548620D01*
X412844Y548632D01*
X412804Y548631D01*
X412750Y548639D01*
X410210Y548639D01*
X410145Y548628D01*
X410079Y548626D01*
X410036Y548608D01*
X409989Y548600D01*
X409932Y548566D01*
X409872Y548541D01*
X409837Y548510D01*
X409796Y548485D01*
X409755Y548434D01*
X409706Y548390D01*
X409684Y548348D01*
X409655Y548311D01*
X409634Y548249D01*
X409603Y548190D01*
X409595Y548136D01*
X409583Y548099D01*
X409583Y548095D01*
X409583Y548094D01*
X409584Y548059D01*
X409576Y548005D01*
X409576Y544195D01*
X409587Y544130D01*
X409589Y544064D01*
X409607Y544021D01*
X409615Y543974D01*
X409649Y543917D01*
X409674Y543857D01*
X409705Y543822D01*
X409730Y543781D01*
X409781Y543740D01*
X409825Y543691D01*
X409867Y543669D01*
X409904Y543640D01*
X409966Y543619D01*
X410025Y543588D01*
X410079Y543580D01*
X410116Y543568D01*
X410156Y543569D01*
X410210Y543561D01*
X412750Y543561D01*
X412815Y543572D01*
G37*
G36*
X722695Y543572D02*
X722695Y543572D01*
X722761Y543574D01*
X722804Y543592D01*
X722851Y543600D01*
X722908Y543634D01*
X722968Y543659D01*
X723003Y543690D01*
X723044Y543715D01*
X723086Y543766D01*
X723134Y543810D01*
X723156Y543852D01*
X723185Y543889D01*
X723206Y543951D01*
X723237Y544010D01*
X723245Y544064D01*
X723257Y544101D01*
X723256Y544141D01*
X723264Y544195D01*
X723264Y548005D01*
X723253Y548070D01*
X723251Y548136D01*
X723233Y548179D01*
X723225Y548226D01*
X723191Y548283D01*
X723166Y548343D01*
X723135Y548378D01*
X723110Y548419D01*
X723059Y548461D01*
X723015Y548509D01*
X722973Y548531D01*
X722936Y548560D01*
X722874Y548581D01*
X722815Y548612D01*
X722761Y548620D01*
X722724Y548632D01*
X722684Y548631D01*
X722630Y548639D01*
X720090Y548639D01*
X720025Y548628D01*
X719959Y548626D01*
X719916Y548608D01*
X719869Y548600D01*
X719812Y548566D01*
X719752Y548541D01*
X719717Y548510D01*
X719676Y548485D01*
X719635Y548434D01*
X719586Y548390D01*
X719564Y548348D01*
X719535Y548311D01*
X719514Y548249D01*
X719483Y548190D01*
X719475Y548136D01*
X719463Y548099D01*
X719463Y548095D01*
X719463Y548094D01*
X719464Y548059D01*
X719456Y548005D01*
X719456Y544195D01*
X719467Y544130D01*
X719469Y544064D01*
X719487Y544021D01*
X719495Y543974D01*
X719529Y543917D01*
X719554Y543857D01*
X719585Y543822D01*
X719610Y543781D01*
X719661Y543740D01*
X719705Y543691D01*
X719747Y543669D01*
X719784Y543640D01*
X719846Y543619D01*
X719905Y543588D01*
X719959Y543580D01*
X719996Y543568D01*
X720036Y543569D01*
X720090Y543561D01*
X722630Y543561D01*
X722695Y543572D01*
G37*
G36*
X102935Y543572D02*
X102935Y543572D01*
X103001Y543574D01*
X103044Y543592D01*
X103091Y543600D01*
X103148Y543634D01*
X103208Y543659D01*
X103243Y543690D01*
X103284Y543715D01*
X103326Y543766D01*
X103374Y543810D01*
X103396Y543852D01*
X103425Y543889D01*
X103446Y543951D01*
X103477Y544010D01*
X103485Y544064D01*
X103497Y544101D01*
X103496Y544141D01*
X103504Y544195D01*
X103504Y548005D01*
X103493Y548070D01*
X103491Y548136D01*
X103473Y548179D01*
X103465Y548226D01*
X103431Y548283D01*
X103406Y548343D01*
X103375Y548378D01*
X103350Y548419D01*
X103299Y548461D01*
X103255Y548509D01*
X103213Y548531D01*
X103176Y548560D01*
X103114Y548581D01*
X103055Y548612D01*
X103001Y548620D01*
X102964Y548632D01*
X102924Y548631D01*
X102870Y548639D01*
X100330Y548639D01*
X100265Y548628D01*
X100199Y548626D01*
X100156Y548608D01*
X100109Y548600D01*
X100052Y548566D01*
X99992Y548541D01*
X99957Y548510D01*
X99916Y548485D01*
X99875Y548434D01*
X99826Y548390D01*
X99804Y548348D01*
X99775Y548311D01*
X99754Y548249D01*
X99723Y548190D01*
X99715Y548136D01*
X99703Y548099D01*
X99703Y548095D01*
X99703Y548094D01*
X99704Y548059D01*
X99696Y548005D01*
X99696Y544195D01*
X99707Y544130D01*
X99709Y544064D01*
X99727Y544021D01*
X99735Y543974D01*
X99769Y543917D01*
X99794Y543857D01*
X99825Y543822D01*
X99850Y543781D01*
X99901Y543740D01*
X99945Y543691D01*
X99987Y543669D01*
X100024Y543640D01*
X100086Y543619D01*
X100145Y543588D01*
X100199Y543580D01*
X100236Y543568D01*
X100276Y543569D01*
X100330Y543561D01*
X102870Y543561D01*
X102935Y543572D01*
G37*
G36*
X722695Y104152D02*
X722695Y104152D01*
X722761Y104154D01*
X722804Y104172D01*
X722851Y104180D01*
X722908Y104214D01*
X722968Y104239D01*
X723003Y104270D01*
X723044Y104295D01*
X723086Y104346D01*
X723134Y104390D01*
X723156Y104432D01*
X723185Y104469D01*
X723206Y104531D01*
X723237Y104590D01*
X723245Y104644D01*
X723257Y104681D01*
X723256Y104721D01*
X723264Y104775D01*
X723264Y108585D01*
X723253Y108650D01*
X723251Y108716D01*
X723233Y108759D01*
X723225Y108806D01*
X723191Y108863D01*
X723166Y108923D01*
X723135Y108958D01*
X723110Y108999D01*
X723059Y109041D01*
X723015Y109089D01*
X722973Y109111D01*
X722936Y109140D01*
X722874Y109161D01*
X722815Y109192D01*
X722761Y109200D01*
X722724Y109212D01*
X722684Y109211D01*
X722630Y109219D01*
X720090Y109219D01*
X720025Y109208D01*
X719959Y109206D01*
X719916Y109188D01*
X719869Y109180D01*
X719812Y109146D01*
X719752Y109121D01*
X719717Y109090D01*
X719676Y109065D01*
X719635Y109014D01*
X719586Y108970D01*
X719564Y108928D01*
X719535Y108891D01*
X719514Y108829D01*
X719483Y108770D01*
X719475Y108716D01*
X719463Y108679D01*
X719463Y108675D01*
X719463Y108674D01*
X719464Y108639D01*
X719456Y108585D01*
X719456Y104775D01*
X719467Y104710D01*
X719469Y104644D01*
X719487Y104601D01*
X719495Y104554D01*
X719529Y104497D01*
X719554Y104437D01*
X719585Y104402D01*
X719610Y104361D01*
X719661Y104320D01*
X719705Y104271D01*
X719747Y104249D01*
X719784Y104220D01*
X719846Y104199D01*
X719905Y104168D01*
X719959Y104160D01*
X719996Y104148D01*
X720036Y104149D01*
X720090Y104141D01*
X722630Y104141D01*
X722695Y104152D01*
G37*
G36*
X412815Y104152D02*
X412815Y104152D01*
X412881Y104154D01*
X412924Y104172D01*
X412971Y104180D01*
X413028Y104214D01*
X413088Y104239D01*
X413123Y104270D01*
X413164Y104295D01*
X413206Y104346D01*
X413254Y104390D01*
X413276Y104432D01*
X413305Y104469D01*
X413326Y104531D01*
X413357Y104590D01*
X413365Y104644D01*
X413377Y104681D01*
X413376Y104721D01*
X413384Y104775D01*
X413384Y108585D01*
X413373Y108650D01*
X413371Y108716D01*
X413353Y108759D01*
X413345Y108806D01*
X413311Y108863D01*
X413286Y108923D01*
X413255Y108958D01*
X413230Y108999D01*
X413179Y109041D01*
X413135Y109089D01*
X413093Y109111D01*
X413056Y109140D01*
X412994Y109161D01*
X412935Y109192D01*
X412881Y109200D01*
X412844Y109212D01*
X412804Y109211D01*
X412750Y109219D01*
X410210Y109219D01*
X410145Y109208D01*
X410079Y109206D01*
X410036Y109188D01*
X409989Y109180D01*
X409932Y109146D01*
X409872Y109121D01*
X409837Y109090D01*
X409796Y109065D01*
X409755Y109014D01*
X409706Y108970D01*
X409684Y108928D01*
X409655Y108891D01*
X409634Y108829D01*
X409603Y108770D01*
X409595Y108716D01*
X409583Y108679D01*
X409583Y108675D01*
X409583Y108674D01*
X409584Y108639D01*
X409576Y108585D01*
X409576Y104775D01*
X409587Y104710D01*
X409589Y104644D01*
X409607Y104601D01*
X409615Y104554D01*
X409649Y104497D01*
X409674Y104437D01*
X409705Y104402D01*
X409730Y104361D01*
X409781Y104320D01*
X409825Y104271D01*
X409867Y104249D01*
X409904Y104220D01*
X409966Y104199D01*
X410025Y104168D01*
X410079Y104160D01*
X410116Y104148D01*
X410156Y104149D01*
X410210Y104141D01*
X412750Y104141D01*
X412815Y104152D01*
G37*
G36*
X102935Y104152D02*
X102935Y104152D01*
X103001Y104154D01*
X103044Y104172D01*
X103091Y104180D01*
X103148Y104214D01*
X103208Y104239D01*
X103243Y104270D01*
X103284Y104295D01*
X103326Y104346D01*
X103374Y104390D01*
X103396Y104432D01*
X103425Y104469D01*
X103446Y104531D01*
X103477Y104590D01*
X103485Y104644D01*
X103497Y104681D01*
X103496Y104721D01*
X103504Y104775D01*
X103504Y108585D01*
X103493Y108650D01*
X103491Y108716D01*
X103473Y108759D01*
X103465Y108806D01*
X103431Y108863D01*
X103406Y108923D01*
X103375Y108958D01*
X103350Y108999D01*
X103299Y109041D01*
X103255Y109089D01*
X103213Y109111D01*
X103176Y109140D01*
X103114Y109161D01*
X103055Y109192D01*
X103001Y109200D01*
X102964Y109212D01*
X102924Y109211D01*
X102870Y109219D01*
X100330Y109219D01*
X100265Y109208D01*
X100199Y109206D01*
X100156Y109188D01*
X100109Y109180D01*
X100052Y109146D01*
X99992Y109121D01*
X99957Y109090D01*
X99916Y109065D01*
X99875Y109014D01*
X99826Y108970D01*
X99804Y108928D01*
X99775Y108891D01*
X99754Y108829D01*
X99723Y108770D01*
X99715Y108716D01*
X99703Y108679D01*
X99703Y108675D01*
X99703Y108674D01*
X99704Y108639D01*
X99696Y108585D01*
X99696Y104775D01*
X99707Y104710D01*
X99709Y104644D01*
X99727Y104601D01*
X99735Y104554D01*
X99769Y104497D01*
X99794Y104437D01*
X99825Y104402D01*
X99850Y104361D01*
X99901Y104320D01*
X99945Y104271D01*
X99987Y104249D01*
X100024Y104220D01*
X100086Y104199D01*
X100145Y104168D01*
X100199Y104160D01*
X100236Y104148D01*
X100276Y104149D01*
X100330Y104141D01*
X102870Y104141D01*
X102935Y104152D01*
G37*
G36*
X412815Y93992D02*
X412815Y93992D01*
X412881Y93994D01*
X412924Y94012D01*
X412971Y94020D01*
X413028Y94054D01*
X413088Y94079D01*
X413123Y94110D01*
X413164Y94135D01*
X413206Y94186D01*
X413254Y94230D01*
X413276Y94272D01*
X413305Y94309D01*
X413326Y94371D01*
X413357Y94430D01*
X413365Y94484D01*
X413377Y94521D01*
X413376Y94561D01*
X413384Y94615D01*
X413384Y98425D01*
X413373Y98490D01*
X413371Y98556D01*
X413353Y98599D01*
X413345Y98646D01*
X413311Y98703D01*
X413286Y98763D01*
X413255Y98798D01*
X413230Y98839D01*
X413179Y98881D01*
X413135Y98929D01*
X413093Y98951D01*
X413056Y98980D01*
X412994Y99001D01*
X412935Y99032D01*
X412881Y99040D01*
X412844Y99052D01*
X412804Y99051D01*
X412750Y99059D01*
X410210Y99059D01*
X410145Y99048D01*
X410079Y99046D01*
X410036Y99028D01*
X409989Y99020D01*
X409932Y98986D01*
X409872Y98961D01*
X409837Y98930D01*
X409796Y98905D01*
X409755Y98854D01*
X409706Y98810D01*
X409684Y98768D01*
X409655Y98731D01*
X409634Y98669D01*
X409603Y98610D01*
X409595Y98556D01*
X409583Y98519D01*
X409583Y98515D01*
X409583Y98514D01*
X409584Y98479D01*
X409576Y98425D01*
X409576Y94615D01*
X409587Y94550D01*
X409589Y94484D01*
X409607Y94441D01*
X409615Y94394D01*
X409649Y94337D01*
X409674Y94277D01*
X409705Y94242D01*
X409730Y94201D01*
X409781Y94160D01*
X409825Y94111D01*
X409867Y94089D01*
X409904Y94060D01*
X409966Y94039D01*
X410025Y94008D01*
X410079Y94000D01*
X410116Y93988D01*
X410156Y93989D01*
X410210Y93981D01*
X412750Y93981D01*
X412815Y93992D01*
G37*
G36*
X722695Y93992D02*
X722695Y93992D01*
X722761Y93994D01*
X722804Y94012D01*
X722851Y94020D01*
X722908Y94054D01*
X722968Y94079D01*
X723003Y94110D01*
X723044Y94135D01*
X723086Y94186D01*
X723134Y94230D01*
X723156Y94272D01*
X723185Y94309D01*
X723206Y94371D01*
X723237Y94430D01*
X723245Y94484D01*
X723257Y94521D01*
X723256Y94561D01*
X723264Y94615D01*
X723264Y98425D01*
X723253Y98490D01*
X723251Y98556D01*
X723233Y98599D01*
X723225Y98646D01*
X723191Y98703D01*
X723166Y98763D01*
X723135Y98798D01*
X723110Y98839D01*
X723059Y98881D01*
X723015Y98929D01*
X722973Y98951D01*
X722936Y98980D01*
X722874Y99001D01*
X722815Y99032D01*
X722761Y99040D01*
X722724Y99052D01*
X722684Y99051D01*
X722630Y99059D01*
X720090Y99059D01*
X720025Y99048D01*
X719959Y99046D01*
X719916Y99028D01*
X719869Y99020D01*
X719812Y98986D01*
X719752Y98961D01*
X719717Y98930D01*
X719676Y98905D01*
X719635Y98854D01*
X719586Y98810D01*
X719564Y98768D01*
X719535Y98731D01*
X719514Y98669D01*
X719483Y98610D01*
X719475Y98556D01*
X719463Y98519D01*
X719463Y98515D01*
X719463Y98514D01*
X719464Y98479D01*
X719456Y98425D01*
X719456Y94615D01*
X719467Y94550D01*
X719469Y94484D01*
X719487Y94441D01*
X719495Y94394D01*
X719529Y94337D01*
X719554Y94277D01*
X719585Y94242D01*
X719610Y94201D01*
X719661Y94160D01*
X719705Y94111D01*
X719747Y94089D01*
X719784Y94060D01*
X719846Y94039D01*
X719905Y94008D01*
X719959Y94000D01*
X719996Y93988D01*
X720036Y93989D01*
X720090Y93981D01*
X722630Y93981D01*
X722695Y93992D01*
G37*
G36*
X102935Y93992D02*
X102935Y93992D01*
X103001Y93994D01*
X103044Y94012D01*
X103091Y94020D01*
X103148Y94054D01*
X103208Y94079D01*
X103243Y94110D01*
X103284Y94135D01*
X103326Y94186D01*
X103374Y94230D01*
X103396Y94272D01*
X103425Y94309D01*
X103446Y94371D01*
X103477Y94430D01*
X103485Y94484D01*
X103497Y94521D01*
X103496Y94561D01*
X103504Y94615D01*
X103504Y98425D01*
X103493Y98490D01*
X103491Y98556D01*
X103473Y98599D01*
X103465Y98646D01*
X103431Y98703D01*
X103406Y98763D01*
X103375Y98798D01*
X103350Y98839D01*
X103299Y98881D01*
X103255Y98929D01*
X103213Y98951D01*
X103176Y98980D01*
X103114Y99001D01*
X103055Y99032D01*
X103001Y99040D01*
X102964Y99052D01*
X102924Y99051D01*
X102870Y99059D01*
X100330Y99059D01*
X100265Y99048D01*
X100199Y99046D01*
X100156Y99028D01*
X100109Y99020D01*
X100052Y98986D01*
X99992Y98961D01*
X99957Y98930D01*
X99916Y98905D01*
X99875Y98854D01*
X99826Y98810D01*
X99804Y98768D01*
X99775Y98731D01*
X99754Y98669D01*
X99723Y98610D01*
X99715Y98556D01*
X99703Y98519D01*
X99703Y98515D01*
X99703Y98514D01*
X99704Y98479D01*
X99696Y98425D01*
X99696Y94615D01*
X99707Y94550D01*
X99709Y94484D01*
X99727Y94441D01*
X99735Y94394D01*
X99769Y94337D01*
X99794Y94277D01*
X99825Y94242D01*
X99850Y94201D01*
X99901Y94160D01*
X99945Y94111D01*
X99987Y94089D01*
X100024Y94060D01*
X100086Y94039D01*
X100145Y94008D01*
X100199Y94000D01*
X100236Y93988D01*
X100276Y93989D01*
X100330Y93981D01*
X102870Y93981D01*
X102935Y93992D01*
G37*
G36*
X824930Y549287D02*
X824930Y549287D01*
X824996Y549289D01*
X825039Y549307D01*
X825086Y549315D01*
X825143Y549349D01*
X825203Y549374D01*
X825238Y549405D01*
X825279Y549430D01*
X825321Y549481D01*
X825369Y549525D01*
X825391Y549567D01*
X825420Y549604D01*
X825441Y549666D01*
X825472Y549725D01*
X825480Y549779D01*
X825492Y549816D01*
X825491Y549856D01*
X825499Y549910D01*
X825499Y552450D01*
X825488Y552515D01*
X825486Y552581D01*
X825468Y552624D01*
X825460Y552671D01*
X825426Y552728D01*
X825401Y552788D01*
X825370Y552823D01*
X825345Y552864D01*
X825294Y552906D01*
X825250Y552954D01*
X825208Y552976D01*
X825171Y553005D01*
X825109Y553026D01*
X825050Y553057D01*
X824996Y553065D01*
X824959Y553077D01*
X824919Y553076D01*
X824865Y553084D01*
X821055Y553084D01*
X820990Y553073D01*
X820924Y553071D01*
X820881Y553053D01*
X820834Y553045D01*
X820777Y553011D01*
X820717Y552986D01*
X820682Y552955D01*
X820641Y552930D01*
X820600Y552879D01*
X820551Y552835D01*
X820529Y552793D01*
X820500Y552756D01*
X820479Y552694D01*
X820448Y552635D01*
X820440Y552581D01*
X820428Y552544D01*
X820428Y552541D01*
X820429Y552504D01*
X820421Y552450D01*
X820421Y549910D01*
X820432Y549845D01*
X820434Y549779D01*
X820452Y549736D01*
X820460Y549689D01*
X820494Y549632D01*
X820519Y549572D01*
X820550Y549537D01*
X820575Y549496D01*
X820626Y549455D01*
X820670Y549406D01*
X820712Y549384D01*
X820749Y549355D01*
X820811Y549334D01*
X820870Y549303D01*
X820924Y549295D01*
X820961Y549283D01*
X821001Y549284D01*
X821055Y549276D01*
X824865Y549276D01*
X824930Y549287D01*
G37*
G36*
X515050Y549287D02*
X515050Y549287D01*
X515116Y549289D01*
X515159Y549307D01*
X515206Y549315D01*
X515263Y549349D01*
X515323Y549374D01*
X515358Y549405D01*
X515399Y549430D01*
X515441Y549481D01*
X515489Y549525D01*
X515511Y549567D01*
X515540Y549604D01*
X515561Y549666D01*
X515592Y549725D01*
X515600Y549779D01*
X515612Y549816D01*
X515611Y549856D01*
X515619Y549910D01*
X515619Y552450D01*
X515608Y552515D01*
X515606Y552581D01*
X515588Y552624D01*
X515580Y552671D01*
X515546Y552728D01*
X515521Y552788D01*
X515490Y552823D01*
X515465Y552864D01*
X515414Y552906D01*
X515370Y552954D01*
X515328Y552976D01*
X515291Y553005D01*
X515229Y553026D01*
X515170Y553057D01*
X515116Y553065D01*
X515079Y553077D01*
X515039Y553076D01*
X514985Y553084D01*
X511175Y553084D01*
X511110Y553073D01*
X511044Y553071D01*
X511001Y553053D01*
X510954Y553045D01*
X510897Y553011D01*
X510837Y552986D01*
X510802Y552955D01*
X510761Y552930D01*
X510720Y552879D01*
X510671Y552835D01*
X510649Y552793D01*
X510620Y552756D01*
X510599Y552694D01*
X510568Y552635D01*
X510560Y552581D01*
X510548Y552544D01*
X510548Y552541D01*
X510549Y552504D01*
X510541Y552450D01*
X510541Y549910D01*
X510552Y549845D01*
X510554Y549779D01*
X510572Y549736D01*
X510580Y549689D01*
X510614Y549632D01*
X510639Y549572D01*
X510670Y549537D01*
X510695Y549496D01*
X510746Y549455D01*
X510790Y549406D01*
X510832Y549384D01*
X510869Y549355D01*
X510931Y549334D01*
X510990Y549303D01*
X511044Y549295D01*
X511081Y549283D01*
X511121Y549284D01*
X511175Y549276D01*
X514985Y549276D01*
X515050Y549287D01*
G37*
G36*
X205170Y549287D02*
X205170Y549287D01*
X205236Y549289D01*
X205279Y549307D01*
X205326Y549315D01*
X205383Y549349D01*
X205443Y549374D01*
X205478Y549405D01*
X205519Y549430D01*
X205561Y549481D01*
X205609Y549525D01*
X205631Y549567D01*
X205660Y549604D01*
X205681Y549666D01*
X205712Y549725D01*
X205720Y549779D01*
X205732Y549816D01*
X205731Y549856D01*
X205739Y549910D01*
X205739Y552450D01*
X205728Y552515D01*
X205726Y552581D01*
X205708Y552624D01*
X205700Y552671D01*
X205666Y552728D01*
X205641Y552788D01*
X205610Y552823D01*
X205585Y552864D01*
X205534Y552906D01*
X205490Y552954D01*
X205448Y552976D01*
X205411Y553005D01*
X205349Y553026D01*
X205290Y553057D01*
X205236Y553065D01*
X205199Y553077D01*
X205159Y553076D01*
X205105Y553084D01*
X201295Y553084D01*
X201230Y553073D01*
X201164Y553071D01*
X201121Y553053D01*
X201074Y553045D01*
X201017Y553011D01*
X200957Y552986D01*
X200922Y552955D01*
X200881Y552930D01*
X200840Y552879D01*
X200791Y552835D01*
X200769Y552793D01*
X200740Y552756D01*
X200719Y552694D01*
X200688Y552635D01*
X200680Y552581D01*
X200668Y552544D01*
X200668Y552541D01*
X200669Y552504D01*
X200661Y552450D01*
X200661Y549910D01*
X200672Y549845D01*
X200674Y549779D01*
X200692Y549736D01*
X200700Y549689D01*
X200734Y549632D01*
X200759Y549572D01*
X200790Y549537D01*
X200815Y549496D01*
X200866Y549455D01*
X200910Y549406D01*
X200952Y549384D01*
X200989Y549355D01*
X201051Y549334D01*
X201110Y549303D01*
X201164Y549295D01*
X201201Y549283D01*
X201241Y549284D01*
X201295Y549276D01*
X205105Y549276D01*
X205170Y549287D01*
G37*
G36*
X824930Y523887D02*
X824930Y523887D01*
X824996Y523889D01*
X825039Y523907D01*
X825086Y523915D01*
X825143Y523949D01*
X825203Y523974D01*
X825238Y524005D01*
X825279Y524030D01*
X825321Y524081D01*
X825369Y524125D01*
X825391Y524167D01*
X825420Y524204D01*
X825441Y524266D01*
X825472Y524325D01*
X825480Y524379D01*
X825492Y524416D01*
X825491Y524456D01*
X825499Y524510D01*
X825499Y527050D01*
X825488Y527115D01*
X825486Y527181D01*
X825468Y527224D01*
X825460Y527271D01*
X825426Y527328D01*
X825401Y527388D01*
X825370Y527423D01*
X825345Y527464D01*
X825294Y527506D01*
X825250Y527554D01*
X825208Y527576D01*
X825171Y527605D01*
X825109Y527626D01*
X825050Y527657D01*
X824996Y527665D01*
X824959Y527677D01*
X824919Y527676D01*
X824865Y527684D01*
X821055Y527684D01*
X820990Y527673D01*
X820924Y527671D01*
X820881Y527653D01*
X820834Y527645D01*
X820777Y527611D01*
X820717Y527586D01*
X820682Y527555D01*
X820641Y527530D01*
X820600Y527479D01*
X820551Y527435D01*
X820529Y527393D01*
X820500Y527356D01*
X820479Y527294D01*
X820448Y527235D01*
X820440Y527181D01*
X820428Y527144D01*
X820428Y527141D01*
X820429Y527104D01*
X820421Y527050D01*
X820421Y524510D01*
X820432Y524445D01*
X820434Y524379D01*
X820452Y524336D01*
X820460Y524289D01*
X820494Y524232D01*
X820519Y524172D01*
X820550Y524137D01*
X820575Y524096D01*
X820626Y524055D01*
X820670Y524006D01*
X820712Y523984D01*
X820749Y523955D01*
X820811Y523934D01*
X820870Y523903D01*
X820924Y523895D01*
X820961Y523883D01*
X821001Y523884D01*
X821055Y523876D01*
X824865Y523876D01*
X824930Y523887D01*
G37*
G36*
X205170Y523887D02*
X205170Y523887D01*
X205236Y523889D01*
X205279Y523907D01*
X205326Y523915D01*
X205383Y523949D01*
X205443Y523974D01*
X205478Y524005D01*
X205519Y524030D01*
X205561Y524081D01*
X205609Y524125D01*
X205631Y524167D01*
X205660Y524204D01*
X205681Y524266D01*
X205712Y524325D01*
X205720Y524379D01*
X205732Y524416D01*
X205731Y524456D01*
X205739Y524510D01*
X205739Y527050D01*
X205728Y527115D01*
X205726Y527181D01*
X205708Y527224D01*
X205700Y527271D01*
X205666Y527328D01*
X205641Y527388D01*
X205610Y527423D01*
X205585Y527464D01*
X205534Y527506D01*
X205490Y527554D01*
X205448Y527576D01*
X205411Y527605D01*
X205349Y527626D01*
X205290Y527657D01*
X205236Y527665D01*
X205199Y527677D01*
X205159Y527676D01*
X205105Y527684D01*
X201295Y527684D01*
X201230Y527673D01*
X201164Y527671D01*
X201121Y527653D01*
X201074Y527645D01*
X201017Y527611D01*
X200957Y527586D01*
X200922Y527555D01*
X200881Y527530D01*
X200840Y527479D01*
X200791Y527435D01*
X200769Y527393D01*
X200740Y527356D01*
X200719Y527294D01*
X200688Y527235D01*
X200680Y527181D01*
X200668Y527144D01*
X200668Y527141D01*
X200669Y527104D01*
X200661Y527050D01*
X200661Y524510D01*
X200672Y524445D01*
X200674Y524379D01*
X200692Y524336D01*
X200700Y524289D01*
X200734Y524232D01*
X200759Y524172D01*
X200790Y524137D01*
X200815Y524096D01*
X200866Y524055D01*
X200910Y524006D01*
X200952Y523984D01*
X200989Y523955D01*
X201051Y523934D01*
X201110Y523903D01*
X201164Y523895D01*
X201201Y523883D01*
X201241Y523884D01*
X201295Y523876D01*
X205105Y523876D01*
X205170Y523887D01*
G37*
G36*
X515050Y523887D02*
X515050Y523887D01*
X515116Y523889D01*
X515159Y523907D01*
X515206Y523915D01*
X515263Y523949D01*
X515323Y523974D01*
X515358Y524005D01*
X515399Y524030D01*
X515441Y524081D01*
X515489Y524125D01*
X515511Y524167D01*
X515540Y524204D01*
X515561Y524266D01*
X515592Y524325D01*
X515600Y524379D01*
X515612Y524416D01*
X515611Y524456D01*
X515619Y524510D01*
X515619Y527050D01*
X515608Y527115D01*
X515606Y527181D01*
X515588Y527224D01*
X515580Y527271D01*
X515546Y527328D01*
X515521Y527388D01*
X515490Y527423D01*
X515465Y527464D01*
X515414Y527506D01*
X515370Y527554D01*
X515328Y527576D01*
X515291Y527605D01*
X515229Y527626D01*
X515170Y527657D01*
X515116Y527665D01*
X515079Y527677D01*
X515039Y527676D01*
X514985Y527684D01*
X511175Y527684D01*
X511110Y527673D01*
X511044Y527671D01*
X511001Y527653D01*
X510954Y527645D01*
X510897Y527611D01*
X510837Y527586D01*
X510802Y527555D01*
X510761Y527530D01*
X510720Y527479D01*
X510671Y527435D01*
X510649Y527393D01*
X510620Y527356D01*
X510599Y527294D01*
X510568Y527235D01*
X510560Y527181D01*
X510548Y527144D01*
X510548Y527141D01*
X510549Y527104D01*
X510541Y527050D01*
X510541Y524510D01*
X510552Y524445D01*
X510554Y524379D01*
X510572Y524336D01*
X510580Y524289D01*
X510614Y524232D01*
X510639Y524172D01*
X510670Y524137D01*
X510695Y524096D01*
X510746Y524055D01*
X510790Y524006D01*
X510832Y523984D01*
X510869Y523955D01*
X510931Y523934D01*
X510990Y523903D01*
X511044Y523895D01*
X511081Y523883D01*
X511121Y523884D01*
X511175Y523876D01*
X514985Y523876D01*
X515050Y523887D01*
G37*
G36*
X205170Y99707D02*
X205170Y99707D01*
X205236Y99709D01*
X205279Y99727D01*
X205326Y99735D01*
X205383Y99769D01*
X205443Y99794D01*
X205478Y99825D01*
X205519Y99850D01*
X205561Y99901D01*
X205609Y99945D01*
X205631Y99987D01*
X205660Y100024D01*
X205681Y100086D01*
X205712Y100145D01*
X205720Y100199D01*
X205732Y100236D01*
X205731Y100276D01*
X205739Y100330D01*
X205739Y102870D01*
X205728Y102935D01*
X205726Y103001D01*
X205708Y103044D01*
X205700Y103091D01*
X205666Y103148D01*
X205641Y103208D01*
X205610Y103243D01*
X205585Y103284D01*
X205534Y103326D01*
X205490Y103374D01*
X205448Y103396D01*
X205411Y103425D01*
X205349Y103446D01*
X205290Y103477D01*
X205236Y103485D01*
X205199Y103497D01*
X205159Y103496D01*
X205105Y103504D01*
X201295Y103504D01*
X201230Y103493D01*
X201164Y103491D01*
X201121Y103473D01*
X201074Y103465D01*
X201017Y103431D01*
X200957Y103406D01*
X200922Y103375D01*
X200881Y103350D01*
X200840Y103299D01*
X200791Y103255D01*
X200769Y103213D01*
X200740Y103176D01*
X200719Y103114D01*
X200688Y103055D01*
X200680Y103001D01*
X200668Y102964D01*
X200668Y102961D01*
X200669Y102924D01*
X200661Y102870D01*
X200661Y100330D01*
X200672Y100265D01*
X200674Y100199D01*
X200692Y100156D01*
X200700Y100109D01*
X200734Y100052D01*
X200759Y99992D01*
X200790Y99957D01*
X200815Y99916D01*
X200866Y99875D01*
X200910Y99826D01*
X200952Y99804D01*
X200989Y99775D01*
X201051Y99754D01*
X201110Y99723D01*
X201164Y99715D01*
X201201Y99703D01*
X201241Y99704D01*
X201295Y99696D01*
X205105Y99696D01*
X205170Y99707D01*
G37*
G36*
X515050Y99707D02*
X515050Y99707D01*
X515116Y99709D01*
X515159Y99727D01*
X515206Y99735D01*
X515263Y99769D01*
X515323Y99794D01*
X515358Y99825D01*
X515399Y99850D01*
X515441Y99901D01*
X515489Y99945D01*
X515511Y99987D01*
X515540Y100024D01*
X515561Y100086D01*
X515592Y100145D01*
X515600Y100199D01*
X515612Y100236D01*
X515611Y100276D01*
X515619Y100330D01*
X515619Y102870D01*
X515608Y102935D01*
X515606Y103001D01*
X515588Y103044D01*
X515580Y103091D01*
X515546Y103148D01*
X515521Y103208D01*
X515490Y103243D01*
X515465Y103284D01*
X515414Y103326D01*
X515370Y103374D01*
X515328Y103396D01*
X515291Y103425D01*
X515229Y103446D01*
X515170Y103477D01*
X515116Y103485D01*
X515079Y103497D01*
X515039Y103496D01*
X514985Y103504D01*
X511175Y103504D01*
X511110Y103493D01*
X511044Y103491D01*
X511001Y103473D01*
X510954Y103465D01*
X510897Y103431D01*
X510837Y103406D01*
X510802Y103375D01*
X510761Y103350D01*
X510720Y103299D01*
X510671Y103255D01*
X510649Y103213D01*
X510620Y103176D01*
X510599Y103114D01*
X510568Y103055D01*
X510560Y103001D01*
X510548Y102964D01*
X510548Y102961D01*
X510549Y102924D01*
X510541Y102870D01*
X510541Y100330D01*
X510552Y100265D01*
X510554Y100199D01*
X510572Y100156D01*
X510580Y100109D01*
X510614Y100052D01*
X510639Y99992D01*
X510670Y99957D01*
X510695Y99916D01*
X510746Y99875D01*
X510790Y99826D01*
X510832Y99804D01*
X510869Y99775D01*
X510931Y99754D01*
X510990Y99723D01*
X511044Y99715D01*
X511081Y99703D01*
X511121Y99704D01*
X511175Y99696D01*
X514985Y99696D01*
X515050Y99707D01*
G37*
G36*
X824930Y99707D02*
X824930Y99707D01*
X824996Y99709D01*
X825039Y99727D01*
X825086Y99735D01*
X825143Y99769D01*
X825203Y99794D01*
X825238Y99825D01*
X825279Y99850D01*
X825321Y99901D01*
X825369Y99945D01*
X825391Y99987D01*
X825420Y100024D01*
X825441Y100086D01*
X825472Y100145D01*
X825480Y100199D01*
X825492Y100236D01*
X825491Y100276D01*
X825499Y100330D01*
X825499Y102870D01*
X825488Y102935D01*
X825486Y103001D01*
X825468Y103044D01*
X825460Y103091D01*
X825426Y103148D01*
X825401Y103208D01*
X825370Y103243D01*
X825345Y103284D01*
X825294Y103326D01*
X825250Y103374D01*
X825208Y103396D01*
X825171Y103425D01*
X825109Y103446D01*
X825050Y103477D01*
X824996Y103485D01*
X824959Y103497D01*
X824919Y103496D01*
X824865Y103504D01*
X821055Y103504D01*
X820990Y103493D01*
X820924Y103491D01*
X820881Y103473D01*
X820834Y103465D01*
X820777Y103431D01*
X820717Y103406D01*
X820682Y103375D01*
X820641Y103350D01*
X820600Y103299D01*
X820551Y103255D01*
X820529Y103213D01*
X820500Y103176D01*
X820479Y103114D01*
X820448Y103055D01*
X820440Y103001D01*
X820428Y102964D01*
X820428Y102961D01*
X820429Y102924D01*
X820421Y102870D01*
X820421Y100330D01*
X820432Y100265D01*
X820434Y100199D01*
X820452Y100156D01*
X820460Y100109D01*
X820494Y100052D01*
X820519Y99992D01*
X820550Y99957D01*
X820575Y99916D01*
X820626Y99875D01*
X820670Y99826D01*
X820712Y99804D01*
X820749Y99775D01*
X820811Y99754D01*
X820870Y99723D01*
X820924Y99715D01*
X820961Y99703D01*
X821001Y99704D01*
X821055Y99696D01*
X824865Y99696D01*
X824930Y99707D01*
G37*
G36*
X824930Y74307D02*
X824930Y74307D01*
X824996Y74309D01*
X825039Y74327D01*
X825086Y74335D01*
X825143Y74369D01*
X825203Y74394D01*
X825238Y74425D01*
X825279Y74450D01*
X825321Y74501D01*
X825369Y74545D01*
X825391Y74587D01*
X825420Y74624D01*
X825441Y74686D01*
X825472Y74745D01*
X825480Y74799D01*
X825492Y74836D01*
X825491Y74876D01*
X825499Y74930D01*
X825499Y77470D01*
X825488Y77535D01*
X825486Y77601D01*
X825468Y77644D01*
X825460Y77691D01*
X825426Y77748D01*
X825401Y77808D01*
X825370Y77843D01*
X825345Y77884D01*
X825294Y77926D01*
X825250Y77974D01*
X825208Y77996D01*
X825171Y78025D01*
X825109Y78046D01*
X825050Y78077D01*
X824996Y78085D01*
X824959Y78097D01*
X824919Y78096D01*
X824865Y78104D01*
X821055Y78104D01*
X820990Y78093D01*
X820924Y78091D01*
X820881Y78073D01*
X820834Y78065D01*
X820777Y78031D01*
X820717Y78006D01*
X820682Y77975D01*
X820641Y77950D01*
X820600Y77899D01*
X820551Y77855D01*
X820529Y77813D01*
X820500Y77776D01*
X820479Y77714D01*
X820448Y77655D01*
X820440Y77601D01*
X820428Y77564D01*
X820428Y77561D01*
X820429Y77524D01*
X820421Y77470D01*
X820421Y74930D01*
X820432Y74865D01*
X820434Y74799D01*
X820452Y74756D01*
X820460Y74709D01*
X820494Y74652D01*
X820519Y74592D01*
X820550Y74557D01*
X820575Y74516D01*
X820626Y74475D01*
X820670Y74426D01*
X820712Y74404D01*
X820749Y74375D01*
X820811Y74354D01*
X820870Y74323D01*
X820924Y74315D01*
X820961Y74303D01*
X821001Y74304D01*
X821055Y74296D01*
X824865Y74296D01*
X824930Y74307D01*
G37*
G36*
X515050Y74307D02*
X515050Y74307D01*
X515116Y74309D01*
X515159Y74327D01*
X515206Y74335D01*
X515263Y74369D01*
X515323Y74394D01*
X515358Y74425D01*
X515399Y74450D01*
X515441Y74501D01*
X515489Y74545D01*
X515511Y74587D01*
X515540Y74624D01*
X515561Y74686D01*
X515592Y74745D01*
X515600Y74799D01*
X515612Y74836D01*
X515611Y74876D01*
X515619Y74930D01*
X515619Y77470D01*
X515608Y77535D01*
X515606Y77601D01*
X515588Y77644D01*
X515580Y77691D01*
X515546Y77748D01*
X515521Y77808D01*
X515490Y77843D01*
X515465Y77884D01*
X515414Y77926D01*
X515370Y77974D01*
X515328Y77996D01*
X515291Y78025D01*
X515229Y78046D01*
X515170Y78077D01*
X515116Y78085D01*
X515079Y78097D01*
X515039Y78096D01*
X514985Y78104D01*
X511175Y78104D01*
X511110Y78093D01*
X511044Y78091D01*
X511001Y78073D01*
X510954Y78065D01*
X510897Y78031D01*
X510837Y78006D01*
X510802Y77975D01*
X510761Y77950D01*
X510720Y77899D01*
X510671Y77855D01*
X510649Y77813D01*
X510620Y77776D01*
X510599Y77714D01*
X510568Y77655D01*
X510560Y77601D01*
X510548Y77564D01*
X510548Y77561D01*
X510549Y77524D01*
X510541Y77470D01*
X510541Y74930D01*
X510552Y74865D01*
X510554Y74799D01*
X510572Y74756D01*
X510580Y74709D01*
X510614Y74652D01*
X510639Y74592D01*
X510670Y74557D01*
X510695Y74516D01*
X510746Y74475D01*
X510790Y74426D01*
X510832Y74404D01*
X510869Y74375D01*
X510931Y74354D01*
X510990Y74323D01*
X511044Y74315D01*
X511081Y74303D01*
X511121Y74304D01*
X511175Y74296D01*
X514985Y74296D01*
X515050Y74307D01*
G37*
G36*
X205170Y74307D02*
X205170Y74307D01*
X205236Y74309D01*
X205279Y74327D01*
X205326Y74335D01*
X205383Y74369D01*
X205443Y74394D01*
X205478Y74425D01*
X205519Y74450D01*
X205561Y74501D01*
X205609Y74545D01*
X205631Y74587D01*
X205660Y74624D01*
X205681Y74686D01*
X205712Y74745D01*
X205720Y74799D01*
X205732Y74836D01*
X205731Y74876D01*
X205739Y74930D01*
X205739Y77470D01*
X205728Y77535D01*
X205726Y77601D01*
X205708Y77644D01*
X205700Y77691D01*
X205666Y77748D01*
X205641Y77808D01*
X205610Y77843D01*
X205585Y77884D01*
X205534Y77926D01*
X205490Y77974D01*
X205448Y77996D01*
X205411Y78025D01*
X205349Y78046D01*
X205290Y78077D01*
X205236Y78085D01*
X205199Y78097D01*
X205159Y78096D01*
X205105Y78104D01*
X201295Y78104D01*
X201230Y78093D01*
X201164Y78091D01*
X201121Y78073D01*
X201074Y78065D01*
X201017Y78031D01*
X200957Y78006D01*
X200922Y77975D01*
X200881Y77950D01*
X200840Y77899D01*
X200791Y77855D01*
X200769Y77813D01*
X200740Y77776D01*
X200719Y77714D01*
X200688Y77655D01*
X200680Y77601D01*
X200668Y77564D01*
X200668Y77561D01*
X200669Y77524D01*
X200661Y77470D01*
X200661Y74930D01*
X200672Y74865D01*
X200674Y74799D01*
X200692Y74756D01*
X200700Y74709D01*
X200734Y74652D01*
X200759Y74592D01*
X200790Y74557D01*
X200815Y74516D01*
X200866Y74475D01*
X200910Y74426D01*
X200952Y74404D01*
X200989Y74375D01*
X201051Y74354D01*
X201110Y74323D01*
X201164Y74315D01*
X201201Y74303D01*
X201241Y74304D01*
X201295Y74296D01*
X205105Y74296D01*
X205170Y74307D01*
G37*
D10*
X101600Y91186D03*
X101600Y101600D03*
X101600Y112014D03*
D11*
X197993Y101600D03*
X208407Y101600D03*
D12*
X157480Y254000D03*
X147320Y177800D03*
D11*
X197993Y76200D03*
X208407Y76200D03*
D13*
X88900Y12700D03*
X114300Y12700D03*
X139700Y12700D03*
X165100Y12700D03*
X190500Y12700D03*
X215900Y12700D03*
D14*
X7620Y436880D03*
X297180Y7620D03*
D15*
X25400Y419100D03*
X279400Y419100D03*
X25400Y25400D03*
X279400Y25400D03*
D10*
X411480Y91186D03*
X411480Y101600D03*
X411480Y112014D03*
D11*
X507873Y101600D03*
X518287Y101600D03*
D12*
X467360Y254000D03*
X457200Y177800D03*
D11*
X507873Y76200D03*
X518287Y76200D03*
D13*
X398780Y12700D03*
X424180Y12700D03*
X449580Y12700D03*
X474980Y12700D03*
X500380Y12700D03*
X525780Y12700D03*
D14*
X317500Y436880D03*
X607060Y7620D03*
D15*
X335280Y419100D03*
X589280Y419100D03*
X335280Y25400D03*
X589280Y25400D03*
D10*
X721360Y91186D03*
X721360Y101600D03*
X721360Y112014D03*
D11*
X817753Y101600D03*
X828167Y101600D03*
D12*
X777240Y254000D03*
X767080Y177800D03*
D11*
X817753Y76200D03*
X828167Y76200D03*
D13*
X708660Y12700D03*
X734060Y12700D03*
X759460Y12700D03*
X784860Y12700D03*
X810260Y12700D03*
X835660Y12700D03*
D14*
X627380Y436880D03*
X916940Y7620D03*
D15*
X645160Y419100D03*
X899160Y419100D03*
X645160Y25400D03*
X899160Y25400D03*
D10*
X101600Y540766D03*
X101600Y551180D03*
X101600Y561594D03*
D11*
X197993Y551180D03*
X208407Y551180D03*
D12*
X157480Y703580D03*
X147320Y627380D03*
D11*
X197993Y525780D03*
X208407Y525780D03*
D13*
X88900Y462280D03*
X114300Y462280D03*
X139700Y462280D03*
X165100Y462280D03*
X190500Y462280D03*
X215900Y462280D03*
D14*
X7620Y886460D03*
X297180Y457200D03*
D15*
X25400Y868680D03*
X279400Y868680D03*
X25400Y474980D03*
X279400Y474980D03*
D10*
X411480Y540766D03*
X411480Y551180D03*
X411480Y561594D03*
D11*
X507873Y551180D03*
X518287Y551180D03*
D12*
X467360Y703580D03*
X457200Y627380D03*
D11*
X507873Y525780D03*
X518287Y525780D03*
D13*
X398780Y462280D03*
X424180Y462280D03*
X449580Y462280D03*
X474980Y462280D03*
X500380Y462280D03*
X525780Y462280D03*
D14*
X317500Y886460D03*
X607060Y457200D03*
D15*
X335280Y868680D03*
X589280Y868680D03*
X335280Y474980D03*
X589280Y474980D03*
D10*
X721360Y540766D03*
X721360Y551180D03*
X721360Y561594D03*
D11*
X817753Y551180D03*
X828167Y551180D03*
D12*
X777240Y703580D03*
X767080Y627380D03*
D11*
X817753Y525780D03*
X828167Y525780D03*
D13*
X708660Y462280D03*
X734060Y462280D03*
X759460Y462280D03*
X784860Y462280D03*
X810260Y462280D03*
X835660Y462280D03*
D14*
X627380Y886460D03*
X916940Y457200D03*
D15*
X645160Y868680D03*
X899160Y868680D03*
X645160Y474980D03*
X899160Y474980D03*
D14*
X-26238Y867410D03*
X950798Y867410D03*
D16*
X-35293Y63500D02*
X-35290Y63722D01*
X-35282Y63944D01*
X-35268Y64166D01*
X-35249Y64388D01*
X-35225Y64608D01*
X-35195Y64829D01*
X-35160Y65048D01*
X-35119Y65267D01*
X-35073Y65484D01*
X-35022Y65700D01*
X-34965Y65915D01*
X-34903Y66129D01*
X-34836Y66340D01*
X-34764Y66551D01*
X-34686Y66759D01*
X-34604Y66965D01*
X-34516Y67169D01*
X-34424Y67372D01*
X-34326Y67571D01*
X-34224Y67768D01*
X-34117Y67963D01*
X-34005Y68155D01*
X-33888Y68344D01*
X-33767Y68531D01*
X-33641Y68714D01*
X-33511Y68894D01*
X-33376Y69071D01*
X-33238Y69244D01*
X-33095Y69414D01*
X-32947Y69581D01*
X-32796Y69744D01*
X-32641Y69903D01*
X-32482Y70058D01*
X-32319Y70209D01*
X-32152Y70357D01*
X-31982Y70500D01*
X-31809Y70638D01*
X-31632Y70773D01*
X-31452Y70903D01*
X-31269Y71029D01*
X-31082Y71150D01*
X-30893Y71267D01*
X-30701Y71379D01*
X-30506Y71486D01*
X-30309Y71588D01*
X-30110Y71686D01*
X-29907Y71778D01*
X-29703Y71866D01*
X-29497Y71948D01*
X-29289Y72026D01*
X-29078Y72098D01*
X-28867Y72165D01*
X-28653Y72227D01*
X-28438Y72284D01*
X-28222Y72335D01*
X-28005Y72381D01*
X-27786Y72422D01*
X-27567Y72457D01*
X-27346Y72487D01*
X-27126Y72511D01*
X-26904Y72530D01*
X-26682Y72544D01*
X-26460Y72552D01*
X-26238Y72555D01*
X-26016Y72552D01*
X-25794Y72544D01*
X-25572Y72530D01*
X-25350Y72511D01*
X-25130Y72487D01*
X-24909Y72457D01*
X-24690Y72422D01*
X-24471Y72381D01*
X-24254Y72335D01*
X-24038Y72284D01*
X-23823Y72227D01*
X-23609Y72165D01*
X-23398Y72098D01*
X-23187Y72026D01*
X-22979Y71948D01*
X-22773Y71866D01*
X-22569Y71778D01*
X-22366Y71686D01*
X-22167Y71588D01*
X-21970Y71486D01*
X-21775Y71379D01*
X-21583Y71267D01*
X-21394Y71150D01*
X-21207Y71029D01*
X-21024Y70903D01*
X-20844Y70773D01*
X-20667Y70638D01*
X-20494Y70500D01*
X-20324Y70357D01*
X-20157Y70209D01*
X-19994Y70058D01*
X-19835Y69903D01*
X-19680Y69744D01*
X-19529Y69581D01*
X-19381Y69414D01*
X-19238Y69244D01*
X-19100Y69071D01*
X-18965Y68894D01*
X-18835Y68714D01*
X-18709Y68531D01*
X-18588Y68344D01*
X-18471Y68155D01*
X-18359Y67963D01*
X-18252Y67768D01*
X-18150Y67571D01*
X-18052Y67372D01*
X-17960Y67169D01*
X-17872Y66965D01*
X-17790Y66759D01*
X-17712Y66551D01*
X-17640Y66340D01*
X-17573Y66129D01*
X-17511Y65915D01*
X-17454Y65700D01*
X-17403Y65484D01*
X-17357Y65267D01*
X-17316Y65048D01*
X-17281Y64829D01*
X-17251Y64608D01*
X-17227Y64388D01*
X-17208Y64166D01*
X-17194Y63944D01*
X-17186Y63722D01*
X-17183Y63500D01*
X-17186Y63278D01*
X-17194Y63056D01*
X-17208Y62834D01*
X-17227Y62612D01*
X-17251Y62392D01*
X-17281Y62171D01*
X-17316Y61952D01*
X-17357Y61733D01*
X-17403Y61516D01*
X-17454Y61300D01*
X-17511Y61085D01*
X-17573Y60871D01*
X-17640Y60660D01*
X-17712Y60449D01*
X-17790Y60241D01*
X-17872Y60035D01*
X-17960Y59831D01*
X-18052Y59628D01*
X-18150Y59429D01*
X-18252Y59232D01*
X-18359Y59037D01*
X-18471Y58845D01*
X-18588Y58656D01*
X-18709Y58469D01*
X-18835Y58286D01*
X-18965Y58106D01*
X-19100Y57929D01*
X-19238Y57756D01*
X-19381Y57586D01*
X-19529Y57419D01*
X-19680Y57256D01*
X-19835Y57097D01*
X-19994Y56942D01*
X-20157Y56791D01*
X-20324Y56643D01*
X-20494Y56500D01*
X-20667Y56362D01*
X-20844Y56227D01*
X-21024Y56097D01*
X-21207Y55971D01*
X-21394Y55850D01*
X-21583Y55733D01*
X-21775Y55621D01*
X-21970Y55514D01*
X-22167Y55412D01*
X-22366Y55314D01*
X-22569Y55222D01*
X-22773Y55134D01*
X-22979Y55052D01*
X-23187Y54974D01*
X-23398Y54902D01*
X-23609Y54835D01*
X-23823Y54773D01*
X-24038Y54716D01*
X-24254Y54665D01*
X-24471Y54619D01*
X-24690Y54578D01*
X-24909Y54543D01*
X-25130Y54513D01*
X-25350Y54489D01*
X-25572Y54470D01*
X-25794Y54456D01*
X-26016Y54448D01*
X-26238Y54445D01*
X-26460Y54448D01*
X-26682Y54456D01*
X-26904Y54470D01*
X-27126Y54489D01*
X-27346Y54513D01*
X-27567Y54543D01*
X-27786Y54578D01*
X-28005Y54619D01*
X-28222Y54665D01*
X-28438Y54716D01*
X-28653Y54773D01*
X-28867Y54835D01*
X-29078Y54902D01*
X-29289Y54974D01*
X-29497Y55052D01*
X-29703Y55134D01*
X-29907Y55222D01*
X-30110Y55314D01*
X-30309Y55412D01*
X-30506Y55514D01*
X-30701Y55621D01*
X-30893Y55733D01*
X-31082Y55850D01*
X-31269Y55971D01*
X-31452Y56097D01*
X-31632Y56227D01*
X-31809Y56362D01*
X-31982Y56500D01*
X-32152Y56643D01*
X-32319Y56791D01*
X-32482Y56942D01*
X-32641Y57097D01*
X-32796Y57256D01*
X-32947Y57419D01*
X-33095Y57586D01*
X-33238Y57756D01*
X-33376Y57929D01*
X-33511Y58106D01*
X-33641Y58286D01*
X-33767Y58469D01*
X-33888Y58656D01*
X-34005Y58845D01*
X-34117Y59037D01*
X-34224Y59232D01*
X-34326Y59429D01*
X-34424Y59628D01*
X-34516Y59831D01*
X-34604Y60035D01*
X-34686Y60241D01*
X-34764Y60449D01*
X-34836Y60660D01*
X-34903Y60871D01*
X-34965Y61085D01*
X-35022Y61300D01*
X-35073Y61516D01*
X-35119Y61733D01*
X-35160Y61952D01*
X-35195Y62171D01*
X-35225Y62392D01*
X-35249Y62612D01*
X-35268Y62834D01*
X-35282Y63056D01*
X-35290Y63278D01*
X-35293Y63500D01*
D17*
X-26238Y63500D03*
M02*
