M48
;GenerationSoftware,Autodesk,EAGLE,9.6.2*%
;CreationDate,2021-11-18T22:56:32Z*%
FMAT,2
ICI,OFF
METRIC,TZ,000.000
T3C0.305
T2C1.016
T1C3.302
%
G90
M71
T1
X58928Y41910
X64516Y47498
X2540Y41910
X27940Y41910
X2540Y2540
X27940Y2540
X33528Y41910
X2540Y86868
X33528Y2540
X58928Y2540
X64516Y41910
X89916Y41910
X64516Y2540
X89916Y2540
X89916Y47498
X27940Y86868
X2540Y47498
X27940Y47498
X33528Y86868
X58928Y86868
X33528Y47498
X58928Y47498
X64516Y86868
X89916Y86868
T2
X39878Y1270
X83566Y46228
X8890Y1270
X11430Y1270
X13970Y1270
X16510Y1270
X19050Y1270
X21590Y1270
X42418Y1270
X44958Y1270
X47498Y1270
X50038Y1270
X52578Y1270
X70866Y1270
X73406Y1270
X75946Y1270
X78486Y1270
X81026Y1270
X83566Y1270
X8890Y46228
X11430Y46228
X13970Y46228
X16510Y46228
X19050Y46228
X21590Y46228
X39878Y46228
X42418Y46228
X44958Y46228
X47498Y46228
X50038Y46228
X52578Y46228
X70866Y46228
X73406Y46228
X75946Y46228
X78486Y46228
X81026Y46228
T3
X33528Y5080
X34544Y10668
X57658Y9652
X47752Y10160
X39116Y5334
X43434Y8890
X45212Y8890
X49276Y8890
X54356Y5588
X44323Y5588
X39116Y11176
X41148Y6350
X49276Y10160
X47498Y17780
X51308Y12954
X53340Y6350
X64516Y11430
X64516Y10160
X64516Y8890
X68326Y2540
X68326Y1270
X69596Y15240
X70866Y15240
X72136Y15240
X79756Y15240
X81026Y15240
X82296Y15240
X86106Y1270
X87376Y1270
X86106Y2540
X91186Y11430
X91186Y10160
X91186Y8890
X88646Y5080
X91186Y5080
X89916Y5080
X63246Y5080
X65786Y5080
X64516Y5080
X65532Y10668
X88646Y9652
X78740Y10160
X70104Y5334
X74422Y8890
X76200Y8890
X80264Y8890
X85344Y5588
X75311Y5588
X70104Y11176
X72136Y6350
X80264Y10160
X78486Y17780
X82296Y12954
X84328Y6350
X2540Y56388
X2540Y55118
X2540Y53848
X6350Y47498
X6350Y46228
X7620Y60198
X8890Y60198
X10160Y60198
X17780Y60198
X19050Y60198
X20320Y60198
X24130Y46228
X25400Y46228
X24130Y47498
X29210Y56388
X29210Y55118
X29210Y53848
X26670Y50038
X29210Y50038
X27940Y50038
X1270Y50038
X3810Y50038
X2540Y50038
X3556Y55626
X26670Y54610
X16764Y55118
X8128Y50292
X12446Y53848
X14224Y53848
X18288Y53848
X23368Y50546
X13335Y50546
X8128Y56134
X10160Y51308
X18288Y55118
X16510Y62738
X22352Y6350
X22352Y51308
X33528Y56388
X33528Y55118
X33528Y53848
X37338Y47498
X37338Y46228
X38608Y60198
X39878Y60198
X41148Y60198
X48768Y60198
X50038Y60198
X51308Y60198
X55118Y46228
X56388Y46228
X55118Y47498
X60198Y56388
X60198Y55118
X60198Y53848
X57658Y50038
X60198Y50038
X58928Y50038
X32258Y50038
X34798Y50038
X33528Y50038
X34544Y55626
X57658Y54610
X47752Y55118
X39116Y50292
X43434Y53848
X45212Y53848
X49276Y53848
X54356Y50546
X44323Y50546
X39116Y56134
X41148Y51308
X49276Y55118
X47498Y62738
X51308Y57912
X53340Y51308
X64516Y56388
X64516Y55118
X64516Y53848
X68326Y47498
X68326Y46228
X69596Y60198
X70866Y60198
X72136Y60198
X79756Y60198
X81026Y60198
X82296Y60198
X86106Y46228
X87376Y46228
X86106Y47498
X91186Y56388
X91186Y55118
X91186Y53848
X88646Y50038
X91186Y50038
X89916Y50038
X63246Y50038
X65786Y50038
X64516Y50038
X65532Y55626
X88646Y54610
X78740Y55118
X70104Y50292
X74422Y53848
X76200Y53848
X80264Y53848
X85344Y50546
X75311Y50546
X70104Y56134
X72136Y51308
X80264Y55118
X2540Y11430
X82296Y57912
X84328Y51308
X2540Y10160
X2540Y8890
X6350Y2540
X6350Y1270
X7620Y15240
X8890Y15240
X10160Y15240
X17780Y15240
X19050Y15240
X20320Y15240
X24130Y1270
X25400Y1270
X24130Y2540
X29210Y11430
X29210Y10160
X29210Y8890
X26670Y5080
X29210Y5080
X27940Y5080
X1270Y5080
X3810Y5080
X2540Y5080
X3556Y10668
X26670Y9652
X15748Y25400
X14732Y17780
X16764Y10160
X8128Y5334
X12446Y8890
X14224Y8890
X18288Y8890
X23368Y5588
X46736Y25400
X45720Y17780
X20320Y57912
X13335Y5588
X8128Y11176
X10160Y6350
X18288Y10160
X16510Y17780
X77724Y25400
X76708Y17780
X20320Y12954
X33528Y11430
X33528Y10160
X33528Y8890
X37338Y2540
X37338Y1270
X15748Y70358
X14732Y62738
X38608Y15240
X39878Y15240
X41148Y15240
X48768Y15240
X50038Y15240
X51308Y15240
X46736Y70358
X45720Y62738
X55118Y1270
X56388Y1270
X55118Y2540
X60198Y11430
X60198Y10160
X60198Y8890
X77724Y70358
X76708Y62738
X57658Y5080
X60198Y5080
X58928Y5080
X32258Y5080
X34798Y5080
X78486Y62738
M30